<?xml version="1.0" standalone="no"?>
<!DOCTYPE svg PUBLIC "-//W3C//DTD SVG 1.1//EN" "http://www.w3.org/Graphics/SVG/1.1/DTD/svg11.dtd" >
<svg xmlns="http://www.w3.org/2000/svg">
<metadata>
Created by FontPrep 20130207 at Tue Apr  4 11:46:18 2017
 By Mario Vina
Copyright (c) Nutanix, 2016. All rights reserved.
</metadata>
<defs>
<font id="cc1d640fd5b44fd80969996f49e94bad" horiz-adv-x='1024' >
  <font-face 
    font-family="NutanixSoft-Semibold"
    font-weight="600"
    font-stretch="normal"
    units-per-em="2048"
    panose-1="0 0 7 0 0 0 0 0 0 0"
    ascent="1587"
    descent="-461"
    x-height="989"
    cap-height="1378"
    bbox="-313 -563 2210 1860"
    underline-thickness="40"
    underline-position="-272"
    unicode-range="U+000D-FB02"
  />
<missing-glyph horiz-adv-x="1007" 
d="M209 1479v-1602h590v1602h-590zM864 1468v-1581q0 -29 -22 -51t-49 -20h-576q-29 0 -51 22t-21 49v1581q0 29 22 51t50 21h576q29 0 50 -22t21 -50z" />
    <glyph glyph-name="fi" unicode="fi" horiz-adv-x="1132" 
d="M993 895v-799q-1 -45 -33 -77q-32 -31 -77 -31t-77 32t-32 76v799q0 43 32 75t78 32t78 -32q31 -32 31 -75zM883 1378q55 0 95 -39t40 -95t-40 -95t-95 -39t-96 39q-39 39 -39 95t39 95q41 39 96 39zM412 1051v-62h118q39 -1 67 -29t28 -67t-28 -68t-67 -28h-118v-701
q0 -45 -33 -77q-33 -31 -79 -31t-78 32t-32 76v701h-81q-39 1 -67 29t-28 68t28 68t67 27h81v62q0 155 88 245t236 90q150 0 150 -90q0 -36 -20 -62t-56 -26l-41 4q-61 0 -98 -42t-37 -119z" />
    <glyph glyph-name="fl" unicode="fl" horiz-adv-x="1132" 
d="M993 1272v-1176q-1 -45 -33 -77q-32 -31 -77 -31t-77 32t-32 76v1176q0 43 32 75q32 31 78 31t78 -31q31 -32 31 -75zM412 1051v-62h118q39 -1 67 -29t28 -67t-28 -68t-67 -28h-118v-701q0 -45 -33 -77q-33 -31 -79 -31t-78 32t-32 76v701h-81q-39 1 -67 29t-28 68t28 68
t67 27h81v62q0 155 88 245t236 90q150 0 150 -90q0 -36 -20 -62t-56 -26l-41 4q-61 0 -98 -42t-37 -119z" />
    <glyph glyph-name=".notdef" horiz-adv-x="1007" 
d="M209 1479v-1602h590v1602h-590zM864 1468v-1581q0 -29 -22 -51t-49 -20h-576q-29 0 -51 22t-21 49v1581q0 29 22 51t50 21h576q29 0 50 -22t21 -50z" />
    <glyph glyph-name=".null" horiz-adv-x="0" 
 />
    <glyph glyph-name="nonmarkingreturn" horiz-adv-x="681" 
 />
    <glyph glyph-name="NULL" horiz-adv-x="0" 
 />
    <glyph glyph-name="NULL" horiz-adv-x="0" 
 />
    <glyph glyph-name="CR" unicode="&#xd;" horiz-adv-x="0" 
 />
    <glyph glyph-name="space" unicode=" " horiz-adv-x="526" 
 />
    <glyph glyph-name="exclam" unicode="!" horiz-adv-x="503" 
d="M397 124q0 -58 -43 -101t-102 -43t-101 43t-42 101t42 101t101 43t102 -43t43 -101zM381 1250q0 -52 -31 -748q-2 -41 -30 -68q-28 -26 -68 -26q-41 0 -69 26t-29 68q-31 696 -32 748t37 90t93 38t92 -38t37 -90z" />
    <glyph glyph-name="quotedbl" unicode="&#x22;" horiz-adv-x="782" 
d="M684 1271q0 -44 -63 -440q-11 -47 -59 -47t-56 47q-66 367 -66 425t36 95q36 35 87 35t86 -36t35 -79zM344 1277q0 -38 -65 -446q-7 -47 -57 -47t-58 47q-66 367 -66 425t36 95q36 35 86 35t87 -36t37 -73z" />
    <glyph glyph-name="numbersign" unicode="#" horiz-adv-x="1243" 
d="M459 500h205l120 366h-204zM1118 1008q28 0 48 -22t20 -51q0 -30 -20 -49t-48 -20h-166l-123 -366h127q30 0 50 -22t20 -52t-20 -49q-20 -20 -50 -21h-174l-106 -315q-16 -53 -76 -53q-36 0 -58 22t-22 42q0 19 4 36l92 268h-206l-107 -317q-16 -53 -76 -53
q-35 -2 -62 28t-11 74l90 268h-113q-29 0 -51 20t-21 52q0 31 22 51t50 21h162l121 366h-121q-29 0 -48 20t-19 51q0 30 20 50t47 21h170l104 317q16 51 74 51q35 0 57 -22t23 -46q0 -24 -2 -30l-90 -270h207l104 317q16 51 74 51q36 0 58 -22t22 -46t-2 -32l-93 -268h119z
" />
    <glyph glyph-name="dollar" unicode="$" horiz-adv-x="1241" 
d="M909 375q0 63 -50 101t-142 67v-346q96 15 144 65t48 113zM365 1010q0 -61 47 -95t137 -61v315q-84 -10 -134 -54t-50 -105zM717 -137q0 -33 -25 -57q-26 -24 -60 -24t-59 24t-24 57v117q-131 10 -251 56t-175 118q-23 30 -23 70t34 75t74 35t73 -23q123 -94 268 -114
v391q-95 24 -159 48q-182 67 -239 182q-36 71 -36 167q1 161 119 271t315 126v123q0 33 24 57q25 24 60 24t59 -24t25 -57v-125q254 -29 354 -147q23 -27 23 -68t-36 -75t-68 -33q-32 0 -58 10q-143 78 -215 92v-348q255 -67 349 -164t93 -257q1 -158 -111 -274t-331 -136
v-117z" />
    <glyph glyph-name="percent" unicode="%" horiz-adv-x="1529" 
d="M1315 312q0 90 -51 146t-130 56q-80 0 -130 -56t-50 -146q0 -89 50 -144t130 -55q79 0 130 55t51 144zM1133 653q150 -1 246 -99t96 -242q-1 -144 -97 -240t-246 -96t-243 94q-94 96 -94 242t94 244t244 97zM575 1047q0 89 -50 145t-129 55t-129 -57t-50 -144t50 -144
t129 -56t129 56t50 145zM1237 1324q0 -18 -8 -34l-817 -1278q-14 -24 -43 -24t-46 16q-32 30 -10 72l815 1278q20 24 46 24t45 -18q18 -18 18 -36zM397 709q-151 0 -245 95t-94 241q0 145 94 243t246 98t245 -98q94 -98 94 -243q0 -146 -94 -241t-246 -95z" />
    <glyph glyph-name="ampersand" unicode="&#x26;" horiz-adv-x="1318" 
d="M293 385q1 -106 69 -171q68 -64 176 -64t222 96q-195 209 -318 381q-149 -103 -149 -242zM636 1225q-64 0 -109 -47q-46 -47 -46 -123t68 -201q113 54 171 108t58 124t-39 104q-39 35 -103 35zM1157 84q0 -34 -30 -67q-30 -32 -72 -31q-55 0 -174 133
q-166 -143 -370 -143t-328 100q-124 102 -124 289q0 143 79 235t216 164q-96 174 -96 306t106 224t260 92t250 -76t96 -212q1 -182 -211 -304q-48 -28 -128 -67q79 -109 166 -207q86 -98 100 -114q61 94 107 204q20 55 86 56q40 0 68 -29t28 -59q0 -83 -164 -310
q12 -14 55 -54t61 -68t19 -62z" />
    <glyph glyph-name="quotesingle" unicode="'" horiz-adv-x="440" 
d="M344 1277q0 -38 -65 -446q-7 -47 -57 -47t-58 47q-66 367 -66 425t36 95q36 35 86 35t87 -36t37 -73z" />
    <glyph glyph-name="parenleft" unicode="(" horiz-adv-x="569" 
d="M483 -296q1 -28 -27 -58t-70 -31q-42 0 -64 35q-125 174 -196 399t-71 449t71 448q71 225 196 402q24 32 66 32t69 -28q42 -44 16 -109q-180 -365 -180 -747t180 -738q10 -26 10 -54z" />
    <glyph glyph-name="parenright" unicode=")" horiz-adv-x="569" 
d="M516 498q0 -222 -72 -448t-194 -400q-25 -35 -67 -35q-43 0 -69 30q-26 31 -26 63t8 50q180 354 180 738t-180 747q-10 20 -10 49t27 59q27 29 69 29t66 -32q124 -176 196 -402t72 -448z" />
    <glyph glyph-name="asterisk" unicode="*" horiz-adv-x="710" 
d="M356 1399q25 -1 41 -17t15 -39l-11 -186l156 98q9 9 29 9t38 -14t17 -46q0 -31 -27 -43l-165 -84l163 -86q29 -12 29 -40t-16 -45q-17 -17 -37 -17t-31 8l-156 100l11 -186q2 -23 -16 -39t-42 -16q-25 0 -40 16t-15 39l8 186l-157 -100q-14 -10 -30 -10t-35 17
q-17 17 -17 46t28 41l164 86l-164 84q-28 16 -28 44t16 44q31 30 68 8l155 -100l-8 186q0 25 16 41t41 15z" />
    <glyph glyph-name="plus" unicode="+" horiz-adv-x="1028" 
d="M913 762q29 0 49 -20t19 -51q0 -30 -19 -50t-49 -20h-321v-361q0 -32 -23 -54t-55 -22t-54 22t-22 54v361h-321q-29 0 -49 20t-20 51t20 50t49 20h321v346q0 30 23 52t55 22t54 -22t22 -52v-346h321z" />
    <glyph glyph-name="comma" unicode="," horiz-adv-x="503" 
d="M410 80q0 -184 -158 -326q-20 -16 -44 -16t-46 16t-21 42q0 26 19 44q92 78 104 160q-12 -6 -50 -6t-73 37t-35 95t41 100t104 42t111 -51t48 -137z" />
    <glyph glyph-name="hyphen" unicode="-" horiz-adv-x="614" 
d="M473 590q39 0 65 -26t27 -67q-1 -40 -27 -68t-65 -28h-332q-39 0 -65 28t-27 68q0 41 27 67t65 26h332z" />
    <glyph glyph-name="period" unicode="." horiz-adv-x="503" 
d="M397 123q0 -59 -43 -103t-102 -43q-59 0 -102 43q-44 42 -44 102t44 103t102 43q59 0 102 -43t43 -102z" />
    <glyph glyph-name="slash" unicode="/" horiz-adv-x="647" 
d="M547 1423q31 0 53 -22q22 -21 23 -41q0 -20 -5 -37l-442 -1329q-16 -51 -74 -51q-33 0 -63 29t-10 71l442 1329q20 51 76 51z" />
    <glyph glyph-name="zero" unicode="0" horiz-adv-x="1263" 
d="M930 682q0 215 -72 351t-226 136t-228 -136q-72 -136 -72 -351t72 -352t228 -137q154 0 226 137t72 352zM1050 1163q130 -204 130 -479t-130 -483q-66 -101 -174 -163t-245 -62t-246 60q-109 62 -172 164q-129 210 -129 482q0 403 237 598q128 106 310 106q137 0 246 -60
t173 -163z" />
    <glyph glyph-name="one" unicode="1" horiz-adv-x="784" 
d="M641 1239v-1130q0 -49 -37 -85t-87 -36t-86 36t-36 85v940l-164 -170q-27 -29 -67 -29t-72 30q-31 30 -31 72t31 74l305 309q37 41 99 41t103 -40q42 -40 42 -97z" />
    <glyph glyph-name="two" unicode="2" horiz-adv-x="1218" 
d="M1001 215q43 -1 75 -31t32 -75t-32 -77t-75 -32h-800q-45 0 -79 34t-34 91t49 94q397 299 549 455t152 291q0 98 -72 151t-174 53q-172 0 -299 -100q-35 -25 -74 -25t-72 32t-33 70t19 66q61 78 193 126t262 48q211 0 355 -112t144 -300q0 -186 -145 -360t-446 -399h505z
" />
    <glyph glyph-name="three" unicode="3" horiz-adv-x="1177" 
d="M1083 373q0 -176 -141 -287t-377 -111q-151 1 -283 51t-190 130q-18 26 -18 62t32 69q33 33 71 33t69 -21q141 -106 313 -106q131 0 206 55t75 149q0 190 -248 191q-74 -6 -123 20t-49 80q0 55 31 86t79 31q145 0 216 37t71 133t-77 145t-195 49q-160 0 -287 -96
q-30 -18 -66 -18q-36 -1 -69 29t-33 75t37 72q176 156 440 155q225 0 361 -99t135 -265q0 -166 -99 -270q-24 -25 -38 -35l-17 -12q7 -5 19 -11t42 -34t54 -62t41 -94q18 -61 18 -131z" />
    <glyph glyph-name="four" unicode="4" horiz-adv-x="1191" 
d="M709 522v625l-412 -625h412zM1147 414q0 -45 -31 -76t-74 -31h-90v-198q0 -49 -36 -85t-86 -36t-86 36t-35 85v198h-539q-51 0 -88 38t-37 87t23 88l491 760q29 45 80 72t104 26q84 10 147 -33q62 -44 62 -122v-701h90q43 0 74 -32t31 -76z" />
    <glyph glyph-name="five" unicode="5" horiz-adv-x="1230" 
d="M1147 434q1 -207 -145 -333t-379 -126q-145 0 -275 45t-186 123q-18 25 -18 64t33 72q34 33 75 33t74 -21q123 -98 295 -98q125 1 201 69t77 172q0 104 -74 170q-73 64 -207 64t-241 -78q-41 -31 -96 -31t-90 33q-34 33 -33 84v543q0 59 43 103t104 44h658q43 0 73 -32
t31 -77q0 -45 -31 -75t-73 -31h-562v-389q119 119 305 119t313 -120q128 -120 128 -327z" />
    <glyph glyph-name="six" unicode="6" horiz-adv-x="1230" 
d="M907 431q0 95 -68 165q-69 70 -181 70t-188 -69q-75 -69 -75 -164t67 -169q68 -74 188 -74t189 73q68 73 68 168zM1155 441q0 -201 -140 -333t-366 -133q-285 0 -425 198t-140 507t159 508t445 198q111 0 208 -32t146 -97q16 -27 16 -63t-33 -68q-34 -30 -73 -30t-61 16
q-82 57 -203 57q-160 -1 -259 -123t-99 -280q0 -45 2 -59q31 73 128 121t216 49q197 0 338 -117t141 -319z" />
    <glyph glyph-name="seven" unicode="7" horiz-adv-x="1091" 
d="M1057 1259q0 -37 -10 -61l-504 -1137q-31 -74 -115 -73q-51 0 -87 37t-36 71t10 60l447 995h-612q-45 0 -76 32t-31 77q0 46 31 76t76 30h788q45 0 82 -35t37 -72z" />
    <glyph glyph-name="eight" unicode="8" horiz-adv-x="1220" 
d="M889 388q0 94 -81 150t-198 56q-118 0 -198 -56t-80 -150t80 -146q80 -54 198 -54t198 54q81 54 81 146zM866 987q0 88 -71 137q-72 50 -185 50q-112 0 -184 -50t-72 -137q0 -88 72 -136t186 -48t184 48t70 136zM1137 350q0 -176 -153 -275t-374 -99q-220 0 -372 98
q-152 100 -152 276q0 138 59 232t144 123q-180 78 -180 323q0 90 44 162q78 127 281 177q204 50 416 -16q110 -36 188 -120t78 -203q0 -244 -184 -323q86 -29 146 -123t59 -232z" />
    <glyph glyph-name="nine" unicode="9" horiz-adv-x="1230" 
d="M582 1174q-120 0 -190 -73q-68 -73 -68 -168t68 -165t182 -70q112 0 187 69t75 164t-67 169t-187 74zM76 923q0 201 140 333t366 133q285 0 425 -198t140 -507t-159 -508t-445 -199q-111 0 -208 33t-147 96q-16 27 -16 64t34 68q34 30 73 30t61 -16q82 -57 203 -57
q160 1 259 123t99 280q0 45 -2 59q-31 -73 -128 -121t-216 -49q-197 0 -338 117t-141 319z" />
    <glyph glyph-name="colon" unicode=":" horiz-adv-x="497" 
d="M397 123q0 -59 -43 -103t-102 -43q-59 0 -102 43q-44 42 -44 102t44 103t102 43q59 0 102 -43t43 -102zM397 858q0 -59 -43 -102t-102 -43t-102 43t-44 102q0 58 44 102t102 44q59 0 102 -44t43 -102z" />
    <glyph glyph-name="semicolon" unicode=";" horiz-adv-x="503" 
d="M410 82q0 -184 -158 -326q-20 -16 -44 -16t-46 16t-21 42q0 26 19 42q92 82 104 162q-12 -6 -50 -6t-73 37t-35 95t41 100t104 42t111 -51t48 -137zM397 858q0 -59 -43 -102t-102 -43t-102 43t-44 102q0 58 44 102t102 44q59 0 102 -44t43 -102z" />
    <glyph glyph-name="less" unicode="&#x3c;" horiz-adv-x="1028" 
d="M979 306q0 -42 -24 -64t-45 -21q-21 0 -36 6l-763 357q-63 28 -63 102t63 100l763 359q10 4 34 4t48 -22q24 -23 23 -63q0 -40 -43 -60l-711 -320l711 -317q43 -19 43 -61z" />
    <glyph glyph-name="equal" unicode="=" horiz-adv-x="1028" 
d="M913 559q29 0 49 -19t19 -49q0 -31 -19 -51t-49 -20h-798q-29 0 -48 20t-19 50t18 50q20 19 49 19h798zM911 950q27 0 49 -20t21 -50q0 -30 -20 -52t-50 -21h-794q-29 -1 -49 21t-20 52t21 50q22 20 48 20h794z" />
    <glyph glyph-name="greater" unicode="&#x3e;" horiz-adv-x="1028" 
d="M981 685q0 -73 -63 -101l-766 -357q-12 -6 -35 -6t-47 22q-24 23 -23 63q0 40 43 61l713 317l-711 320q-45 20 -46 61t23 63t49 21q25 0 36 -4l764 -359q63 -28 63 -101z" />
    <glyph glyph-name="question" unicode="?" horiz-adv-x="937" 
d="M606 123q0 -59 -43 -103t-102 -43t-103 45t-43 102q0 58 43 101q42 43 102 43t103 -43t43 -102zM639 1015q0 154 -205 154q-107 0 -201 -79q-33 -23 -73 -23t-71 29q-30 30 -30 68t15 61q53 77 168 119t231 42q190 0 303 -90t113 -231q0 -84 -37 -151q-37 -66 -90 -108
q-54 -42 -108 -78q-128 -85 -128 -171l15 -70q0 -37 -27 -65t-77 -29q-50 1 -88 57t-38 127q0 126 116 218q48 37 96 69q116 78 116 151z" />
    <glyph glyph-name="at" unicode="@" horiz-adv-x="1603" 
d="M717 332q89 0 169 74t107 186l6 35q23 104 -26 170t-131 65q-131 0 -222 -101t-92 -231q0 -88 50 -143t139 -55zM885 1307q285 -1 465 -185t180 -434t-119 -382t-266 -132q-86 0 -136 46t-59 118q-57 -74 -139 -119t-168 -45q-145 0 -231 94t-86 246q0 206 144 356
t327 150q93 0 159 -40t99 -106l10 54q6 33 33 53q28 20 66 20t71 -32t18 -78l-88 -422q-6 -37 -6 -65t24 -54q24 -25 60 -24q73 0 139 88t66 258q0 248 -157 404t-414 155q-293 0 -511 -219t-219 -508q0 -246 165 -410t417 -164q184 0 352 99q7 4 19 4t24 -10q12 -11 12 -27
t-14 -25q-190 -115 -401 -114q-279 0 -464 185t-185 458q0 326 246 566t567 241z" />
    <glyph glyph-name="A" unicode="A" horiz-adv-x="1380" 
d="M446 475h486l-242 645zM1323 119q0 -51 -37 -91t-94 -40q-86 0 -119 80l-72 190h-622l-74 -190q-31 -80 -119 -80q-57 0 -94 39t-37 79t11 58l426 1085q23 57 74 93q52 36 117 38t122 -34t82 -97l428 -1085q8 -29 8 -45z" />
    <glyph glyph-name="B" unicode="B" horiz-adv-x="1331" 
d="M987 397q0 85 -55 139t-152 54h-391v-377h391q96 0 152 50q55 50 55 134zM961 977q1 78 -51 127t-140 49h-381v-350h381q88 0 140 48t51 126zM1237 369q0 -165 -105 -267t-292 -102h-547q-61 0 -105 44q-43 44 -43 103v1072q0 59 43 103t105 44h528q181 0 285 -99
t104 -235t-68 -222q-68 -85 -169 -105q111 -15 187 -113t77 -223z" />
    <glyph glyph-name="C" unicode="C" horiz-adv-x="1398" 
d="M795 1389q301 0 487 -213q27 -33 27 -76t-35 -76t-84 -33t-86 39q-126 141 -316 141t-322 -138t-132 -350t133 -351t325 -139t312 139q39 39 88 39t82 -33t33 -76t-25 -74q-186 -213 -487 -213t-506 198t-205 509t205 509t506 198z" />
    <glyph glyph-name="D" unicode="D" horiz-adv-x="1456" 
d="M1120 685q0 202 -123 334t-342 132h-266v-936h266q215 0 340 134t125 336zM1372 681q0 -302 -198 -492q-199 -189 -519 -189h-362q-61 0 -105 44q-43 44 -43 103v1072q0 59 43 103t105 44h362q319 0 519 -191q198 -192 198 -494z" />
    <glyph glyph-name="E" unicode="E" horiz-adv-x="1183" 
d="M991 215q43 -1 74 -31t31 -75t-31 -77t-74 -32h-698q-61 0 -105 44q-43 44 -43 103v1072q0 59 43 103t105 44h698q43 0 74 -32t31 -77t-31 -75t-74 -31h-602v-348h588q43 0 74 -32t31 -77t-32 -76q-30 -31 -73 -30h-588v-373h602z" />
    <glyph glyph-name="F" unicode="F" horiz-adv-x="1153" 
d="M1096 1257q0 -45 -31 -75t-74 -31h-602v-348h588q43 0 74 -32t31 -77t-32 -76q-30 -31 -73 -30h-588v-479q0 -49 -37 -85t-87 -36t-85 36t-35 85v1110q0 59 43 103t105 44h698q43 0 74 -32t31 -77z" />
    <glyph glyph-name="G" unicode="G" horiz-adv-x="1468" 
d="M1364 588v-146q0 -211 -169 -340t-394 -129q-303 0 -510 197t-207 512t207 511t504 196t485 -195q31 -31 31 -77t-34 -79q-34 -32 -81 -32t-82 34q-132 131 -324 131t-324 -138t-132 -350t133 -351t334 -139q117 1 218 67t101 176v84h-309q-43 0 -74 32t-31 77t31 76
t74 30h406q61 0 104 -44t43 -103z" />
    <glyph glyph-name="H" unicode="H" horiz-adv-x="1482" 
d="M1339 1260v-1151q-1 -49 -37 -85t-88 -36t-86 36q-35 36 -34 85v485h-705v-485q0 -49 -37 -85t-87 -36t-85 36t-35 85v1151q0 50 36 84t86 34t86 -36t36 -82v-451h705v451q0 50 36 84t86 34q52 0 88 -36t35 -82z" />
    <glyph glyph-name="I" unicode="I" horiz-adv-x="534" 
d="M389 1260v-1151q0 -49 -37 -85t-87 -36t-85 36t-35 85v1151q0 50 36 84t86 34t86 -36t36 -82z" />
    <glyph glyph-name="J" unicode="J" horiz-adv-x="987" 
d="M842 1260v-826q0 -227 -127 -343t-347 -116t-311 117q-20 27 -20 65q0 39 34 71t64 32t51 -10q106 -57 174 -57q109 -1 174 67t64 178v822q0 50 36 84t87 34t86 -36t35 -82z" />
    <glyph glyph-name="K" unicode="K" horiz-adv-x="1275" 
d="M1145 101q0 -41 -34 -77t-88 -36t-87 45l-428 540l-119 -139v-325q0 -49 -37 -85t-87 -36t-85 36t-35 85v1151q0 50 36 84t86 34t86 -36t36 -82v-541l504 616q33 39 84 39t86 -33t35 -77t-25 -72l-405 -471l452 -547q25 -31 25 -73z" />
    <glyph glyph-name="L" unicode="L" horiz-adv-x="1060" 
d="M895 215q43 -1 75 -31t31 -75q1 -45 -31 -77t-75 -32h-602q-61 0 -105 44q-43 44 -43 103v1113q0 50 36 84t86 34t86 -36t36 -82v-1045h506z" />
    <glyph glyph-name="M" unicode="M" horiz-adv-x="1714" 
d="M1571 1217v-1108q0 -49 -37 -85t-88 -36t-86 36t-35 85v892l-393 -905q-20 -47 -76 -47t-76 47l-391 905v-892q0 -49 -37 -85t-87 -36t-85 36t-35 85v1108q0 63 45 108t109 45q180 14 236 -115l321 -792l324 792q23 53 69 84q47 31 105 31q88 10 152 -32t65 -121z" />
    <glyph glyph-name="N" unicode="N" horiz-adv-x="1476" 
d="M1331 1260v-1127q0 -59 -43 -102q-44 -43 -114 -43t-115 61l-670 918v-858q0 -49 -37 -85t-87 -36t-85 36t-35 85v1116q0 61 46 107t121 46t124 -65l651 -885v832q0 46 37 82t87 36t85 -36t35 -82z" />
    <glyph glyph-name="O" unicode="O" horiz-adv-x="1566" 
d="M1231 682q0 213 -124 351t-325 138q-200 0 -324 -138t-124 -351t124 -351t324 -138t325 138q124 138 124 351zM1483 682q0 -307 -197 -507t-503 -200q-307 0 -503 200t-196 507t197 507t503 200t502 -200q197 -200 197 -507z" />
    <glyph glyph-name="P" unicode="P" horiz-adv-x="1249" 
d="M946 937q0 95 -64 155q-65 59 -165 59h-328v-428h328q100 0 165 59q64 60 64 155zM750 1366q206 0 326 -124t120 -305t-120 -305t-326 -124h-361v-399q0 -49 -37 -85t-87 -36t-85 36t-35 85v1110q0 59 43 103t105 44h457z" />
    <glyph glyph-name="Q" unicode="Q" horiz-adv-x="1566" 
d="M1231 700q0 196 -124 333q-124 138 -325 138q-200 0 -324 -138t-124 -351t124 -351t324 -138q102 0 189 40l-105 117q-26 29 -26 70t32 76q33 34 80 34t82 -36l107 -121q90 131 90 327zM1483 689q0 -300 -183 -499l50 -53q24 -31 24 -71t-33 -75q-33 -34 -81 -34t-80 39
l-58 61q-152 -82 -340 -82q-306 0 -502 200t-196 507t197 507t503 200t502 -200q197 -200 197 -500z" />
    <glyph glyph-name="R" unicode="R" horiz-adv-x="1290" 
d="M389 723h326q100 0 166 58q65 59 65 155t-65 156q-66 59 -166 59h-326v-428zM1196 936q0 -156 -83 -260t-206 -144l238 -366q16 -29 16 -67q0 -39 -35 -75q-34 -36 -94 -36t-94 59l-281 461h-268v-399q0 -49 -37 -85t-87 -36t-85 36t-35 85v1110q0 59 43 103t105 44h457
q202 0 324 -118t122 -312z" />
    <glyph glyph-name="S" unicode="S" horiz-adv-x="1218" 
d="M1143 399q0 -184 -133 -304t-396 -120q-156 -1 -297 47t-208 128q-25 30 -25 72t35 77t78 35t69 -21q162 -123 359 -123q133 0 201 56t69 120q0 116 -158 166q-71 23 -155 42q-195 44 -324 118q-70 41 -114 116t-44 177q0 174 138 288t360 113q131 0 263 -40t196 -109
q25 -27 25 -70t-38 -75t-78 -33q-40 0 -69 20q-139 92 -319 92q-104 0 -166 -46t-62 -109t44 -98q44 -36 114 -56t154 -40t168 -51q84 -30 155 -73q70 -43 114 -119t44 -180z" />
    <glyph glyph-name="T" unicode="T" horiz-adv-x="1181" 
d="M1139 1257q0 -45 -32 -75t-75 -31h-317v-1042q0 -49 -37 -85t-88 -36t-86 36t-35 85v1042h-317q-45 0 -76 32t-31 77q0 46 31 76t76 30h880q43 0 75 -32t32 -77z" />
    <glyph glyph-name="U" unicode="U" horiz-adv-x="1474" 
d="M1331 1257v-716q-1 -262 -151 -414t-442 -152t-442 152t-151 412v718q0 49 36 85t88 36t87 -36t35 -85v-710q0 -164 90 -259t257 -95t256 95t89 259v710q0 49 37 85t89 36t87 -36t35 -85z" />
    <glyph glyph-name="V" unicode="V" horiz-adv-x="1380" 
d="M1325 1265q0 -37 -10 -61l-426 -1087q-23 -57 -75 -93t-114 -36h-20q-61 0 -115 36q-53 36 -76 93l-426 1087q-8 18 -8 56t37 78t85 40q98 0 128 -84l385 -1028l383 1028q14 37 48 61q34 23 81 23t85 -38t38 -75z" />
    <glyph glyph-name="W" unicode="W" horiz-adv-x="1853" 
d="M1804 1260q0 -14 -4 -35l-319 -1116q-13 -53 -59 -87t-101 -34h-4q-57 0 -100 34t-56 87l-235 892l-236 -892q-12 -53 -56 -87t-99 -34h-5q-57 0 -100 32t-57 86l-320 1121q-6 14 -6 48t37 73q37 38 87 38t86 -28t48 -72l244 -964l258 966q10 39 45 65q35 25 76 25
q42 0 74 -26t42 -64l259 -966l241 964q10 43 47 71q37 27 88 27t88 -36t37 -88z" />
    <glyph glyph-name="X" unicode="X" horiz-adv-x="1355" 
d="M1245 103q0 -43 -34 -79t-90 -36t-91 49l-352 493l-356 -495q-30 -47 -86 -47t-91 32t-35 78q0 45 21 74l385 528l-358 496q-20 29 -20 69q0 39 33 75q34 36 90 36t95 -51l322 -457l319 457q35 51 91 51t93 -34q36 -34 36 -76t-21 -70l-356 -494l385 -528q20 -29 20 -71z
" />
    <glyph glyph-name="Y" unicode="Y" horiz-adv-x="1306" 
d="M1088 1376q56 0 90 -34t34 -74q0 -41 -16 -66l-420 -637v-456q0 -49 -36 -85t-87 -36t-86 36t-35 85v456l-423 639q-19 25 -19 64q0 40 34 74t91 34t92 -53l346 -539l342 539q37 53 93 53z" />
    <glyph glyph-name="Z" unicode="Z" horiz-adv-x="1206" 
d="M1022 215q42 -1 74 -31t32 -75t-32 -77t-74 -32h-811q-51 0 -91 39t-40 91t24 89l678 932h-598q-42 0 -74 32t-32 77q0 46 32 76t74 30h803q49 0 87 -39t38 -91t-29 -91l-673 -930h612z" />
    <glyph glyph-name="bracketleft" unicode="[" horiz-adv-x="544" 
d="M522 -313q0 -31 -22 -54t-49 -22h-211q-61 0 -106 44q-44 44 -44 103v1483q0 59 44 103t106 45h211q29 0 51 -23q22 -24 20 -54q0 -30 -22 -52t-49 -21h-199v-1479h199q29 0 50 -21t21 -52z" />
    <glyph glyph-name="backslash" unicode="\" horiz-adv-x="647" 
d="M623 8q0 -18 -22 -42t-56 -23q-53 0 -74 51l-442 1329q-4 8 -4 31q1 22 23 46t50 24q58 -1 78 -52l442 -1329q5 -17 5 -35z" />
    <glyph glyph-name="bracketright" unicode="]" horiz-adv-x="544" 
d="M453 1241v-1483q0 -59 -43 -103t-105 -44h-209q-30 -1 -52 21t-22 54t22 54t52 20h197v1479h-197q-30 0 -52 23q-22 24 -22 54t22 52t52 21h209q61 0 105 -44q43 -45 43 -104z" />
    <glyph glyph-name="asciicircum" unicode="^" horiz-adv-x="897" 
d="M819 736q1 -22 -21 -44t-63 -22t-59 41l-230 501l-225 -501q-18 -41 -59 -41t-64 22q-39 36 -14 82l260 539q31 65 106 65t105 -65l258 -539q6 -16 6 -38z" />
    <glyph glyph-name="underscore" unicode="_" horiz-adv-x="1155" 
d="M1102 -82q28 0 50 -22t22 -53t-22 -53t-50 -21h-1047q-31 -1 -53 21t-20 54q0 32 21 53q22 22 52 21h1047z" />
    <glyph glyph-name="grave" unicode="`" horiz-adv-x="493" 
d="M430 1184q0 -23 -17 -40q-36 -36 -77 -3l-217 188q-21 18 -21 46q0 27 20 49t48 22q27 0 51 -21l197 -202q16 -16 16 -39z" />
    <glyph glyph-name="a" unicode="a" horiz-adv-x="1099" 
d="M741 453h-213q-227 0 -227 -154q0 -78 58 -125q57 -47 153 -47t163 73t66 171v82zM961 655v-559q0 -45 -32 -77t-77 -31h-12q-31 0 -65 26t-34 76q-119 -115 -297 -115q-138 0 -252 88t-114 243q0 154 108 226t279 72h276v25q0 86 -64 144q-65 58 -181 58t-220 -75
q-57 -35 -104 9q-27 25 -27 57t17 52q53 68 166 104t219 36q182 0 298 -86t116 -273z" />
    <glyph glyph-name="b" unicode="b" horiz-adv-x="1191" 
d="M887 494q0 143 -76 234t-203 91q-96 0 -173 -89t-77 -228v-19q0 -139 77 -226t173 -87q127 0 203 90t76 234zM674 1014q194 0 316 -142t122 -380t-122 -377t-316 -140q-227 0 -316 160v-39q0 -45 -32 -77q-32 -31 -78 -31q-45 0 -77 32t-32 76v1176q0 43 32 75
q32 31 78 31t78 -32t31 -74v-418q90 160 316 160z" />
    <glyph glyph-name="c" unicode="c" horiz-adv-x="1017" 
d="M940 153q0 -42 -33 -67q-121 -111 -331 -111q-210 1 -354 147t-144 372t143 373q143 146 369 147q113 0 203 -36t131 -97q14 -16 14 -51t-31 -62t-69 -27t-66 21q-76 57 -172 57q-133 0 -215 -90t-82 -233q0 -142 82 -234t215 -92q94 0 172 59q29 21 67 21q37 0 69 -28
t32 -69z" />
    <glyph glyph-name="d" unicode="d" horiz-adv-x="1191" 
d="M834 483v21q0 139 -78 227t-190 88t-187 -91q-76 -91 -76 -234q0 -144 76 -234q75 -90 187 -90t190 87t78 226zM1053 1270v-1174q0 -45 -33 -77q-33 -31 -78 -31t-77 32t-31 76v39q-92 -160 -318 -160q-194 -1 -316 139t-122 378t123 380t315 142q225 0 318 -160v416
q0 45 31 77q32 31 78 31t78 -32t32 -76z" />
    <glyph glyph-name="e" unicode="e" horiz-adv-x="1140" 
d="M584 838q-128 0 -200 -80q-71 -80 -79 -183h549q-4 99 -73 181t-197 82zM1065 533q0 -47 -32 -81t-75 -34h-651q10 -115 94 -192q84 -76 213 -76t236 79q61 32 111 -13q29 -26 26 -64q-6 -78 -135 -127t-256 -50q-226 1 -372 145t-146 368t142 376q142 150 360 150
q172 0 292 -95t168 -257q25 -83 25 -129z" />
    <glyph glyph-name="f" unicode="f" horiz-adv-x="634" 
d="M506 1386q90 0 154 -30t65 -74q0 -43 -24 -67q-24 -23 -46 -23t-54 10t-54 10q-63 0 -99 -42t-36 -119v-62h118q39 -1 67 -29t28 -68t-28 -68t-67 -27h-118v-701q0 -45 -33 -77q-33 -31 -79 -31t-78 32t-32 76v701h-81q-39 1 -67 29t-28 68t28 68t67 27h81v62
q0 155 86 245t230 90z" />
    <glyph glyph-name="g" unicode="g" horiz-adv-x="1189" 
d="M831 489v35q0 127 -77 211q-78 84 -188 84t-187 -86q-76 -86 -76 -227t76 -227q77 -86 187 -86q110 1 188 85t77 211zM1051 893v-840q0 -129 -44 -221t-121 -141q-148 -94 -345 -92q-274 0 -379 120q-18 27 -18 61t27 60q28 26 61 27q33 0 55 -14q103 -74 239 -74t220 63
t85 205v115q-43 -76 -125 -119t-190 -43q-194 0 -316 134t-122 371t122 373t330 136t301 -160v39q0 45 32 77t78 32t78 -32t32 -77z" />
    <glyph glyph-name="h" unicode="h" horiz-adv-x="1165" 
d="M1028 639v-543q0 -45 -33 -77q-33 -31 -77 -31t-77 32q-32 32 -32 76v484q0 123 -61 181q-62 58 -156 58q-94 -1 -164 -71t-70 -203v-449q0 -45 -32 -77q-32 -31 -78 -31q-45 0 -77 32t-32 76v1176q0 43 32 75q32 31 78 31t78 -32t31 -74v-398q18 27 46 54q28 26 95 56
t148 30q157 0 269 -112t112 -263z" />
    <glyph glyph-name="i" unicode="i" horiz-adv-x="495" 
d="M358 895v-799q0 -45 -32 -77q-32 -31 -78 -31q-45 0 -77 32t-32 76v799q0 43 32 75t78 32t78 -32q31 -32 31 -75zM248 1378q55 0 95 -39t40 -95t-40 -95t-95 -39t-95 39t-40 95t40 95t95 39z" />
    <glyph glyph-name="j" unicode="j" horiz-adv-x="495" 
d="M358 895v-948q0 -164 -84 -256t-245 -92q-225 0 -226 112q0 37 27 63t50 26t55 -11q32 -10 59 -10q66 0 106 42t39 126v948q0 43 32 75t78 32t78 -32q31 -32 31 -75zM248 1378q55 0 95 -39t40 -95t-40 -95t-95 -39t-95 39t-40 95t40 95t95 39z" />
    <glyph glyph-name="k" unicode="k" horiz-adv-x="1079" 
d="M967 92q0 -36 -31 -70t-84 -34t-84 45l-274 373l-136 -142v-168q0 -45 -32 -77q-32 -31 -78 -31q-45 0 -77 32t-32 76v1176q0 43 32 75q32 31 78 31t78 -32t31 -74v-756l412 455q29 33 71 33q41 0 73 -32t32 -70t-24 -68l-271 -293l295 -381q21 -31 21 -68z" />
    <glyph glyph-name="l" unicode="l" horiz-adv-x="495" 
d="M358 1272v-1176q0 -45 -32 -77q-32 -31 -78 -31q-45 0 -77 32t-32 76v1176q0 43 32 75q32 31 78 31t78 -31q31 -32 31 -75z" />
    <glyph glyph-name="m" unicode="m" horiz-adv-x="1710" 
d="M1573 633v-537q0 -45 -33 -77q-33 -31 -79 -31t-78 32t-31 76v486q0 110 -52 174t-137 64q-86 0 -142 -62q-56 -61 -56 -191v-471q0 -45 -33 -77q-33 -31 -78 -31t-77 32t-32 76v486q0 110 -52 174t-138 64t-141 -62q-55 -61 -56 -193v-469q0 -45 -32 -77
q-32 -31 -78 -31q-45 0 -77 32t-32 76v799q0 43 32 75t78 32t78 -32t31 -75q90 119 286 119t276 -166q106 166 307 166q162 0 254 -106t92 -275z" />
    <glyph glyph-name="n" unicode="n" 
d="M1026 635v-539q0 -45 -33 -77q-33 -31 -78 -31t-77 32t-31 76v459q-1 125 -63 195t-158 70t-162 -76q-66 -75 -66 -199v-449q0 -45 -32 -77q-32 -31 -78 -31q-45 0 -77 32t-32 76v799q0 43 32 75t78 32t78 -32t31 -75v-21q109 139 308 140q156 0 258 -112t102 -267z" />
    <glyph glyph-name="o" unicode="o" horiz-adv-x="1173" 
d="M868 495q0 136 -75 230q-76 94 -206 94t-206 -94t-76 -230q0 -137 76 -231t206 -94t206 94q75 95 75 231zM78 495q0 219 139 369t371 150t370 -150q140 -150 140 -369q0 -220 -140 -370t-370 -150q-231 0 -371 150q-139 150 -139 370z" />
    <glyph glyph-name="p" unicode="p" horiz-adv-x="1185" 
d="M608 170q125 0 201 91t76 235t-76 233q-77 90 -187 90t-187 -88t-77 -227v-19q0 -137 78 -226t172 -89zM674 1014q194 0 316 -140t122 -378q0 -240 -122 -380t-316 -141q-225 0 -316 160v-418q0 -43 -32 -75t-78 -31q-45 0 -77 32t-32 74v1178q0 43 32 75t78 32t78 -32
t31 -75v-39q87 158 316 158z" />
    <glyph glyph-name="q" unicode="q" horiz-adv-x="1185" 
d="M301 496q0 -142 76 -234t201 -92q94 0 172 89t77 226v19q0 139 -76 227q-77 88 -187 88t-187 -90q-76 -90 -76 -233zM74 496q0 240 122 378t316 140q229 0 315 -158v39q0 43 32 75t78 32t78 -32t32 -75v-1178q0 -43 -32 -75t-77 -31q-45 0 -78 32t-33 74v418
q-90 -160 -315 -160q-194 1 -316 141t-122 380z" />
    <glyph glyph-name="r" unicode="r" horiz-adv-x="712" 
d="M690 904q0 -44 -30 -75t-94 -37t-136 -58t-72 -144v-494q0 -45 -32 -77t-76 -31h-4q-45 0 -76 32t-31 76v799q0 43 32 75t78 32t78 -32t31 -75v-51q117 158 236 157q43 0 70 -26q26 -27 26 -71z" />
    <glyph glyph-name="s" unicode="s" horiz-adv-x="966" 
d="M891 273q0 -123 -109 -211t-303 -87q-111 0 -221 34t-166 95q-20 25 -20 58q0 32 28 60t62 28q33 0 53 -14q131 -88 272 -89q94 0 144 36q49 35 49 91t-62 86t-149 46q-88 18 -176 44t-150 91q-61 67 -61 183t105 203t288 87q105 0 203 -32t147 -87q19 -23 19 -53
t-27 -56q-47 -44 -106 -12q-102 70 -236 70q-82 0 -131 -35t-49 -84t61 -76q60 -27 148 -44t176 -44t150 -96t61 -192z" />
    <glyph glyph-name="t" unicode="t" horiz-adv-x="657" 
d="M637 82q0 -106 -199 -107q-124 0 -190 66t-66 190v566h-82q-38 1 -66 29t-28 68t28 68t66 27h82v174q0 45 33 77t79 32t77 -32t30 -77v-174h121q39 -1 66 -29q26 -28 26 -68t-26 -68t-66 -27h-121v-510q0 -55 27 -86t68 -31l45 6q43 0 69 -26t27 -68z" />
    <glyph glyph-name="u" unicode="u" 
d="M139 354v539q0 45 33 77t78 32t77 -32t31 -77v-479q0 -124 62 -184t154 -60q94 0 164 68t69 186v469q0 45 33 77t78 32q44 0 76 -32t32 -77v-799q0 -43 -32 -75q-32 -31 -78 -31t-78 32t-31 74v21q-109 -139 -307 -140q-156 -1 -258 111t-103 268z" />
    <glyph glyph-name="v" unicode="v" horiz-adv-x="1032" 
d="M991 904q0 -32 -8 -50l-311 -764q-45 -102 -154 -102h-4q-51 0 -93 28t-61 74l-311 764q-8 16 -8 48t32 65t79 32q74 0 100 -65l264 -680l262 678q27 68 101 67q49 1 81 -31t31 -64z" />
    <glyph glyph-name="w" unicode="w" horiz-adv-x="1548" 
d="M1505 910q0 -30 -6 -44l-239 -774q-14 -45 -54 -75t-88 -29h-4q-49 0 -88 28t-53 76l-199 629l-199 -629q-14 -45 -54 -75t-89 -29h-4q-47 0 -86 30t-53 74l-242 774q-4 20 -4 31q0 41 31 73t72 32q42 0 72 -22t38 -54l188 -650l209 639q12 39 45 63t75 24t75 -24t47 -63
l209 -639l188 650q8 32 39 54t72 22t72 -31q30 -31 30 -61z" />
    <glyph glyph-name="x" unicode="x" horiz-adv-x="1017" 
d="M924 85q0 -36 -28 -67q-28 -30 -78 -30t-77 41l-231 317l-236 -317q-28 -41 -74 -41t-77 30t-31 65q0 36 19 60l260 361l-254 340q-19 26 -19 60t29 65t76 31t82 -44l225 -299l219 297q33 45 81 45q48 1 78 -29t30 -66t-19 -60l-254 -340l262 -361q17 -22 17 -58z" />
    <glyph glyph-name="y" unicode="y" horiz-adv-x="1032" 
d="M991 903q0 -33 -8 -49l-422 -1030q-92 -225 -321 -225q-61 0 -104 24q-42 25 -42 70t30 74t73 28h41q82 6 114 82l49 111l-354 868q-6 18 -6 49t31 64t80 32q74 0 102 -71l262 -676l262 676q25 72 105 71q47 0 78 -32q30 -33 30 -66z" />
    <glyph glyph-name="z" unicode="z" horiz-adv-x="974" 
d="M801 190q37 0 65 -26t27 -67q0 -41 -28 -69t-64 -28h-613q-42 0 -74 32t-32 74t24 76l472 615h-402q-38 1 -66 29t-28 68t28 68t66 27h604q39 0 71 -31q32 -32 32 -74t-23 -71l-477 -623h418z" />
    <glyph glyph-name="braceleft" unicode="{" horiz-adv-x="567" 
d="M545 -313q0 -33 -22 -55t-60 -21h-55q-119 0 -206 85t-87 220v379q1 98 -59 128t-60 77t59 77t60 128v376q0 135 88 221t205 87h55q39 0 61 -22q22 -23 21 -55q0 -32 -22 -52t-60 -21h-55q-54 0 -92 -44t-37 -114v-399q0 -141 -95 -182q94 -41 95 -183v-399
q1 -68 37 -113t92 -45h55q39 0 61 -20t21 -53z" />
    <glyph glyph-name="bar" unicode="|" horiz-adv-x="438" 
d="M295 1348v-1328q0 -30 -22 -52q-21 -22 -53 -22t-54 22t-21 52v1328q0 28 23 50q24 22 54 22t52 -22q22 -21 21 -50z" />
    <glyph glyph-name="braceright" unicode="}" horiz-adv-x="567" 
d="M571 500q0 -47 -59 -77t-59 -128v-379q0 -135 -87 -220t-206 -85h-54q-40 -1 -62 21t-21 55q0 33 21 53q22 20 62 20h54q55 0 93 45t38 113v399q0 141 94 183q-94 41 -94 182v399q0 70 -38 114t-93 44h-54q-40 0 -62 22q-22 23 -22 55t22 52t62 21h54q117 0 205 -86
t88 -222v-376q0 -98 59 -128t59 -77z" />
    <glyph glyph-name="asciitilde" unicode="~" horiz-adv-x="1038" 
d="M692 852q-92 0 -147 58t-73 128q-45 185 -122 187q-98 0 -135 -297q-4 -29 -26 -48t-50 -20q-78 0 -78 86q25 190 91 304t198 114q74 0 123 -38t73 -93t41 -111q40 -132 101 -131q102 0 135 301q2 27 25 45q24 19 56 19t52 -24t21 -58q-14 -125 -42 -211
q-28 -87 -90 -149q-61 -62 -153 -62z" />
    <glyph glyph-name="uni00A0" unicode="&#xa0;" horiz-adv-x="526" 
 />
    <glyph glyph-name="exclamdown" unicode="&#xa1;" horiz-adv-x="503" 
d="M381 -260q0 -53 -38 -90t-92 -37t-91 37t-37 90q0 100 29 749q2 39 30 66q29 27 69 27q39 0 67 -27t30 -66q33 -743 33 -749zM251 721q-58 0 -103 43q-44 43 -44 102q0 58 44 102t102 44t102 -44q43 -44 42 -102q-1 -59 -43 -102t-100 -43z" />
    <glyph glyph-name="cent" unicode="&#xa2;" horiz-adv-x="1017" 
d="M303 494q-1 -114 53 -196q54 -83 146 -112v617q-92 -31 -146 -113t-53 -196zM845 250q31 0 63 -28t32 -59q0 -32 -12 -54q-76 -104 -262 -129v-111q0 -33 -24 -55t-58 -23q-34 0 -58 23q-25 23 -24 55v115q-190 27 -307 167t-117 343t117 344t307 168v77q0 33 24 56
q25 23 59 23q33 0 57 -24q24 -22 24 -55v-73q186 -23 260 -131q12 -23 12 -53t-32 -58q-32 -27 -61 -27t-50 11q-78 49 -129 59v-633q41 10 129 60q18 12 50 12z" />
    <glyph glyph-name="sterling" unicode="&#xa3;" horiz-adv-x="1101" 
d="M1059 113q0 -70 -80 -105q-81 -35 -185 -35t-209 46q-105 47 -172 47t-171 -50q-18 -8 -50 -8t-60 27t-28 75t52 78q180 109 180 246q0 57 -27 117h-207q-28 -1 -50 21t-22 52t22 50t50 20h111q-119 152 -119 277q0 178 146 297t338 118q134 0 246 -47t155 -127
q10 -26 10 -58t-32 -60q-31 -28 -71 -29q-40 0 -62 15t-55 38q-95 68 -181 68t-157 -60t-71 -147q0 -86 39 -160q10 -18 46 -68t40 -57h242q29 0 49 -20t20 -51t-20 -51t-49 -21h-180q6 -55 6 -59q0 -152 -139 -244q45 16 105 16q59 0 143 -37t125 -37t90 16t81 15t66 -31
q35 -30 35 -77z" />
    <glyph glyph-name="currency" unicode="&#xa4;" horiz-adv-x="1255" 
d="M915 681q0 128 -76 215q-77 87 -210 87t-211 -88t-78 -214t78 -214t211 -88t210 87q76 87 76 215zM1171 230q-1 -34 -29 -62t-65 -29q-37 0 -63 27l-99 94q-123 -78 -287 -78t-292 80l-92 -94q-27 -27 -65 -27q-39 0 -67 27q-28 26 -28 64t27 65l94 94q-86 127 -86 291
t86 291l-96 98q-27 27 -27 63t27 64t67 29q40 0 66 -27l98 -98q123 78 287 78t286 -78l101 98q24 27 62 27t67 -28q29 -27 29 -65t-27 -65l-94 -94q88 -131 88 -294t-90 -294l96 -92q26 -31 26 -65z" />
    <glyph glyph-name="yen" unicode="&#xa5;" horiz-adv-x="1306" 
d="M1206 381q28 -1 48 -21t20 -49t-20 -49t-48 -20h-430v-133q0 -49 -36 -85t-86 -36t-86 35t-36 86v133h-428q-29 0 -49 20t-20 50t20 49t49 20h428v184h-428q-29 1 -49 21t-20 51t20 50t49 20h334l-329 497q-19 25 -19 64q0 40 34 74t92 34t91 -53l346 -539l342 539
q37 53 93 53t91 -34q33 -34 33 -74t-16 -66l-328 -495h338q29 -1 48 -21q20 -20 20 -50t-20 -50t-48 -21h-430v-184h430z" />
    <glyph glyph-name="brokenbar" unicode="&#xa6;" horiz-adv-x="438" 
d="M295 541v-514q0 -31 -22 -54q-21 -23 -53 -23t-54 24q-22 22 -21 53v514q0 31 23 53q24 22 54 20q30 0 52 -22t21 -51zM295 1341v-514q0 -31 -22 -53q-21 -22 -53 -22t-54 22t-21 53v514q0 31 23 53q24 22 54 22t52 -24q22 -22 21 -51z" />
    <glyph glyph-name="section" unicode="&#xa7;" horiz-adv-x="978" 
d="M481 784q-186 -46 -186 -164q0 -56 40 -91q40 -34 81 -47t121 -31q139 59 139 170q0 69 -52 105t-143 58zM891 147q0 -145 -114 -229t-298 -84q-119 0 -224 37t-159 94q-20 20 -20 53t24 59q25 25 55 25t50 -14q135 -100 274 -100q90 0 146 38q55 38 55 96
q0 106 -152 137q-152 32 -291 87q-67 27 -111 87q-44 59 -44 153t62 160t153 96q-215 76 -215 254q0 125 108 208q108 82 266 82t272 -48t114 -113q0 -35 -23 -59t-53 -24t-45 15q-104 74 -240 74q-84 0 -135 -36t-51 -92t61 -86q60 -30 148 -47t176 -44q88 -28 149 -94
t62 -173q0 -178 -176 -262q176 -74 176 -250z" />
    <glyph glyph-name="dieresis" unicode="&#xa8;" horiz-adv-x="585" 
d="M631 1244q0 -50 -37 -86t-87 -36t-86 36t-36 87t36 86t86 35t87 -36t37 -86zM199 1245q0 -51 -35 -87t-85 -36t-86 36t-36 87t36 86t86 35t85 -35t35 -86z" />
    <glyph glyph-name="copyright" unicode="&#xa9;" horiz-adv-x="1593" 
d="M1054 430q18 0 30 -12t12 -26q0 -15 -11 -30q-117 -112 -287 -112t-295 125q-124 125 -124 311t124 309t297 123t283 -110q22 -31 5 -49q-17 -19 -34 -19t-30 12q-90 90 -225 90t-235 -100t-99 -255q0 -155 100 -257q101 -102 237 -102t224 92q10 10 28 10zM1434 684
q0 262 -188 450t-449 187q-261 0 -449 -187q-188 -188 -188 -450t187 -450t449 -187q262 -1 450 187t188 450zM1503 684q0 -293 -207 -500q-208 -207 -500 -207t-499 208t-207 500t207 499t500 207t499 -207t207 -500z" />
    <glyph glyph-name="ordfeminine" unicode="&#xaa;" horiz-adv-x="782" 
d="M512 961h-150q-57 0 -94 -25t-37 -74t38 -79q38 -29 96 -29t103 41q44 41 44 106v60zM672 1081v-348q0 -33 -24 -55t-56 -25q-32 -2 -56 20t-24 52v10q-55 -84 -213 -84q-90 1 -159 57q-68 56 -68 155t66 148q67 48 161 48h213v26q0 53 -42 86t-117 33t-146 -53
q-14 -12 -35 -12t-40 18q-19 17 -19 39t10 37q39 47 117 71t147 23q125 -1 205 -59t80 -187z" />
    <glyph glyph-name="guillemotleft" unicode="&#xab;" horiz-adv-x="1009" 
d="M864 196q0 -30 -22 -55t-56 -25q-33 0 -55 25l-219 246q-41 43 -41 107t43 114l217 240q20 22 52 22t56 -22q23 -22 23 -52q0 -32 -16 -51l-225 -247l225 -252q18 -20 18 -50zM510 195q0 -29 -22 -54t-54 -25t-55 25l-219 246q-41 47 -41 111t43 108l217 242q20 22 52 22
q31 0 55 -22t24 -52q0 -32 -18 -51l-224 -247l224 -252q18 -22 18 -51z" />
    <glyph glyph-name="logicalnot" unicode="&#xac;" horiz-adv-x="1046" 
d="M969 801v-322q0 -29 -22 -51q-21 -22 -51 -20q-30 0 -52 22t-21 49v328h-706q-29 -1 -49 21t-20 52t21 50q22 20 48 20h704q61 0 105 -44t43 -105z" />
    <glyph glyph-name="softhyphen" unicode="&#xad;" horiz-adv-x="614" 
d="M145 590h324q39 0 66 -27t27 -67t-28 -67q-26 -28 -65 -28h-324q-39 0 -65 28t-27 67q1 38 27 66t65 28z" />
    <glyph glyph-name="registered" unicode="&#xae;" horiz-adv-x="1011" 
d="M543 961q35 -1 63 25t27 64q0 38 -28 64t-62 27h-135v-180h135zM543 1200q67 0 113 -42t46 -111q0 -70 -46 -108t-81 -38l105 -151q6 -12 6 -24t-11 -24q-11 -10 -27 -10t-30 19l-122 188h-88v-176q0 -33 -34 -33t-34 33v416q0 27 18 44t45 17h140zM877 953
q0 155 -109 263q-110 108 -264 107q-154 0 -262 -108q-108 -109 -109 -263q0 -154 109 -264q110 -110 264 -108q154 0 262 109t109 264zM72 952q0 180 127 308t308 126q181 0 307 -126t126 -307t-127 -308t-307 -127t-307 127t-127 307z" />
    <glyph glyph-name="macron" unicode="&#xaf;" horiz-adv-x="743" 
d="M743 1225q0 -27 -18 -46t-43 -20h-621q-25 -1 -43 19t-18 47t18 45t43 18h621q25 0 43 -18t18 -45z" />
    <glyph glyph-name="degree" unicode="&#xb0;" horiz-adv-x="620" 
d="M451 1119q0 59 -41 101q-42 42 -100 42t-99 -42t-41 -100t40 -100q40 -41 99 -41t101 41q41 41 41 99zM575 1118q1 -112 -77 -188t-189 -76t-189 77t-77 187q0 110 78 190q79 78 189 78t188 -78q77 -79 77 -190z" />
    <glyph glyph-name="plusminus" unicode="&#xb1;" horiz-adv-x="1028" 
d="M913 139q29 0 49 -20t19 -49q0 -30 -19 -50t-49 -20h-798q-29 0 -48 20t-19 50t18 49q20 20 49 20h798zM913 805q29 1 49 -19t19 -50q0 -30 -19 -50t-49 -20h-321v-361q0 -33 -23 -55t-55 -23q-32 0 -54 23t-22 55v361h-323q-29 0 -48 20t-19 50t18 49q20 19 49 20h323
v350q0 31 23 53t55 21q32 0 54 -22t22 -52v-350h321z" />
    <glyph glyph-name="twosuperior" unicode="&#xb2;" horiz-adv-x="806" 
d="M551 1424q0 134 -171 135q-83 0 -169 -66q-23 -14 -47 -14t-43 19q-21 19 -21 47t15 44q39 49 124 77t162 28q137 0 227 -66t89 -177q0 -111 -91 -213t-284 -241h328q27 0 46 -18t19 -47t-19 -49t-46 -21h-520q-28 0 -46 20t-18 55q0 36 37 67q242 168 335 260t93 160z
" />
    <glyph glyph-name="threesuperior" unicode="&#xb3;" horiz-adv-x="806" 
d="M545 1451q0 108 -178 108q-88 0 -164 -62q-16 -14 -41 -14t-44 19t-20 46q0 58 96 102t224 44q126 0 210 -60t85 -161q0 -72 -43 -127t-78 -62q39 -6 87 -60t48 -148q0 -95 -90 -162q-91 -66 -219 -66t-230 43t-102 100q0 31 22 51t48 20t41 -11q94 -68 184 -68
q178 0 178 117q0 55 -43 85t-102 29h-6q-26 0 -46 16t-20 49q0 32 19 49t47 18h4q57 0 95 26t38 79z" />
    <glyph glyph-name="acute" unicode="&#xb4;" horiz-adv-x="493" 
d="M397 1376q0 -29 -22 -47l-215 -188q-44 -31 -77 2q-17 16 -17 41t14 39l199 202q20 21 47 21t49 -20t22 -50z" />
    <glyph glyph-name="paragraph" unicode="&#xb6;" horiz-adv-x="919" 
d="M805 1255v-1417q-1 -23 -17 -39t-40 -16t-40 16q-17 16 -18 39v1415h-168v-1415q0 -23 -16 -39t-41 -16t-41 16t-16 39v824q-145 0 -249 103q-103 103 -103 249t102 248q104 104 250 104h286q45 0 78 -33t33 -78z" />
    <glyph glyph-name="periodcentered" unicode="&#xb7;" horiz-adv-x="503" 
d="M397 500q0 -60 -43 -102t-102 -42t-102 42q-44 42 -44 102t44 102q44 43 102 43q59 0 102 -43t43 -102z" />
    <glyph glyph-name="cedilla" unicode="&#xb8;" horiz-adv-x="440" 
d="M440 -234q0 -70 -64 -116q-64 -47 -150 -47q-86 -1 -154 23t-68 67q0 19 15 35t31 16t28 -6q68 -37 124 -37t90 20t34 56q0 59 -66 59q-18 0 -45 -13t-47 -13t-37 17q-16 17 -16 33t2 25l43 111q18 53 69 53q15 0 29 -11q14 -12 14 -26t-6 -26l-37 -95q33 23 83 23
t89 -39t39 -109z" />
    <glyph glyph-name="onesuperior" unicode="&#xb9;" horiz-adv-x="544" 
d="M422 1608v-674q0 -35 -25 -60q-25 -24 -61 -24t-58 24q-24 24 -24 60v530l-98 -100q-52 -42 -96 0q-22 20 -22 50t21 50l195 195q33 33 74 33q42 0 68 -24t26 -60z" />
    <glyph glyph-name="ordmasculine" unicode="&#xba;" horiz-adv-x="829" 
d="M594 989q0 91 -48 147t-132 56t-131 -55t-47 -147t47 -150t131 -58t132 58t48 149zM760 989q0 -143 -94 -240t-250 -97t-251 96q-95 98 -95 241t95 241t251 97q156 1 250 -97t94 -241z" />
    <glyph glyph-name="guillemotright" unicode="&#xbb;" horiz-adv-x="1009" 
d="M891 494q0 -64 -41 -107l-219 -246q-21 -25 -53 -25t-56 24t-24 54t20 52l223 252l-223 247q-18 19 -18 49t22 54t54 22q34 0 55 -22l219 -242q41 -48 41 -112zM539 497q0 -62 -41 -110l-219 -246q-19 -25 -53 -25t-58 24t-23 53q0 29 19 53l225 252l-225 247
q-39 56 5 102q21 23 55 23t55 -22l217 -240q43 -49 43 -111z" />
    <glyph glyph-name="onequarter" unicode="&#xbc;" horiz-adv-x="1656" 
d="M1317 319v357l-234 -357h234zM1544 319q24 0 44 -18t20 -46t-20 -48t-44 -21h-61v-116q0 -35 -25 -59q-26 -23 -60 -23t-58 24t-23 58v116h-348q-27 0 -46 22q-42 48 1 109l288 443q43 72 134 71q57 -1 97 -39t40 -92v-381h61zM422 1292v-674q0 -36 -25 -60t-61 -24
t-58 26q-24 24 -24 58v531l-98 -100q-52 -42 -96 0q-22 20 -22 50t21 50l195 194q33 33 74 33q42 0 68 -24t26 -60zM1233 1328q0 -18 -8 -36l-819 -1282q-18 -24 -46 -24t-46 17q-17 17 -17 35t10 36l817 1282q20 26 48 26t44 -18q17 -18 17 -36z" />
    <glyph glyph-name="onehalf" unicode="&#xbd;" horiz-adv-x="1728" 
d="M1589 135q27 0 47 -18t19 -47q1 -30 -19 -50t-47 -20h-518q-29 0 -47 19t-18 57t38 65q240 168 333 260q93 93 93 161t-44 102t-109 32q-102 0 -184 -65q-56 -32 -93 5q-20 19 -20 48q0 68 104 108t197 39q137 1 226 -65t89 -177t-91 -213t-283 -241h327zM422 1292v-674
q0 -36 -25 -60t-61 -24t-58 26q-24 24 -24 58v531l-98 -100q-52 -42 -96 0q-22 20 -22 50t21 50l195 194q33 33 74 33q42 0 68 -24t26 -60zM1233 1328q0 -18 -8 -36l-819 -1282q-18 -24 -46 -24t-46 17q-17 17 -17 35t10 36l817 1282q20 26 48 26t44 -18q17 -18 17 -36z" />
    <glyph glyph-name="threequarters" unicode="&#xbe;" horiz-adv-x="1851" 
d="M1513 319v357l-233 -357h233zM1804 255q0 -28 -18 -48t-45 -21h-62v-116q-1 -35 -25 -59q-24 -23 -59 -23t-59 24t-23 58v116h-348q-27 0 -46 22t-19 50t20 59l289 443q43 72 133 71q57 -1 97 -39t40 -92v-381h62q27 0 45 -18t18 -46zM545 1136q0 107 -178 107
q-88 0 -164 -61q-16 -14 -41 -14t-44 18q-19 20 -20 47q0 57 96 101t224 44q126 0 210 -60t85 -161q0 -72 -43 -127t-78 -61q39 -5 87 -59t48 -149t-90 -162q-91 -67 -219 -67t-230 43t-102 101q0 31 22 51q22 21 48 21t41 -13q94 -67 184 -67t134 30t44 86q0 55 -43 85
t-102 30h-6q-27 0 -47 16q-19 17 -19 49t19 49t47 17h4q57 0 95 27t38 79zM1427 1328q0 -18 -8 -36l-819 -1282q-18 -24 -45 -24t-45 17t-18 35t10 36l817 1282q20 26 47 26t44 -18t17 -36z" />
    <glyph glyph-name="questiondown" unicode="&#xbf;" horiz-adv-x="811" 
d="M502 594q51 0 88 -56t37 -134q1 -78 -51 -145t-112 -103t-112 -86t-51 -110q0 -60 48 -101q47 -41 129 -41t172 51t130 51q39 0 69 -28t30 -84t-74 -108t-166 -76t-172 -23q-190 0 -304 90t-114 231q0 84 38 151t91 109q52 42 106 77q130 87 130 173l-17 68q0 38 27 66
t78 28zM623 864q0 -59 -43 -101q-42 -42 -102 -42t-103 42t-43 101q0 60 43 104t102 44t103 -44q43 -45 43 -104z" />
    <glyph glyph-name="Agrave" unicode="&#xc0;" horiz-adv-x="1380" 
d="M446 475h486l-242 645zM1323 119q0 -51 -37 -91t-94 -40q-86 0 -119 80l-72 190h-622l-74 -190q-31 -80 -119 -80q-57 0 -94 39t-37 79t11 58l426 1085q23 57 74 93q52 36 117 38t122 -34t82 -97l428 -1085q8 -29 8 -45zM752 1526q0 -23 -18 -40q-36 -35 -77 -3l-217 188
q-20 18 -20 46q0 27 20 49t47 22t52 -21l196 -202q17 -16 17 -39z" />
    <glyph glyph-name="Aacute" unicode="&#xc1;" horiz-adv-x="1380" 
d="M446 475h486l-242 645zM1323 119q0 -51 -37 -91t-94 -40q-86 0 -119 80l-72 190h-622l-74 -190q-31 -80 -119 -80q-57 0 -94 39t-37 79t11 58l426 1085q23 57 74 93q52 36 117 38t122 -34t82 -97l428 -1085q8 -29 8 -45zM963 1718q0 -29 -23 -47l-215 -188q-44 -31 -77 2
q-17 16 -17 41t14 39l199 202q20 21 47 21t49 -20t23 -50z" />
    <glyph glyph-name="Acircumflex" unicode="&#xc2;" horiz-adv-x="1380" 
d="M446 475h486l-242 645zM1323 119q0 -51 -37 -91t-94 -40q-86 0 -119 80l-72 190h-622l-74 -190q-31 -80 -119 -80q-57 0 -94 39t-37 79t11 58l426 1085q23 57 74 93q52 36 117 38t122 -34t82 -97l428 -1085q8 -29 8 -45zM944 1522q0 -20 -16 -37q-16 -19 -43 -19t-45 23
l-150 188l-147 -188q-16 -21 -42 -21t-44 16q-35 32 -8 72l100 156q49 76 139 76t143 -76l105 -156q8 -14 8 -34z" />
    <glyph glyph-name="Atilde" unicode="&#xc3;" horiz-adv-x="1380" 
d="M446 475h486l-242 645zM1323 119q0 -51 -37 -91t-94 -40q-86 0 -119 80l-72 190h-622l-74 -190q-31 -80 -119 -80q-57 0 -94 39t-37 79t11 58l426 1085q23 57 74 93q52 36 117 38t122 -34t82 -97l428 -1085q8 -29 8 -45zM565 1634q-63 0 -78 -96q-4 -25 -24 -41t-44 -16
t-38 16t-14 39q0 84 54 156t154 71q47 -1 85 -25t58 -54q52 -80 99 -78q61 0 80 96q3 25 23 41t45 16t39 -16t14 -41q-4 -86 -55 -156t-154 -69q-61 0 -103 40q-42 41 -74 79t-67 38z" />
    <glyph glyph-name="Adieresis" unicode="&#xc4;" horiz-adv-x="1380" 
d="M446 475h486l-242 645zM1323 119q0 -51 -37 -91t-94 -40q-86 0 -119 80l-72 190h-622l-74 -190q-31 -80 -119 -80q-57 0 -94 39t-37 79t11 58l426 1085q23 57 74 93q52 36 117 38t122 -34t82 -97l428 -1085q8 -29 8 -45zM1030 1586q0 -50 -37 -86t-87 -36t-86 36t-36 87
t36 86t86 35t87 -36t37 -86zM598 1587q0 -51 -35 -87t-85 -36t-86 36t-36 87t36 86t86 35t85 -35t35 -86z" />
    <glyph glyph-name="Aring" unicode="&#xc5;" horiz-adv-x="1380" 
d="M446 475h486l-242 645zM1323 119q0 -51 -37 -91t-94 -40q-86 0 -119 80l-72 190h-622l-74 -190q-31 -80 -119 -80q-57 0 -94 39t-37 79t11 58l426 1085q23 57 74 93q52 36 117 38t122 -34t82 -97l428 -1085q8 -29 8 -45zM795 1621q0 44 -30 75q-30 30 -74 30t-75 -32
q-30 -32 -30 -74q0 -43 32 -75t73 -32q42 0 73 32t31 76zM899 1619q0 -87 -60 -147q-59 -60 -147 -61q-88 0 -149 60q-61 59 -61 147t60 150q62 62 148 62t148 -62t61 -149z" />
    <glyph glyph-name="AE" unicode="&#xc6;" horiz-adv-x="1966" 
d="M932 475v645l-385 -645h385zM1778 215q44 -1 74 -31t30 -75t-31 -77t-73 -32h-699q-61 0 -104 44t-43 103v111h-504l-129 -215q-31 -53 -89 -53t-93 36t-35 76t18 70l656 1069q35 57 97 91t128 34h797q44 0 74 -32t30 -77t-31 -75t-73 -31h-600v-348h585q43 0 74 -32
t31 -77t-31 -76t-74 -30h-585v-373h600z" />
    <glyph glyph-name="Ccedilla" unicode="&#xc7;" horiz-adv-x="1398" 
d="M795 1389q301 0 487 -213q27 -33 27 -76t-35 -76t-84 -33t-86 39q-126 141 -316 141t-322 -138t-132 -350t133 -351t325 -139t312 139q39 39 89 39t82 -33t32 -76t-25 -74q-178 -201 -453 -211l-30 -81q35 20 83 20t88 -39t40 -109t-65 -116q-65 -47 -151 -47
q-86 1 -154 25t-67 67q-1 21 15 35t34 14t25 -4q61 -37 121 -37q60 -1 93 19q34 20 34 55q0 61 -68 61q-16 0 -44 -14q-27 -14 -47 -14t-37 17t-17 31t4 27l33 95q-276 25 -456 218q-179 194 -179 494t205 497q205 198 506 198z" />
    <glyph glyph-name="Egrave" unicode="&#xc8;" horiz-adv-x="1183" 
d="M991 215q43 -1 74 -31t31 -75t-31 -77t-74 -32h-698q-61 0 -105 44q-43 44 -43 103v1072q0 59 43 103t105 44h698q43 0 74 -32t31 -77t-31 -75t-74 -31h-602v-348h588q43 0 74 -32t31 -77t-32 -76q-30 -31 -73 -30h-588v-373h602zM672 1526q0 -23 -18 -40q-37 -36 -76 -3
l-218 188q-20 18 -20 46q0 27 20 49t48 22t51 -21l196 -202q17 -16 17 -39z" />
    <glyph glyph-name="Eacute" unicode="&#xc9;" horiz-adv-x="1183" 
d="M991 215q43 -1 74 -31t31 -75t-31 -77t-74 -32h-698q-61 0 -105 44q-43 44 -43 103v1072q0 59 43 103t105 44h698q43 0 74 -32t31 -77t-31 -75t-74 -31h-602v-348h588q43 0 74 -32t31 -77t-32 -76q-30 -31 -73 -30h-588v-373h602zM885 1718q0 -29 -23 -47l-215 -188
q-47 -28 -77 2q-17 16 -17 41t14 39l199 202q20 21 47 21t49 -20t23 -50z" />
    <glyph glyph-name="Ecircumflex" unicode="&#xca;" horiz-adv-x="1183" 
d="M991 215q43 -1 74 -31t31 -75t-31 -77t-74 -32h-698q-61 0 -105 44q-43 44 -43 103v1072q0 59 43 103t105 44h698q43 0 74 -32t31 -77t-31 -75t-74 -31h-602v-348h588q43 0 74 -32t31 -77t-32 -76q-30 -31 -73 -30h-588v-373h602zM864 1522q0 -20 -16 -37
q-16 -19 -43 -19t-45 23l-150 188l-147 -188q-16 -21 -42 -21t-44 16q-35 32 -8 72l100 156q49 76 139 76t144 -76l104 -156q8 -14 8 -34z" />
    <glyph glyph-name="Edieresis" unicode="&#xcb;" horiz-adv-x="1183" 
d="M991 215q43 -1 74 -31t31 -75t-31 -77t-74 -32h-698q-61 0 -105 44q-43 44 -43 103v1072q0 59 43 103t105 44h698q43 0 74 -32t31 -77t-31 -75t-74 -31h-602v-348h588q43 0 74 -32t31 -77t-32 -76q-30 -31 -73 -30h-588v-373h602zM952 1586q0 -50 -37 -86t-87 -36t-86 36
t-35 87q0 51 35 86q36 35 86 35t87 -36t37 -86zM520 1587q0 -51 -35 -87t-85 -36t-86 36t-35 87q0 51 35 86q36 35 86 35t85 -35t35 -86z" />
    <glyph glyph-name="Igrave" unicode="&#xcc;" horiz-adv-x="534" 
d="M389 1260v-1151q0 -49 -37 -85t-87 -36t-85 36t-35 85v1151q0 50 36 84t86 34t86 -36t36 -82zM330 1526q0 -23 -18 -40q-37 -36 -76 -3l-218 188q-20 18 -20 46q0 27 20 49t48 22t51 -21l196 -202q17 -16 17 -39z" />
    <glyph glyph-name="Iacute" unicode="&#xcd;" horiz-adv-x="534" 
d="M389 1260v-1151q0 -49 -37 -85t-87 -36t-85 36t-35 85v1151q0 50 36 84t86 34t86 -36t36 -82zM541 1718q0 -29 -23 -47l-215 -188q-47 -28 -77 2q-17 16 -17 41t14 39l199 202q20 21 47 21t49 -20t23 -50z" />
    <glyph glyph-name="Icircumflex" unicode="&#xce;" horiz-adv-x="534" 
d="M389 1260v-1151q0 -49 -37 -85t-87 -36t-85 36t-35 85v1151q0 50 36 84t86 34t86 -36t36 -82zM520 1522q0 -20 -16 -37q-16 -19 -43 -19t-45 23l-150 188l-147 -188q-16 -21 -42 -21t-44 16q-35 32 -8 72l100 156q49 76 139 76t144 -76l104 -156q8 -14 8 -34z" />
    <glyph glyph-name="Idieresis" unicode="&#xcf;" horiz-adv-x="534" 
d="M389 1260v-1151q0 -49 -37 -85t-87 -36t-85 36t-35 85v1151q0 50 36 84t86 34t86 -36t36 -82zM608 1586q0 -50 -37 -86t-87 -36t-86 36t-36 87t36 86t86 35t87 -36t37 -86zM176 1587q0 -51 -35 -87t-85 -36t-86 36t-36 87t36 86t86 35t85 -35t35 -86z" />
    <glyph glyph-name="Eth" unicode="&#xd0;" horiz-adv-x="1509" 
d="M1174 685q0 202 -123 334t-342 132h-267v-385h246q37 0 63 -27q25 -27 25 -65t-26 -64q-26 -27 -62 -26h-246v-369h267q215 0 340 134t125 336zM1425 682q0 -303 -198 -493q-199 -189 -518 -189h-363q-61 0 -104 44t-43 103v437h-105q-36 0 -62 28t-26 64q0 38 26 64
t62 26h105v453q0 59 43 103t104 44h363q319 0 518 -190q198 -191 198 -494z" />
    <glyph glyph-name="Ntilde" unicode="&#xd1;" horiz-adv-x="1476" 
d="M1331 1260v-1127q0 -59 -43 -102q-44 -43 -114 -43t-115 61l-670 918v-858q0 -49 -37 -85t-87 -36t-85 36t-35 85v1116q0 61 46 107t121 46t124 -65l651 -885v832q0 46 37 82t87 36t85 -36t35 -82zM608 1634q-63 0 -78 -96q-4 -25 -24 -41t-44 -16t-38 16t-14 39
q0 84 54 156t154 71q47 -1 85 -25q37 -24 57 -54q52 -80 100 -78q61 0 80 96q4 25 24 41t44 16q25 0 39 -16t14 -41q-4 -86 -55 -156t-154 -69q-61 0 -103 40q-42 41 -74 79t-67 38z" />
    <glyph glyph-name="Ograve" unicode="&#xd2;" horiz-adv-x="1566" 
d="M1231 682q0 213 -124 351t-325 138q-200 0 -324 -138t-124 -351t124 -351t324 -138t325 138q124 138 124 351zM1483 682q0 -307 -197 -507t-503 -200q-307 0 -503 200t-196 507t197 507t503 200t502 -200q197 -200 197 -507zM846 1526q0 -23 -18 -40q-37 -36 -76 -3
l-217 188q-21 18 -21 46q0 27 20 49t48 22q27 0 51 -21l196 -202q17 -16 17 -39z" />
    <glyph glyph-name="Oacute" unicode="&#xd3;" horiz-adv-x="1566" 
d="M1231 682q0 213 -124 351t-325 138q-200 0 -324 -138t-124 -351t124 -351t324 -138t325 138q124 138 124 351zM1483 682q0 -307 -197 -507t-503 -200q-307 0 -503 200t-196 507t197 507t503 200t502 -200q197 -200 197 -507zM1057 1718q0 -29 -23 -47l-215 -188
q-47 -28 -77 2q-17 16 -17 41t14 39l199 202q20 21 47 21t49 -20t23 -50z" />
    <glyph glyph-name="Ocircumflex" unicode="&#xd4;" horiz-adv-x="1566" 
d="M1231 682q0 213 -124 351t-325 138q-200 0 -324 -138t-124 -351t124 -351t324 -138t325 138q124 138 124 351zM1483 682q0 -307 -197 -507t-503 -200q-307 0 -503 200t-196 507t197 507t503 200t502 -200q197 -200 197 -507zM1040 1522q0 -20 -16 -37q-16 -19 -43 -19
t-45 23l-150 188l-147 -188q-16 -21 -42 -21t-44 16t-18 36t10 36l100 156q49 76 139 76t144 -76l104 -156q8 -14 8 -34z" />
    <glyph glyph-name="Otilde" unicode="&#xd5;" horiz-adv-x="1566" 
d="M1231 682q0 213 -124 351t-325 138q-200 0 -324 -138t-124 -351t124 -351t324 -138t325 138q124 138 124 351zM1483 682q0 -307 -197 -507t-503 -200q-307 0 -503 200t-196 507t197 507t503 200t502 -200q197 -200 197 -507zM657 1634q-63 0 -77 -96q-4 -25 -24 -41
t-45 -16q-24 0 -38 16t-14 39q0 84 54 156t155 71q47 -1 85 -25t57 -54q51 -80 99 -78q61 0 80 96q3 25 23 41t45 16t39 -16t14 -41q-4 -86 -55 -156t-154 -69q-61 0 -103 40q-42 41 -74 79t-67 38z" />
    <glyph glyph-name="Odieresis" unicode="&#xd6;" horiz-adv-x="1566" 
d="M1231 682q0 213 -124 351t-325 138q-200 0 -324 -138t-124 -351t124 -351t324 -138t325 138q124 138 124 351zM1483 682q0 -307 -197 -507t-503 -200q-307 0 -503 200t-196 507t197 507t503 200t502 -200q197 -200 197 -507zM1122 1586q0 -50 -37 -86t-87 -36t-86 36
t-35 87q0 51 35 86q36 35 86 35t87 -36t37 -86zM690 1587q0 -51 -35 -87t-85 -36t-86 36t-35 87q0 51 35 86q36 35 86 35t85 -35t35 -86z" />
    <glyph glyph-name="multiply" unicode="&#xd7;" horiz-adv-x="1028" 
d="M887 379q0 -27 -23 -47q-22 -20 -50 -20t-48 20l-252 252l-252 -252q-20 -20 -48 -20t-50 21t-23 49q0 28 21 48l252 254l-250 252q-23 18 -23 46q1 28 21 52t50 23q30 0 50 -21l252 -254l252 254q20 20 47 20t51 -21q24 -23 23 -51q0 -28 -21 -48l-252 -252l252 -254
q21 -24 21 -51z" />
    <glyph glyph-name="Oslash" unicode="&#xd8;" horiz-adv-x="1566" 
d="M1231 682q0 213 -121 346l-561 -774q104 -61 233 -61q201 0 325 138t124 351zM782 1171q-200 0 -324 -138t-124 -344t108 -339l553 770q-102 51 -213 51zM1483 696q0 -322 -197 -521q-197 -200 -504 -200q-203 0 -368 95l-41 -58q-19 -26 -53 -26t-56 20t-22 48t14 44
l41 60q-213 197 -213 514t197 517t501 200q188 0 351 -84l32 45q23 28 56 28t55 -20t22 -46t-12 -44l-35 -47q232 -203 232 -525z" />
    <glyph glyph-name="Ugrave" unicode="&#xd9;" horiz-adv-x="1474" 
d="M1331 1257v-716q-1 -262 -151 -414t-442 -152t-442 152t-151 412v718q0 49 36 85t88 36t87 -36t35 -85v-710q0 -164 90 -259t257 -95t256 95t89 259v710q0 49 37 85t89 36t87 -36t35 -85zM799 1526q1 -23 -17 -40q-37 -36 -77 -3l-218 188q-20 18 -20 46q0 27 20 49
q19 22 47 22t52 -21l196 -202q17 -16 17 -39z" />
    <glyph glyph-name="Uacute" unicode="&#xda;" horiz-adv-x="1474" 
d="M1331 1257v-716q-1 -262 -151 -414t-442 -152t-442 152t-151 412v718q0 49 36 85t88 36t87 -36t35 -85v-710q0 -164 90 -259t257 -95t256 95t89 259v710q0 49 37 85t89 36t87 -36t35 -85zM1012 1718q0 -29 -23 -47l-215 -188q-44 -31 -77 2q-17 16 -17 41t14 39l199 202
q20 21 47 21q28 0 50 -20t22 -50z" />
    <glyph glyph-name="Ucircumflex" unicode="&#xdb;" horiz-adv-x="1474" 
d="M1331 1257v-716q-1 -262 -151 -414t-442 -152t-442 152t-151 412v718q0 49 36 85t88 36t87 -36t35 -85v-710q0 -164 90 -259t257 -95t256 95t89 259v710q0 49 37 85t89 36t87 -36t35 -85zM997 1522q0 -20 -16 -37q-16 -19 -43 -19t-45 23l-150 188l-147 -188
q-16 -21 -42 -21t-44 16t-18 36t10 36l100 156q49 76 139 76t144 -76l104 -156q8 -14 8 -34z" />
    <glyph glyph-name="Udieresis" unicode="&#xdc;" horiz-adv-x="1474" 
d="M1331 1257v-716q-1 -262 -151 -414t-442 -152t-442 152t-151 412v718q0 49 36 85t88 36t87 -36t35 -85v-710q0 -164 90 -259t257 -95t256 95t89 259v710q0 49 37 85t89 36t87 -36t35 -85zM1079 1586q0 -50 -37 -86t-87 -36t-86 36t-35 87q0 51 35 86q36 35 86 35t87 -36
t37 -86zM647 1587q0 -51 -35 -87t-85 -36t-86 36t-35 87q0 51 35 86q36 35 86 35t85 -35t35 -86z" />
    <glyph glyph-name="Yacute" unicode="&#xdd;" horiz-adv-x="1306" 
d="M1088 1376q56 0 90 -34t34 -74q0 -41 -16 -66l-420 -637v-456q0 -49 -36 -85t-87 -36t-86 36t-35 85v456l-423 639q-19 25 -19 64q0 40 34 74t91 34t92 -53l346 -539l342 539q37 53 93 53zM926 1718q0 -29 -23 -47l-215 -188q-44 -31 -77 2q-17 16 -17 41t14 39l199 202
q20 21 47 21q28 0 50 -20t22 -50z" />
    <glyph glyph-name="Thorn" unicode="&#xde;" horiz-adv-x="1249" 
d="M946 706q0 95 -65 154q-66 59 -166 60h-326v-424h326q100 0 166 57q65 58 65 153zM750 1137q206 0 326 -125t120 -306q0 -180 -120 -304t-326 -123h-361v-166q0 -49 -37 -85t-87 -36t-85 36t-35 85v1140q0 49 36 85t86 36t86 -36t36 -85v-116h361z" />
    <glyph glyph-name="germandbls" unicode="&#xdf;" horiz-adv-x="1280" 
d="M1245 289q1 -135 -107 -224t-292 -90q-117 0 -213 35t-144 94q-18 25 -18 59q0 33 24 59q23 26 53 26t56 -17q109 -84 242 -84q90 0 139 39q49 38 49 92t-57 84t-138 50q-81 18 -163 45t-139 91t-58 167q0 59 28 109t67 82q40 32 80 59q96 65 96 114t-54 81t-134 32
q-81 0 -142 -54t-62 -147v-895q0 -45 -32 -77q-32 -31 -78 -31q-45 0 -77 32t-32 76v895q0 168 119 282t320 113q162 0 280 -78t117 -204q0 -76 -44 -135t-98 -90q-143 -82 -143 -159t142 -101t270 -81q61 -28 102 -92t41 -157z" />
    <glyph glyph-name="agrave" unicode="&#xe0;" horiz-adv-x="1099" 
d="M741 453h-213q-227 0 -227 -154q0 -78 58 -125q57 -47 153 -47t163 73t66 171v82zM961 655v-559q0 -45 -32 -77t-77 -31h-12q-31 0 -65 26t-34 76q-119 -115 -297 -115q-138 0 -252 88t-114 243q0 154 108 226t279 72h276v25q0 86 -64 144q-65 58 -181 58t-220 -75
q-57 -35 -104 9q-27 25 -27 57t17 52q53 68 166 104t219 36q182 0 298 -86t116 -273zM608 1184q0 -23 -17 -40q-36 -36 -77 -3l-217 188q-21 18 -21 46q0 27 20 49t48 22q27 0 51 -21l197 -202q16 -16 16 -39z" />
    <glyph glyph-name="aacute" unicode="&#xe1;" horiz-adv-x="1099" 
d="M741 453h-213q-227 0 -227 -154q0 -78 58 -125q57 -47 153 -47t163 73t66 171v82zM961 655v-559q0 -45 -32 -77t-77 -31h-12q-31 0 -65 26t-34 76q-119 -115 -297 -115q-138 0 -252 88t-114 243q0 154 108 226t279 72h276v25q0 86 -64 144q-65 58 -181 58t-220 -75
q-57 -35 -104 9q-27 25 -27 57t17 52q53 68 166 104t219 36q182 0 298 -86t116 -273zM819 1376q0 -29 -22 -47l-215 -188q-44 -31 -77 2q-17 16 -18 41q0 25 15 39l198 202q20 21 48 21t49 -20q22 -20 22 -50z" />
    <glyph glyph-name="acircumflex" unicode="&#xe2;" horiz-adv-x="1099" 
d="M741 453h-213q-227 0 -227 -154q0 -78 58 -125q57 -47 153 -47t163 73t66 171v82zM961 655v-559q0 -45 -32 -77t-77 -31h-12q-31 0 -65 26t-34 76q-119 -115 -297 -115q-138 0 -252 88t-114 243q0 154 108 226t279 72h276v25q0 86 -64 144q-65 58 -181 58t-220 -75
q-57 -35 -104 9q-27 25 -27 57t17 52q53 68 166 104t219 36q182 0 298 -86t116 -273zM803 1180q-1 -20 -17 -37q-16 -19 -43 -19t-45 23l-149 188l-148 -188q-16 -21 -42 -21t-44 16t-18 36t10 36l101 156q49 76 139 76t143 -76l105 -156q8 -14 8 -34z" />
    <glyph glyph-name="atilde" unicode="&#xe3;" horiz-adv-x="1099" 
d="M741 453h-213q-227 0 -227 -154q0 -78 58 -125q57 -47 153 -47t163 73t66 171v82zM961 655v-559q0 -45 -32 -77t-77 -31h-12q-31 0 -65 26t-34 76q-119 -115 -297 -115q-138 0 -252 88t-114 243q0 154 108 226t279 72h276v25q0 86 -64 144q-65 58 -181 58t-220 -75
q-57 -35 -104 9q-27 25 -27 57t17 52q53 68 166 104t219 36q182 0 298 -86t116 -273zM275 1139q-23 0 -37 16t-15 39q1 84 55 156t154 71q47 -1 85 -25t57 -54q51 -80 100 -78q61 0 80 96q4 25 23 41t44 16t39 -16t14 -41q-4 -86 -55 -156t-153 -69q-47 1 -85 25t-58 53
q-51 81 -101 79q-63 0 -78 -96q-4 -25 -24 -41t-45 -16z" />
    <glyph glyph-name="adieresis" unicode="&#xe4;" horiz-adv-x="1099" 
d="M741 453h-213q-227 0 -227 -154q0 -78 58 -125q57 -47 153 -47t163 73t66 171v82zM961 655v-559q0 -45 -32 -77t-77 -31h-12q-31 0 -65 26t-34 76q-119 -115 -297 -115q-138 0 -252 88t-114 243q0 154 108 226t279 72h276v25q0 86 -64 144q-65 58 -181 58t-220 -75
q-57 -35 -104 9q-27 25 -27 57t17 52q53 68 166 104t219 36q182 0 298 -86t116 -273zM887 1244q0 -50 -37 -86t-87 -36t-86 36t-36 87t36 86t86 35t87 -36t37 -86zM455 1245q0 -51 -35 -87t-85 -36t-86 36t-36 87t36 86t86 35t85 -35t35 -86z" />
    <glyph glyph-name="aring" unicode="&#xe5;" horiz-adv-x="1099" 
d="M741 453h-213q-227 0 -227 -154q0 -78 58 -125q57 -47 153 -47t163 73t66 171v82zM961 655v-559q0 -45 -32 -77t-77 -31h-12q-31 0 -65 26t-34 76q-119 -115 -297 -115q-138 0 -252 88t-114 243q0 154 108 226t279 72h276v25q0 86 -64 144q-65 58 -181 58t-220 -75
q-57 -35 -104 9q-27 25 -27 57t17 52q53 68 166 104t219 36q182 0 298 -86t116 -273zM653 1308q1 44 -29 74t-73 31q-43 0 -75 -31q-32 -30 -32 -74t32 -76t74 -32t73 32q30 32 30 76zM758 1306q0 -88 -60 -148t-148 -60q-87 0 -149 60q-61 60 -61 148t61 149q61 63 147 63
t148 -62t62 -150z" />
    <glyph glyph-name="ae" unicode="&#xe6;" horiz-adv-x="1796" 
d="M784 473h-256q-100 0 -163 -42t-63 -118q0 -77 62 -119t166 -42t179 66q76 66 75 157v98zM1260 838q-118 0 -184 -84t-72 -187h507q-4 102 -68 187q-65 84 -183 84zM1720 539q0 -51 -32 -87t-76 -36h-606q12 -115 89 -187q77 -71 193 -71t205 57q25 12 55 12
q30 -1 60 -25q28 -24 28 -55t-16 -53q-48 -57 -148 -88t-190 -31q-266 0 -387 203q-129 -202 -411 -202q-152 0 -279 84q-127 85 -127 240t103 240t257 85h346v26q0 82 -68 131t-198 49t-239 -77q-62 -34 -106 10q-26 24 -26 58t17 52q53 68 170 104t227 36q274 0 348 -187
q127 186 361 187q162 0 274 -94t156 -258q20 -71 20 -123z" />
    <glyph glyph-name="ccedilla" unicode="&#xe7;" horiz-adv-x="1017" 
d="M940 160q0 -35 -14 -51q-80 -115 -289 -132l-33 -83q33 22 83 22t89 -40t39 -110q-1 -70 -65 -115q-64 -46 -149 -46q-85 -1 -154 23t-68 67q0 19 15 35q14 16 30 16t29 -6q68 -37 124 -37t90 19t33 55q0 61 -65 61q-18 0 -45 -14q-28 -14 -48 -14t-36 17t-16 35t2 23
l34 95q-200 20 -324 162t-124 360t143 365q143 146 369 147q113 0 203 -36t131 -97q14 -16 14 -51t-31 -62t-69 -27t-66 21q-76 57 -172 57q-133 0 -215 -90t-82 -233q0 -142 82 -234t215 -92q94 0 172 59q29 21 67 21q37 0 69 -28t32 -62z" />
    <glyph glyph-name="egrave" unicode="&#xe8;" horiz-adv-x="1140" 
d="M584 838q-128 0 -200 -80q-71 -80 -79 -183h549q-4 99 -73 181t-197 82zM1065 533q0 -47 -32 -81t-75 -34h-651q10 -115 94 -192q84 -76 213 -76t236 79q61 32 111 -13q29 -26 26 -64q-6 -78 -135 -127t-256 -50q-226 1 -372 145t-146 368t142 376q142 150 360 150
q172 0 292 -95t168 -257q25 -83 25 -129zM641 1184q0 -23 -17 -40q-36 -36 -77 -3l-217 188q-20 18 -20 46q0 27 20 49t47 22t51 -21l197 -202q16 -16 16 -39z" />
    <glyph glyph-name="eacute" unicode="&#xe9;" horiz-adv-x="1140" 
d="M584 838q-128 0 -200 -80q-71 -80 -79 -183h549q-4 99 -73 181t-197 82zM1065 533q0 -47 -32 -81t-75 -34h-651q10 -115 94 -192q84 -76 213 -76t236 79q61 32 111 -13q29 -26 26 -64q-6 -78 -135 -127t-256 -50q-226 1 -372 145t-146 368t142 376q142 150 360 150
q172 0 292 -95t168 -257q25 -83 25 -129zM852 1376q0 -29 -23 -47l-215 -188q-44 -30 -76 2q-17 16 -18 41q0 25 15 39l198 202q20 21 47 21q28 0 50 -20t22 -50z" />
    <glyph glyph-name="ecircumflex" unicode="&#xea;" horiz-adv-x="1140" 
d="M584 838q-128 0 -200 -80q-71 -80 -79 -183h549q-4 99 -73 181t-197 82zM1065 533q0 -47 -32 -81t-75 -34h-651q10 -115 94 -192q84 -76 213 -76t236 79q61 32 111 -13q29 -26 26 -64q-6 -78 -135 -127t-256 -50q-226 1 -372 145t-146 368t142 376q142 150 360 150
q172 0 292 -95t168 -257q25 -83 25 -129zM834 1180q0 -20 -16 -37q-16 -19 -44 -19q-27 0 -45 23l-149 188l-148 -188q-16 -21 -42 -21t-44 16t-18 36t10 36l100 156q50 76 140 76t143 -76l104 -156q9 -14 9 -34z" />
    <glyph glyph-name="edieresis" unicode="&#xeb;" horiz-adv-x="1140" 
d="M584 838q-128 0 -200 -80q-71 -80 -79 -183h549q-4 99 -73 181t-197 82zM1065 533q0 -47 -32 -81t-75 -34h-651q10 -115 94 -192q84 -76 213 -76t236 79q61 32 111 -13q29 -26 26 -64q-6 -78 -135 -127t-256 -50q-226 1 -372 145t-146 368t142 376q142 150 360 150
q172 0 292 -95t168 -257q25 -83 25 -129zM920 1244q0 -50 -37 -86t-87 -36t-86 36t-36 87t36 86t86 35t87 -36t37 -86zM487 1245q-1 -51 -35 -87t-84 -36t-86 36t-36 87t36 86t86 35t84 -35t35 -86z" />
    <glyph glyph-name="igrave" unicode="&#xec;" horiz-adv-x="495" 
d="M358 895v-799q0 -45 -32 -77q-32 -31 -78 -31q-45 0 -77 32t-32 76v799q0 43 32 75t78 32t78 -32q31 -32 31 -75zM311 1184q0 -23 -17 -40q-36 -36 -77 -3l-217 188q-20 18 -20 46q0 27 20 49t47 22t51 -21l197 -202q16 -16 16 -39z" />
    <glyph glyph-name="iacute" unicode="&#xed;" horiz-adv-x="495" 
d="M358 895v-799q0 -45 -32 -77q-32 -31 -78 -31q-45 0 -77 32t-32 76v799q0 43 32 75t78 32t78 -32q31 -32 31 -75zM520 1376q0 -29 -22 -47l-215 -188q-44 -31 -77 2q-17 16 -18 41q0 25 15 39l198 202q19 21 47 21t50 -20t22 -50z" />
    <glyph glyph-name="icircumflex" unicode="&#xee;" horiz-adv-x="495" 
d="M358 895v-799q0 -45 -32 -77q-32 -31 -78 -31q-45 0 -77 32t-32 76v799q0 43 32 75t78 32t78 -32q31 -32 31 -75zM502 1180q0 -20 -16 -37q-16 -19 -44 -19q-27 0 -45 23l-149 188l-148 -188q-16 -21 -42 -21t-44 16t-18 36t10 36l100 156q50 76 140 76t143 -76l105 -156
q8 -14 8 -34z" />
    <glyph glyph-name="idieresis" unicode="&#xef;" horiz-adv-x="495" 
d="M358 895v-799q0 -45 -32 -77q-32 -31 -78 -31q-45 0 -77 32t-32 76v799q0 43 32 75t78 32t78 -32q31 -32 31 -75zM588 1244q0 -50 -37 -86t-87 -36t-86 36t-36 87t36 86t86 35t87 -36t37 -86zM156 1245q0 -51 -35 -87t-85 -36t-86 36t-36 87t36 86t86 35t85 -35t35 -86z
" />
    <glyph glyph-name="eth" unicode="&#xf0;" horiz-adv-x="1173" 
d="M868 467q0 125 -75 210q-76 85 -206 85t-206 -85t-76 -210t76 -211t207 -86t206 86q74 86 74 211zM1098 512q0 -240 -137 -388t-369 -148t-374 138q-140 138 -140 352t126 352t322 138t320 -186q-84 172 -324 342l-252 -111q-12 -4 -28 -4q-16 1 -34 17t-18 50t35 46
l183 82q-100 54 -100 110t33 87q32 31 72 31q59 -1 159 -81q47 -37 63 -49l172 76q11 4 27 4t33 -15t17 -48t-32 -45l-117 -54q363 -317 363 -696z" />
    <glyph glyph-name="ntilde" unicode="&#xf1;" 
d="M1026 635v-539q0 -45 -33 -77q-33 -31 -78 -31t-77 32t-31 76v459q-1 125 -63 195t-158 70t-162 -76q-66 -75 -66 -199v-449q0 -45 -32 -77q-32 -31 -78 -31q-45 0 -77 32t-32 76v799q0 43 32 75t78 32t78 -32t31 -75v-21q109 139 308 140q156 0 258 -112t102 -267z
M310 1139q-24 0 -38 16t-14 39q0 84 54 156t155 71q47 -1 85 -25t57 -54q51 -80 100 -78q61 0 79 96q4 25 24 41t44 16q25 0 39 -16t14 -41q-4 -86 -55 -156t-154 -69q-47 1 -85 25t-57 54q-52 80 -101 78q-63 0 -78 -96q-5 -25 -25 -41t-44 -16z" />
    <glyph glyph-name="ograve" unicode="&#xf2;" horiz-adv-x="1173" 
d="M868 495q0 136 -75 230q-76 94 -206 94t-206 -94t-76 -230q0 -137 76 -231t206 -94t206 94q75 95 75 231zM78 495q0 219 139 369t371 150t370 -150q140 -150 140 -369q0 -220 -140 -370t-370 -150q-231 0 -371 150q-139 150 -139 370zM649 1184q0 -23 -17 -40
q-36 -36 -77 -3l-217 188q-20 18 -20 46q0 27 20 49t47 22t51 -21l197 -202q16 -16 16 -39z" />
    <glyph glyph-name="oacute" unicode="&#xf3;" horiz-adv-x="1173" 
d="M868 495q0 136 -75 230q-76 94 -206 94t-206 -94t-76 -230q0 -137 76 -231t206 -94t206 94q75 95 75 231zM78 495q0 219 139 369t371 150t370 -150q140 -150 140 -369q0 -220 -140 -370t-370 -150q-231 0 -371 150q-139 150 -139 370zM860 1376q0 -29 -22 -47l-215 -188
q-47 -28 -77 2q-17 16 -18 41q0 25 15 39l198 202q20 21 47 21q28 0 50 -20t22 -50z" />
    <glyph glyph-name="ocircumflex" unicode="&#xf4;" horiz-adv-x="1173" 
d="M868 495q0 136 -75 230q-76 94 -206 94t-206 -94t-76 -230q0 -137 76 -231t206 -94t206 94q75 95 75 231zM78 495q0 219 139 369t371 150t370 -150q140 -150 140 -369q0 -220 -140 -370t-370 -150q-231 0 -371 150q-139 150 -139 370zM840 1180q0 -20 -16 -37
q-16 -19 -44 -19q-27 0 -45 23l-149 188l-148 -188q-16 -21 -42 -21t-44 16t-18 36t10 36l100 156q50 76 140 76t143 -76l104 -156q9 -14 9 -34z" />
    <glyph glyph-name="otilde" unicode="&#xf5;" horiz-adv-x="1173" 
d="M868 495q0 136 -75 230q-76 94 -206 94t-206 -94t-76 -230q0 -137 76 -231t206 -94t206 94q75 95 75 231zM78 495q0 219 139 369t371 150t370 -150q140 -150 140 -369q0 -220 -140 -370t-370 -150q-231 0 -371 150q-139 150 -139 370zM314 1139q-24 0 -38 16t-14 39
q0 84 54 156t155 71q47 -1 85 -25t57 -54q51 -80 100 -78q61 0 80 96q4 25 23 41t44 16t39 -16t14 -41q-4 -86 -55 -156t-153 -69q-47 1 -85 25t-58 53q-51 81 -101 79q-63 0 -78 -96q-5 -25 -25 -41t-44 -16z" />
    <glyph glyph-name="odieresis" unicode="&#xf6;" horiz-adv-x="1173" 
d="M868 495q0 136 -75 230q-76 94 -206 94t-206 -94t-76 -230q0 -137 76 -231t206 -94t206 94q75 95 75 231zM78 495q0 219 139 369t371 150t370 -150q140 -150 140 -369q0 -220 -140 -370t-370 -150q-231 0 -371 150q-139 150 -139 370zM926 1244q0 -50 -37 -86t-87 -36
t-86 36t-36 87t36 86t86 35t87 -36t37 -86zM494 1245q0 -51 -35 -87t-85 -36t-86 36t-36 87t36 86t86 35t85 -35t35 -86z" />
    <glyph glyph-name="divide" unicode="&#xf7;" horiz-adv-x="1046" 
d="M637 311q0 -47 -34 -80t-81 -33t-80 34q-33 32 -32 79q0 47 32 80q33 33 80 33t81 -33t34 -80zM928 762q27 0 47 -20t20 -51q0 -30 -19 -50t-48 -20h-807q-29 0 -49 20t-20 51t20 50t49 20h807zM522 1176q47 0 81 -33t34 -79t-34 -80t-81 -34t-80 34t-32 81q0 47 32 79
q33 32 80 32z" />
    <glyph glyph-name="oslash" unicode="&#xf8;" horiz-adv-x="1173" 
d="M588 170q129 0 205 94q75 94 75 218t-53 212l-389 -473q68 -51 162 -51zM588 819q-131 0 -207 -94t-76 -217t49 -203l385 469q-67 45 -151 45zM203 -18q-23 0 -39 16t-16 38t12 34l51 63q-133 145 -133 363t139 368t371 150q164 0 284 -80l46 53q12 19 36 19t41 -16
q33 -30 6 -72l-45 -54q142 -145 142 -367t-140 -372t-370 -150q-174 0 -295 86l-51 -61q-16 -18 -39 -18z" />
    <glyph glyph-name="ugrave" unicode="&#xf9;" 
d="M139 354v539q0 45 33 77t78 32t77 -32t31 -77v-479q0 -124 62 -184t154 -60q94 0 164 68t69 186v469q0 45 33 77t78 32q44 0 76 -32t32 -77v-799q0 -43 -32 -75q-32 -31 -78 -31t-78 32t-31 74v21q-109 -139 -307 -140q-156 -1 -258 111t-103 268zM643 1184
q0 -23 -17 -40q-36 -36 -77 -3l-217 188q-20 18 -20 46q0 27 20 49t47 22t51 -21l197 -202q16 -16 16 -39z" />
    <glyph glyph-name="uacute" unicode="&#xfa;" 
d="M139 354v539q0 45 33 77t78 32t77 -32t31 -77v-479q0 -124 62 -184t154 -60q94 0 164 68t69 186v469q0 45 33 77t78 32q44 0 76 -32t32 -77v-799q0 -43 -32 -75q-32 -31 -78 -31t-78 32t-31 74v21q-109 -139 -307 -140q-156 -1 -258 111t-103 268zM852 1376
q0 -29 -23 -47l-215 -188q-44 -30 -76 2q-17 16 -18 41q0 25 15 39l198 202q20 21 47 21q28 0 50 -20t22 -50z" />
    <glyph glyph-name="ucircumflex" unicode="&#xfb;" 
d="M139 354v539q0 45 33 77t78 32t77 -32t31 -77v-479q0 -124 62 -184t154 -60q94 0 164 68t69 186v469q0 45 33 77t78 32q44 0 76 -32t32 -77v-799q0 -43 -32 -75q-32 -31 -78 -31t-78 32t-31 74v21q-109 -139 -307 -140q-156 -1 -258 111t-103 268zM834 1180
q0 -20 -16 -37q-16 -19 -44 -19q-27 0 -45 23l-149 188l-148 -188q-16 -21 -42 -21t-44 16t-18 36t10 36l100 156q50 76 140 76t143 -76l104 -156q9 -14 9 -34z" />
    <glyph glyph-name="udieresis" unicode="&#xfc;" 
d="M139 354v539q0 45 33 77t78 32t77 -32t31 -77v-479q0 -124 62 -184t154 -60q94 0 164 68t69 186v469q0 45 33 77t78 32q44 0 76 -32t32 -77v-799q0 -43 -32 -75q-32 -31 -78 -31t-78 32t-31 74v21q-109 -139 -307 -140q-156 -1 -258 111t-103 268zM922 1244
q0 -50 -37 -86t-87 -36t-86 36t-36 87t36 86t86 35t87 -36t37 -86zM489 1245q-1 -51 -35 -87t-84 -36t-86 36t-36 87t36 86t86 35t84 -35t35 -86z" />
    <glyph glyph-name="yacute" unicode="&#xfd;" horiz-adv-x="1032" 
d="M991 903q0 -33 -8 -49l-422 -1030q-92 -225 -321 -225q-61 0 -104 24q-42 25 -42 70t30 74t73 28h41q82 6 114 82l49 111l-354 868q-6 18 -6 49t31 64t80 32q74 0 102 -71l262 -676l262 676q25 72 105 71q47 0 78 -32q30 -33 30 -66zM786 1376q0 -29 -22 -47l-215 -188
q-47 -28 -77 2q-17 16 -17 41t14 39l199 202q20 21 47 21t49 -20t22 -50z" />
    <glyph glyph-name="thorn" unicode="&#xfe;" horiz-adv-x="1185" 
d="M885 496q0 143 -76 233q-77 90 -187 90t-187 -88t-77 -227v-19q0 -137 78 -226t172 -89q125 0 201 92t76 234zM1112 496q0 -240 -122 -380t-316 -141q-225 0 -316 160v-414q0 -43 -32 -75t-78 -31q-45 0 -77 32t-32 74v1547q0 42 32 74t78 32t78 -32t31 -74v-412
q86 158 316 158q194 0 316 -139t122 -379z" />
    <glyph glyph-name="ydieresis" unicode="&#xff;" horiz-adv-x="1032" 
d="M991 903q0 -33 -8 -49l-422 -1030q-92 -225 -321 -225q-61 0 -104 24q-42 25 -42 70t30 74t73 28h41q82 6 114 82l49 111l-354 868q-6 18 -6 49t31 64t80 32q74 0 102 -71l262 -676l262 676q25 72 105 71q47 0 78 -32q30 -33 30 -66zM854 1244q0 -50 -37 -86t-87 -36
t-86 36t-36 87t36 86t86 35t87 -36t37 -86zM422 1245q0 -51 -35 -87t-85 -36t-86 36t-36 87t36 86t86 35t85 -35t35 -86z" />
    <glyph glyph-name="Amacron" unicode="&#x100;" horiz-adv-x="1380" 
d="M446 475h486l-242 645zM1323 119q0 -51 -37 -91t-94 -40q-86 0 -119 80l-72 190h-622l-74 -190q-31 -80 -119 -80q-57 0 -94 39t-37 79t11 58l426 1085q23 57 74 93q52 36 117 38t122 -34t82 -97l428 -1085q8 -29 8 -45zM1061 1567q-1 -27 -19 -46t-43 -20h-620
q-25 -1 -43 19t-19 47q1 27 19 45t43 18h620q25 0 43 -18t19 -45z" />
    <glyph glyph-name="amacron" unicode="&#x101;" horiz-adv-x="1099" 
d="M741 453h-213q-227 0 -227 -154q0 -78 58 -125q57 -47 153 -47t163 73t66 171v82zM961 655v-559q0 -45 -32 -77t-77 -31h-12q-31 0 -65 26t-34 76q-119 -115 -297 -115q-138 0 -252 88t-114 243q0 154 108 226t279 72h276v25q0 86 -64 144q-65 58 -181 58t-220 -75
q-57 -35 -104 9q-27 25 -27 57t17 52q53 68 166 104t219 36q182 0 298 -86t116 -273zM920 1225q0 -27 -18 -46t-44 -20h-620q-25 -1 -43 19t-19 47q0 27 18 45t44 18h620q26 0 44 -18t18 -45z" />
    <glyph glyph-name="Abreve" unicode="&#x102;" horiz-adv-x="1380" 
d="M446 475h486l-242 645zM1323 119q0 -51 -37 -91t-94 -40q-86 0 -119 80l-72 190h-622l-74 -190q-31 -80 -119 -80q-57 0 -94 39t-37 79t11 58l426 1085q23 57 74 93q52 36 117 38t122 -34t82 -97l428 -1085q8 -29 8 -45zM956 1671q28 0 48 -19t20 -44t-16 -41
q-132 -131 -318 -131t-317 131q-16 14 -17 39q0 25 18 45t48 20q29 0 49 -20q92 -86 220 -86t216 88q20 18 49 18z" />
    <glyph glyph-name="abreve" unicode="&#x103;" horiz-adv-x="1099" 
d="M741 453h-213q-227 0 -227 -154q0 -78 58 -125q57 -47 153 -47t163 73t66 171v82zM961 655v-559q0 -45 -32 -77t-77 -31h-12q-31 0 -65 26t-34 76q-119 -115 -297 -115q-138 0 -252 88t-114 243q0 154 108 226t279 72h276v25q0 86 -64 144q-65 58 -181 58t-220 -75
q-57 -35 -104 9q-27 25 -27 57t17 52q53 68 166 104t219 36q182 0 298 -86t116 -273zM815 1329q29 0 49 -19t19 -44q0 -25 -17 -41q-131 -131 -317 -131t-318 131q-16 14 -16 39t19 45q20 20 48 20t48 -20q92 -86 220 -86t216 88q20 18 49 18z" />
    <glyph glyph-name="Aogonek" unicode="&#x104;" horiz-adv-x="1380" 
d="M446 475h486l-242 645zM1485 -272q1 -43 -57 -76t-130 -33t-127 45q-55 46 -55 148t92 184q-49 -11 -86 14q-37 24 -49 60l-72 188h-622l-74 -190q-31 -80 -119 -80q-57 0 -94 39t-37 79t11 58l426 1085q23 57 74 93q52 36 117 38t122 -34t82 -97l432 -1095
q16 -45 16 -83t-52 -115t-52 -146q0 -92 80 -93q39 0 88 45q12 12 35 12t37 -12q14 -14 14 -34z" />
    <glyph glyph-name="aogonek" unicode="&#x105;" horiz-adv-x="1099" 
d="M741 453h-213q-227 0 -227 -154q0 -78 58 -125q57 -47 153 -47t163 73t66 171v82zM1069 -272q0 -43 -57 -76t-130 -33t-128 45q-56 46 -56 148t99 188q-25 8 -40 34t-16 56q-119 -115 -297 -115q-138 0 -252 88t-114 242q0 155 102 227t244 72h317v45q0 84 -63 133
t-181 49t-221 -75q-57 -35 -104 9q-27 25 -27 57t17 52q53 68 166 104t219 36q182 0 298 -86t116 -273v-559q0 -29 -19 -61q-10 -12 -42 -47q-87 -95 -87 -183q0 -87 82 -88q37 0 86 45q16 12 37 12t36 -12q15 -14 15 -34z" />
    <glyph glyph-name="Cacute" unicode="&#x106;" horiz-adv-x="1398" 
d="M795 1389q301 0 487 -213q27 -33 27 -76t-35 -76t-84 -33t-86 39q-126 141 -316 141t-322 -138t-132 -350t133 -351t325 -139t312 139q39 39 88 39t82 -33t33 -76t-25 -74q-186 -213 -487 -213t-506 198t-205 509t205 509t506 198zM1073 1718q0 -29 -22 -47l-215 -188
q-44 -31 -77 2q-17 16 -18 41q0 25 15 39l198 202q20 21 47 21t49 -20t23 -50z" />
    <glyph glyph-name="cacute" unicode="&#x107;" horiz-adv-x="1017" 
d="M940 153q0 -42 -33 -67q-121 -111 -331 -111q-210 1 -354 147t-144 372t143 373q143 146 369 147q113 0 203 -36t131 -97q14 -16 14 -51t-31 -62t-69 -27t-66 21q-76 57 -172 57q-133 0 -215 -90t-82 -233q0 -142 82 -234t215 -92q94 0 172 59q29 21 67 21q37 0 69 -28
t32 -69zM860 1376q0 -29 -22 -47l-215 -188q-47 -28 -77 2q-17 16 -18 41q0 25 15 39l198 202q20 21 47 21q28 0 50 -20t22 -50z" />
    <glyph glyph-name="Ccircumflex" unicode="&#x108;" horiz-adv-x="1398" 
d="M795 1389q301 0 487 -213q27 -33 27 -76t-35 -76t-84 -33t-86 39q-126 141 -316 141t-322 -138t-132 -350t133 -351t325 -139t312 139q39 39 88 39t82 -33t33 -76t-25 -74q-186 -213 -487 -213t-506 198t-205 509t205 509t506 198zM1055 1558q-1 -20 -17 -38t-43 -18
t-45 22l-149 188l-148 -188q-16 -20 -42 -20t-44 16t-18 36t10 35l100 156q49 76 139 76t144 -76l105 -156q8 -13 8 -33z" />
    <glyph glyph-name="ccircumflex" unicode="&#x109;" horiz-adv-x="1017" 
d="M940 153q0 -42 -33 -67q-121 -111 -331 -111q-210 1 -354 147t-144 372t143 373q143 146 369 147q113 0 203 -36t131 -97q14 -16 14 -51t-31 -62t-69 -27t-66 21q-76 57 -172 57q-133 0 -215 -90t-82 -233q0 -142 82 -234t215 -92q94 0 172 59q29 21 67 21q37 0 69 -28
t32 -69zM844 1180q0 -20 -16 -37q-16 -19 -44 -19q-27 0 -45 23l-149 188l-148 -188q-16 -21 -42 -21t-44 16t-18 36t10 36l101 156q49 76 139 76t143 -76l105 -156q8 -14 8 -34z" />
    <glyph glyph-name="Cdotaccent" unicode="&#x10a;" horiz-adv-x="1398" 
d="M795 1389q301 0 487 -213q27 -33 27 -76t-35 -76t-84 -33t-86 39q-126 141 -316 141t-322 -138t-132 -350t133 -351t325 -139t312 139q39 39 88 39t82 -33t33 -76t-25 -74q-186 -213 -487 -213t-506 198t-205 509t205 509t506 198zM924 1621q0 -50 -36 -86t-86 -36
t-86 36t-36 86t36 86t86 36t86 -36t36 -86z" />
    <glyph glyph-name="cdotaccent" unicode="&#x10b;" horiz-adv-x="1017" 
d="M940 153q0 -42 -33 -67q-121 -111 -331 -111q-210 1 -354 147t-144 372t143 373q143 146 369 147q113 0 203 -36t131 -97q14 -16 14 -51t-31 -62t-69 -27t-66 21q-76 57 -172 57q-133 0 -215 -90t-82 -233q0 -142 82 -234t215 -92q94 0 172 59q29 21 67 21q37 0 69 -28
t32 -69zM713 1244q0 -50 -36 -86t-86 -36t-86 36t-36 86t36 86t86 36t86 -36t36 -86z" />
    <glyph glyph-name="Ccaron" unicode="&#x10c;" horiz-adv-x="1398" 
d="M795 1389q301 0 487 -213q27 -33 27 -76t-35 -76t-84 -33t-86 39q-126 141 -316 141t-322 -138t-132 -350t133 -351t325 -139t312 139q39 39 88 39t82 -33t33 -76t-25 -74q-186 -213 -487 -213t-506 198t-205 509t205 509t506 198zM1057 1732q0 -22 -8 -32l-105 -158
q-55 -76 -143 -76t-139 76l-101 158q-10 14 -10 33t16 35t45 18q29 0 43 -21l148 -186l149 186q18 21 43 21t43 -16t19 -38z" />
    <glyph glyph-name="ccaron" unicode="&#x10d;" horiz-adv-x="1017" 
d="M940 153q0 -42 -33 -67q-121 -111 -331 -111q-210 1 -354 147t-144 372t143 373q143 146 369 147q113 0 203 -36t131 -97q14 -16 14 -51t-31 -62t-69 -27t-66 21q-76 57 -172 57q-133 0 -215 -90t-82 -233q0 -142 82 -234t215 -92q94 0 172 59q29 21 67 21q37 0 69 -28
t32 -69zM852 1390q0 -22 -8 -32l-105 -158q-55 -76 -143 -76t-139 76l-101 158q-10 14 -10 32t16 36t46 18t43 -21l147 -186l150 186q18 21 43 21t43 -16t18 -38z" />
    <glyph glyph-name="Dcaron" unicode="&#x10e;" horiz-adv-x="1456" 
d="M1120 685q0 202 -123 334t-342 132h-266v-936h266q215 0 340 134t125 336zM1372 681q0 -302 -198 -492q-199 -189 -519 -189h-362q-61 0 -105 44q-43 44 -43 103v1072q0 59 43 103t105 44h362q319 0 519 -191q198 -192 198 -494zM991 1732q0 -22 -8 -32l-104 -158
q-55 -76 -143 -76t-140 76l-100 158q-27 37 6 68q16 18 45 18t43 -21l147 -186l150 186q18 21 43 21t43 -16t18 -38z" />
    <glyph glyph-name="dcaron" unicode="&#x10f;" horiz-adv-x="1376" 
d="M834 483v21q0 139 -78 227t-190 88t-187 -91q-76 -91 -76 -234q0 -144 76 -234q75 -90 187 -90t190 87t78 226zM1053 1270v-1174q0 -45 -33 -77q-33 -31 -78 -31t-77 32t-31 76v39q-92 -160 -318 -160q-194 -1 -316 139t-122 378t123 380t315 142q225 0 318 -160v416
q0 45 31 77q32 31 78 31t78 -32t32 -76zM1386 1237q0 -156 -126 -266q-42 -36 -73 -5t-9 62q84 94 92 146q-4 -4 -37 -4t-62 30q-29 31 -29 77t34 81t84 35t88 -42t38 -114z" />
    <glyph glyph-name="Dcroat" unicode="&#x110;" horiz-adv-x="1509" 
d="M1174 685q0 202 -123 334t-342 132h-267v-385h246q37 0 63 -27q25 -27 25 -65t-26 -64q-26 -27 -62 -26h-246v-369h267q215 0 340 134t125 336zM1425 682q0 -303 -198 -493q-199 -189 -518 -189h-363q-61 0 -104 44t-43 103v437h-105q-36 0 -62 28t-26 64q0 38 26 64
t62 26h105v453q0 59 43 103t104 44h363q319 0 518 -190q198 -191 198 -494z" />
    <glyph glyph-name="dcroat" unicode="&#x111;" horiz-adv-x="1198" 
d="M834 483v21q0 139 -78 227t-190 88t-187 -91q-76 -91 -76 -234q0 -144 76 -234q75 -90 187 -90t190 87t78 226zM1130 1223q26 -1 44 -19t18 -46t-18 -45t-44 -17h-77v-1000q0 -45 -33 -77q-33 -31 -78 -31t-77 32t-31 76v39q-92 -160 -318 -160q-194 -1 -316 139
t-122 378t123 380t315 142t318 -160v242h-259q-25 0 -43 18t-18 46t18 45t43 18h259v47q0 45 31 77q32 31 78 31t78 -32t32 -76v-47h77z" />
    <glyph glyph-name="Emacron" unicode="&#x112;" horiz-adv-x="1183" 
d="M991 215q43 -1 74 -31t31 -75t-31 -77t-74 -32h-698q-61 0 -105 44q-43 44 -43 103v1072q0 59 43 103t105 44h698q43 0 74 -32t31 -77t-31 -75t-74 -31h-602v-348h588q43 0 74 -32t31 -77t-32 -76q-30 -31 -73 -30h-588v-373h602zM983 1567q0 -27 -18 -46t-43 -20h-621
q-25 -1 -43 19t-18 47t18 45t43 18h621q25 0 43 -18t18 -45z" />
    <glyph glyph-name="emacron" unicode="&#x113;" horiz-adv-x="1140" 
d="M584 838q-128 0 -200 -80q-71 -80 -79 -183h549q-4 99 -73 181t-197 82zM1065 533q0 -47 -32 -81t-75 -34h-651q10 -115 94 -192q84 -76 213 -76t236 79q61 32 111 -13q29 -26 26 -64q-6 -78 -135 -127t-256 -50q-226 1 -372 145t-146 368t142 376q142 150 360 150
q172 0 292 -95t168 -257q25 -83 25 -129zM950 1225q0 -27 -18 -46t-43 -20h-621q-25 -1 -43 19t-18 47t18 45t43 18h621q25 0 43 -18t18 -45z" />
    <glyph glyph-name="Ebreve" unicode="&#x114;" horiz-adv-x="1183" 
d="M991 215q43 -1 74 -31t31 -75t-31 -77t-74 -32h-698q-61 0 -105 44q-43 44 -43 103v1072q0 59 43 103t105 44h698q43 0 74 -32t31 -77t-31 -75t-74 -31h-602v-348h588q43 0 74 -32t31 -77t-32 -76q-30 -31 -73 -30h-588v-373h602zM889 1706q29 0 48 -20t19 -44
q0 -25 -16 -40q-131 -132 -317 -132t-318 132q-16 14 -16 38t19 46q19 20 47 20t48 -20q93 -86 221 -86t216 88q20 18 49 18z" />
    <glyph glyph-name="ebreve" unicode="&#x115;" horiz-adv-x="1140" 
d="M584 838q-128 0 -200 -80q-71 -80 -79 -183h549q-4 99 -73 181t-197 82zM1065 533q0 -47 -32 -81t-75 -34h-651q10 -115 94 -192q84 -76 213 -76t236 79q61 32 111 -13q29 -26 26 -64q-6 -78 -135 -127t-256 -50q-226 1 -372 145t-146 368t142 376q142 150 360 150
q172 0 292 -95t168 -257q25 -83 25 -129zM913 1266q0 -25 -16 -41q-131 -131 -317 -131t-318 131q-16 14 -16 39t18 45t47 20t49 -20q92 -86 220 -86t217 88q23 18 51 18t46 -19q19 -19 19 -44z" />
    <glyph glyph-name="Edotaccent" unicode="&#x116;" horiz-adv-x="1183" 
d="M991 215q43 -1 74 -31t31 -75t-31 -77t-74 -32h-698q-61 0 -105 44q-43 44 -43 103v1072q0 59 43 103t105 44h698q43 0 74 -32t31 -77t-31 -75t-74 -31h-602v-348h588q43 0 74 -32t31 -77t-32 -76q-30 -31 -73 -30h-588v-373h602zM739 1586q0 -50 -36 -86t-86 -36t-86 36
q-35 36 -35 86t35 86q36 36 86 36t86 -36t36 -86z" />
    <glyph glyph-name="edotaccent" unicode="&#x117;" horiz-adv-x="1140" 
d="M584 838q-128 0 -200 -80q-71 -80 -79 -183h549q-4 99 -73 181t-197 82zM1065 533q0 -47 -32 -81t-75 -34h-651q10 -115 94 -192q84 -76 213 -76t236 79q61 32 111 -13q29 -26 26 -64q-6 -78 -135 -127t-256 -50q-226 1 -372 145t-146 368t142 376q142 150 360 150
q172 0 292 -95t168 -257q25 -83 25 -129zM707 1244q0 -50 -36 -86t-86 -36t-86 36t-36 86t36 86t86 36t86 -36t36 -86z" />
    <glyph glyph-name="Eogonek" unicode="&#x118;" horiz-adv-x="1183" 
d="M1178 -272q0 -43 -58 -76t-128 -33q-72 0 -128 45q-55 46 -55 150t98 186h-614q-61 0 -105 44q-43 44 -43 103v1072q0 59 43 103t105 44h698q43 0 74 -32t31 -77t-31 -75t-74 -31h-602v-348h588q43 0 74 -32t31 -77t-32 -76q-30 -31 -73 -30h-588v-373h602q43 0 74 -31
q31 -32 31 -80t-86 -126t-86 -169t80 -92q39 0 88 45q12 12 34 12t38 -12q14 -14 14 -34z" />
    <glyph glyph-name="eogonek" unicode="&#x119;" horiz-adv-x="1140" 
d="M584 838q-128 0 -200 -80q-71 -80 -79 -183h549q-4 99 -73 181t-197 82zM956 418h-649q10 -115 94 -192q84 -76 213 -76t236 79q20 15 56 15t62 -27t19 -65q-14 -92 -205 -152q-59 -25 -103 -75t-44 -115q0 -92 80 -93q39 0 88 45q12 12 35 12q22 0 36 -12q14 -14 15 -34
q1 -43 -57 -76t-130 -33t-128 46t-56 138t70 172q-222 5 -366 147t-144 366t142 376q142 150 352 150t347 -136q136 -136 146 -346q0 -46 -32 -80t-77 -34z" />
    <glyph glyph-name="Ecaron" unicode="&#x11a;" horiz-adv-x="1183" 
d="M991 215q43 -1 74 -31t31 -75t-31 -77t-74 -32h-698q-61 0 -105 44q-43 44 -43 103v1072q0 59 43 103t105 44h698q43 0 74 -32t31 -77t-31 -75t-74 -31h-602v-348h588q43 0 74 -32t31 -77t-32 -76q-30 -31 -73 -30h-588v-373h602zM874 1732q0 -22 -8 -32l-104 -158
q-56 -76 -144 -76t-139 76l-100 158q-10 14 -10 33t16 35t45 18q29 0 43 -21l148 -186l149 186q18 21 43 21t43 -16t18 -38z" />
    <glyph glyph-name="ecaron" unicode="&#x11b;" horiz-adv-x="1140" 
d="M584 838q-128 0 -200 -80q-71 -80 -79 -183h549q-4 99 -73 181t-197 82zM1065 533q0 -47 -32 -81t-75 -34h-651q10 -115 94 -192q84 -76 213 -76t236 79q61 32 111 -13q29 -26 26 -64q-6 -78 -135 -127t-256 -50q-226 1 -372 145t-146 368t142 376q142 150 360 150
q172 0 292 -95t168 -257q25 -83 25 -129zM838 1390q0 -22 -9 -32l-104 -158q-55 -76 -143 -76t-140 76l-100 158q-10 14 -10 32t16 36t45 18t43 -21l148 -186l149 186q18 21 43 21q26 0 44 -16t18 -38z" />
    <glyph glyph-name="Gcircumflex" unicode="&#x11c;" horiz-adv-x="1468" 
d="M1364 588v-146q0 -211 -169 -340t-394 -129q-303 0 -510 197t-207 512t207 511t504 196t485 -195q31 -31 31 -77t-34 -79q-34 -32 -81 -32t-82 34q-132 131 -324 131t-324 -138t-132 -350t133 -351t334 -139q117 1 218 67t101 176v84h-309q-43 0 -74 32t-31 77t31 76
t74 30h406q61 0 104 -44t43 -103zM1059 1558q-1 -20 -17 -38t-43 -18t-45 22l-149 188l-148 -188q-16 -20 -42 -20t-44 16t-18 36t10 35l101 156q49 76 139 76t143 -76l105 -156q8 -13 8 -33z" />
    <glyph glyph-name="gcircumflex" unicode="&#x11d;" horiz-adv-x="1189" 
d="M831 489v35q0 127 -77 211q-78 84 -188 84t-187 -86q-76 -86 -76 -227t76 -227q77 -86 187 -86q110 1 188 85t77 211zM1051 893v-840q0 -129 -44 -221t-121 -141q-148 -94 -345 -92q-274 0 -379 120q-18 27 -18 61t27 60q28 26 61 27q33 0 55 -14q103 -74 239 -74t220 63
t85 205v115q-43 -76 -125 -119t-190 -43q-194 0 -316 134t-122 371t122 373t330 136t301 -160v39q0 45 32 77t78 32t78 -32t32 -77zM848 1180q0 -20 -16 -37q-16 -19 -44 -19q-27 0 -45 23l-149 188l-148 -188q-16 -21 -42 -21t-44 16t-18 36t10 36l101 156q49 76 139 76
t143 -76l105 -156q8 -14 8 -34z" />
    <glyph glyph-name="Gbreve" unicode="&#x11e;" horiz-adv-x="1468" 
d="M1364 588v-146q0 -211 -169 -340t-394 -129q-303 0 -510 197t-207 512t207 511t504 196t485 -195q31 -31 31 -77t-34 -79q-34 -32 -81 -32t-82 34q-132 131 -324 131t-324 -138t-132 -350t133 -351t334 -139q117 1 218 67t101 176v84h-309q-43 0 -74 32t-31 77t31 76
t74 30h406q61 0 104 -44t43 -103zM1071 1706q29 0 49 -20t19 -44q0 -25 -17 -40q-131 -132 -317 -132t-318 132q-16 14 -16 38t18 46q17 20 47 20t50 -20q92 -86 220 -86t216 88q20 18 49 18z" />
    <glyph glyph-name="gbreve" unicode="&#x11f;" horiz-adv-x="1189" 
d="M831 489v35q0 127 -77 211q-78 84 -188 84t-187 -86q-76 -86 -76 -227t76 -227q77 -86 187 -86q110 1 188 85t77 211zM1051 893v-840q0 -129 -44 -221t-121 -141q-148 -94 -345 -92q-274 0 -379 120q-18 27 -18 61t27 60q28 26 61 27q33 0 55 -14q103 -74 239 -74t220 63
t85 205v115q-43 -76 -125 -119t-190 -43q-194 0 -316 134t-122 371t122 373t330 136t301 -160v39q0 45 32 77t78 32t78 -32t32 -77zM860 1329q28 0 48 -19t20 -44t-17 -41q-131 -131 -317 -131t-318 131q-16 14 -16 39t20 45t47 20q28 0 48 -20q92 -86 220 -86t216 88
q20 18 49 18z" />
    <glyph glyph-name="Gdotaccent" unicode="&#x120;" horiz-adv-x="1468" 
d="M1364 588v-146q0 -211 -169 -340t-394 -129q-303 0 -510 197t-207 512t207 511t504 196t485 -195q31 -31 31 -77t-34 -79q-34 -32 -81 -32t-82 34q-132 131 -324 131t-324 -138t-132 -350t133 -351t334 -139q117 1 218 67t101 176v84h-309q-43 0 -74 32t-31 77t31 76
t74 30h406q61 0 104 -44t43 -103zM928 1621q0 -50 -36 -86t-86 -36t-86 36t-36 86t36 86t86 36t86 -36t36 -86z" />
    <glyph glyph-name="gdotaccent" unicode="&#x121;" horiz-adv-x="1189" 
d="M831 489v35q0 127 -77 211q-78 84 -188 84t-187 -86q-76 -86 -76 -227t76 -227q77 -86 187 -86q110 1 188 85t77 211zM1051 893v-840q0 -129 -44 -221t-121 -141q-148 -94 -345 -92q-274 0 -379 120q-18 27 -18 61t27 60q28 26 61 27q33 0 55 -14q103 -74 239 -74t220 63
t85 205v115q-43 -76 -125 -119t-190 -43q-194 0 -316 134t-122 371t122 373t330 136t301 -160v39q0 45 32 77t78 32t78 -32t32 -77zM717 1244q0 -50 -36 -86t-86 -36t-86 36t-36 86t36 86t86 36t86 -36t36 -86z" />
    <glyph glyph-name="Gcommaaccent" unicode="&#x122;" horiz-adv-x="1468" 
d="M934 -283q0 -156 -127 -266q-16 -14 -40 -14t-38 14q-14 15 -14 29t10 28q84 94 92 146q-5 -4 -37 -4t-61 31t-29 77t33 80q33 35 84 35t89 -42t38 -114zM1364 588v-146q0 -211 -169 -340t-394 -129q-303 0 -510 197t-207 512t207 511t504 196t485 -195q31 -31 31 -77
t-34 -79q-34 -32 -81 -32t-82 34q-132 131 -324 131t-324 -138t-132 -350t133 -351t334 -139q117 1 218 67t101 176v84h-309q-43 0 -74 32t-31 77t31 76t74 30h406q61 0 104 -44t43 -103z" />
    <glyph glyph-name="gcommaaccent" unicode="&#x123;" horiz-adv-x="1189" 
d="M831 489v35q0 127 -77 211q-78 84 -188 84t-187 -86q-76 -86 -76 -227t76 -227q77 -86 187 -86q110 1 188 85t77 211zM1051 893v-840q0 -129 -44 -221t-121 -141q-148 -94 -345 -92q-274 0 -379 120q-18 27 -18 61t27 60q28 26 61 27q33 0 55 -14q103 -74 239 -74t220 63
t85 205v115q-43 -76 -125 -119t-190 -43q-194 0 -316 134t-122 371t122 373t330 136t301 -160v39q0 45 32 77t78 32t78 -32t32 -77zM596 1108q-47 0 -84 36t-37 116t47 180q47 102 107 102q21 0 39 -13t18 -31t-45 -76q-45 -56 -47 -87q47 1 83 -31t36 -79t-35 -82t-82 -35z
" />
    <glyph glyph-name="Hcircumflex" unicode="&#x124;" horiz-adv-x="1482" 
d="M1339 1260v-1151q-1 -49 -37 -85t-88 -36t-86 36q-35 36 -34 85v485h-705v-485q0 -49 -37 -85t-87 -36t-85 36t-35 85v1151q0 50 36 84t86 34t86 -36t36 -82v-451h705v451q0 50 36 84t86 34q52 0 88 -36t35 -82zM993 1558q0 -20 -16 -38t-43 -18t-45 22l-150 188
l-147 -188q-16 -20 -42 -20t-44 16q-35 32 -8 71l100 156q49 76 139 76t144 -76l104 -156q8 -13 8 -33z" />
    <glyph glyph-name="hcircumflex" unicode="&#x125;" horiz-adv-x="1165" 
d="M1028 639v-543q0 -45 -33 -77q-33 -31 -77 -31t-77 32q-32 32 -32 76v484q0 123 -61 181q-62 58 -156 58q-94 -1 -164 -71t-70 -203v-449q0 -45 -32 -77q-32 -31 -78 -31q-45 0 -77 32t-32 76v1176q0 43 32 75q32 31 78 31t78 -32t31 -74v-398q18 27 46 54q28 26 95 56
t148 30q157 0 269 -112t112 -263zM836 1522q0 -20 -16 -37q-16 -19 -44 -19q-27 0 -45 23l-149 188l-148 -188q-16 -21 -42 -21t-44 16t-18 36t10 36l100 156q50 76 140 76t143 -76l104 -156q9 -14 9 -34z" />
    <glyph glyph-name="Hbar" unicode="&#x126;" horiz-adv-x="1482" 
d="M1094 995h-705v-186h705v186zM1339 995v-886q-1 -49 -37 -85t-88 -36t-86 36q-35 36 -34 85v485h-705v-485q0 -49 -37 -85t-87 -36t-85 36t-35 85v886h-63q-25 -1 -43 19t-19 47q0 27 18 45t44 18h63v136q0 50 36 84t86 34t86 -36t36 -82v-136h705v136q0 50 36 84t86 34
q52 0 88 -36t35 -82v-136h62q25 0 43 -18t18 -45t-18 -46t-43 -20h-62z" />
    <glyph glyph-name="hbar" unicode="&#x127;" horiz-adv-x="1165" 
d="M750 1161q0 -27 -18 -46t-44 -19h-330v-222q18 27 46 54q28 26 95 56t148 30q157 0 269 -112t112 -263v-543q0 -45 -33 -77q-33 -31 -77 -31t-77 32q-32 32 -32 76v484q0 123 -61 181q-62 58 -156 58q-94 -1 -164 -71t-70 -203v-449q0 -45 -32 -77q-32 -31 -78 -31
q-45 0 -77 32t-32 76v1000h-71q-25 0 -43 19t-19 46q0 27 18 45t44 19h71v47q0 43 32 75q32 31 78 31t78 -32t31 -74v-47h330q26 -1 44 -19t18 -45z" />
    <glyph glyph-name="Itilde" unicode="&#x128;" horiz-adv-x="534" 
d="M389 1260v-1151q0 -49 -37 -85t-87 -36t-85 36t-35 85v1151q0 50 36 84t86 34t86 -36t36 -82zM385 1511q-47 0 -85 25q-38 24 -57 54q-52 80 -102 79q-63 0 -78 -96q-4 -25 -24 -41t-44 -16t-38 16t-14 39q0 83 54 155t155 72q47 0 85 -24t57 -55q50 -79 99 -79
q61 0 80 97q3 25 23 41t45 16t39 -16t14 -41q-4 -86 -55 -156t-154 -70z" />
    <glyph glyph-name="itilde" unicode="&#x129;" horiz-adv-x="495" 
d="M358 895v-799q0 -45 -32 -77q-32 -31 -78 -31q-45 0 -77 32t-32 76v799q0 43 32 75t78 32t78 -32q31 -32 31 -75zM-26 1139q-24 0 -38 16t-14 39q0 84 54 156t155 71q47 -1 85 -25t57 -54q51 -80 100 -78q61 0 80 96q4 25 23 41t44 16t39 -16t14 -41q-4 -86 -55 -156
t-153 -69q-47 1 -85 25t-58 53q-51 81 -101 79q-63 0 -78 -96q-5 -25 -25 -41t-44 -16z" />
    <glyph glyph-name="Imacron" unicode="&#x12a;" horiz-adv-x="534" 
d="M389 1260v-1151q0 -49 -37 -85t-87 -36t-85 36t-35 85v1151q0 50 36 84t86 34t86 -36t36 -82zM641 1567q0 -27 -18 -46t-43 -20h-621q-25 -1 -43 19t-18 47t18 45t43 18h621q25 0 43 -18t18 -45z" />
    <glyph glyph-name="imacron" unicode="&#x12b;" horiz-adv-x="495" 
d="M358 895v-799q0 -45 -32 -77q-32 -31 -78 -31q-45 0 -77 32t-32 76v799q0 43 32 75t78 32t78 -32q31 -32 31 -75zM623 1225q-1 -27 -19 -46t-43 -20h-620q-25 -1 -43 19t-19 47q1 27 19 45t43 18h620q25 0 43 -18t19 -45z" />
    <glyph glyph-name="Ibreve" unicode="&#x12c;" horiz-adv-x="534" 
d="M389 1260v-1151q0 -49 -37 -85t-87 -36t-85 36t-35 85v1151q0 50 36 84t86 34t86 -36t36 -82zM534 1706q30 0 49 -20t19 -44q0 -25 -16 -40q-132 -132 -318 -132t-317 132q-17 14 -17 38t20 46q20 20 47 20q28 0 48 -20q92 -86 220 -86t216 88q19 18 49 18z" />
    <glyph glyph-name="ibreve" unicode="&#x12d;" horiz-adv-x="495" 
d="M358 895v-799q0 -45 -32 -77q-32 -31 -78 -31q-45 0 -77 32t-32 76v799q0 43 32 75t78 32t78 -32q31 -32 31 -75zM516 1329q28 0 46 -19q20 -19 20 -44t-17 -41q-131 -131 -317 -131t-318 131q-16 14 -16 39t19 45t47 20t49 -20q92 -86 220 -86t216 88q23 18 51 18z" />
    <glyph glyph-name="Iogonek" unicode="&#x12e;" horiz-adv-x="534" 
d="M496 -272q0 -43 -58 -76t-128 -33q-72 0 -128 45q-55 46 -55 148t96 186q-78 27 -78 111v1151q0 50 36 84t86 34t86 -36t36 -82v-1151q0 -47 -29 -82q-10 -15 -40 -49t-41 -51q-37 -52 -37 -117q0 -92 80 -93q39 0 88 45q12 12 34 12t38 -12q14 -14 14 -34z" />
    <glyph glyph-name="iogonek" unicode="&#x12f;" horiz-adv-x="495" 
d="M465 -272q0 -43 -57 -76t-130 -33t-128 45q-56 44 -56 148t103 190q-57 25 -58 94v799q0 43 32 75t78 32t78 -32t31 -75v-799q0 -49 -74 -133t-75 -153q0 -92 82 -93q29 0 65 29t58 29q23 1 37 -13t14 -34zM248 1378q55 0 95 -39t40 -95t-40 -95t-95 -39t-95 39t-40 95
t40 95t95 39z" />
    <glyph glyph-name="Idotaccent" unicode="&#x130;" horiz-adv-x="534" 
d="M389 1260v-1151q0 -49 -37 -85t-87 -36t-85 36t-35 85v1151q0 50 36 84t86 34t86 -36t36 -82zM389 1621q0 -50 -36 -86t-86 -36t-86 36t-36 86t36 86t86 36t86 -36t36 -86z" />
    <glyph glyph-name="dotlessi" unicode="&#x131;" horiz-adv-x="495" 
d="M358 895v-799q0 -45 -32 -77q-32 -31 -78 -31q-45 0 -77 32t-32 76v799q0 43 32 75t78 32t78 -32q31 -32 31 -75z" />
    <glyph glyph-name="IJ" unicode="&#x132;" horiz-adv-x="1521" 
d="M1376 1260v-826q0 -227 -127 -343t-347 -116t-310 117q-20 27 -20 65q0 39 33 71q35 32 65 32t51 -10q106 -57 174 -57q109 -1 173 67t65 178v822q-1 50 35 84t87 34t86 -36t35 -82zM389 1260v-1151q0 -49 -37 -85t-87 -36t-85 36t-35 85v1151q0 50 36 84t86 34t86 -36
t36 -82z" />
    <glyph glyph-name="ij" unicode="&#x133;" horiz-adv-x="991" 
d="M854 895v-948q0 -164 -84 -256t-246 -92q-225 0 -225 112q0 37 27 63t50 26t55 -11q32 -10 58 -10q66 0 106 42t40 126v948q0 43 32 75t78 32q45 0 77 -32t32 -75zM358 895v-799q0 -45 -32 -77q-32 -31 -78 -31q-45 0 -77 32t-32 76v799q0 43 32 75t78 32t78 -32
q31 -32 31 -75zM743 1378q55 0 95 -39t41 -95q0 -56 -40 -95q-39 -39 -95 -39t-96 39t-40 95t40 95t95 39zM248 1378q55 0 95 -39t40 -95t-40 -95t-95 -39t-95 39t-40 95t40 95t95 39z" />
    <glyph glyph-name="Jcircumflex" unicode="&#x134;" horiz-adv-x="987" 
d="M842 1260v-826q0 -227 -127 -343t-347 -116t-311 117q-20 27 -20 65q0 39 34 71t64 32t51 -10q106 -57 174 -57q109 -1 174 67t64 178v822q0 50 36 84t87 34t86 -36t35 -82zM975 1558q-1 -20 -17 -38t-43 -18t-45 22l-149 188l-148 -188q-16 -20 -42 -20t-44 16t-18 36
t10 35l101 156q49 76 139 76t143 -76l105 -156q8 -13 8 -33z" />
    <glyph glyph-name="jcircumflex" unicode="&#x135;" horiz-adv-x="495" 
d="M358 895v-948q0 -164 -84 -256t-245 -92q-225 0 -226 112q0 37 27 63t50 26t55 -11q32 -10 59 -10q66 0 106 42t39 126v948q0 43 32 75t78 32t78 -32q31 -32 31 -75zM502 1180q0 -20 -16 -37q-16 -19 -44 -19q-27 0 -45 23l-149 188l-148 -188q-16 -21 -42 -21t-44 16
t-18 36t10 36l100 156q50 76 140 76t143 -76l105 -156q8 -14 8 -34z" />
    <glyph glyph-name="Kcommaaccent" unicode="&#x136;" horiz-adv-x="1294" 
d="M780 -283q0 -156 -127 -266q-17 -14 -37 -14q-21 0 -41 14q-14 15 -14 29t10 28q84 94 93 146q-4 -4 -37 -4t-62 31t-29 77t33 80q33 35 84 35t89 -42t38 -114zM1145 101q0 -41 -34 -77t-88 -36t-87 45l-428 540l-119 -139v-325q0 -49 -37 -85t-87 -36t-85 36t-35 85
v1151q0 50 36 84t86 34t86 -36t36 -82v-541l504 616q33 39 84 39t86 -33t35 -77t-25 -72l-405 -471l452 -547q25 -31 25 -73z" />
    <glyph glyph-name="kcommaaccent" unicode="&#x137;" horiz-adv-x="1079" 
d="M674 -283q0 -156 -127 -266q-16 -14 -40 -14t-38 14q-14 15 -14 29t10 28q84 94 92 146q-4 -4 -37 -4q-34 0 -62 31t-28 77t33 80q33 35 84 35t89 -42t38 -114zM967 92q0 -36 -31 -70t-84 -34t-84 45l-274 373l-136 -142v-168q0 -45 -32 -77q-32 -31 -78 -31
q-45 0 -77 32t-32 76v1176q0 43 32 75q32 31 78 31t78 -32t31 -74v-756l412 455q29 33 71 33q41 0 73 -32t32 -70t-24 -68l-271 -293l295 -381q21 -31 21 -68z" />
    <glyph glyph-name="Lacute" unicode="&#x139;" horiz-adv-x="1060" 
d="M895 215q43 -1 75 -31t31 -75q1 -45 -31 -77t-75 -32h-602q-61 0 -105 44q-43 44 -43 103v1113q0 50 36 84t86 34t86 -36t36 -82v-1045h506zM838 1718q0 -29 -23 -47l-215 -188q-47 -28 -77 2q-17 16 -17 41t14 39l199 202q20 21 47 21q28 0 50 -20t22 -50z" />
    <glyph glyph-name="lacute" unicode="&#x13a;" horiz-adv-x="495" 
d="M358 1272v-1176q0 -45 -32 -77q-32 -31 -78 -31q-45 0 -77 32t-32 76v1176q0 43 32 75q32 31 78 31t78 -31q31 -32 31 -75zM520 1718q0 -29 -22 -47l-215 -188q-44 -31 -77 2q-17 16 -18 41q0 25 15 39l198 202q19 21 47 21t50 -20t22 -50z" />
    <glyph glyph-name="Lcommaaccent" unicode="&#x13b;" horiz-adv-x="1060" 
d="M668 -283q0 -156 -127 -266q-16 -14 -40 -14t-38 14q-14 15 -14 29t10 28q84 94 92 146q-4 -4 -37 -4q-34 0 -62 31t-28 77t33 80q33 35 84 35t89 -42t38 -114zM895 215q43 -1 75 -31t31 -75q1 -45 -31 -77t-75 -32h-602q-61 0 -105 44q-43 44 -43 103v1113q0 50 36 84
t86 34t86 -36t36 -82v-1045h506z" />
    <glyph glyph-name="lcommaaccent" unicode="&#x13c;" horiz-adv-x="495" 
d="M383 -283q0 -156 -127 -266q-16 -14 -40 -14t-38 14q-14 15 -14 29t10 28q84 94 92 146q-4 -4 -36 -4t-62 31q-29 31 -29 77t33 80q33 35 84 35t89 -42t38 -114zM358 1272v-1176q0 -45 -32 -77q-32 -31 -78 -31q-45 0 -77 32t-32 76v1176q0 43 32 75q32 31 78 31t78 -31
q31 -32 31 -75z" />
    <glyph glyph-name="Lcaron" unicode="&#x13d;" horiz-adv-x="1060" 
d="M895 215q43 -1 75 -31t31 -75q1 -45 -31 -77t-75 -32h-602q-61 0 -105 44q-43 44 -43 103v1113q0 50 36 84t86 34t86 -36t36 -82v-1045h506zM809 1237q0 -156 -127 -266q-42 -36 -78 0q-14 14 -14 28t10 29q84 94 92 146q-4 -4 -36 -4t-62 30q-29 31 -29 77t33 81t84 35
t89 -42t38 -114z" />
    <glyph glyph-name="lcaron" unicode="&#x13e;" horiz-adv-x="675" 
d="M358 1272v-1176q0 -45 -32 -77q-32 -31 -78 -31q-45 0 -77 32t-32 76v1176q0 43 32 75q32 31 78 31t78 -31q31 -32 31 -75zM715 1237q0 -156 -127 -266q-42 -36 -78 0q-14 14 -14 28t10 29q84 94 92 146q-4 -4 -37 -4t-61 30q-28 31 -29 77q0 46 33 81t84 35t89 -42
t38 -114z" />
    <glyph glyph-name="Ldot" unicode="&#x13f;" horiz-adv-x="1060" 
d="M928 731q0 -59 -43 -101t-103 -42t-102 42q-43 42 -43 101t43 103t102 43q59 0 103 -43q43 -44 43 -103zM895 215q43 -1 75 -31t31 -75q1 -45 -31 -77t-75 -32h-602q-61 0 -105 44q-43 44 -43 103v1113q0 50 36 84t86 34t86 -36t36 -82v-1045h506z" />
    <glyph glyph-name="ldot" unicode="&#x140;" horiz-adv-x="788" 
d="M786 500q0 -60 -43 -102t-102 -42t-102 42t-43 102t43 102q43 43 102 43t102 -43t43 -102zM358 1272v-1176q0 -45 -32 -77q-32 -31 -78 -31q-45 0 -77 32t-32 76v1176q0 43 32 75q32 31 78 31t78 -31q31 -32 31 -75z" />
    <glyph glyph-name="Lslash" unicode="&#x141;" horiz-adv-x="1093" 
d="M1034 106q0 -46 -32 -76t-74 -30h-602q-61 0 -105 44q-43 44 -43 103v361l-49 -29q-20 -10 -47 -10q-28 0 -54 26q-26 27 -26 71t43 69l133 76v549q0 50 36 84t86 34t86 -36t36 -82v-408l59 35q20 10 47 10t55 -25q27 -24 27 -70t-43 -69l-145 -84v-434h506q42 0 74 -32
t32 -77z" />
    <glyph glyph-name="lslash" unicode="&#x142;" horiz-adv-x="614" 
d="M544 889q22 -1 44 -21t22 -57t-35 -53l-157 -92v-570q0 -45 -33 -77q-33 -31 -78 -31t-77 32t-31 76v443l-93 -54q-20 -8 -40 -8q-20 1 -42 21t-22 57t35 55l162 95v567q0 43 32 75q33 31 78 31t77 -32t32 -74v-443l88 52q16 8 38 8z" />
    <glyph glyph-name="Nacute" unicode="&#x143;" horiz-adv-x="1476" 
d="M1331 1260v-1127q0 -59 -43 -102q-44 -43 -114 -43t-115 61l-670 918v-858q0 -49 -37 -85t-87 -36t-85 36t-35 85v1116q0 61 46 107t121 46t124 -65l651 -885v832q0 46 37 82t87 36t85 -36t35 -82zM1018 1718q0 -29 -23 -47l-215 -188q-47 -28 -77 2q-17 16 -17 41t14 39
l199 202q20 21 47 21q28 0 50 -20t22 -50z" />
    <glyph glyph-name="nacute" unicode="&#x144;" 
d="M1026 635v-539q0 -45 -33 -77q-33 -31 -78 -31t-77 32t-31 76v459q-1 125 -63 195t-158 70t-162 -76q-66 -75 -66 -199v-449q0 -45 -32 -77q-32 -31 -78 -31q-45 0 -77 32t-32 76v799q0 43 32 75t78 32t78 -32t31 -75v-21q109 139 308 140q156 0 258 -112t102 -267z
M854 1376q0 -29 -23 -47l-215 -188q-46 -28 -76 2q-17 16 -18 41q0 25 15 39l198 202q20 21 47 21q28 0 50 -20t22 -50z" />
    <glyph glyph-name="Ncommaaccent" unicode="&#x145;" horiz-adv-x="1476" 
d="M872 -283q0 -156 -127 -266q-15 -14 -39 -14t-45 21t3 50q84 94 92 146q-4 -4 -37 -4t-62 31t-29 77t34 80q34 35 84 35t88 -42t38 -114zM1331 1260v-1127q0 -59 -43 -102q-44 -43 -114 -43t-115 61l-670 918v-858q0 -49 -37 -85t-87 -36t-85 36t-35 85v1116q0 61 46 107
t121 46t124 -65l651 -885v832q0 46 37 82t87 36t85 -36t35 -82z" />
    <glyph glyph-name="ncommaaccent" unicode="&#x146;" 
d="M711 -283q0 -156 -127 -266q-16 -14 -40 -14t-38 14q-14 15 -14 29t10 28q84 94 92 146q-4 -4 -37 -4t-61 31t-29 77q0 46 33 80q33 35 84 35t89 -42t38 -114zM1026 635v-539q0 -45 -33 -77q-33 -31 -78 -31t-77 32t-31 76v459q-1 125 -63 195t-158 70t-162 -76
q-66 -75 -66 -199v-449q0 -45 -32 -77q-32 -31 -78 -31q-45 0 -77 32t-32 76v799q0 43 32 75t78 32t78 -32t31 -75v-21q109 139 308 140q156 0 258 -112t102 -267z" />
    <glyph glyph-name="Ncaron" unicode="&#x147;" horiz-adv-x="1476" 
d="M1331 1260v-1127q0 -59 -43 -102q-44 -43 -114 -43t-115 61l-670 918v-858q0 -49 -37 -85t-87 -36t-85 36t-35 85v1116q0 61 46 107t121 46t124 -65l651 -885v832q0 46 37 82t87 36t85 -36t35 -82zM993 1732q0 -22 -8 -32l-104 -158q-55 -76 -143 -76t-140 76l-100 158
q-27 37 6 68q16 18 45 18t43 -21l147 -186l150 186q18 21 43 21t43 -16t18 -38z" />
    <glyph glyph-name="ncaron" unicode="&#x148;" 
d="M1026 635v-539q0 -45 -33 -77q-33 -31 -78 -31t-77 32t-31 76v459q-1 125 -63 195t-158 70t-162 -76q-66 -75 -66 -199v-449q0 -45 -32 -77q-32 -31 -78 -31q-45 0 -77 32t-32 76v799q0 43 32 75t78 32t78 -32t31 -75v-21q109 139 308 140q156 0 258 -112t102 -267z
M842 1390q0 -22 -8 -32l-105 -158q-55 -76 -143 -76t-140 76l-100 158q-10 14 -10 32t16 36t45 18t43 -21l148 -186l149 186q18 21 43 21q26 0 44 -16t18 -38z" />
    <glyph glyph-name="Eng" unicode="&#x14a;" horiz-adv-x="1476" 
d="M1331 1260v-1203q0 -227 -127 -343t-347 -116t-310 117q-21 27 -21 65t34 70t64 33q30 0 52 -10q106 -57 189 -57t146 56q62 56 72 148q-18 18 -24 29l-670 918v-858q0 -49 -37 -85t-87 -36t-85 36t-35 85v1116q0 61 46 107t121 46t124 -65l651 -885v832q0 46 37 82
t87 36t85 -36t35 -82z" />
    <glyph glyph-name="eng" unicode="&#x14b;" 
d="M1026 635v-688q0 -164 -84 -256t-246 -92q-225 0 -225 112q0 37 27 63t50 26t55 -11q32 -10 59 -10q66 0 106 42t39 126v608q-1 125 -63 195t-158 70t-162 -76q-66 -75 -66 -199v-449q0 -45 -32 -77q-32 -31 -78 -31q-45 0 -77 32t-32 76v799q0 43 32 75t78 32t78 -32
t31 -75v-21q109 139 308 140q156 0 258 -112t102 -267z" />
    <glyph glyph-name="Omacron" unicode="&#x14c;" horiz-adv-x="1566" 
d="M1231 682q0 213 -124 351t-325 138q-200 0 -324 -138t-124 -351t124 -351t324 -138t325 138q124 138 124 351zM1483 682q0 -307 -197 -507t-503 -200q-307 0 -503 200t-196 507t197 507t503 200t502 -200q197 -200 197 -507zM1153 1567q0 -27 -18 -46t-43 -20h-621
q-25 -1 -43 19t-18 47t18 45t43 18h621q25 0 43 -18t18 -45z" />
    <glyph glyph-name="omacron" unicode="&#x14d;" horiz-adv-x="1173" 
d="M868 495q0 136 -75 230q-76 94 -206 94t-206 -94t-76 -230q0 -137 76 -231t206 -94t206 94q75 95 75 231zM78 495q0 219 139 369t371 150t370 -150q140 -150 140 -369q0 -220 -140 -370t-370 -150q-231 0 -371 150q-139 150 -139 370zM958 1225q0 -27 -18 -46t-43 -20
h-621q-25 -1 -43 19t-18 47t18 45t43 18h621q25 0 43 -18t18 -45z" />
    <glyph glyph-name="Obreve" unicode="&#x14e;" horiz-adv-x="1566" 
d="M1231 682q0 213 -124 351t-325 138q-200 0 -324 -138t-124 -351t124 -351t324 -138t325 138q124 138 124 351zM1483 682q0 -307 -197 -507t-503 -200q-307 0 -503 200t-196 507t197 507t503 200t502 -200q197 -200 197 -507zM1048 1706q30 0 49 -20t19 -44q0 -25 -16 -40
q-132 -132 -318 -132t-317 132q-16 14 -16 38t19 46q19 20 47 20t48 -20q92 -86 220 -86t216 88q19 18 49 18z" />
    <glyph glyph-name="obreve" unicode="&#x14f;" horiz-adv-x="1173" 
d="M868 495q0 136 -75 230q-76 94 -206 94t-206 -94t-76 -230q0 -137 76 -231t206 -94t206 94q75 95 75 231zM78 495q0 219 139 369t371 150t370 -150q140 -150 140 -369q0 -220 -140 -370t-370 -150q-231 0 -371 150q-139 150 -139 370zM852 1329q28 0 48 -19t20 -44
t-17 -41q-131 -131 -317 -131t-318 131q-16 14 -16 39t19 45t47 20t49 -20q92 -86 220 -86t216 88q20 18 49 18z" />
    <glyph glyph-name="Ohungarumlaut" unicode="&#x150;" horiz-adv-x="1566" 
d="M1231 682q0 213 -124 351t-325 138q-200 0 -324 -138t-124 -351t124 -351t324 -138t325 138q124 138 124 351zM1483 682q0 -307 -197 -507t-503 -200q-307 0 -503 200t-196 507t197 507t503 200t502 -200q197 -200 197 -507zM1069 1786q37 0 57 -20t19 -48q0 -27 -15 -41
l-149 -188q-18 -21 -43 -21t-43 16t-18 32q0 18 8 34l129 203q18 33 55 33zM768 1786q36 0 56 -22t20 -47q0 -26 -13 -40l-151 -188q-14 -21 -40 -21t-43 16t-17 36q0 18 6 30l127 203q18 33 55 33z" />
    <glyph glyph-name="ohungarumlaut" unicode="&#x151;" horiz-adv-x="1173" 
d="M868 495q0 136 -75 230q-76 94 -206 94t-206 -94t-76 -230q0 -137 76 -231t206 -94t206 94q75 95 75 231zM78 495q0 219 139 369t371 150t370 -150q140 -150 140 -369q0 -220 -140 -370t-370 -150q-231 0 -371 150q-139 150 -139 370zM872 1444q38 0 57 -20t19 -48
q0 -27 -14 -41l-150 -188q-18 -21 -43 -21t-43 16t-18 32q0 18 8 34l129 203q17 33 55 33zM572 1444q38 0 56 -22q19 -22 19 -46q0 -25 -12 -41l-152 -188q-14 -21 -40 -21t-43 16t-17 36q0 18 6 30l127 203q18 33 56 33z" />
    <glyph glyph-name="OE" unicode="&#x152;" horiz-adv-x="2236" 
d="M334 682q0 -213 125 -351t332 -138q139 1 247 71t162 201v434q-53 133 -161 202t-248 68q-207 0 -332 -137t-125 -350zM2046 215q42 -1 74 -31t32 -75t-32 -77t-74 -32h-703q-71 0 -109 55t-34 138q-70 -105 -190 -161t-250 -57q-297 0 -487 200q-189 200 -189 507
t189 506t487 198q131 0 251 -55t189 -160q-4 83 35 139t111 56h700q43 0 75 -32q31 -32 31 -77t-32 -75t-74 -31h-600v-348h586q42 0 74 -32t32 -77t-32 -76t-74 -30h-586v-373h600z" />
    <glyph glyph-name="oe" unicode="&#x153;" horiz-adv-x="1931" 
d="M868 495q0 140 -76 232q-77 92 -204 92t-205 -92t-78 -232q0 -139 78 -233t205 -94t204 93q76 94 76 234zM1374 838q-130 0 -200 -80t-78 -183h551q-4 99 -74 181t-199 82zM1853 533q-1 -45 -31 -77t-75 -32h-647q12 -115 95 -194q83 -78 208 -78t229 63q24 12 52 12
q28 -1 56 -25t28 -58t-19 -56q-53 -55 -157 -84t-203 -29q-264 0 -408 244q-143 -244 -383 -244t-381 150q-139 150 -139 370q0 219 139 369t379 150t387 -246q135 246 389 246q172 0 292 -94t167 -258q22 -83 22 -129z" />
    <glyph glyph-name="Racute" unicode="&#x154;" horiz-adv-x="1290" 
d="M389 723h326q100 0 166 58q65 59 65 155t-65 156q-66 59 -166 59h-326v-428zM1196 936q0 -156 -83 -260t-206 -144l238 -366q16 -29 16 -67q0 -39 -35 -75q-34 -36 -94 -36t-94 59l-281 461h-268v-399q0 -49 -37 -85t-87 -36t-85 36t-35 85v1110q0 59 43 103t105 44h457
q202 0 324 -118t122 -312zM932 1718q0 -29 -23 -47l-215 -188q-47 -28 -77 2q-17 16 -17 41t14 39l199 202q20 21 47 21q28 0 50 -20t22 -50z" />
    <glyph glyph-name="racute" unicode="&#x155;" horiz-adv-x="712" 
d="M690 904q0 -44 -30 -75t-94 -37t-136 -58t-72 -144v-494q0 -45 -32 -77t-76 -31h-4q-45 0 -76 32t-31 76v799q0 43 32 75t78 32t78 -32t31 -75v-51q117 158 236 157q43 0 70 -26q26 -27 26 -71zM680 1376q0 -29 -23 -47l-215 -188q-44 -30 -76 2q-17 16 -18 41
q0 25 14 39l199 202q20 21 47 21q28 0 50 -20t22 -50z" />
    <glyph glyph-name="Rcommaaccent" unicode="&#x156;" horiz-adv-x="1290" 
d="M782 -283q0 -156 -127 -266q-15 -14 -39 -14t-44 20t1 51q84 94 93 146q-4 -4 -37 -4t-62 31t-29 77t33 80q33 35 84 35t89 -42t38 -114zM389 723h326q100 0 166 58q65 59 65 155t-65 156q-66 59 -166 59h-326v-428zM1196 936q0 -156 -83 -260t-206 -144l238 -366
q16 -29 16 -67q0 -39 -35 -75q-34 -36 -94 -36t-94 59l-281 461h-268v-399q0 -49 -37 -85t-87 -36t-85 36t-35 85v1110q0 59 43 103t105 44h457q202 0 324 -118t122 -312z" />
    <glyph glyph-name="rcommaaccent" unicode="&#x157;" horiz-adv-x="712" 
d="M489 -283q0 -156 -127 -266q-16 -14 -40 -14t-44 21q-21 21 3 50q84 94 92 146q-4 -4 -37 -4t-62 31q-28 31 -28 77t33 80q33 35 83 35t89 -42q38 -42 38 -114zM690 904q0 -44 -30 -75t-94 -37t-136 -58t-72 -144v-494q0 -45 -32 -77t-76 -31h-4q-45 0 -76 32t-31 76v799
q0 43 32 75t78 32t78 -32t31 -75v-51q117 158 236 157q43 0 70 -26q26 -27 26 -71z" />
    <glyph glyph-name="Rcaron" unicode="&#x158;" horiz-adv-x="1290" 
d="M389 723h326q100 0 166 58q65 59 65 155t-65 156q-66 59 -166 59h-326v-428zM1196 936q0 -156 -83 -260t-206 -144l238 -366q16 -29 16 -67q0 -39 -35 -75q-34 -36 -94 -36t-94 59l-281 461h-268v-399q0 -49 -37 -85t-87 -36t-85 36t-35 85v1110q0 59 43 103t105 44h457
q202 0 324 -118t122 -312zM907 1732q0 -22 -8 -32l-104 -158q-55 -76 -143 -76t-140 76l-100 158q-27 37 6 68q16 18 45 18t43 -21l147 -186l150 186q18 21 43 21t43 -16t18 -38z" />
    <glyph glyph-name="rcaron" unicode="&#x159;" horiz-adv-x="712" 
d="M690 904q0 -44 -30 -75t-94 -37t-136 -58t-72 -144v-494q0 -45 -32 -77t-76 -31h-4q-45 0 -76 32t-31 76v799q0 43 32 75t78 32t78 -32t31 -75v-51q117 158 236 157q43 0 70 -26q26 -27 26 -71zM664 1390q0 -22 -9 -32l-104 -158q-55 -76 -143 -76t-140 76l-100 158
q-10 14 -10 32t16 36t45 18t43 -21l148 -186l149 186q18 21 43 21q26 0 44 -16t18 -38z" />
    <glyph glyph-name="Sacute" unicode="&#x15a;" horiz-adv-x="1218" 
d="M1143 399q0 -184 -133 -304t-396 -120q-156 -1 -297 47t-208 128q-25 30 -25 72t35 77t78 35t69 -21q162 -123 359 -123q133 0 201 56t69 120q0 116 -158 166q-71 23 -155 42q-195 44 -324 118q-70 41 -114 116t-44 177q0 174 138 288t360 113q131 0 263 -40t196 -109
q25 -27 25 -70t-38 -75t-78 -33q-40 0 -69 20q-139 92 -319 92q-104 0 -166 -46t-62 -109t44 -98q44 -36 114 -56t154 -40t168 -51q84 -30 155 -73q70 -43 114 -119t44 -180zM879 1718q0 -29 -23 -47l-215 -188q-47 -28 -77 2q-17 16 -17 41t14 39l199 202q20 21 47 21
t49 -20t23 -50z" />
    <glyph glyph-name="sacute" unicode="&#x15b;" horiz-adv-x="966" 
d="M891 273q0 -123 -109 -211t-303 -87q-111 0 -221 34t-166 95q-20 25 -20 58q0 32 28 60t62 28q33 0 53 -14q131 -88 272 -89q94 0 144 36q49 35 49 91t-62 86t-149 46q-88 18 -176 44t-150 91q-61 67 -61 183t105 203t288 87q105 0 203 -32t147 -87q19 -23 19 -53
t-27 -56q-47 -44 -106 -12q-102 70 -236 70q-82 0 -131 -35t-49 -84t61 -76q60 -27 148 -44t176 -44t150 -96t61 -192zM752 1376q0 -29 -23 -47l-215 -188q-47 -28 -77 2q-17 16 -17 41t14 39l199 202q20 21 47 21q28 0 50 -20t22 -50z" />
    <glyph glyph-name="Scircumflex" unicode="&#x15c;" horiz-adv-x="1218" 
d="M1143 399q0 -184 -133 -304t-396 -120q-156 -1 -297 47t-208 128q-25 30 -25 72t35 77t78 35t69 -21q162 -123 359 -123q133 0 201 56t69 120q0 116 -158 166q-71 23 -155 42q-195 44 -324 118q-70 41 -114 116t-44 177q0 174 138 288t360 113q131 0 263 -40t196 -109
q25 -27 25 -70t-38 -75t-78 -33q-40 0 -69 20q-139 92 -319 92q-104 0 -166 -46t-62 -109t44 -98q44 -36 114 -56t154 -40t168 -51q84 -30 155 -73q70 -43 114 -119t44 -180zM862 1558q0 -20 -16 -38t-43 -18t-45 22l-150 188l-147 -188q-16 -20 -42 -20t-44 16
q-35 32 -8 71l100 156q49 76 139 76t144 -76l104 -156q8 -13 8 -33z" />
    <glyph glyph-name="scircumflex" unicode="&#x15d;" horiz-adv-x="966" 
d="M891 273q0 -123 -109 -211t-303 -87q-111 0 -221 34t-166 95q-20 25 -20 58q0 32 28 60t62 28q33 0 53 -14q131 -88 272 -89q94 0 144 36q49 35 49 91t-62 86t-149 46q-88 18 -176 44t-150 91q-61 67 -61 183t105 203t288 87q105 0 203 -32t147 -87q19 -23 19 -53
t-27 -56q-47 -44 -106 -12q-102 70 -236 70q-82 0 -131 -35t-49 -84t61 -76q60 -27 148 -44t176 -44t150 -96t61 -192zM735 1180q0 -20 -16 -37q-16 -19 -43 -19t-45 23l-150 188l-147 -188q-16 -21 -42 -21t-44 16q-35 32 -8 72l100 156q49 76 139 76t144 -76l104 -156
q8 -14 8 -34z" />
    <glyph glyph-name="Scedilla" unicode="&#x15e;" horiz-adv-x="1218" 
d="M1143 399q0 -180 -127 -299t-377 -125l-35 -84q33 23 83 23t89 -39t39 -109t-63 -116q-64 -47 -150 -47q-86 -1 -154 23t-67 67q0 19 14 35q15 16 31 16t27 -6q68 -37 125 -37t90 20t32 56q0 59 -65 59q-16 0 -44 -13q-29 -13 -49 -13t-39 21t-9 54l34 95
q-130 10 -246 56t-173 116q-25 28 -25 70t35 77t78 35t69 -21q162 -123 359 -123q133 0 201 56t69 120q0 116 -158 166q-71 23 -155 42q-195 44 -324 118q-70 41 -114 116t-44 177q0 174 138 288t360 113q131 0 263 -40t196 -109q25 -27 25 -70t-38 -75t-78 -33
q-40 0 -69 20q-139 92 -319 92q-104 0 -166 -46t-62 -109t44 -98q44 -36 114 -56t154 -40t168 -51q84 -30 155 -73q70 -43 114 -119t44 -180z" />
    <glyph glyph-name="scedilla" unicode="&#x15f;" horiz-adv-x="966" 
d="M891 277q0 -119 -97 -205t-274 -95l-33 -86q33 23 83 23t89 -39t39 -109t-64 -116q-64 -47 -150 -47q-86 -1 -154 23t-68 67q0 19 16 35t30 16q15 0 28 -6q68 -37 124 -37t90 20t34 56q0 59 -66 59q-18 0 -45 -13t-47 -13t-37 17q-16 17 -16 33t2 25l35 95
q-229 20 -320 126q-18 27 -18 58q0 30 28 58t62 28q33 0 53 -14q131 -88 272 -89q94 0 144 36q49 35 49 91t-62 86t-149 46q-88 18 -176 44t-150 91q-61 67 -61 183t105 203t288 87q105 0 203 -32t147 -87q19 -23 19 -53t-27 -56q-47 -44 -106 -12q-102 70 -236 70
q-82 0 -131 -35t-49 -84t61 -76q60 -27 148 -44t176 -44t150 -96t61 -188z" />
    <glyph glyph-name="Scaron" unicode="&#x160;" horiz-adv-x="1218" 
d="M1143 399q0 -184 -133 -304t-396 -120q-156 -1 -297 47t-208 128q-25 30 -25 72t35 77t78 35t69 -21q162 -123 359 -123q133 0 201 56t69 120q0 116 -158 166q-71 23 -155 42q-195 44 -324 118q-70 41 -114 116t-44 177q0 174 138 288t360 113q131 0 263 -40t196 -109
q25 -27 25 -70t-38 -75t-78 -33q-40 0 -69 20q-139 92 -319 92q-104 0 -166 -46t-62 -109t44 -98q44 -36 114 -56t154 -40t168 -51q84 -30 155 -73q70 -43 114 -119t44 -180zM852 1732q0 -22 -8 -32l-105 -158q-55 -76 -143 -76t-139 76l-101 158q-10 14 -10 33t16 35t46 18
q30 0 43 -21l147 -186l150 186q18 21 43 21t43 -16t18 -38z" />
    <glyph glyph-name="scaron" unicode="&#x161;" horiz-adv-x="966" 
d="M891 273q0 -123 -109 -211t-303 -87q-111 0 -221 34t-166 95q-20 25 -20 58q0 32 28 60t62 28q33 0 53 -14q131 -88 272 -89q94 0 144 36q49 35 49 91t-62 86t-149 46q-88 18 -176 44t-150 91q-61 67 -61 183t105 203t288 87q105 0 203 -32t147 -87q19 -23 19 -53
t-27 -56q-47 -44 -106 -12q-102 70 -236 70q-82 0 -131 -35t-49 -84t61 -76q60 -27 148 -44t176 -44t150 -96t61 -192zM735 1390q0 -22 -8 -32l-104 -158q-55 -76 -143 -76t-140 76l-100 158q-26 36 6 68q16 18 45 18t43 -21l147 -186l150 186q18 21 43 21t43 -16t18 -38z
" />
    <glyph glyph-name="Tcaron" unicode="&#x164;" horiz-adv-x="1181" 
d="M1139 1257q0 -45 -32 -75t-75 -31h-317v-1042q0 -49 -37 -85t-88 -36t-86 36t-35 85v1042h-317q-45 0 -76 32t-31 77q0 46 31 76t76 30h880q43 0 75 -32t32 -77zM848 1732q0 -22 -8 -32l-105 -158q-55 -76 -143 -76t-139 76l-101 158q-10 14 -10 33t16 35t45 18
q29 0 43 -21l148 -186l149 186q18 21 43 21q26 0 44 -16t18 -38z" />
    <glyph glyph-name="tcaron" unicode="&#x165;" horiz-adv-x="724" 
d="M637 82q0 -106 -199 -107q-124 0 -190 66t-66 190v566h-82q-38 1 -66 29t-28 68t28 68t66 27h82v174q0 45 33 77t79 32t77 -32t30 -77v-174h121q39 -1 66 -29q26 -28 26 -68t-26 -68t-66 -27h-121v-510q0 -55 27 -86t68 -31l45 6q43 0 69 -26t27 -68zM762 1393
q0 -156 -127 -267q-16 -14 -40 -14t-38 14t-14 28t10 30q84 94 92 145q-4 -4 -37 -4q-34 0 -62 31t-28 77q0 47 33 81t84 34t89 -42t38 -113z" />
    <glyph glyph-name="Tbar" unicode="&#x166;" horiz-adv-x="1181" 
d="M874 786q39 0 66 -26t27 -67q0 -39 -27 -67t-66 -28h-159v-489q0 -49 -37 -85t-88 -36t-86 36t-35 85v489h-156q-39 0 -65 28t-27 68q0 40 27 66q27 27 65 26h156v365h-317q-45 0 -76 32t-31 77q0 46 31 76t76 30h880q43 0 75 -32t32 -77t-32 -75t-75 -31h-317v-365h159z
" />
    <glyph glyph-name="tbar" unicode="&#x167;" horiz-adv-x="657" 
d="M637 82q0 -106 -199 -107q-124 0 -190 66t-66 190v170h-84q-40 0 -66 28t-26 68q0 41 27 67t65 26h84v207h-82q-38 1 -66 29t-28 68t28 68t66 27h82v174q0 45 33 77t79 32t77 -32t30 -77v-174h121q39 -1 66 -29q26 -28 26 -68t-26 -68t-66 -27h-121v-207h80q39 0 65 -26
t27 -67q-1 -40 -27 -68t-65 -28h-80v-114q0 -55 27 -86t68 -31l45 6q43 0 69 -26t27 -68z" />
    <glyph glyph-name="Utilde" unicode="&#x168;" horiz-adv-x="1474" 
d="M1331 1257v-716q-1 -262 -151 -414t-442 -152t-442 152t-151 412v718q0 49 36 85t88 36t87 -36t35 -85v-710q0 -164 90 -259t257 -95t256 95t89 259v710q0 49 37 85t89 36t87 -36t35 -85zM854 1511q-47 0 -85 25q-38 24 -57 54q-52 80 -102 79q-63 0 -78 -96
q-4 -25 -24 -41t-44 -16t-38 16t-14 39q0 83 54 155t155 72q47 0 85 -24t57 -55q50 -79 99 -79q61 0 80 97q4 25 24 41t44 16q25 0 39 -16t14 -41q-4 -86 -55 -156t-154 -70z" />
    <glyph glyph-name="utilde" unicode="&#x169;" 
d="M139 354v539q0 45 33 77t78 32t77 -32t31 -77v-479q0 -124 62 -184t154 -60q94 0 164 68t69 186v469q0 45 33 77t78 32q44 0 76 -32t32 -77v-799q0 -43 -32 -75q-32 -31 -78 -31t-78 32t-31 74v21q-109 -139 -307 -140q-156 -1 -258 111t-103 268zM308 1139q-24 0 -38 16
t-14 39q0 84 54 156t155 71q47 -1 85 -25t57 -54q51 -80 100 -78q61 0 79 96q4 25 24 41t44 16q25 0 39 -16t14 -41q-4 -86 -55 -156t-154 -69q-47 1 -85 25t-57 54q-52 80 -101 78q-63 0 -78 -96q-5 -25 -25 -41t-44 -16z" />
    <glyph glyph-name="Umacron" unicode="&#x16a;" horiz-adv-x="1474" 
d="M1331 1257v-716q-1 -262 -151 -414t-442 -152t-442 152t-151 412v718q0 49 36 85t88 36t87 -36t35 -85v-710q0 -164 90 -259t257 -95t256 95t89 259v710q0 49 37 85t89 36t87 -36t35 -85zM1112 1567q0 -27 -18 -46t-43 -20h-621q-25 -1 -43 19t-18 47t18 45t43 18h621
q25 0 43 -18t18 -45z" />
    <glyph glyph-name="umacron" unicode="&#x16b;" 
d="M139 354v539q0 45 33 77t78 32t77 -32t31 -77v-479q0 -124 62 -184t154 -60q94 0 164 68t69 186v469q0 45 33 77t78 32q44 0 76 -32t32 -77v-799q0 -43 -32 -75q-32 -31 -78 -31t-78 32t-31 74v21q-109 -139 -307 -140q-156 -1 -258 111t-103 268zM952 1225
q0 -27 -18 -46t-43 -20h-621q-25 -1 -43 19t-18 47t18 45t43 18h621q25 0 43 -18t18 -45z" />
    <glyph glyph-name="Ubreve" unicode="&#x16c;" horiz-adv-x="1474" 
d="M1331 1257v-716q-1 -262 -151 -414t-442 -152t-442 152t-151 412v718q0 49 36 85t88 36t87 -36t35 -85v-710q0 -164 90 -259t257 -95t256 95t89 259v710q0 49 37 85t89 36t87 -36t35 -85zM1004 1706q30 0 48 -20q19 -20 19 -44q0 -25 -16 -40q-131 -132 -317 -132
t-318 132q-16 14 -16 38t18 46q20 20 48 20t48 -20q92 -86 220 -86t216 88q20 18 50 18z" />
    <glyph glyph-name="ubreve" unicode="&#x16d;" 
d="M139 354v539q0 45 33 77t78 32t77 -32t31 -77v-479q0 -124 62 -184t154 -60q94 0 164 68t69 186v469q0 45 33 77t78 32q44 0 76 -32t32 -77v-799q0 -43 -32 -75q-32 -31 -78 -31t-78 32t-31 74v21q-109 -139 -307 -140q-156 -1 -258 111t-103 268zM915 1266
q0 -25 -16 -41q-131 -131 -317 -131t-318 131q-16 14 -16 39t19 45t47 20t48 -20q92 -86 220 -86t217 88q20 18 49 18t48 -19t19 -44z" />
    <glyph glyph-name="Uring" unicode="&#x16e;" horiz-adv-x="1474" 
d="M1331 1257v-716q-1 -262 -151 -414t-442 -152t-442 152t-151 412v718q0 49 36 85t88 36t87 -36t35 -85v-710q0 -164 90 -259t257 -95t256 95t89 259v710q0 49 37 85t89 36t87 -36t35 -85zM846 1650q0 44 -30 74t-73 31q-43 0 -75 -32q-32 -33 -31 -75q0 -42 32 -74
q31 -32 73 -32t73 32t31 76zM950 1648q0 -88 -60 -148t-148 -60t-148 60q-62 60 -62 148t62 149q62 63 147 63t147 -62t62 -150z" />
    <glyph glyph-name="uring" unicode="&#x16f;" 
d="M139 354v539q0 45 33 77t78 32t77 -32t31 -77v-479q0 -124 62 -184t154 -60q94 0 164 68t69 186v469q0 45 33 77t78 32q44 0 76 -32t32 -77v-799q0 -43 -32 -75q-32 -31 -78 -31t-78 32t-31 74v21q-109 -139 -307 -140q-156 -1 -258 111t-103 268zM583 1200q43 0 73 32
t30 76t-30 74t-72 31q-42 0 -75 -31q-32 -30 -32 -74t32 -76t74 -32zM791 1306q-1 -88 -61 -148t-147 -60t-149 60q-61 60 -61 148t61 149q62 63 148 63t148 -62t61 -150z" />
    <glyph glyph-name="Uhungarumlaut" unicode="&#x170;" horiz-adv-x="1474" 
d="M1331 1257v-716q-1 -262 -151 -414t-442 -152t-442 152t-151 412v718q0 49 36 85t88 36t87 -36t35 -85v-710q0 -164 90 -259t257 -95t256 95t89 259v710q0 49 37 85t89 36t87 -36t35 -85zM1026 1786q36 0 56 -20t20 -48q0 -27 -15 -41l-149 -188q-18 -21 -43 -21t-43 16
t-18 32q0 18 8 34l129 203q18 33 55 33zM725 1786q37 0 57 -22t19 -47q0 -26 -13 -40l-151 -188q-14 -21 -40 -21t-43 16t-17 36q0 18 6 30l127 203q18 33 55 33z" />
    <glyph glyph-name="uhungarumlaut" unicode="&#x171;" 
d="M139 354v539q0 45 33 77t78 32t77 -32t31 -77v-479q0 -124 62 -184t154 -60q94 0 164 68t69 186v469q0 45 33 77t78 32q44 0 76 -32t32 -77v-799q0 -43 -32 -75q-32 -31 -78 -31t-78 32t-31 74v21q-109 -139 -307 -140q-156 -1 -258 111t-103 268zM866 1444q36 0 56 -20
t20 -48q0 -27 -14 -41l-150 -188q-18 -21 -43 -21t-43 16t-18 32q0 18 8 34l129 203q18 33 55 33zM565 1444q37 0 57 -22t19 -46q0 -25 -12 -41l-152 -188q-14 -21 -40 -21t-43 16t-17 36q0 18 6 30l127 203q18 33 55 33z" />
    <glyph glyph-name="Uogonek" unicode="&#x172;" horiz-adv-x="1474" 
d="M1331 1257v-716q0 -209 -97 -351t-288 -190q-147 -74 -147 -190q0 -92 82 -93q37 0 86 45q13 12 35 12t37 -12q15 -14 16 -34q1 -43 -57 -76t-130 -33t-129 45q-55 45 -55 137t66 174q-297 -2 -451 150t-154 414v718q0 49 36 85t88 36t87 -36t35 -85v-710q0 -164 90 -259
t257 -95t256 95t89 259v710q0 49 37 85t89 36t87 -36t35 -85z" />
    <glyph glyph-name="uogonek" unicode="&#x173;" 
d="M1096 -272q0 -43 -58 -76t-130 -33t-128 45q-55 45 -55 137q0 127 115 213q-33 29 -33 86v15q-109 -139 -307 -140q-156 0 -258 112t-103 267v541q0 43 32 75t78 32t78 -32t31 -75v-481q0 -124 62 -184t154 -60q94 0 164 68t69 186v471q0 43 32 75t78 32q45 0 77 -32
t32 -75v-795q0 -71 -93 -137q-36 -25 -65 -65t-28 -88q0 -92 82 -93q30 0 64 29t56 29q22 1 38 -13t16 -34z" />
    <glyph glyph-name="Wcircumflex" unicode="&#x174;" horiz-adv-x="1853" 
d="M1804 1260q0 -14 -4 -35l-319 -1116q-13 -53 -59 -87t-101 -34h-4q-57 0 -100 34t-56 87l-235 892l-236 -892q-12 -53 -56 -87t-99 -34h-5q-57 0 -100 32t-57 86l-320 1121q-6 14 -6 48t37 73q37 38 87 38t86 -28t48 -72l244 -964l258 966q10 39 45 65q35 25 76 25
q42 0 74 -26t42 -64l259 -966l241 964q10 43 47 71q37 27 88 27t88 -36t37 -88zM1180 1558q0 -20 -16 -38t-44 -18q-27 0 -45 22l-149 188l-148 -188q-16 -20 -42 -20t-44 16t-18 36t10 35l100 156q50 76 140 76t143 -76l104 -156q9 -13 9 -33z" />
    <glyph glyph-name="wcircumflex" unicode="&#x175;" horiz-adv-x="1548" 
d="M1505 910q0 -30 -6 -44l-239 -774q-14 -45 -54 -75t-88 -29h-4q-49 0 -88 28t-53 76l-199 629l-199 -629q-14 -45 -54 -75t-89 -29h-4q-47 0 -86 30t-53 74l-242 774q-4 20 -4 31q0 41 31 73t72 32q42 0 72 -22t38 -54l188 -650l209 639q12 39 45 63t75 24t75 -24t47 -63
l209 -639l188 650q8 32 39 54t72 22t72 -31q30 -31 30 -61zM1026 1180q0 -20 -16 -37q-16 -19 -43 -19t-45 23l-150 188l-147 -188q-16 -21 -42 -21t-44 16q-34 31 -9 72l101 156q49 76 139 76t143 -76l105 -156q8 -14 8 -34z" />
    <glyph glyph-name="Ycircumflex" unicode="&#x176;" horiz-adv-x="1306" 
d="M1088 1376q56 0 90 -34t34 -74q0 -41 -16 -66l-420 -637v-456q0 -49 -36 -85t-87 -36t-86 36t-35 85v456l-423 639q-19 25 -19 64q0 40 34 74t91 34t92 -53l346 -539l342 539q37 53 93 53zM905 1558q0 -20 -16 -38t-43 -18t-45 22l-150 188l-147 -188q-16 -20 -42 -20
t-44 16q-35 32 -8 71l100 156q49 76 139 76t144 -76l104 -156q8 -13 8 -33z" />
    <glyph glyph-name="ycircumflex" unicode="&#x177;" horiz-adv-x="1032" 
d="M991 903q0 -33 -8 -49l-422 -1030q-92 -225 -321 -225q-61 0 -104 24q-42 25 -42 70t30 74t73 28h41q82 6 114 82l49 111l-354 868q-6 18 -6 49t31 64t80 32q74 0 102 -71l262 -676l262 676q25 72 105 71q47 0 78 -32q30 -33 30 -66zM768 1180q0 -20 -16 -37
q-16 -19 -43 -19t-45 23l-150 188l-147 -188q-16 -21 -42 -21t-44 16q-34 31 -9 72l101 156q49 76 139 76t143 -76l105 -156q8 -14 8 -34z" />
    <glyph glyph-name="Ydieresis" unicode="&#x178;" horiz-adv-x="1306" 
d="M1088 1376q56 0 90 -34t34 -74q0 -41 -16 -66l-420 -637v-456q0 -49 -36 -85t-87 -36t-86 36t-35 85v456l-423 639q-19 25 -19 64q0 40 34 74t91 34t92 -53l346 -539l342 539q37 53 93 53zM993 1586q0 -50 -37 -86t-87 -36t-86 36t-35 87q0 51 35 86q36 35 86 35t87 -36
t37 -86zM561 1587q0 -51 -35 -87t-85 -36t-86 36t-36 87t36 86t86 35t85 -35t35 -86z" />
    <glyph glyph-name="Zacute" unicode="&#x179;" horiz-adv-x="1206" 
d="M1022 215q42 -1 74 -31t32 -75t-32 -77t-74 -32h-811q-51 0 -91 39t-40 91t24 89l678 932h-598q-42 0 -74 32t-32 77q0 46 32 76t74 30h803q49 0 87 -39t38 -91t-29 -91l-673 -930h612zM856 1718q0 -29 -22 -47l-216 -188q-46 -28 -76 2q-17 16 -18 41q0 25 15 39
l198 202q20 21 47 21q28 0 50 -20t22 -50z" />
    <glyph glyph-name="zacute" unicode="&#x17a;" horiz-adv-x="974" 
d="M801 190q37 0 65 -26t27 -67q0 -41 -28 -69t-64 -28h-613q-42 0 -74 32t-32 74t24 76l472 615h-402q-38 1 -66 29t-28 68t28 68t66 27h604q39 0 71 -31q32 -32 32 -74t-23 -71l-477 -623h418zM758 1376q0 -29 -23 -47l-215 -188q-47 -28 -77 2q-17 16 -17 41t14 39
l199 202q20 21 47 21q28 0 50 -20t22 -50z" />
    <glyph glyph-name="Zdotaccent" unicode="&#x17b;" horiz-adv-x="1206" 
d="M1022 215q42 -1 74 -31t32 -75t-32 -77t-74 -32h-811q-51 0 -91 39t-40 91t24 89l678 932h-598q-42 0 -74 32t-32 77q0 46 32 76t74 30h803q49 0 87 -39t38 -91t-29 -91l-673 -930h612zM717 1586q0 -50 -36 -86t-86 -36t-86 36t-36 86t36 86t86 36t86 -36t36 -86z" />
    <glyph glyph-name="zdotaccent" unicode="&#x17c;" horiz-adv-x="974" 
d="M801 190q37 0 65 -26t27 -67q0 -41 -28 -69t-64 -28h-613q-42 0 -74 32t-32 74t24 76l472 615h-402q-38 1 -66 29t-28 68t28 68t66 27h604q39 0 71 -31q32 -32 32 -74t-23 -71l-477 -623h418zM606 1244q0 -50 -36 -86t-86 -36t-86 36t-36 86t36 86t86 36t86 -36t36 -86z
" />
    <glyph glyph-name="Zcaron" unicode="&#x17d;" horiz-adv-x="1206" 
d="M1022 215q42 -1 74 -31t32 -75t-32 -77t-74 -32h-811q-51 0 -91 39t-40 91t24 89l678 932h-598q-42 0 -74 32t-32 77q0 46 32 76t74 30h803q49 0 87 -39t38 -91t-29 -91l-673 -930h612zM854 1732q0 -22 -8 -32l-105 -158q-55 -76 -143 -76t-139 76l-101 158
q-10 14 -10 33t16 35t46 18q29 0 43 -21l147 -186l150 186q18 21 43 21t43 -16t18 -38z" />
    <glyph glyph-name="zcaron" unicode="&#x17e;" horiz-adv-x="974" 
d="M801 190q37 0 65 -26t27 -67q0 -41 -28 -69t-64 -28h-613q-42 0 -74 32t-32 74t24 76l472 615h-402q-38 1 -66 29t-28 68t28 68t66 27h604q39 0 71 -31q32 -32 32 -74t-23 -71l-477 -623h418zM735 1390q0 -22 -8 -32l-104 -158q-55 -76 -143 -76t-140 76l-100 158
q-26 36 6 68q16 18 45 18t43 -21l147 -186l150 186q18 21 43 21t43 -16t18 -38z" />
    <glyph glyph-name="florin" unicode="&#x192;" horiz-adv-x="911" 
d="M674 694q40 0 68 -28t28 -69q0 -40 -29 -69t-67 -28h-211l-166 -752q-8 -40 -42 -66t-81 -26t-83 36t-36 85q0 4 4 24l154 699h-39q-38 0 -66 28t-28 70q0 41 28 69t66 27h80l84 371q33 145 138 233t247 88q203 1 203 -124q0 -41 -26 -74t-73 -33l-77 14q-62 0 -110 -42
t-65 -113l-69 -320h168z" />
    <glyph glyph-name="AEacute" unicode="&#x1fc;" horiz-adv-x="1966" 
d="M932 475v645l-385 -645h385zM1778 215q44 -1 74 -31t30 -75t-31 -77t-73 -32h-699q-61 0 -104 44t-43 103v111h-504l-129 -215q-31 -53 -89 -53t-93 36t-35 76t18 70l656 1069q35 57 97 91t128 34h797q44 0 74 -32t30 -77t-31 -75t-73 -31h-600v-348h585q43 0 74 -32
t31 -77t-31 -76t-74 -30h-585v-373h600zM1272 1753q0 -29 -23 -47l-215 -188q-47 -28 -77 2q-17 16 -17 41t14 38l199 203q20 20 47 20q28 0 50 -20t22 -49z" />
    <glyph glyph-name="aeacute" unicode="&#x1fd;" horiz-adv-x="1796" 
d="M784 473h-256q-100 0 -163 -42t-63 -118q0 -77 62 -119t166 -42t179 66q76 66 75 157v98zM1260 838q-118 0 -184 -84t-72 -187h507q-4 102 -68 187q-65 84 -183 84zM1720 539q0 -51 -32 -87t-76 -36h-606q12 -115 89 -187q77 -71 193 -71t205 57q25 12 55 12
q30 -1 60 -25q28 -24 28 -55t-16 -53q-48 -57 -148 -88t-190 -31q-266 0 -387 203q-129 -202 -411 -202q-152 0 -279 84q-127 85 -127 240t103 240t257 85h346v26q0 82 -68 131t-198 49t-239 -77q-62 -34 -106 10q-26 24 -26 58t17 52q53 68 170 104t227 36q274 0 348 -187
q127 186 361 187q162 0 274 -94t156 -258q20 -71 20 -123zM1135 1376q0 -29 -23 -47l-215 -188q-44 -31 -77 2q-17 16 -17 41t14 39l199 202q20 21 47 21t49 -20t23 -50z" />
    <glyph glyph-name="Oslashacute" unicode="&#x1fe;" horiz-adv-x="1566" 
d="M1231 682q0 213 -121 346l-561 -774q104 -61 233 -61q201 0 325 138t124 351zM782 1171q-200 0 -324 -138t-124 -344t108 -339l553 770q-102 51 -213 51zM1483 696q0 -322 -197 -521q-197 -200 -504 -200q-203 0 -368 95l-41 -58q-19 -26 -53 -26t-56 20t-22 48t14 44
l41 60q-213 197 -213 514t197 517t501 200q188 0 351 -84l32 45q23 28 56 28t55 -20t22 -46t-12 -44l-35 -47q232 -203 232 -525zM948 1753q0 -29 -22 -47l-215 -188q-47 -28 -77 2q-17 16 -18 41q0 25 15 38l198 203q19 20 47 20t50 -20t22 -49z" />
    <glyph glyph-name="oslashacute" unicode="&#x1ff;" horiz-adv-x="1173" 
d="M588 170q129 0 205 94q75 94 75 218t-53 212l-389 -473q68 -51 162 -51zM588 819q-131 0 -207 -94t-76 -217t49 -203l385 469q-67 45 -151 45zM203 -18q-23 0 -39 16t-16 38t12 34l51 63q-133 145 -133 363t139 368t371 150q164 0 284 -80l46 53q12 19 36 19t41 -16
q33 -30 6 -72l-45 -54q142 -145 142 -367t-140 -372t-370 -150q-174 0 -295 86l-51 -61q-16 -18 -39 -18zM752 1376q0 -29 -23 -47l-215 -188q-47 -28 -77 2q-17 16 -17 41t14 39l199 202q20 21 47 21q28 0 50 -20t22 -50z" />
    <glyph glyph-name="Scommaaccent" unicode="&#x218;" horiz-adv-x="1218" 
d="M733 -283q0 -156 -127 -266q-16 -14 -40 -14t-38 14q-14 15 -14 29t10 28q84 94 92 146q-4 -4 -36 -4t-62 31q-29 31 -29 77t33 80q33 35 84 35t89 -42t38 -114zM1143 399q0 -184 -133 -304t-396 -120q-156 -1 -297 47t-208 128q-25 30 -25 72t35 77t78 35t69 -21
q162 -123 359 -123q133 0 201 56t69 120q0 116 -158 166q-71 23 -155 42q-195 44 -324 118q-70 41 -114 116t-44 177q0 174 138 288t360 113q131 0 263 -40t196 -109q25 -27 25 -70t-38 -75t-78 -33q-40 0 -69 20q-139 92 -319 92q-104 0 -166 -46t-62 -109t44 -98
q44 -36 114 -56t154 -40t168 -51q84 -30 155 -73q70 -43 114 -119t44 -180z" />
    <glyph glyph-name="scommaaccent" unicode="&#x219;" horiz-adv-x="966" 
d="M616 -283q0 -156 -127 -266q-15 -14 -39 -14t-45 21t3 50q84 94 92 146q-4 -4 -37 -4t-62 31t-29 77t34 80q34 35 84 35t88 -42t38 -114zM891 273q0 -123 -109 -211t-303 -87q-111 0 -221 34t-166 95q-20 25 -20 58q0 32 28 60t62 28q33 0 53 -14q131 -88 272 -89
q94 0 144 36q49 35 49 91t-62 86t-149 46q-88 18 -176 44t-150 91q-61 67 -61 183t105 203t288 87q105 0 203 -32t147 -87q19 -23 19 -53t-27 -56q-47 -44 -106 -12q-102 70 -236 70q-82 0 -131 -35t-49 -84t61 -76q60 -27 148 -44t176 -44t150 -96t61 -192z" />
    <glyph glyph-name="uni021A" unicode="&#x21a;" horiz-adv-x="1181" 
d="M723 -283q0 -156 -127 -266q-16 -14 -40 -14t-38 14q-14 15 -14 29t10 28q84 94 92 146q-4 -4 -36 -4t-62 31q-29 31 -29 77t33 80q33 35 84 35t89 -42t38 -114zM1139 1257q0 -45 -32 -75t-75 -31h-317v-1042q0 -49 -37 -85t-88 -36t-86 36t-35 85v1042h-317
q-45 0 -76 32t-31 77q0 46 31 76t76 30h880q43 0 75 -32t32 -77z" />
    <glyph glyph-name="uni021B" unicode="&#x21b;" horiz-adv-x="657" 
d="M461 -283q0 -156 -127 -266q-16 -14 -40 -14t-38 14q-14 15 -14 29t10 28q84 94 92 146q-4 -4 -37 -4t-61 31t-29 77q0 46 33 80q33 35 84 35t89 -42t38 -114zM637 82q0 -106 -199 -107q-124 0 -190 66t-66 190v566h-82q-38 1 -66 29t-28 68t28 68t66 27h82v174
q0 45 33 77t79 32t77 -32t30 -77v-174h121q39 -1 66 -29q26 -28 26 -68t-26 -68t-66 -27h-121v-510q0 -55 27 -86t68 -31l45 6q43 0 69 -26t27 -68z" />
    <glyph glyph-name="circumflex" unicode="&#x2c6;" horiz-adv-x="587" 
d="M545 1180q-1 -20 -17 -37q-16 -19 -43 -19t-45 23l-149 188l-148 -188q-16 -21 -42 -21t-44 16t-18 36t10 36l101 156q49 76 139 76t143 -76l105 -156q8 -14 8 -34z" />
    <glyph glyph-name="caron" unicode="&#x2c7;" horiz-adv-x="587" 
d="M551 1390q0 -22 -8 -32l-105 -158q-55 -76 -143 -76t-139 76l-101 158q-10 14 -10 32t16 36t45 18t44 -21l147 -186l149 186q18 21 43 21t43 -16t19 -38z" />
    <glyph glyph-name="breve" unicode="&#x2d8;" horiz-adv-x="718" 
d="M694 1266q0 -25 -16 -41q-132 -131 -318 -131t-317 131q-16 14 -16 39t19 45t47 20t48 -20q92 -86 220 -86t217 88q20 18 49 18t48 -19t19 -44z" />
    <glyph glyph-name="dotaccent" unicode="&#x2d9;" horiz-adv-x="307" 
d="M155 1366q49 0 85 -36t36 -86t-36 -86t-85 -36q-50 0 -86 36t-36 86t36 86t86 36z" />
    <glyph glyph-name="ring" unicode="&#x2da;" horiz-adv-x="417" 
d="M313 1308q1 44 -29 74t-73 31q-43 0 -75 -31q-32 -30 -32 -74t32 -76t74 -32t73 32q30 32 30 76zM418 1306q0 -88 -60 -148t-148 -60q-87 0 -149 60q-61 60 -61 148t61 149q61 63 147 63t148 -62t62 -150z" />
    <glyph glyph-name="ogonek" unicode="&#x2db;" horiz-adv-x="385" 
d="M371 -272q1 -43 -57 -76t-130 -33t-129 45q-55 45 -55 137q0 137 139 230q18 12 41 12q49 0 49 -41q0 -20 -16 -31q-98 -65 -98 -159t82 -95q35 1 67 29q57 50 92 15q15 -13 15 -33z" />
    <glyph glyph-name="tilde" unicode="&#x2dc;" horiz-adv-x="659" 
d="M56 1139q-24 0 -38 16t-14 39q0 84 54 156t155 71q47 -1 85 -25t57 -54q51 -80 100 -78q61 0 80 96q4 25 23 41t44 16t39 -16t14 -41q-4 -86 -55 -156t-154 -69q-47 1 -85 25t-57 54q-52 80 -101 78q-63 0 -78 -96q-5 -25 -25 -41t-44 -16z" />
    <glyph glyph-name="hungarumlaut" unicode="&#x2dd;" horiz-adv-x="665" 
d="M526 1444q36 0 56 -20t20 -48q0 -27 -14 -41l-150 -188q-18 -21 -43 -21t-43 16t-18 32q0 18 8 34l129 203q18 33 55 33zM225 1444q37 0 57 -22t19 -46q0 -25 -12 -41l-152 -188q-14 -21 -40 -21t-43 16t-17 36q0 18 6 30l127 203q18 33 55 33z" />
    <glyph glyph-name="uni0312" unicode="&#x312;" horiz-adv-x="0" 
d="M135 1264q0 156 127 266q16 14 40 14t38 -14t14 -28t-10 -29q-84 -94 -92 -146q4 4 37 4t61 -31q28 -30 29 -76q0 -46 -33 -81t-84 -35t-89 42t-38 114z" />
    <glyph glyph-name="uni0326" unicode="&#x326;" horiz-adv-x="0" 
d="M379 -283q0 -156 -127 -266q-16 -14 -40 -14t-38 14q-14 15 -14 29t10 28q84 94 92 146q-4 -4 -36 -4t-62 31q-29 31 -29 77t33 80q33 35 84 35t89 -42t38 -114z" />
    <glyph glyph-name="Delta" unicode="&#x394;" horiz-adv-x="1380" 
d="M348 215h684l-342 905zM1331 90q-1 -28 -29 -60q-28 -30 -71 -30h-1081q-43 0 -73 31t-30 60t8 48l434 1110q23 57 76 93t119 38t123 -34t82 -97l436 -1110q6 -21 6 -49z" />
    <glyph glyph-name="Omega" unicode="&#x3a9;" horiz-adv-x="1566" 
d="M1483 735q0 -172 -81 -304t-210 -216h158q42 0 74 -32t32 -77q0 -46 -32 -76t-74 -30h-324q-47 0 -81 34t-34 79q0 86 88 137q104 57 168 172q63 115 64 262q0 203 -116 344t-332 141q-217 0 -333 -141t-116 -344q0 -145 66 -262t159 -168q94 -51 94 -139q-1 -47 -33 -81
t-79 -34h-322q-45 0 -76 31t-31 75t31 77q31 32 76 32h158q-293 188 -293 520q0 291 196 472t504 181t503 -180q196 -182 196 -473z" />
    <glyph glyph-name="mu" unicode="&#x3bc;" horiz-adv-x="1191" 
d="M1163 73q1 -42 -25 -70t-77 -28q-201 0 -246 177q-49 -78 -126 -127t-163 -50q-123 0 -168 74v-332q0 -43 -32 -75t-78 -31q-45 0 -77 32t-32 74v1178q0 43 32 75t78 32t78 -32t31 -75v-526q0 -201 199 -201q75 0 141 37t109 92v598q0 43 32 75t78 32q45 0 77 -32t32 -75
v-623q0 -44 22 -70t47 -34q68 -21 68 -95z" />
    <glyph glyph-name="pi" unicode="&#x3c0;" horiz-adv-x="1253" 
d="M1247 892q-1 -40 -27 -68t-65 -27h-84v-701q0 -45 -32 -77q-31 -31 -77 -31t-78 32t-32 76v701h-451v-701q1 -45 -31 -77q-32 -31 -78 -31t-78 32t-32 76v701h-82q-38 1 -66 29t-28 68t28 68t66 27h1055q39 0 66 -28q26 -29 26 -69z" />
    <glyph glyph-name="Wgrave" unicode="&#x1e80;" horiz-adv-x="1853" 
d="M1804 1260q0 -14 -4 -35l-319 -1116q-13 -53 -59 -87t-101 -34h-4q-57 0 -100 34t-56 87l-235 892l-236 -892q-12 -53 -56 -87t-99 -34h-5q-57 0 -100 32t-57 86l-320 1121q-6 14 -6 48t37 73q37 38 87 38t86 -28t48 -72l244 -964l258 966q10 39 45 65q35 25 76 25
q42 0 74 -26t42 -64l259 -966l241 964q10 43 47 71q37 27 88 27t88 -36t37 -88zM1020 1561q0 -23 -18 -40q-36 -35 -76 -3l-217 188q-21 18 -21 46t20 50t48 21q27 0 51 -21l197 -203q16 -15 16 -38z" />
    <glyph glyph-name="wgrave" unicode="&#x1e81;" horiz-adv-x="1548" 
d="M1505 910q0 -30 -6 -44l-239 -774q-14 -45 -54 -75t-88 -29h-4q-49 0 -88 28t-53 76l-199 629l-199 -629q-14 -45 -54 -75t-89 -29h-4q-47 0 -86 30t-53 74l-242 774q-4 20 -4 31q0 41 31 73t72 32q42 0 72 -22t38 -54l188 -650l209 639q12 39 45 63t75 24t75 -24t47 -63
l209 -639l188 650q8 32 39 54t72 22t72 -31q30 -31 30 -61zM868 1184q0 -23 -17 -40q-36 -36 -77 -3l-217 188q-20 18 -20 46q0 27 20 49t47 22t51 -21l197 -202q16 -16 16 -39z" />
    <glyph glyph-name="Wacute" unicode="&#x1e82;" horiz-adv-x="1853" 
d="M1804 1260q0 -14 -4 -35l-319 -1116q-13 -53 -59 -87t-101 -34h-4q-57 0 -100 34t-56 87l-235 892l-236 -892q-12 -53 -56 -87t-99 -34h-5q-57 0 -100 32t-57 86l-320 1121q-6 14 -6 48t37 73q37 38 87 38t86 -28t48 -72l244 -964l258 966q10 39 45 65q35 25 76 25
q42 0 74 -26t42 -64l259 -966l241 964q10 43 47 71q37 27 88 27t88 -36t37 -88zM1163 1753q0 -29 -22 -47l-215 -188q-44 -31 -77 2q-17 16 -18 41q0 25 15 38l198 203q20 20 48 20t49 -20q22 -20 22 -49z" />
    <glyph glyph-name="wacute" unicode="&#x1e83;" horiz-adv-x="1548" 
d="M1505 910q0 -30 -6 -44l-239 -774q-14 -45 -54 -75t-88 -29h-4q-49 0 -88 28t-53 76l-199 629l-199 -629q-14 -45 -54 -75t-89 -29h-4q-47 0 -86 30t-53 74l-242 774q-4 20 -4 31q0 41 31 73t72 32q42 0 72 -22t38 -54l188 -650l209 639q12 39 45 63t75 24t75 -24t47 -63
l209 -639l188 650q8 32 39 54t72 22t72 -31q30 -31 30 -61zM1012 1376q0 -29 -23 -47l-215 -188q-44 -31 -77 2q-17 16 -17 41t14 39l199 202q20 21 47 21q28 0 50 -20t22 -50z" />
    <glyph glyph-name="Wdieresis" unicode="&#x1e84;" horiz-adv-x="1853" 
d="M1804 1260q0 -14 -4 -35l-319 -1116q-13 -53 -59 -87t-101 -34h-4q-57 0 -100 34t-56 87l-235 892l-236 -892q-12 -53 -56 -87t-99 -34h-5q-57 0 -100 32t-57 86l-320 1121q-6 14 -6 48t37 73q37 38 87 38t86 -28t48 -72l244 -964l258 966q10 39 45 65q35 25 76 25
q42 0 74 -26t42 -64l259 -966l241 964q10 43 47 71q37 27 88 27t88 -36t37 -88zM1264 1621q0 -50 -37 -86t-87 -36t-86 36t-36 87t36 86t86 35t87 -36t37 -86zM831 1622q-1 -51 -35 -87t-84 -36t-86 36t-36 87t36 86t86 35t84 -35t35 -86z" />
    <glyph glyph-name="wdieresis" unicode="&#x1e85;" horiz-adv-x="1548" 
d="M1505 910q0 -30 -6 -44l-239 -774q-14 -45 -54 -75t-88 -29h-4q-49 0 -88 28t-53 76l-199 629l-199 -629q-14 -45 -54 -75t-89 -29h-4q-47 0 -86 30t-53 74l-242 774q-4 20 -4 31q0 41 31 73t72 32q42 0 72 -22t38 -54l188 -650l209 639q12 39 45 63t75 24t75 -24t47 -63
l209 -639l188 650q8 32 39 54t72 22t72 -31q30 -31 30 -61zM1110 1244q0 -50 -37 -86t-87 -36t-86 36t-36 87t36 86t86 35t87 -36t37 -86zM678 1245q0 -51 -35 -87t-85 -36t-86 36t-36 87t36 86t86 35t85 -35t35 -86z" />
    <glyph glyph-name="Ygrave" unicode="&#x1ef2;" horiz-adv-x="1306" 
d="M1088 1376q56 0 90 -34t34 -74q0 -41 -16 -66l-420 -637v-456q0 -49 -36 -85t-87 -36t-86 36t-35 85v456l-423 639q-19 25 -19 64q0 40 34 74t91 34t92 -53l346 -539l342 539q37 53 93 53zM748 1561q0 -23 -18 -40q-36 -35 -77 -3l-217 188q-20 18 -20 46t20 50t47 21
q27 0 52 -21l196 -203q17 -15 17 -38z" />
    <glyph glyph-name="ygrave" unicode="&#x1ef3;" horiz-adv-x="1032" 
d="M991 903q0 -33 -8 -49l-422 -1030q-92 -225 -321 -225q-61 0 -104 24q-42 25 -42 70t30 74t73 28h41q82 6 114 82l49 111l-354 868q-6 18 -6 49t31 64t80 32q74 0 102 -71l262 -676l262 676q25 72 105 71q47 0 78 -32q30 -33 30 -66zM610 1184q0 -23 -17 -40
q-36 -36 -77 -3l-217 188q-20 18 -20 46q0 27 20 49t47 22t51 -21l197 -202q16 -16 16 -39z" />
    <glyph glyph-name="endash" unicode="&#x2013;" horiz-adv-x="1214" 
d="M1073 590q39 0 65 -26t27 -67q-1 -40 -27 -68t-65 -28h-932q-39 0 -65 28t-27 68q0 41 27 67t65 26h932z" />
    <glyph glyph-name="emdash" unicode="&#x2014;" horiz-adv-x="1705" 
d="M1565 590q39 0 65 -26t27 -67q0 -40 -27 -68t-65 -28h-1424q-39 0 -65 28t-27 68q0 41 27 67t65 26h1424z" />
    <glyph glyph-name="quoteleft" unicode="&#x2018;" horiz-adv-x="501" 
d="M389 988q0 -58 -41 -100q-42 -42 -104 -42t-110 51t-48 137q0 188 158 326q18 18 46 18t46 -19t18 -44t-18 -39q-88 -74 -105 -160q8 4 48 4t75 -37t35 -95z" />
    <glyph glyph-name="quoteright" unicode="&#x2019;" horiz-adv-x="501" 
d="M410 1198q0 -184 -158 -326q-20 -16 -46 -16t-45 18t-19 43t18 39q92 82 104 162q-12 -6 -50 -6t-73 37t-35 95t41 100t104 42t111 -51t48 -137z" />
    <glyph glyph-name="quotesinglbase" unicode="&#x201a;" horiz-adv-x="503" 
d="M410 80q0 -184 -158 -326q-20 -16 -46 -16t-45 18t-19 42t18 42q92 78 104 160q-12 -6 -50 -6t-73 37t-35 95t41 100t104 42t111 -51t48 -137z" />
    <glyph glyph-name="quotedblleft" unicode="&#x201c;" horiz-adv-x="884" 
d="M776 988q0 -58 -42 -100t-104 -42t-109 51q-48 51 -48 137q0 190 158 326q18 18 45 18t45 -19t18 -43t-16 -40q-90 -76 -107 -160q12 4 51 4t74 -37t35 -95zM393 988q0 -58 -41 -100q-42 -42 -104 -42t-110 51t-48 139t43 174t117 150q16 18 44 18t46 -19t18 -44t-18 -39
q-88 -74 -104 -160q12 4 50 4t72 -37q35 -37 35 -95z" />
    <glyph glyph-name="quotedblright" unicode="&#x201d;" horiz-adv-x="884" 
d="M793 1198q0 -184 -158 -326q-23 -16 -49 -16t-42 17q-17 17 -18 42q0 25 17 41q92 82 104 162q-12 -6 -50 -6t-73 37t-35 95t41 100t104 42t111 -51t48 -137zM412 1198q0 -186 -160 -326q-20 -16 -46 -16t-44 18t-18 43t18 39q88 78 104 162q-18 -6 -35 -6q-53 0 -88 37
t-35 95t42 100t104 42t110 -51t48 -137z" />
    <glyph glyph-name="quotedblbase" unicode="&#x201e;" horiz-adv-x="884" 
d="M793 80q0 -184 -158 -326q-23 -16 -49 -16t-42 18q-17 18 -18 41q0 23 17 43q92 78 104 160q-12 -6 -50 -6t-73 37t-35 95t41 100t104 42t111 -51t48 -137zM410 80q0 -184 -158 -326q-22 -16 -48 -16t-44 18t-18 42t18 42q92 78 104 160q-12 -6 -50 -6t-73 37t-35 95
t41 100t104 42t111 -51t48 -137z" />
    <glyph glyph-name="dagger" unicode="&#x2020;" horiz-adv-x="557" 
d="M524 1132q0 -22 -15 -38t-38 -17l-141 6l8 -366q0 -25 -18 -42t-45 -17q-26 0 -42 16q-16 18 -16 43l8 366l-141 -6q-23 1 -38 17t-15 38t15 38q15 15 38 16l141 -4l-6 157q-2 25 15 42q18 17 44 17t43 -16q17 -18 15 -43l-6 -157l141 4q23 0 38 -16t15 -38z" />
    <glyph glyph-name="daggerdbl" unicode="&#x2021;" horiz-adv-x="557" 
d="M524 624q0 -24 -15 -39t-38 -16l-141 4l6 -157q2 -25 -16 -42q-18 -18 -45 -18q-26 0 -42 18t-16 42l6 157l-139 -4q-23 1 -38 17t-15 40t16 39t37 13l139 -6v411l-139 -6q-23 1 -38 17t-15 38t15 38q15 15 38 16l139 -4l-6 157q0 25 17 42q18 17 44 17t43 -16
q17 -18 15 -43l-6 -157l141 4q23 0 38 -16t15 -39q0 -25 -15 -39t-38 -15l-141 6v-411l141 6q23 2 38 -14t15 -40z" />
    <glyph glyph-name="bullet" unicode="&#x2022;" horiz-adv-x="733" 
d="M604 496q0 -96 -70 -165t-165 -69q-96 0 -166 69t-70 165t70 166t166 70t166 -70q69 -70 69 -166z" />
    <glyph glyph-name="ellipsis" unicode="&#x2026;" horiz-adv-x="1511" 
d="M1257 268q59 0 103 -43t43 -101q0 -58 -43 -101q-44 -43 -102 -43t-101 43t-43 101t42 101t101 43zM899 124q0 -58 -43 -101t-102 -43t-102 43q-42 43 -42 101t42 101t102 43t102 -43q43 -43 43 -101zM395 124q0 -58 -43 -101t-102 -43t-102 43q-42 43 -42 101t42 101
t102 43t102 -43q43 -43 43 -101z" />
    <glyph glyph-name="perthousand" unicode="&#x2030;" horiz-adv-x="2267" 
d="M1690 314q0 -96 50 -156q50 -58 129 -58t130 58t51 155q0 95 -50 155t-130 60t-130 -59t-50 -155zM1134 100q79 0 130 58t51 155q0 95 -51 155t-131 60t-129 -59q-50 -59 -50 -155t50 -156q50 -58 130 -58zM1530 312q0 146 94 244t245 97q151 0 246 -98q95 -97 95 -243
t-95 -241t-246 -95t-245 94q-94 96 -94 242zM1133 653q149 0 245 -98q96 -99 96 -243t-96 -240t-246 -96t-243 94q-94 96 -94 242t94 244t244 97zM396 834q79 0 129 58t50 153t-50 155t-129 60t-129 -60t-50 -154q0 -96 50 -154t129 -58zM1237 1324q0 -18 -8 -34l-817 -1278
q-14 -24 -43 -24t-46 16q-32 30 -10 72l815 1278q20 24 46 24t45 -18q18 -18 18 -36zM397 709q-151 0 -245 95t-94 241q0 145 93 243q94 98 246 98t246 -97t94 -243t-94 -242q-94 -95 -246 -95z" />
    <glyph glyph-name="guilsinglleft" unicode="&#x2039;" horiz-adv-x="657" 
d="M510 195q0 -29 -22 -54t-54 -25t-55 25l-219 246q-41 47 -41 111t43 108l217 242q20 22 52 22q31 0 55 -22t24 -52q0 -32 -18 -51l-224 -247l224 -252q18 -22 18 -51z" />
    <glyph glyph-name="guilsinglright" unicode="&#x203a;" horiz-adv-x="657" 
d="M539 498q0 -64 -41 -111l-219 -246q-19 -25 -53 -25t-58 24t-23 53q0 29 19 53l225 252l-225 247q-16 19 -16 49t21 54t55 22q34 0 55 -22l217 -242q43 -44 43 -108z" />
    <glyph glyph-name="fraction" unicode="&#x2044;" horiz-adv-x="309" 
d="M623 1326q0 -20 -11 -34l-819 -1282q-16 -24 -44 -24t-45 17t-17 37t8 34l819 1282q16 26 44 26t46 -18t19 -38z" />
    <glyph glyph-name="Euro" unicode="&#x20ac;" horiz-adv-x="1441" 
d="M846 1389q295 0 481 -213q27 -29 27 -74t-34 -78t-85 -33t-84 39q-129 141 -305 141q-143 -1 -255 -75t-167 -199h494q27 0 46 -20q19 -21 19 -49t-19 -47t-46 -19h-533q-4 -27 -4 -66t4 -88h533q27 0 46 -20t19 -48t-19 -48t-46 -21h-496q55 -127 168 -203t256 -75
q182 0 305 139q35 39 86 39t84 -33t33 -77t-27 -73q-186 -213 -481 -213q-250 -1 -437 135t-251 361h-54q-27 1 -46 21t-19 49t19 48t46 19h27q-2 25 -2 76t2 78h-27q-27 0 -46 19t-19 48t19 49t46 19h54q66 223 253 357t435 135z" />
    <glyph glyph-name="trademark" unicode="&#x2122;" horiz-adv-x="929" 
d="M358 1339q0 -10 -7 -18t-17 -8h-115v-383q0 -27 -29 -27t-28 27v383h-115q-10 0 -17 8t-7 18q0 11 7 19t17 8h287q10 0 17 -8t7 -19zM858 1329v-399q0 -27 -29 -27t-28 27v358l-142 -344q-6 -14 -20 -14t-21 14l-141 344v-358q-1 -27 -29 -27t-28 27v399q0 19 14 33
t41 14t39 -28l125 -310l123 310q14 28 41 28t41 -14t14 -33z" />
    <glyph glyph-name="partialdiff" unicode="&#x2202;" horiz-adv-x="1173" 
d="M868 466q0 126 -74 211q-75 85 -206 85t-207 -85t-76 -211t75 -211t207 -85t207 85q74 85 74 211zM1098 526q0 -252 -137 -402t-371 -149q-234 -1 -372 141q-140 142 -140 349t126 349t326 142t306 -163q-109 262 -379 424q-47 31 -47 75t29 74q30 29 67 29t69 -23
q227 -142 375 -368t148 -478z" />
    <glyph glyph-name="product" unicode="&#x220f;" horiz-adv-x="1550" 
d="M1505 1257q-1 -45 -31 -75t-73 -31h-125v-1229q0 -49 -36 -84t-87 -35t-87 36t-36 83v1229h-510v-1229q0 -47 -37 -83t-88 -36t-86 35t-35 84v1229h-122q-45 0 -76 32t-31 77q0 46 31 76t76 30h1249q43 0 73 -32t31 -77z" />
    <glyph glyph-name="summation" unicode="&#x2211;" horiz-adv-x="1191" 
d="M1104 -78q0 -45 -32 -76t-75 -30h-770q-55 0 -97 42t-42 99t33 102l416 547l-414 516q-33 42 -33 100t41 101t98 43h768q43 0 75 -32t32 -77t-32 -75t-75 -31h-591l339 -428q41 -51 41 -115t-41 -116l-350 -461h602q43 0 75 -32t32 -77z" />
    <glyph glyph-name="minus" unicode="&#x2212;" horiz-adv-x="1046" 
d="M928 762q27 0 47 -20t20 -51q0 -30 -19 -50t-48 -20h-807q-29 0 -49 20t-20 51t20 50t49 20h807z" />
    <glyph glyph-name="radical" unicode="&#x221a;" horiz-adv-x="1431" 
d="M1268 1378q34 0 56 -22t22 -40t-5 -40l-475 -1225q-28 -63 -98 -63t-94 65l-223 586l-236 -88q-9 -4 -29 -4t-42 20t-22 60t48 57l236 86q24 8 60 8t75 -26t57 -72l174 -459l422 1110q18 47 74 47z" />
    <glyph glyph-name="infinity" unicode="&#x221e;" horiz-adv-x="1386" 
d="M1176 686q0 96 -54 154t-136 59q-81 0 -138 -60t-90 -153q33 -92 89 -151t138 -59q83 0 137 56q54 58 54 154zM402 899q-82 0 -138 -58q-56 -57 -55 -153q0 -96 55 -156q56 -60 138 -59t138 61t89 152q-33 92 -89 152t-138 61zM1327 686q0 -144 -84 -248t-248 -104
q-98 0 -178 59t-125 152q-43 -91 -123 -151t-180 -60q-162 0 -246 105t-84 247t83 248q83 104 247 104q100 0 180 -59t123 -152q45 91 125 151t178 60q164 0 248 -104t84 -248z" />
    <glyph glyph-name="integral" unicode="&#x222b;" horiz-adv-x="743" 
d="M721 1497q-1 -33 -21 -53t-55 -21h-61q-56 0 -94 -44t-37 -113v-1166q0 -135 -87 -220t-206 -85h-58q-36 0 -58 22q-22 23 -22 55t22 52t58 21h58q55 0 93 45t38 112v1164q0 135 88 221t205 86h61q35 1 55 -21t21 -55z" />
    <glyph glyph-name="approxequal" unicode="&#x2248;" horiz-adv-x="1028" 
d="M981 520q0 -31 -20 -50t-39 -19q-19 1 -61 15t-128 14t-207 -56q-121 -55 -220 -55q-99 1 -179 23t-80 77q0 31 24 54t66 12q68 -27 156 -27t209 55t221 55t179 -22t79 -76zM981 899q0 -29 -26 -55t-76 -5q-51 19 -141 19t-212 -55q-121 -55 -220 -55t-179 22t-80 78
q0 31 25 54t65 11q70 -25 157 -25t208 56q121 55 221 55q100 -1 179 -23t79 -77z" />
    <glyph glyph-name="notequal" unicode="&#x2260;" horiz-adv-x="1028" 
d="M981 488q0 -30 -19 -49t-49 -19h-499l-135 -217q-21 -27 -47 -27t-44 18t-18 36q0 20 8 34l98 156h-161q-29 0 -48 20t-19 50t18 50q20 19 49 19h250l159 248h-407q-29 -1 -49 21t-20 52t21 50q22 20 48 20h497l136 213q20 27 47 27t44 -18t17 -40q0 -20 -8 -30l-96 -152
h157q29 0 50 -21q20 -21 20 -51t-22 -50t-48 -21h-247l-160 -248h409q29 0 49 -20q19 -21 19 -51z" />
    <glyph glyph-name="lessequal" unicode="&#x2264;" horiz-adv-x="1028" 
d="M913 0h-798q-29 0 -48 20t-19 50t18 49q20 20 49 20h798q29 0 49 -20t20 -49q1 -30 -19 -50t-50 -20zM979 338q0 -40 -30 -68t-75 -10l-763 356q-63 27 -63 100t63 103l763 357q14 6 36 6t46 -22t23 -64q0 -42 -43 -60l-711 -319l711 -320q43 -18 43 -59z" />
    <glyph glyph-name="greaterequal" unicode="&#x2265;" horiz-adv-x="1028" 
d="M913 139q29 0 49 -20t19 -49q0 -30 -19 -50t-49 -20h-800q-29 0 -48 20t-19 50t20 49q20 20 47 20h800zM981 716q0 -71 -63 -100l-766 -356q-12 -6 -35 -6t-47 22t-23 61q0 40 43 60l713 320l-711 319q-45 18 -46 60t23 64t47 22t38 -6l764 -357q63 -32 63 -103z" />
    <glyph glyph-name="lozenge" unicode="&#x25ca;" horiz-adv-x="768" 
d="M113 684l272 -600l270 600l-272 598zM705 681q0 -48 -23 -97l-268 -566q-8 -18 -30 -18t-30 18l-266 564q-20 43 -25 102q0 51 25 100l266 564q8 18 30 18t30 -18l268 -564q23 -55 23 -103z" />
    <glyph glyph-name="uniF8FF" unicode="&#xf8ff;" horiz-adv-x="1366" 
d="M1192 315q0 59 -40 101t-99 41h-142v-142q0 -59 41 -101q42 -42 100 -42t99 42t41 101zM455 457h-144q-57 0 -98 -41q-41 -40 -41 -100t41 -102t100 -42t101 42q41 42 41 101v142zM543 823v-280h280v280h-280zM1192 1053q0 59 -41 100t-99 41t-100 -41t-41 -100v-144h142
q57 1 98 43t41 101zM455 909v144q0 59 -41 100q-42 41 -100 41t-100 -41t-42 -100t42 -101t101 -43h140zM1280 315q0 -93 -67 -161t-161 -68t-161 68q-68 68 -68 161v142h-280v-142q0 -93 -68 -161t-162 -68q-95 0 -161 68t-66 162t67 160q67 67 160 67h142v280h-140
q-93 0 -161 68t-68 162q0 95 68 161t162 66t160 -67q67 -67 67 -160v-144h280v144q0 95 68 161t162 66q95 0 161 -67t66 -161t-67 -161q-67 -68 -160 -68h-142v-280h142q95 0 161 -67t66 -161z" />
    </font>
</defs>
</svg>
