<?xml version="1.0" standalone="no"?>
<!DOCTYPE svg PUBLIC "-//W3C//DTD SVG 1.1//EN" "http://www.w3.org/Graphics/SVG/1.1/DTD/svg11.dtd" >
<svg xmlns="http://www.w3.org/2000/svg">
<metadata>
Created by FontPrep 20130207 at Tue Apr  4 11:46:10 2017
 By Mario Vina
Copyright (c) Nutanix, 2016. All rights reserved.
</metadata>
<defs>
<font id="1e30dd605c2f761d0cee557e07ac855a" horiz-adv-x='1024' >
  <font-face 
    font-family="NutanixSoft-Bold"
    font-weight="700"
    font-stretch="normal"
    units-per-em="2048"
    panose-1="0 0 8 0 0 0 0 0 0 0"
    ascent="1587"
    descent="-461"
    x-height="989"
    cap-height="1378"
    bbox="-307 -580 2244 1862"
    underline-thickness="40"
    underline-position="-272"
    unicode-range="U+000D-FB02"
  />
<missing-glyph horiz-adv-x="989" 
d="M199 1479v-1602h589v1602h-589zM854 1462v-1568q0 -31 -24 -55t-54 -23h-563q-31 0 -55 24t-23 54v1568q0 31 24 55t54 23h563q30 0 54 -24t24 -54z" />
    <glyph glyph-name="fi" unicode="fi" horiz-adv-x="1187" 
d="M1059 874v-757q0 -53 -38 -91t-92 -38t-92 38t-38 91v757q0 52 38 90t92 38t92 -39q38 -38 38 -89zM686 1282q0 -41 -24 -71t-66 -29h-23q-55 0 -90 -36t-34 -104v-53h102q45 0 78 -34t33 -80q0 -45 -33 -79t-78 -34h-102v-645q0 -53 -38 -91q-37 -38 -93 -38t-94 38
t-38 91v645h-63q-47 0 -80 34t-33 81t34 79t79 33h63v53q0 158 94 251t250 93t156 -104zM930 1405q64 0 108 -45q44 -44 45 -108q0 -64 -46 -110t-109 -46t-110 46q-46 46 -46 109t46 109q48 45 112 45z" />
    <glyph glyph-name="fl" unicode="fl" horiz-adv-x="1187" 
d="M1059 1251v-1134q0 -53 -38 -91t-92 -38t-92 38t-38 91v1134q0 53 38 90t92 37t92 -38t38 -89zM686 1282q0 -41 -24 -71t-66 -29h-23q-55 0 -90 -36t-34 -104v-53h102q45 0 78 -34t33 -80q0 -45 -33 -79t-78 -34h-102v-645q0 -53 -38 -91q-37 -38 -93 -38t-94 38t-38 91
v645h-63q-47 0 -80 34t-33 81t34 79t79 33h63v53q0 158 94 251t250 93t156 -104z" />
    <glyph glyph-name=".notdef" horiz-adv-x="989" 
d="M199 1479v-1602h589v1602h-589zM854 1462v-1568q0 -31 -24 -55t-54 -23h-563q-31 0 -55 24t-23 54v1568q0 31 24 55t54 23h563q30 0 54 -24t24 -54z" />
    <glyph glyph-name=".null" horiz-adv-x="0" 
 />
    <glyph glyph-name="nonmarkingreturn" horiz-adv-x="681" 
 />
    <glyph glyph-name="NULL" horiz-adv-x="0" 
 />
    <glyph glyph-name="NULL" horiz-adv-x="0" 
 />
    <glyph glyph-name="CR" unicode="&#xd;" horiz-adv-x="0" 
 />
    <glyph glyph-name="space" unicode=" " horiz-adv-x="524" 
 />
    <glyph glyph-name="exclam" unicode="!" horiz-adv-x="524" 
d="M428 144q0 -68 -49 -116t-117 -48t-116 49t-48 115t48 116q48 49 116 49t117 -49t49 -116zM412 1229q0 -2 -31 -684q-2 -47 -36 -80t-83 -33t-83 33t-36 80q-13 291 -22 479q-10 187 -10 205q0 63 44 106t108 43q65 0 107 -43t42 -106z" />
    <glyph glyph-name="quotedbl" unicode="&#x22;" horiz-adv-x="831" 
d="M461 1253q0 49 42 91t99 42t98 -41t41 -91t-73 -445q-10 -53 -70 -53q-23 0 -41 15t-22 38q-74 395 -74 444zM373 1254q0 -48 -74 -443q-10 -55 -70 -55q-23 0 -42 15t-23 40q-74 395 -74 443t41 90t99 42t101 -41q42 -43 42 -91z" />
    <glyph glyph-name="numbersign" unicode="#" horiz-adv-x="1265" 
d="M481 512h191l112 340h-192zM1126 1016q32 0 56 -24t24 -59q0 -33 -24 -57t-56 -24h-149l-113 -340h103q33 0 57 -25t23 -59q0 -34 -24 -58t-56 -24h-158l-98 -297q-18 -61 -88 -61q-41 0 -67 26t-26 52q0 28 5 38l83 242h-194l-100 -299q-20 -61 -88 -61q-39 -2 -65 26
t-26 54t5 36l81 244h-88q-35 0 -59 25t-23 59q0 34 25 58t57 24h146l110 340h-94q-33 0 -57 25t-23 59q0 34 24 56q24 24 56 24h152l98 301q20 59 86 59q41 0 67 -26t26 -50q0 -22 -5 -38l-80 -246h193l98 299q20 61 88 61q41 0 72 -30t16 -86l-84 -244h94z" />
    <glyph glyph-name="dollar" unicode="$" horiz-adv-x="1257" 
d="M891 381q0 82 -152 131v-274q72 14 112 54t40 89zM545 879v249q-68 -8 -106 -44t-38 -89q1 -75 144 -116zM739 -123q1 -39 -27 -67t-69 -27q-41 0 -70 28t-28 66v103q-135 12 -259 59t-169 119q-51 90 19 160q40 40 89 40t86 -24q106 -74 234 -96v323q-252 60 -346 158
q-95 98 -95 255q0 156 119 272t322 136v109q0 39 28 67q29 28 70 28t69 -28t27 -67v-113q109 -12 211 -51q164 -63 164 -162q0 -57 -45 -95t-91 -38t-126 38t-113 46v-289q248 -59 347 -160q100 -101 100 -265t-115 -281t-332 -139v-105z" />
    <glyph glyph-name="percent" unicode="%" horiz-adv-x="1550" 
d="M989 314q0 -83 45 -131t117 -48t118 48t46 131t-46 132q-46 50 -118 50t-117 -50t-45 -132zM1151 657q154 -1 251 -99t97 -244t-97 -242t-251 -96t-250 96t-96 242t96 244t250 99zM399 1225q-73 1 -117 -49t-44 -131t46 -130t116 -49t116 48q45 48 45 130t-45 132
t-117 49zM1249 1318q0 -22 -10 -38l-807 -1264q-18 -28 -50 -28t-51 18q-38 36 -9 80l806 1264q18 28 50 28t51 -19q20 -19 20 -41zM748 1043q0 -146 -96 -241t-252 -95q-154 0 -250 95t-96 241q0 147 96 245t250 98t252 -98q96 -98 96 -245z" />
    <glyph glyph-name="ampersand" unicode="&#x26;" horiz-adv-x="1323" 
d="M326 395q0 -96 61 -155q61 -60 155 -60t191 70q-170 186 -289 354q-118 -84 -118 -209zM650 1198q-56 0 -97 -42t-41 -108t59 -180q101 46 153 96t52 111t-35 92t-91 31zM1202 561q0 -74 -160 -287q8 -10 35 -36q78 -74 78 -126q0 -54 -34 -90t-90 -36t-159 116
q-168 -127 -368 -127q-200 1 -328 103q-127 102 -127 293q0 141 79 233t214 160q-90 170 -90 302t110 226q111 94 272 94t264 -78t103 -218q0 -139 -96 -220t-239 -147q41 -55 233 -287q49 76 90 170q27 64 108 66q41 0 73 -34t32 -77z" />
    <glyph glyph-name="quotesingle" unicode="'" horiz-adv-x="460" 
d="M373 1254q0 -48 -74 -443q-10 -55 -70 -55q-23 0 -42 15t-23 40q-74 395 -74 443t41 90t99 42t101 -41q42 -43 42 -91z" />
    <glyph glyph-name="parenleft" unicode="(" horiz-adv-x="608" 
d="M514 -267q0 -38 -33 -75t-83 -37t-76 39q-123 168 -196 393t-73 443t73 445q73 226 196 396q28 37 78 37t82 -36t32 -73t-12 -61q-168 -340 -168 -708t168 -699q12 -26 12 -64z" />
    <glyph glyph-name="parenright" unicode=")" horiz-adv-x="608" 
d="M557 497q0 -217 -74 -443t-196 -394q-27 -39 -77 -39t-83 37t-33 75t12 64q168 332 168 700t-168 707q-12 26 -12 62t32 72t82 36t79 -37q123 -172 197 -397t73 -443z" />
    <glyph glyph-name="asterisk" unicode="*" horiz-adv-x="718" 
d="M359 1399q26 -1 45 -19t18 -43l-8 -176l145 92q41 25 75 -7q19 -17 19 -50t-30 -49l-154 -80l154 -80q31 -16 31 -47t-19 -49q-35 -35 -76 -10l-145 94l8 -176q2 -25 -18 -43t-46 -18q-27 0 -45 18t-16 43l8 176l-149 -94q-38 -27 -73 8q-19 18 -19 50t32 48l154 80
l-154 80q-33 16 -33 48q-1 32 19 50q36 34 76 10l147 -94l-8 176q-2 25 17 43t45 19z" />
    <glyph glyph-name="plus" unicode="+" horiz-adv-x="1032" 
d="M985 692q-1 -34 -23 -58t-55 -24h-301v-340q0 -36 -26 -62t-63 -26t-63 26t-26 62v340h-301q-35 0 -57 24t-23 58q0 34 24 58q24 23 56 22h301v326q0 34 27 60t63 26t63 -26q26 -26 25 -60v-326h301q33 0 56 -22q22 -23 22 -58z" />
    <glyph glyph-name="comma" unicode="," horiz-adv-x="524" 
d="M440 100q0 -197 -166 -346q-20 -20 -51 -20t-55 18t-25 46q0 28 21 46q90 74 110 160q-18 -6 -38 -6q-59 0 -100 41q-40 41 -40 107t47 115q47 48 118 48q71 -1 125 -57t54 -152z" />
    <glyph glyph-name="hyphen" unicode="-" horiz-adv-x="614" 
d="M457 606q45 0 77 -32t31 -77q1 -46 -31 -79t-77 -33h-299q-45 0 -77 33t-32 79q0 45 32 77t77 32h299z" />
    <glyph glyph-name="period" unicode="." horiz-adv-x="524" 
d="M428 143q0 -69 -49 -117t-117 -48t-117 48q-49 50 -49 118t49 116q49 49 117 49t117 -49t49 -117z" />
    <glyph glyph-name="slash" unicode="/" horiz-adv-x="673" 
d="M555 1419q37 1 63 -25t25 -50q0 -24 -4 -39l-432 -1297q-18 -61 -88 -61q-39 0 -71 31t-13 83l432 1297q20 61 88 61z" />
    <glyph glyph-name="zero" unicode="0" horiz-adv-x="1269" 
d="M903 682q0 203 -64 325q-65 121 -204 121t-205 -122t-66 -324q0 -203 66 -326t205 -123t204 123q64 123 64 326zM70 682q0 184 57 340t189 260t318 104t318 -104q248 -197 248 -600t-248 -601q-131 -105 -317 -105q-187 0 -319 104q-132 106 -189 262t-57 340z" />
    <glyph glyph-name="one" unicode="1" horiz-adv-x="841" 
d="M707 1210v-1079q0 -59 -43 -101q-44 -42 -104 -42t-102 43t-42 100v860l-154 -157q-33 -33 -81 -33t-84 36t-36 85t37 86l316 319q49 49 121 49t122 -48t50 -118z" />
    <glyph glyph-name="two" unicode="2" horiz-adv-x="1228" 
d="M1137 129q0 -53 -37 -91t-88 -38h-791q-55 0 -96 41t-41 109t61 114q395 293 535 431q139 138 139 255q0 84 -65 131q-66 47 -156 47q-158 0 -281 -84q-39 -26 -87 -26t-86 38t-38 81t19 71q47 76 189 127t278 51q225 0 374 -118q148 -118 148 -302t-132 -344t-415 -366
h445q51 0 88 -37t37 -90z" />
    <glyph glyph-name="three" unicode="3" horiz-adv-x="1202" 
d="M72 224q0 40 41 78t86 38t77 -21q144 -86 280 -86q136 1 204 49t67 126q0 158 -219 157q-76 0 -112 36t-37 93q0 57 36 92t105 35q205 0 205 166q0 141 -254 141q-143 0 -264 -77q-29 -21 -74 -21t-84 36t-39 89t43 86q181 145 433 145t386 -98t146 -272q8 -134 -36 -204
q-44 -71 -83 -99l-16 -8q162 -108 149 -316q-24 -411 -532 -414q-154 -1 -299 51t-193 130q-16 28 -16 68z" />
    <glyph glyph-name="four" unicode="4" horiz-adv-x="1222" 
d="M705 539v569l-369 -569h369zM1184 411q0 -52 -37 -90t-88 -38h-64v-152q0 -59 -43 -101t-102 -42t-102 43t-43 100v152h-515q-61 0 -105 46t-44 106t27 102l456 720q34 55 96 89t128 32q98 16 173 -28t74 -136v-675h64q51 0 88 -38t37 -90z" />
    <glyph glyph-name="five" unicode="5" horiz-adv-x="1245" 
d="M733 891q185 -1 313 -121t128 -329t-150 -337t-397 -129q-145 0 -287 45q-200 64 -203 181q0 55 42 93t88 38t85 -23q122 -76 256 -76q134 1 202 59t69 147q0 89 -66 145q-67 56 -189 55q-122 0 -221 -66q-51 -35 -115 -35t-105 40q-40 39 -40 100v524q0 68 48 116
t116 48h662q51 0 88 -38t37 -90t-37 -90t-88 -38h-535v-334q115 115 299 115z" />
    <glyph glyph-name="six" unicode="6" horiz-adv-x="1245" 
d="M887 442q0 92 -67 154t-165 63q-99 0 -163 -59t-64 -152q0 -94 64 -154t168 -60q106 0 166 58t61 150zM1182 447q0 -207 -146 -339t-377 -133q-295 0 -442 197t-147 511t170 509t467 194q113 0 217 -32t139 -97q14 -29 14 -69t-41 -77q-41 -36 -83 -36t-68 15
q-76 39 -178 38q-150 0 -246 -112t-96 -275q0 -18 2 -28q43 74 136 125t214 51q195 0 330 -118t135 -324z" />
    <glyph glyph-name="seven" unicode="7" horiz-adv-x="1116" 
d="M1087 1234q0 -48 -12 -73l-475 -1085q-16 -39 -54 -64q-38 -24 -92 -24t-96 43t-41 86q0 43 13 69l407 924h-573q-53 0 -90 38t-37 91t38 90t89 37h782q55 0 98 -42t43 -90z" />
    <glyph glyph-name="eight" unicode="8" horiz-adv-x="1241" 
d="M874 395q0 78 -76 128q-77 50 -177 50q-99 0 -177 -50t-78 -128t74 -124q72 -46 180 -46t181 46t73 124zM621 819q97 0 163 44t66 117t-64 115t-165 42q-102 0 -167 -42t-65 -115t67 -117t165 -44zM1169 375q-1 -182 -161 -291t-387 -109t-389 108q-161 108 -160 292
q0 127 58 212t132 118q-168 80 -168 321q0 168 154 264t372 96t372 -96t155 -264q0 -242 -170 -321q74 -33 133 -118t59 -212z" />
    <glyph glyph-name="nine" unicode="9" horiz-adv-x="1245" 
d="M583 1130q-107 0 -167 -58t-60 -150t67 -154t165 -63q98 0 163 59t65 152q0 94 -64 154q-63 60 -169 60zM526 475q-195 0 -330 118t-135 324q-1 207 145 339t378 133q295 0 442 -197q148 -197 148 -511t-170 -509t-467 -195q-113 0 -217 33t-140 96q-14 29 -14 70t41 77
t83 36t68 -15q76 -39 179 -38q149 0 245 112t97 275q0 18 -2 28q-43 -74 -137 -125t-214 -51z" />
    <glyph glyph-name="colon" unicode=":" horiz-adv-x="514" 
d="M428 143q0 -69 -49 -117t-117 -48t-117 48q-49 50 -49 118t49 116q49 49 117 49t117 -49t49 -117zM428 838q0 -68 -49 -117t-117 -49t-117 49t-49 117t49 116t117 50q68 0 117 -49t49 -117z" />
    <glyph glyph-name="semicolon" unicode=";" horiz-adv-x="524" 
d="M440 100q0 -197 -166 -346q-20 -20 -51 -20t-55 18t-25 46q0 28 21 46q90 74 110 160q-18 -6 -38 -6q-59 0 -100 41q-40 41 -40 107t47 115q47 48 118 48q71 -1 125 -57t54 -152zM96 839q0 67 49 115t117 50q68 0 117 -49t49 -116t-49 -117t-117 -50t-117 50t-49 117z
" />
    <glyph glyph-name="less" unicode="&#x3c;" horiz-adv-x="1032" 
d="M983 322q0 -48 -27 -72t-51 -23q-24 0 -41 6l-739 330q-78 35 -78 122t78 122l739 332q16 6 42 6t52 -25q26 -24 25 -72q0 -48 -51 -71l-686 -293l686 -291q51 -23 51 -71z" />
    <glyph glyph-name="equal" unicode="=" horiz-adv-x="1032" 
d="M907 571q33 0 55 -22t23 -56q-1 -34 -23 -58t-55 -23h-782q-33 0 -55 24t-23 57q0 35 23 57t55 21h782zM905 958q33 0 57 -23t23 -57q1 -34 -23 -59t-57 -24h-778q-33 1 -57 25t-23 58q0 34 24 58t56 22h778z" />
    <glyph glyph-name="greater" unicode="&#x3e;" horiz-adv-x="1032" 
d="M985 685q0 -87 -78 -122l-739 -330q-14 -6 -40 -6t-52 25q-26 26 -27 72q0 46 51 69l686 291l-686 293q-53 23 -53 80q-2 39 26 63t53 25q25 0 42 -6l739 -332q78 -35 78 -122z" />
    <glyph glyph-name="question" unicode="?" horiz-adv-x="933" 
d="M629 143q0 -69 -49 -117t-117 -48t-117 48q-49 50 -49 118t49 116q49 49 117 49t117 -49t49 -117zM297 594q0 86 47 152t102 98q54 33 102 78t48 93t-40 81q-40 32 -124 32t-164 -53q-37 -25 -87 -25t-85 34q-35 32 -35 74q0 125 172 185q121 43 234 43q197 0 311 -89
t115 -234q0 -82 -35 -148q-35 -67 -85 -107t-101 -75q-121 -83 -121 -162l6 -55q0 -43 -31 -76q-31 -32 -88 -32t-99 50t-42 136z" />
    <glyph glyph-name="at" unicode="@" horiz-adv-x="1603" 
d="M549 539q0 -80 46 -130q46 -51 126 -51t155 72q74 72 97 178l4 23q20 100 -25 152t-121 53q-119 0 -201 -90t-81 -207zM885 1307q287 -1 466 -183t179 -432t-127 -384t-279 -134q-88 0 -138 45t-60 113q-55 -72 -135 -115t-162 -43q-145 0 -232 96q-86 96 -86 248
q-1 202 141 352t322 150q88 0 155 -38t101 -99l6 28q8 39 40 65t76 26t77 -32t33 -62t-2 -38l-80 -378q-6 -37 -6 -50q0 -92 74 -92t133 85q60 85 61 245q0 244 -155 396t-410 151q-291 0 -508 -218t-217 -505q0 -242 164 -406t413 -164q182 0 344 95q5 4 19 4t27 -11
q13 -12 13 -28t-16 -27q-188 -111 -395 -110q-279 0 -464 185t-185 458q0 213 113 400q114 187 302 297t398 110z" />
    <glyph glyph-name="A" unicode="A" horiz-adv-x="1400" 
d="M487 487h426l-213 588zM1343 143q0 -59 -44 -107t-101 -48t-96 26t-55 70l-54 147h-585l-56 -147q-16 -45 -56 -71q-40 -25 -96 -25t-101 47q-44 47 -44 94t11 70l399 1026q27 69 88 111t135 42q80 6 150 -37t98 -116l397 -1026q10 -31 10 -56z" />
    <glyph glyph-name="B" unicode="B" horiz-adv-x="1357" 
d="M977 407q0 71 -47 117t-129 45h-375v-317h375q82 0 129 42t47 113zM950 967q0 65 -44 107t-115 42h-365v-297h365q75 0 117 41t42 107zM1274 352q0 -144 -104 -248t-293 -104h-578q-68 0 -116 48t-48 116v1038q0 68 48 116t116 48h555q186 0 290 -101t103 -237
q1 -136 -67 -219q-68 -84 -168 -104q110 -17 186 -113t76 -240z" />
    <glyph glyph-name="C" unicode="C" horiz-adv-x="1406" 
d="M796 1389q310 0 498 -226q29 -35 29 -85t-41 -88t-101 -38t-104 47q-125 131 -295 131t-293 -126q-121 -127 -121 -322t122 -322q120 -127 296 -127t291 129q43 48 105 48t100 -37q39 -37 39 -88t-29 -82q-186 -227 -496 -227t-518 197q-208 198 -208 509t208 509
t518 198z" />
    <glyph glyph-name="D" unicode="D" horiz-adv-x="1470" 
d="M674 256q196 0 312 123t116 307t-113 304t-315 120h-248v-854h248zM1399 682q0 -306 -201 -494t-524 -188h-375q-68 0 -116 48t-48 116v1038q0 68 48 116t116 48h375q322 0 524 -188t201 -496z" />
    <glyph glyph-name="E" unicode="E" horiz-adv-x="1193" 
d="M1114 129q0 -53 -37 -91t-88 -38h-690q-68 0 -116 48t-48 116v1038q0 68 48 116t116 48h690q51 0 88 -38t37 -90t-37 -90t-88 -38h-563v-289h549q51 0 88 -38t37 -90t-37 -90t-88 -38h-549v-309h563q51 0 88 -37t37 -90z" />
    <glyph glyph-name="F" unicode="F" horiz-adv-x="1169" 
d="M1114 1238q0 -52 -37 -90t-88 -38h-563v-289h549q51 0 88 -38t37 -90t-37 -90t-88 -38h-549v-434q0 -59 -43 -101t-102 -42t-103 43q-43 43 -43 100v1071q0 68 48 116t116 48h690q51 0 88 -38t37 -90z" />
    <glyph glyph-name="G" unicode="G" horiz-adv-x="1474" 
d="M1378 592v-88q0 -219 -166 -375t-415 -156q-307 0 -517 197t-210 513t210 511t513 195t489 -201q35 -39 35 -90t-41 -90t-97 -39t-98 41q-125 120 -297 120t-295 -126q-121 -127 -121 -322t122 -322q120 -127 307 -127q133 0 212 72t78 176v21h-247q-53 0 -89 37t-36 91
t36 90t89 36h374q68 0 116 -48t48 -116z" />
    <glyph glyph-name="H" unicode="H" horiz-adv-x="1497" 
d="M1364 1235v-1102q0 -59 -43 -102t-103 -43t-104 43q-43 43 -43 102v440h-645v-442q0 -59 -43 -101t-102 -42t-103 43q-43 43 -43 100v1104q0 59 43 101q42 42 102 42t103 -42t43 -101v-406h645v406q0 59 43 101q44 42 104 42t103 -42t43 -101z" />
    <glyph glyph-name="I" unicode="I" horiz-adv-x="561" 
d="M426 1235v-1104q0 -59 -43 -101t-102 -42t-103 43q-43 43 -43 100v1104q0 59 43 101q42 42 102 42t103 -42t43 -101z" />
    <glyph glyph-name="J" unicode="J" horiz-adv-x="995" 
d="M860 1235v-786q0 -233 -131 -353t-350 -121q-97 0 -193 28q-150 43 -149 159q0 43 40 81t91 38q19 0 82 -23t106 -25q96 -1 154 59t59 161v782q0 59 43 101q42 42 102 42t103 -42t43 -101z" />
    <glyph glyph-name="K" unicode="K" horiz-adv-x="1302" 
d="M1165 123q0 -49 -41 -92q-42 -43 -106 -43t-105 55l-381 504l-106 -127v-289q0 -59 -43 -101t-102 -42t-103 43q-43 43 -43 100v1104q0 59 43 101q42 42 102 42t103 -42t43 -101v-479l451 569q37 49 98 49t103 -39t42 -91t-30 -89l-365 -430l412 -514q28 -39 28 -88z" />
    <glyph glyph-name="L" unicode="L" horiz-adv-x="1071" 
d="M1016 129q0 -53 -37 -91t-88 -38h-592q-68 0 -116 48t-48 116v1071q0 59 43 101q42 42 102 42t103 -42t43 -101v-979h465q51 0 88 -37t37 -90z" />
    <glyph glyph-name="M" unicode="M" horiz-adv-x="1751" 
d="M1616 1202v-1069q0 -59 -43 -102t-103 -43t-104 43q-43 43 -43 102v823l-369 -874q-20 -53 -80 -53t-79 53l-369 874v-825q0 -59 -43 -101t-102 -42t-103 43q-43 43 -43 100v1071q0 68 46 114t118 52q115 8 189 -22t108 -113l278 -692l279 692q51 125 201 135
q114 8 188 -32t74 -134z" />
    <glyph glyph-name="N" unicode="N" horiz-adv-x="1492" 
d="M1358 1235v-1071q0 -72 -52 -124t-135 -52t-139 73l-606 830v-760q0 -59 -43 -101t-102 -42t-103 43q-43 43 -43 100v1061q0 74 55 130q54 56 146 56t149 -80l582 -790v727q0 59 43 101t103 42q61 0 103 -42t42 -101z" />
    <glyph glyph-name="O" unicode="O" horiz-adv-x="1566" 
d="M1198 682q0 195 -115 322q-115 126 -301 126t-300 -126t-114 -322q0 -195 114 -322t300 -127t301 127t115 322zM1497 682q0 -309 -202 -508t-512 -199t-512 200t-201 507q0 307 201 507q202 200 512 200t512 -199t202 -508z" />
    <glyph glyph-name="P" unicode="P" horiz-adv-x="1277" 
d="M936 926q0 84 -56 134t-145 50h-309v-369h309q89 1 145 51t56 134zM1233 927q0 -187 -123 -315t-336 -127h-348v-354q0 -59 -43 -101t-102 -42t-103 43q-43 43 -43 100v1071q0 68 48 116t116 48h475q215 0 337 -126t122 -313z" />
    <glyph glyph-name="Q" unicode="Q" horiz-adv-x="1566" 
d="M1198 682q0 195 -115 322q-115 126 -301 126t-300 -126t-114 -322q0 -195 114 -322t300 -127q72 0 144 23l-76 88q-29 31 -29 81t38 90t95 40t97 -45l77 -90q70 115 70 262zM1497 692q0 -299 -178 -493l24 -29q29 -35 29 -84t-38 -89t-95 -40t-98 47l-35 39
q-152 -68 -324 -68q-309 0 -511 200t-201 507q0 307 201 507q202 200 512 200t512 -199t202 -498z" />
    <glyph glyph-name="R" unicode="R" horiz-adv-x="1316" 
d="M426 741h305q89 1 147 51t58 134t-57 134t-148 50h-305v-369zM1233 926q0 -152 -80 -260t-199 -146l209 -319q19 -27 19 -76t-41 -93t-112 -44t-116 73l-254 424h-233v-354q0 -59 -43 -101t-102 -42t-103 43q-43 43 -43 100v1071q0 68 48 116t116 48h475q211 0 335 -122
t124 -318z" />
    <glyph glyph-name="S" unicode="S" horiz-adv-x="1228" 
d="M1167 414q0 -197 -140 -318t-406 -121q-160 -1 -314 49q-231 74 -229 210q0 46 42 85t92 39t81 -22q154 -106 342 -107q113 0 175 44q62 43 62 103t-58 97t-145 53t-189 47t-190 70q-87 39 -146 123q-58 84 -58 205q0 176 141 296t377 119q132 0 274 -40t195 -111
q25 -31 25 -78t-45 -85t-93 -38t-81 21q-137 78 -301 78q-92 0 -144 -37q-52 -38 -51 -94q0 -103 197 -139t384 -121q87 -40 145 -124t58 -204z" />
    <glyph glyph-name="T" unicode="T" horiz-adv-x="1191" 
d="M1153 1238q0 -52 -37 -90t-88 -38h-285v-977q0 -59 -43 -102t-103 -43t-103 43t-43 102v977h-285q-53 0 -90 38t-37 91t38 90t89 37h862q51 0 88 -38t37 -90z" />
    <glyph glyph-name="U" unicode="U" horiz-adv-x="1501" 
d="M1368 1233v-686q0 -264 -157 -418t-459 -154t-460 155q-157 155 -157 415v688q0 59 43 102q42 43 104 43t105 -43t43 -102v-678q0 -147 84 -234t238 -87t236 86q82 88 83 235v678q0 59 44 102q43 43 105 43t105 -43t43 -102z" />
    <glyph glyph-name="V" unicode="V" horiz-adv-x="1400" 
d="M1346 1227q0 -27 -11 -53l-397 -1033q-27 -69 -89 -111t-134 -42h-29q-72 0 -134 42t-89 111l-400 1033q-10 20 -10 66t44 92q43 46 101 46t98 -28t56 -72l348 -963l347 963q14 45 55 73q40 27 98 27t102 -45t44 -106z" />
    <glyph glyph-name="W" unicode="W" horiz-adv-x="1880" 
d="M1837 1239q0 -23 -6 -41l-305 -1067q-18 -63 -72 -103t-117 -40h-4q-68 0 -119 40t-67 103l-207 807l-205 -807q-14 -61 -67 -102t-117 -41h-4q-66 0 -119 40t-72 103l-307 1069q-6 18 -6 39q0 61 44 107q45 46 105 45q60 0 102 -33t56 -86l217 -893l234 893q12 47 52 77
q40 29 89 29t87 -30t50 -76l234 -893l213 891q12 53 56 87t106 34q62 1 105 -45q44 -46 44 -107z" />
    <glyph glyph-name="X" unicode="X" horiz-adv-x="1368" 
d="M1251 125q0 -47 -40 -92q-39 -45 -107 -45t-111 61l-309 451l-311 -453q-41 -59 -107 -59t-107 39q-42 39 -42 91t24 89l348 493l-323 463q-23 31 -23 80t40 91t109 42t114 -63l278 -414l274 412q44 65 112 65t112 -41t43 -90q0 -49 -25 -84l-321 -459l348 -493
q24 -37 24 -84z" />
    <glyph glyph-name="Y" unicode="Y" horiz-adv-x="1320" 
d="M1223 1250q0 -46 -21 -79l-395 -612v-428q0 -59 -43 -101q-42 -42 -102 -42t-103 43t-43 100v428l-399 615q-21 28 -21 74t40 87t109 41t109 -65l308 -494l301 492q41 67 111 67t110 -40t39 -86z" />
    <glyph glyph-name="Z" unicode="Z" horiz-adv-x="1212" 
d="M1139 129q0 -53 -37 -91t-88 -38h-781q-63 0 -111 47t-48 109t30 104l627 850h-530q-53 0 -90 38t-37 91t38 90t89 37h772q59 0 104 -46t45 -110t-35 -110l-620 -844h547q51 0 88 -37t37 -90z" />
    <glyph glyph-name="bracketleft" unicode="[" horiz-adv-x="573" 
d="M467 -215q35 1 59 -25t25 -62q0 -36 -25 -62t-59 -25h-207q-68 0 -116 48t-48 116v1450q0 67 48 115t116 49h207q35 0 59 -26t25 -62q0 -35 -25 -61t-59 -26h-184v-1429h184z" />
    <glyph glyph-name="backslash" unicode="\" horiz-adv-x="673" 
d="M643 20q0 -20 -26 -47t-64 -26q-68 0 -86 61l-432 1297q-4 9 -4 35t25 53q26 27 65 26q66 0 86 -61l432 -1297q4 -21 4 -41z" />
    <glyph glyph-name="bracketright" unicode="]" horiz-adv-x="573" 
d="M477 1225v-1450q0 -68 -48 -116t-116 -48h-204q-35 -1 -61 25t-26 62t26 62t61 25h182v1429h-182q-35 0 -61 26t-26 63t26 61t61 25h204q68 0 116 -48t48 -116z" />
    <glyph glyph-name="asciicircum" unicode="^" horiz-adv-x="903" 
d="M821 748q-1 -26 -25 -52t-72 -26t-71 51l-202 467l-201 -467q-23 -51 -70 -51q-46 0 -72 24t-26 52q0 26 8 42l238 510q37 80 125 80t127 -80l235 -510q6 -14 6 -40z" />
    <glyph glyph-name="underscore" unicode="_" horiz-adv-x="1155" 
d="M1090 -82q36 0 60 -26t24 -61t-25 -61t-59 -26h-1022q-35 0 -61 26q-25 26 -25 62t26 60q26 26 60 26h1022z" />
    <glyph glyph-name="grave" unicode="`" horiz-adv-x="514" 
d="M438 1194q0 -27 -20 -47q-20 -21 -45 -21t-45 17l-191 168q-25 20 -25 53q0 34 24 58t57 24t57 -25l170 -182q18 -18 18 -45z" />
    <glyph glyph-name="a" unicode="a" horiz-adv-x="1112" 
d="M723 426h-209q-186 0 -186 -129q0 -68 53 -107q53 -38 131 -38t144 60t67 169v45zM983 639v-522q0 -53 -37 -91t-90 -38h-20q-49 0 -81 34t-32 70q-98 -117 -313 -117q-133 0 -239 87q-105 87 -105 243q0 157 101 227t243 70h313v33q0 76 -59 121t-171 45t-208 -64
q-25 -14 -55 -14t-60 29q-31 30 -31 64q0 108 180 161q125 37 232 37q190 0 311 -88t121 -287z" />
    <glyph glyph-name="b" unicode="b" horiz-adv-x="1200" 
d="M864 494q0 128 -70 208t-168 80t-168 -79t-69 -199v-23q0 -119 70 -197t153 -77q113 0 183 79q69 79 69 208zM674 1014q195 0 327 -142t132 -380q-1 -238 -133 -377t-326 -140q-90 0 -166 40t-119 112v-10q0 -53 -38 -91t-92 -38t-92 38t-38 91v1134q0 53 38 90t93 37
t92 -38t37 -89v-389q41 74 118 113t167 39z" />
    <glyph glyph-name="c" unicode="c" horiz-adv-x="1021" 
d="M826 270q42 0 80 -32t38 -82q0 -51 -41 -82q-123 -98 -333 -98t-356 144q-148 146 -148 374t147 374q147 145 377 146q117 0 212 -38q140 -56 140 -145q0 -49 -38 -79t-81 -31q-43 1 -92 31t-129 30q-120 0 -194 -79t-74 -207t75 -209q75 -80 193 -80q80 0 148 43
q34 20 76 20z" />
    <glyph glyph-name="d" unicode="d" horiz-adv-x="1200" 
d="M336 494q0 -129 70 -208t168 -79t168 78t69 196v23q0 122 -70 200t-153 78q-112 0 -182 -80t-70 -208zM526 -25q-194 -1 -326 139t-132 378t132 380t326 142q90 0 167 -39t118 -113v389q0 51 37 89t92 38t93 -37t38 -90v-1134q0 -53 -38 -91t-92 -38t-92 38t-38 91v10
q-43 -72 -119 -112t-166 -40z" />
    <glyph glyph-name="e" unicode="e" horiz-adv-x="1132" 
d="M581 807q-113 1 -175 -67t-72 -156h487q-6 86 -66 154t-174 69zM1069 534q0 -55 -35 -91t-86 -35h-610q12 -98 88 -162t178 -64t211 60q25 12 61 12t70 -31q35 -31 31 -73q-8 -80 -130 -127t-253 -48q-229 -1 -379 143q-149 144 -149 370t144 376t368 150q166 0 288 -89
t174 -245q29 -91 29 -146z" />
    <glyph glyph-name="f" unicode="f" horiz-adv-x="669" 
d="M520 1386q104 0 169 -34t65 -82q0 -49 -27 -76t-51 -27q-24 -1 -52 7t-68 8t-74 -36t-33 -104v-53h102q45 0 78 -34t33 -80q0 -45 -33 -79t-78 -34h-102v-645q0 -53 -38 -91q-37 -38 -93 -38t-94 38t-38 91v645h-63q-47 0 -80 34t-33 81t34 79t79 33h63v53q0 158 92 251
t242 93z" />
    <glyph glyph-name="g" unicode="g" horiz-adv-x="1198" 
d="M807 504v12q0 119 -69 193q-69 73 -168 73t-168 -74q-68 -74 -68 -198q0 -125 68 -199q68 -73 168 -73t168 74t69 192zM1069 872v-804q0 -136 -48 -232t-130 -145q-157 -94 -356 -92q-113 1 -228 31q-169 45 -172 149q0 47 32 78t69 31t63 -15q99 -61 223 -61t204 58
t81 191v101q-35 -74 -117 -115t-188 -41q-193 0 -315 132q-121 132 -121 371t121 372q122 133 315 133q98 0 178 -41t127 -111v10q0 54 38 92t93 38t93 -39q38 -38 38 -91z" />
    <glyph glyph-name="h" unicode="h" horiz-adv-x="1187" 
d="M1059 600v-483q0 -53 -38 -91t-92 -38t-92 38t-38 91v444q-1 101 -59 161t-147 60t-147 -63t-57 -156v-446q0 -53 -38 -91t-92 -38t-92 38t-38 91v1134q0 53 38 90t93 37t92 -38t37 -89v-370q103 133 275 133t284 -125t111 -289z" />
    <glyph glyph-name="i" unicode="i" horiz-adv-x="518" 
d="M389 874v-757q0 -53 -38 -91t-92 -38t-92 38t-38 91v757q0 52 38 90t93 38t92 -39q37 -38 37 -89zM260 1405q64 0 109 -45q45 -44 45 -108t-45 -110t-109 -46t-112 46q-46 46 -46 109t46 109q48 45 112 45z" />
    <glyph glyph-name="j" unicode="j" horiz-adv-x="518" 
d="M129 -27v901q0 52 38 90t93 38t92 -39q37 -38 37 -89v-901q0 -174 -89 -274t-263 -100q-233 0 -234 120q0 43 31 74t72 31l88 -12q61 0 98 41t37 120zM260 1405q64 0 109 -45q45 -44 45 -108t-45 -110t-109 -46t-112 46q-46 46 -46 109t46 109q48 45 112 45z" />
    <glyph glyph-name="k" unicode="k" horiz-adv-x="1095" 
d="M977 115q0 -45 -37 -86q-36 -41 -100 -41t-101 55l-231 338l-119 -127v-137q0 -53 -38 -91t-92 -38t-92 38t-38 91v1134q0 53 38 90t93 37t92 -38t37 -89v-702l350 414q35 41 86 41t88 -37t37 -83t-28 -81l-230 -262l260 -348q25 -33 25 -78z" />
    <glyph glyph-name="l" unicode="l" horiz-adv-x="518" 
d="M389 1251v-1134q0 -53 -38 -91t-92 -38t-92 38t-38 91v1134q0 53 38 90t93 37t92 -38t37 -89z" />
    <glyph glyph-name="m" unicode="m" horiz-adv-x="1744" 
d="M1618 633v-516q0 -53 -38 -91t-93 -38t-93 38t-38 91v467q0 76 -46 137t-125 61t-130 -63t-51 -154v-448q0 -53 -38 -91t-94 -38t-93 38q-38 38 -38 91v467q0 76 -46 137t-124 61t-130 -61t-52 -137v-467q0 -53 -38 -91t-92 -38t-92 38t-38 91v757q0 52 38 90t96 38
t92 -34q34 -32 34 -61v-2q84 109 262 109q113 0 187 -51t108 -119q35 66 113 118t194 52q161 0 263 -112t102 -269z" />
    <glyph glyph-name="n" unicode="n" 
d="M1057 637v-520q0 -53 -38 -91t-92 -38t-92 38t-38 91v440q-1 101 -59 163t-142 62t-145 -63t-62 -166v-436q0 -53 -38 -91t-92 -38t-92 38t-38 91v757q0 52 38 90t93 38t92 -38t37 -90v-2q35 54 109 98t176 44q160 0 272 -115t111 -262z" />
    <glyph glyph-name="o" unicode="o" horiz-adv-x="1175" 
d="M588 207q118 0 186 83t68 205q0 123 -69 205t-185 82t-185 -83q-67 -83 -67 -205t68 -204q68 -83 184 -83zM1112 496q0 -219 -143 -370t-381 -151t-380 151t-142 370q0 218 142 368t380 150t381 -150t143 -368z" />
    <glyph glyph-name="p" unicode="p" horiz-adv-x="1193" 
d="M864 496q0 130 -70 208t-168 78t-168 -78t-69 -196v-23q0 -121 70 -199t153 -79q113 0 183 80q69 80 69 209zM674 1014q195 0 327 -139t132 -377q-1 -238 -133 -380t-326 -143q-90 0 -167 39t-118 113v-389q0 -51 -38 -89t-92 -38t-92 37t-38 90v1134q0 54 38 92t92 38
t92 -38t38 -92v-10q43 72 119 112t166 40z" />
    <glyph glyph-name="q" unicode="q" horiz-adv-x="1193" 
d="M332 496q0 -129 70 -209t168 -80t168 79t69 199v23q0 119 -70 197t-153 77q-112 0 -182 -78t-70 -208zM522 -25q-195 1 -327 143t-132 380q1 238 133 376t326 140q90 0 166 -40t119 -112v10q0 54 38 92t92 38t92 -38t38 -92v-1134q0 -53 -38 -90t-93 -37t-92 37t-37 90
v389q-41 -74 -118 -113t-167 -39z" />
    <glyph glyph-name="r" unicode="r" horiz-adv-x="737" 
d="M602 997q55 1 85 -29t30 -81t-35 -86q-36 -35 -102 -44t-128 -63t-63 -164v-413q0 -53 -37 -91t-90 -38h-4q-53 0 -91 38t-38 91v757q0 52 38 90t93 38t92 -38t37 -90v-20q106 143 213 143z" />
    <glyph glyph-name="s" unicode="s" horiz-adv-x="976" 
d="M913 293q1 -139 -113 -228t-315 -90q-111 0 -233 35t-164 96q-18 25 -18 63t32 70q33 31 70 31t59 -14q137 -80 267 -80q82 0 124 29t42 72t-44 67t-109 33q-65 11 -141 31t-142 49q-64 29 -108 91t-44 154q0 131 108 222q109 90 297 90q106 0 214 -33q163 -50 163 -139
q0 -41 -31 -70t-65 -29t-55 13q-102 59 -224 59q-71 0 -113 -28q-42 -27 -42 -65q0 -67 149 -91q149 -23 285 -83q66 -30 108 -96t43 -159z" />
    <glyph glyph-name="t" unicode="t" horiz-adv-x="692" 
d="M670 94q0 -119 -209 -119q-137 0 -209 70t-72 201v516h-63q-47 0 -80 34t-33 81t34 79t79 33h63v154q0 53 38 91t93 38t93 -38t38 -91v-154h103q45 0 78 -34t33 -80q0 -45 -34 -79q-32 -34 -77 -34h-103v-447q0 -53 28 -81t62 -27h23q53 0 84 -32t31 -81z" />
    <glyph glyph-name="u" unicode="u" 
d="M129 352v520q0 54 38 92t92 38t92 -38t38 -92v-440q0 -100 58 -162q59 -62 143 -63q84 0 145 63t62 166v436q0 54 38 92t92 38t92 -38t38 -92v-757q0 -53 -38 -90t-92 -37t-92 37t-38 90v2q-31 -55 -105 -99t-180 -43q-160 0 -272 115t-111 262z" />
    <glyph glyph-name="v" unicode="v" horiz-adv-x="1050" 
d="M1006 882q0 -39 -9 -57l-288 -714q-23 -55 -73 -89t-108 -34h-4q-59 0 -110 34t-72 89l-289 714q-10 25 -10 61t38 74q38 40 95 39q86 0 117 -79l231 -619l232 617q32 84 128 82q48 0 85 -39q37 -40 37 -79z" />
    <glyph glyph-name="w" unicode="w" horiz-adv-x="1574" 
d="M1536 877q0 -18 -6 -37l-221 -725q-17 -55 -65 -91t-105 -36h-4q-59 0 -108 35q-48 35 -64 92l-175 559l-174 -559q-16 -55 -65 -91t-107 -36h-4q-57 0 -106 36t-66 91l-221 725q-6 18 -6 52t37 72t87 38t85 -26t45 -67l162 -585l186 573q16 47 57 76q40 29 90 29t91 -30
t55 -75l186 -573l162 585q10 41 46 67t85 26t86 -38q37 -36 37 -87z" />
    <glyph glyph-name="x" unicode="x" horiz-adv-x="1032" 
d="M932 102q0 -42 -33 -78t-89 -36t-95 51l-199 274l-203 -276q-35 -49 -89 -49t-90 36t-36 78t21 70l233 330l-233 315q-21 29 -21 70t35 77t92 36t94 -54l197 -262l193 260q41 55 97 55q56 1 91 -35t35 -77t-21 -70l-235 -315l235 -330q21 -29 21 -70z" />
    <glyph glyph-name="y" unicode="y" horiz-adv-x="1050" 
d="M1006 885q0 -40 -9 -58l-399 -989q-96 -240 -340 -239q-70 -1 -115 31t-45 82t35 84t73 34q115 0 146 72l37 84l-338 843q-8 18 -8 56q0 37 37 77t85 40t82 -24t48 -63l229 -614l230 614q14 39 49 63t83 24t84 -39q36 -38 36 -78z" />
    <glyph glyph-name="z" unicode="z" horiz-adv-x="980" 
d="M795 227q45 -1 77 -33t33 -79q0 -47 -33 -81t-77 -34h-592q-51 0 -90 39t-39 88t28 88l430 547h-346q-47 0 -80 34q-32 34 -32 81t34 79t78 33h584q47 0 86 -37t39 -88t-27 -84l-436 -553h363z" />
    <glyph glyph-name="braceleft" unicode="{" horiz-adv-x="589" 
d="M467 -215q49 -1 75 -25t25 -62q1 -38 -25 -63t-75 -24h-37q-129 0 -223 90t-94 236v352q-1 88 -45 116t-59 45t-15 50t15 50t59 45t45 116v350q0 145 94 236t223 92h37q49 0 75 -25q26 -24 26 -62t-26 -63t-75 -25h-37q-53 0 -90 -42t-37 -109v-379q0 -143 -94 -184
q94 -41 94 -185v-376q0 -68 37 -111t90 -43h37z" />
    <glyph glyph-name="bar" unicode="|" horiz-adv-x="442" 
d="M309 1335v-1302q1 -35 -25 -61t-62 -26t-62 26t-25 61v1302q0 35 26 60q25 25 61 25t62 -26q25 -26 25 -59z" />
    <glyph glyph-name="braceright" unicode="}" horiz-adv-x="589" 
d="M596 500q0 -33 -15 -50t-59 -45t-45 -116v-352q0 -145 -94 -235t-223 -91h-37q-49 1 -75 25t-26 62t26 62t75 25h37q53 0 90 43t37 111v376q0 143 94 185q-94 41 -94 184v379q0 67 -37 109t-90 42h-37q-49 0 -75 25t-26 63t26 62t75 25h37q129 1 223 -91t94 -237v-350
q0 -88 44 -116q43 -28 59 -45t16 -50z" />
    <glyph glyph-name="asciitilde" unicode="~" horiz-adv-x="1044" 
d="M678 844q-82 0 -137 56t-73 124q-45 180 -110 180q-84 0 -118 -272q-4 -34 -30 -56t-64 -22t-62 29q-23 29 -23 69q25 186 93 299t204 113q74 0 124 -37t73 -90t39 -107q38 -129 92 -129q90 0 121 279q2 32 28 54q25 22 63 22t62 -28t23 -68q-33 -300 -169 -383
q-54 -33 -136 -33z" />
    <glyph glyph-name="uni00A0" unicode="&#xa0;" horiz-adv-x="524" 
 />
    <glyph glyph-name="exclamdown" unicode="&#xa1;" horiz-adv-x="524" 
d="M412 -238q0 -63 -44 -106t-108 -43t-107 43q-42 43 -42 106q0 2 30 684q2 47 36 80t83 33t83 -33t36 -80q17 -372 25 -519t8 -165zM424 847q0 -67 -48 -116t-116 -49t-117 49t-49 116t49 116t117 49t116 -49t48 -116z" />
    <glyph glyph-name="cent" unicode="&#xa2;" horiz-adv-x="1021" 
d="M334 496q0 -96 43 -167t117 -102v535q-74 -30 -117 -100t-43 -166zM944 158q0 -76 -105 -129q-71 -35 -157 -47v-95q0 -39 -27 -65t-67 -27q-40 0 -67 27q-28 27 -27 65v97q-193 29 -311 169q-117 140 -117 342t117 342q118 140 311 169v59q0 39 28 65t67 27q41 0 67 -27
t26 -65v-57q86 -12 156 -48t87 -74q17 -37 17 -55q0 -49 -38 -79t-85 -31q-28 -1 -73 21q-44 22 -64 28v-551q16 3 63 27t85 24t76 -32t38 -80z" />
    <glyph glyph-name="sterling" unicode="&#xa3;" horiz-adv-x="1126" 
d="M1073 123q0 -150 -272 -150q-96 0 -206 45q-111 45 -173 45q-62 -1 -120 -27t-96 -26t-70 32t-32 86t60 93q154 100 153 219q0 51 -24 111h-176q-35 1 -59 25t-24 59t26 59q24 24 57 23h69q-94 129 -94 246q0 186 152 305t346 118q143 0 263 -48t151 -126q8 -29 8 -45
q0 -55 -37 -89t-78 -34t-65 10t-91 52q-66 43 -116 43q-91 0 -153 -53t-62 -138t43 -152q7 -11 31 -48t26 -41h227q33 0 57 -25q24 -24 24 -58t-24 -59t-57 -24h-164l2 -39q-1 -70 -37 -131t-94 -96q42 14 102 14t139 -34t128 -34l129 21q51 0 91 -37t40 -92z" />
    <glyph glyph-name="currency" unicode="&#xa4;" horiz-adv-x="1275" 
d="M899 681q0 115 -70 193q-69 78 -191 78t-192 -78t-70 -192t70 -194q70 -78 192 -78t192 78t69 193zM1192 237q0 -42 -33 -75t-78 -33t-75 31l-88 86q-121 -70 -281 -70t-283 72l-84 -86q-32 -31 -76 -31t-77 32t-33 76t31 74l84 84q-82 127 -82 285t82 285l-86 88
q-31 31 -31 73t32 75q32 34 78 34t76 -31l90 -90q123 70 277 70t280 -70l91 90q30 31 74 31t78 -32t34 -77t-31 -75l-84 -84q84 -129 84 -289t-86 -287l84 -82q33 -32 33 -74z" />
    <glyph glyph-name="yen" unicode="&#xa5;" horiz-adv-x="1320" 
d="M1288 314q0 -34 -22 -56t-56 -22h-403v-105q0 -59 -43 -101q-42 -42 -102 -42t-103 43t-43 100v105h-401q-33 0 -56 24t-23 56q0 34 23 57t56 22h401v164h-399q-35 0 -58 24q-23 25 -23 59t24 56t57 23h293l-293 453q-21 28 -21 74t39 87t107 41t112 -65l308 -494
l301 492q41 67 111 67t110 -40t39 -86q0 -46 -21 -79l-291 -450h299q33 0 56 -24q22 -23 22 -57t-22 -58t-56 -23h-403v-164h403q33 0 56 -23q22 -24 22 -58z" />
    <glyph glyph-name="brokenbar" unicode="&#xa6;" horiz-adv-x="442" 
d="M309 535v-502q1 -35 -25 -61t-62 -26t-62 26t-25 61v502q0 35 26 59q25 24 61 24t62 -24t25 -59zM309 1335v-501q1 -35 -25 -61q-26 -25 -62 -25t-62 26t-25 60v501q0 35 26 60q25 25 61 25t62 -26q25 -26 25 -59z" />
    <glyph glyph-name="section" unicode="&#xa7;" horiz-adv-x="991" 
d="M657 618q0 109 -170 148q-87 -20 -123 -57t-36 -99t55 -92t156 -51q118 51 118 151zM913 154q-1 -150 -119 -235t-309 -85q-119 0 -235 38t-158 95q-20 23 -20 59t28 65q29 30 64 30t57 -17q131 -90 264 -90q82 0 130 31q49 31 49 82q1 91 -150 121q-150 30 -286 87
q-64 28 -108 89t-44 154t59 159t141 94q-201 76 -200 259q0 127 113 212q115 84 277 84t277 -47t115 -116q0 -39 -28 -67t-62 -28t-53 15q-103 61 -201 61q-186 0 -186 -110q0 -47 60 -73t146 -43t173 -43q86 -25 146 -93t60 -174q0 -176 -170 -262q170 -74 170 -252z" />
    <glyph glyph-name="dieresis" unicode="&#xa8;" horiz-adv-x="604" 
d="M657 1251q0 -57 -41 -98t-98 -41t-98 41t-41 98t41 97t98 41q57 -1 98 -41t41 -97zM223 1251q0 -57 -40 -98t-97 -41t-98 40t-41 98t41 98t98 41q57 -1 97 -41t40 -97z" />
    <glyph glyph-name="copyright" unicode="&#xa9;" horiz-adv-x="1593" 
d="M1050 432q20 0 32 -12q14 -12 14 -30q0 -17 -13 -30q-115 -108 -285 -108t-293 124q-124 124 -124 309t124 308t295 123t281 -104q13 -12 13 -30t-14 -30q-14 -14 -31 -14q-18 0 -31 12q-88 84 -218 84t-228 -98t-97 -249q0 -151 97 -252q96 -101 228 -101t222 86
q8 12 28 12zM1430 685q0 261 -186 447t-447 185t-447 -187t-186 -446t186 -446t446 -186t448 186q186 186 186 447zM1503 684q0 -293 -207 -500q-208 -207 -500 -207t-499 208t-207 500t207 499t500 207t499 -207t207 -500z" />
    <glyph glyph-name="ordfeminine" unicode="&#xaa;" horiz-adv-x="788" 
d="M498 952h-131q-49 0 -83 -22t-34 -67q0 -43 34 -69t81 -26t90 39t43 106v39zM686 1071v-323q0 -39 -27 -66t-65 -27q-37 -5 -67 15t-29 57v2q-70 -78 -209 -78q-90 1 -158 57t-68 155t67 147t159 49h209v16q0 51 -39 81t-106 30t-142 -49q-43 -27 -82 10q-23 21 -23 45
q0 75 126 111q87 25 157 24q129 1 213 -59t84 -197z" />
    <glyph glyph-name="guillemotleft" unicode="&#xab;" horiz-adv-x="1079" 
d="M915 210q-1 -36 -25 -65t-63 -29t-63 29l-205 230q-45 51 -45 121t47 122l203 226q24 26 60 26t64 -26t28 -61q0 -36 -21 -58l-205 -227l205 -230q20 -22 20 -58zM526 210q0 -36 -24 -65t-64 -29q-39 0 -63 29l-205 230q-45 51 -45 121t47 122l203 226q25 26 61 26
t63 -26t27 -61q0 -36 -20 -58l-205 -227l205 -230q20 -22 20 -58z" />
    <glyph glyph-name="logicalnot" unicode="&#xac;" horiz-adv-x="1054" 
d="M973 795v-314q0 -35 -25 -59q-24 -24 -58 -23q-34 0 -59 24t-24 58v314h-680q-33 1 -57 25t-23 58q0 34 24 58t56 22h682q68 0 116 -48t48 -115z" />
    <glyph glyph-name="softhyphen" unicode="&#xad;" horiz-adv-x="614" 
d="M158 606h299q45 0 77 -32t32 -78t-32 -78q-32 -33 -77 -33h-299q-45 0 -77 33t-32 79q0 45 32 77t77 32z" />
    <glyph glyph-name="registered" unicode="&#xae;" horiz-adv-x="1011" 
d="M543 963q35 1 63 25t27 62q0 38 -28 64t-62 25h-133v-176h133zM543 1200q66 0 114 -42t48 -111q-1 -70 -47 -108t-80 -38l102 -149q8 -10 8 -24t-11 -26q-11 -10 -29 -10t-30 21l-122 186h-86v-176q0 -33 -35 -33t-35 33v412q0 29 19 47t49 18h135zM874 953
q0 153 -108 261t-262 107q-152 0 -260 -108q-108 -109 -107 -261q0 -152 108 -260q109 -108 261 -108t260 108t108 261zM72 952q0 180 127 308t308 126q181 0 307 -126t126 -307t-127 -308t-307 -127t-307 127t-127 307z" />
    <glyph glyph-name="macron" unicode="&#xaf;" horiz-adv-x="743" 
d="M743 1225q1 -31 -21 -53t-50 -21h-600q-28 -1 -50 21t-22 53t22 53t50 20h600q29 0 50 -21t21 -52z" />
    <glyph glyph-name="degree" unicode="&#xb0;" horiz-adv-x="636" 
d="M453 1109q0 56 -40 96q-41 40 -97 40t-94 -40t-38 -96t38 -95t94 -39t97 39q40 39 40 95zM594 1108q0 -115 -81 -195q-81 -79 -196 -79t-195 80t-81 194q0 115 81 197q82 81 196 81t195 -82t81 -196z" />
    <glyph glyph-name="plusminus" unicode="&#xb1;" horiz-adv-x="1032" 
d="M907 160q33 0 55 -22t23 -57q-1 -33 -23 -57t-55 -24h-782q-33 0 -55 24t-23 58q0 34 23 56t55 22h782zM907 827q33 0 55 -22t23 -56q-1 -34 -23 -58t-55 -23h-301v-342q0 -37 -26 -63q-26 -25 -63 -25t-63 26t-26 62v342h-303q-33 0 -55 24t-23 57q0 35 23 57t55 21h303
v330q0 35 27 61t63 26t63 -26q26 -26 25 -61v-330h301z" />
    <glyph glyph-name="twosuperior" unicode="&#xb2;" horiz-adv-x="813" 
d="M537 1418q0 118 -155 118q-77 0 -159 -57q-23 -17 -53 -17t-54 22q-22 22 -22 52t15 49q31 51 123 80t169 29q145 0 237 -68t93 -176q0 -108 -83 -204t-269 -226h295q32 0 54 -22t22 -56q0 -32 -23 -56t-53 -24h-514q-33 0 -56 24q-22 24 -22 66t41 72q244 168 329 251
t85 143z" />
    <glyph glyph-name="threesuperior" unicode="&#xb3;" horiz-adv-x="813" 
d="M383 1006q164 0 164 101q0 48 -38 72t-81 23h-10q-30 0 -52 20t-22 56q0 37 22 56t52 20h8q43 0 75 22t31 70q0 90 -149 90q-96 0 -170 -53q-20 -15 -48 -15q-27 0 -49 22t-22 54q0 58 93 104t231 46t225 -60q86 -60 86 -164q0 -70 -37 -120t-84 -66q47 -6 91 -58
t44 -148t-93 -164q-92 -66 -228 -66t-238 42t-102 105q0 35 26 59q46 42 103 11q86 -59 172 -59z" />
    <glyph glyph-name="acute" unicode="&#xb4;" horiz-adv-x="514" 
d="M318 1446q32 0 58 -24t25 -57q0 -34 -24 -54l-191 -168q-20 -17 -45 -17t-45 20t-20 47q0 28 18 46l170 182q22 25 54 25z" />
    <glyph glyph-name="paragraph" unicode="&#xb6;" horiz-adv-x="919" 
d="M825 1239v-1395q0 -25 -19 -43t-46 -18t-45 18t-19 43v1395h-159v-1395q1 -25 -19 -43t-47 -18t-45 18t-18 43v818q-145 0 -249 103q-103 103 -103 249t102 248q104 104 250 104h290q51 0 89 -38t38 -89z" />
    <glyph glyph-name="periodcentered" unicode="&#xb7;" horiz-adv-x="524" 
d="M96 501q0 67 49 115t117 50q68 0 117 -49t49 -116t-49 -116t-117 -49t-117 49t-49 116z" />
    <glyph glyph-name="cedilla" unicode="&#xb8;" horiz-adv-x="452" 
d="M324 -84q48 0 88 -40t41 -112q0 -72 -66 -118q-66 -47 -155 -47q-90 1 -158 25t-68 69q0 25 18 41t34 16q17 0 30 -6q66 -35 120 -35q116 0 116 68q0 53 -60 53q-16 0 -41 -12q-57 -27 -89 7q-19 19 -19 35t4 31l43 115q20 59 76 60q20 0 40 -18t3 -58l-39 -94
q34 20 82 20z" />
    <glyph glyph-name="onesuperior" unicode="&#xb9;" horiz-adv-x="585" 
d="M463 1585v-637q0 -42 -29 -70t-71 -28q-43 0 -71 29t-28 69v482l-92 -95q-22 -23 -54 -23t-57 24t-25 58t25 58l209 207q33 33 80 33t80 -31t33 -76z" />
    <glyph glyph-name="ordmasculine" unicode="&#xba;" horiz-adv-x="829" 
d="M414 803q74 0 116 50t43 135q0 85 -42 134q-43 49 -117 49t-116 -48t-42 -134t42 -136t116 -50zM768 989q0 -141 -97 -239t-256 -98t-256 98t-98 239t97 239t257 99q159 -1 256 -99t97 -239z" />
    <glyph glyph-name="guillemotright" unicode="&#xbb;" horiz-adv-x="1079" 
d="M954 496q0 -70 -45 -121l-204 -230q-25 -29 -62 -29t-65 28t-27 64q0 36 22 60l205 230l-205 227q-20 23 -20 57t26 61q25 27 63 27t63 -26l202 -226q47 -52 47 -122zM565 496q0 -70 -45 -121l-205 -230q-25 -29 -61 -29t-65 28q-27 28 -27 64t22 60l205 230l-205 227
q-20 23 -20 57t25 61q26 27 64 27t62 -26l203 -226q47 -52 47 -122z" />
    <glyph glyph-name="onequarter" unicode="&#xbc;" horiz-adv-x="1705" 
d="M1352 330v323l-207 -323h207zM1593 330q29 0 51 -22t23 -54q-1 -30 -23 -54t-51 -24h-47v-92q0 -41 -28 -69q-28 -27 -69 -27q-40 0 -69 28t-28 68v92h-334q-32 0 -56 26t-24 58t14 55l279 437q49 80 145 79q70 0 120 -48t50 -113v-340h47zM463 1270v-637q0 -41 -29 -70
t-71 -29q-43 0 -71 30q-28 28 -28 69v481l-92 -94q-22 -23 -54 -23t-57 24q-25 23 -25 57t25 59l209 206q33 33 80 33t80 -30t33 -76zM1266 1318q0 -22 -11 -38l-806 -1264q-19 -28 -51 -28t-51 18t-19 40t10 40l807 1264q18 28 49 28q32 0 52 -19t20 -41z" />
    <glyph glyph-name="onehalf" unicode="&#xbd;" horiz-adv-x="1775" 
d="M1497 556q-1 118 -155 118q-76 0 -158 -58q-24 -16 -54 -16t-53 22t-22 56q0 70 104 112t203 41q145 1 237 -67q93 -68 93 -176t-83 -204q-83 -95 -270 -226h295q32 0 54 -22t22 -56q0 -32 -22 -56t-54 -24h-514q-34 0 -56 24t-22 66t41 72q244 168 329 251t85 143z
M463 1270v-637q0 -41 -29 -70t-71 -29q-43 0 -71 30q-28 28 -28 69v481l-92 -94q-22 -23 -54 -23t-57 24q-25 23 -25 57t25 59l209 206q33 33 80 33t80 -30t33 -76zM1266 1318q0 -22 -11 -38l-806 -1264q-19 -28 -51 -28t-51 18t-19 40t10 40l807 1264q18 28 49 28
q32 0 52 -19t20 -41z" />
    <glyph glyph-name="threequarters" unicode="&#xbe;" horiz-adv-x="1886" 
d="M1532 330v323l-207 -323h207zM1774 330q29 0 51 -22t22 -54q-1 -30 -23 -54t-50 -24h-48v-92q0 -41 -28 -69q-28 -27 -69 -27t-69 28t-28 68v92h-334q-32 0 -56 26t-24 58t15 55l278 437q49 80 145 79q70 0 120 -48t50 -113v-340h48zM1444 1318q0 -22 -10 -38l-807 -1264
q-19 -28 -51 -28t-51 18t-19 40t10 40l807 1264q18 28 49 28q32 0 52 -19t20 -41zM743 762q0 -96 -93 -164q-92 -66 -228 -66t-238 42t-102 106q0 34 26 58t54 24t49 -12q86 -60 172 -60t125 27t39 75t-38 71q-38 24 -81 24h-10q-30 0 -52 19q-22 18 -22 56t22 57t52 19h8
q43 0 75 23t31 69q0 90 -149 91q-96 0 -170 -54q-20 -14 -48 -14q-27 0 -49 22t-22 54q0 59 93 104t231 45t225 -60q86 -60 86 -163q0 -70 -37 -121t-84 -65q47 -7 91 -59t44 -148z" />
    <glyph glyph-name="questiondown" unicode="&#xbf;" horiz-adv-x="815" 
d="M496 582q57 0 99 -50t42 -137q0 -85 -47 -151q-46 -66 -102 -99q-150 -89 -150 -168q0 -51 40 -83t106 -33q66 0 146 39q81 39 127 39q47 0 81 -33q34 -32 34 -94t-72 -113q-138 -98 -334 -97t-310 90t-115 234q0 82 35 148t85 106t101 76q121 83 121 162l-6 53
q0 45 31 78t88 33zM637 846q0 -68 -49 -117t-117 -49t-117 49t-49 117t49 117t117 49t117 -49t49 -117z" />
    <glyph glyph-name="Agrave" unicode="&#xc0;" horiz-adv-x="1400" 
d="M487 487h426l-213 588zM1343 143q0 -59 -44 -107t-101 -48t-96 26t-55 70l-54 147h-585l-56 -147q-16 -45 -56 -71q-40 -25 -96 -25t-101 47q-44 47 -44 94t11 70l399 1026q27 69 88 111t135 42q80 6 150 -37t98 -116l397 -1026q10 -31 10 -56zM756 1536q0 -27 -20 -47
q-20 -21 -46 -21q-25 0 -45 17l-190 168q-25 23 -25 55t24 56t56 24t57 -25l170 -182q19 -18 19 -45z" />
    <glyph glyph-name="Aacute" unicode="&#xc1;" horiz-adv-x="1400" 
d="M487 487h426l-213 588zM1343 143q0 -59 -44 -107t-101 -48t-96 26t-55 70l-54 147h-585l-56 -147q-16 -45 -56 -71q-40 -25 -96 -25t-101 47q-44 47 -44 94t11 70l399 1026q27 69 88 111t135 42q80 6 150 -37t98 -116l397 -1026q10 -31 10 -56zM973 1708q0 -33 -25 -55
l-190 -168q-20 -17 -45 -17t-45 20t-20 47q0 28 18 46l170 182q20 25 53 25t59 -24t25 -56z" />
    <glyph glyph-name="Acircumflex" unicode="&#xc2;" horiz-adv-x="1400" 
d="M487 487h426l-213 588zM1343 143q0 -59 -44 -107t-101 -48t-96 26t-55 70l-54 147h-585l-56 -147q-16 -45 -56 -71q-40 -25 -96 -25t-101 47q-44 47 -44 94t11 70l399 1026q27 69 88 111t135 42q80 6 150 -37t98 -116l397 -1026q10 -31 10 -56zM961 1535q1 -25 -19 -47
t-52 -22t-50 27l-140 170l-137 -170q-23 -25 -51 -25t-50 20t-22 44q0 25 13 39l82 127q57 90 164 90t167 -90l84 -127q11 -12 11 -36z" />
    <glyph glyph-name="Atilde" unicode="&#xc3;" horiz-adv-x="1400" 
d="M487 487h426l-213 588zM1343 143q0 -59 -44 -107t-101 -48t-96 26t-55 70l-54 147h-585l-56 -147q-16 -45 -56 -71q-40 -25 -96 -25t-101 47q-44 47 -44 94t11 70l399 1026q27 69 88 111t135 42q80 6 150 -37t98 -116l397 -1026q10 -31 10 -56zM1032 1698q0 -72 -51 -147
t-164 -74q-59 1 -102 35t-75 69t-62 35q-51 0 -68 -74q-6 -29 -30 -47t-50 -18t-43 19q-16 19 -16 46q0 72 52 147t165 74q45 1 83 -21t57 -48q51 -68 100 -68q48 0 65 72q6 29 30 47q25 18 51 18t42 -19t16 -46z" />
    <glyph glyph-name="Adieresis" unicode="&#xc4;" horiz-adv-x="1400" 
d="M487 487h426l-213 588zM1343 143q0 -59 -44 -107t-101 -48t-96 26t-55 70l-54 147h-585l-56 -147q-16 -45 -56 -71q-40 -25 -96 -25t-101 47q-44 47 -44 94t11 70l399 1026q27 69 88 111t135 42q80 6 150 -37t98 -116l397 -1026q10 -31 10 -56zM1057 1593q0 -57 -41 -98
t-98 -41t-99 41q-41 41 -41 98t41 97t99 41q58 -1 98 -41q41 -40 41 -97zM623 1593q0 -57 -40 -98q-41 -41 -99 -41t-98 41t-40 98t41 97t98 41q57 0 98 -40q40 -41 40 -98z" />
    <glyph glyph-name="Aring" unicode="&#xc5;" horiz-adv-x="1400" 
d="M487 487h426l-213 588zM1343 143q0 -59 -44 -107t-101 -48t-96 26t-55 70l-54 147h-585l-56 -147q-16 -45 -56 -71q-40 -25 -96 -25t-101 47q-44 47 -44 94t11 70l399 1026q27 69 88 111t135 42q80 6 150 -37t98 -116l397 -1026q10 -31 10 -56zM797 1625q0 40 -28 68
q-28 27 -67 27q-40 0 -68 -28t-28 -68q0 -39 29 -68q29 -28 67 -28t67 28q28 28 28 69zM915 1623q0 -89 -62 -151q-63 -62 -151 -63t-151 63t-64 152t63 153t152 65t151 -65q62 -65 62 -154z" />
    <glyph glyph-name="AE" unicode="&#xc6;" horiz-adv-x="1982" 
d="M930 487v588l-342 -588h342zM1909 129q0 -53 -37 -91t-88 -38h-690q-68 0 -116 48t-48 116v67h-481l-105 -180q-36 -65 -106 -65t-111 43t-41 92t20 84l621 1022q39 63 108 101t142 38h807q51 0 88 -38t37 -90t-37 -90t-88 -38h-561v-289h546q51 0 89 -38t36 -90
q0 -52 -36 -90t-89 -38h-546v-309h561q51 0 88 -37t37 -90z" />
    <glyph glyph-name="Ccedilla" unicode="&#xc7;" horiz-adv-x="1406" 
d="M796 1389q310 0 498 -226q29 -35 29 -85t-41 -88t-101 -38t-104 47q-125 131 -295 131t-293 -126q-121 -127 -121 -322t122 -322q120 -127 296 -127t291 129q43 48 105 48t100 -38q39 -38 39 -88t-29 -81q-176 -211 -461 -226l-32 -81q35 20 83 20t88 -40t40 -112
t-66 -118q-66 -47 -155 -47q-89 1 -157 25t-69 69q-1 25 17 41t36 16t29 -6q66 -35 120 -35q116 0 116 68q0 53 -60 53q-16 0 -41 -12q-57 -27 -89 7q-19 19 -19 35t4 31l33 91q-279 30 -459 222t-180 490t208 497q208 198 518 198z" />
    <glyph glyph-name="Egrave" unicode="&#xc8;" horiz-adv-x="1193" 
d="M1114 129q0 -53 -37 -91t-88 -38h-690q-68 0 -116 48t-48 116v1038q0 68 48 116t116 48h690q51 0 88 -38t37 -90t-37 -90t-88 -38h-563v-289h549q51 0 88 -38t37 -90t-37 -90t-88 -38h-549v-309h563q51 0 88 -37t37 -90zM670 1536q0 -27 -20 -47q-20 -21 -46 -21
q-25 0 -45 17l-190 168q-25 23 -25 55t24 56t56 24t57 -25l170 -182q19 -18 19 -45z" />
    <glyph glyph-name="Eacute" unicode="&#xc9;" horiz-adv-x="1193" 
d="M1114 129q0 -53 -37 -91t-88 -38h-690q-68 0 -116 48t-48 116v1038q0 68 48 116t116 48h690q51 0 88 -38t37 -90t-37 -90t-88 -38h-563v-289h549q51 0 88 -38t37 -90t-37 -90t-88 -38h-549v-309h563q51 0 88 -37t37 -90zM889 1708q0 -33 -25 -55l-190 -168
q-20 -17 -45 -17t-45 20t-20 47q0 28 18 46l170 182q22 25 54 25t58 -24t25 -56z" />
    <glyph glyph-name="Ecircumflex" unicode="&#xca;" horiz-adv-x="1193" 
d="M1114 129q0 -53 -37 -91t-88 -38h-690q-68 0 -116 48t-48 116v1038q0 68 48 116t116 48h690q51 0 88 -38t37 -90t-37 -90t-88 -38h-563v-289h549q51 0 88 -38t37 -90t-37 -90t-88 -38h-549v-309h563q51 0 88 -37t37 -90zM877 1535q1 -25 -19 -47t-52 -22t-50 27l-140 170
l-137 -170q-23 -25 -51 -25t-50 20t-22 44q0 25 13 39l82 127q57 90 164 90t167 -90l84 -127q11 -12 11 -36z" />
    <glyph glyph-name="Edieresis" unicode="&#xcb;" horiz-adv-x="1193" 
d="M1114 129q0 -53 -37 -91t-88 -38h-690q-68 0 -116 48t-48 116v1038q0 68 48 116t116 48h690q51 0 88 -38t37 -90t-37 -90t-88 -38h-563v-289h549q51 0 88 -38t37 -90t-37 -90t-88 -38h-549v-309h563q51 0 88 -37t37 -90zM975 1593q0 -57 -41 -98t-98 -41t-99 41
q-41 41 -41 98t41 97t99 41q58 -1 98 -41q41 -40 41 -97zM541 1593q0 -57 -40 -98q-41 -41 -99 -41t-98 41t-40 98t41 97t98 41q57 0 98 -40q40 -41 40 -98z" />
    <glyph glyph-name="Igrave" unicode="&#xcc;" horiz-adv-x="561" 
d="M426 1235v-1104q0 -59 -43 -101t-102 -42t-103 43q-43 43 -43 100v1104q0 59 43 101q42 42 102 42t103 -42t43 -101zM338 1536q0 -27 -20 -47q-20 -21 -46 -21q-25 0 -45 17l-190 168q-25 23 -25 55t24 56t56 24t58 -25l169 -182q19 -18 19 -45z" />
    <glyph glyph-name="Iacute" unicode="&#xcd;" horiz-adv-x="561" 
d="M426 1235v-1104q0 -59 -43 -101t-102 -42t-103 43q-43 43 -43 100v1104q0 59 43 101q42 42 102 42t103 -42t43 -101zM555 1708q0 -33 -25 -55l-190 -168q-20 -17 -45 -17t-45 20t-20 47q0 28 18 46l170 182q20 25 53 25t59 -24t25 -56z" />
    <glyph glyph-name="Icircumflex" unicode="&#xce;" horiz-adv-x="561" 
d="M426 1235v-1104q0 -59 -43 -101t-102 -42t-103 43q-43 43 -43 100v1104q0 59 43 101q42 42 102 42t103 -42t43 -101zM541 1535q1 -25 -19 -47t-52 -22t-50 27l-139 170l-138 -170q-20 -25 -50 -25q-29 0 -51 20t-22 44q0 25 13 39l82 127q57 90 165 90t166 -90l84 -127
q11 -12 11 -36z" />
    <glyph glyph-name="Idieresis" unicode="&#xcf;" horiz-adv-x="561" 
d="M426 1235v-1104q0 -59 -43 -101t-102 -42t-103 43q-43 43 -43 100v1104q0 59 43 101q42 42 102 42t103 -42t43 -101zM639 1593q0 -57 -41 -98t-98 -41t-99 41q-41 41 -41 98t41 97t99 41q58 -1 98 -41q41 -40 41 -97zM205 1593q0 -57 -40 -98t-98 -41t-99 41
q-40 41 -40 98t41 97t99 41q58 -1 97 -41q40 -40 40 -97z" />
    <glyph glyph-name="Eth" unicode="&#xd0;" horiz-adv-x="1519" 
d="M725 256q197 0 313 123t115 307q0 184 -113 304t-315 120h-248v-328h213q43 0 74 -32t31 -76q0 -45 -31 -76t-74 -31h-213v-311h248zM1450 682q0 -306 -201 -494t-524 -188h-375q-68 0 -116 48t-48 116v403h-75q-45 0 -76 32t-31 77t31 76t76 30h75v420q0 68 48 116
t116 48h375q321 0 523 -188t202 -496z" />
    <glyph glyph-name="Ntilde" unicode="&#xd1;" horiz-adv-x="1492" 
d="M1358 1235v-1071q0 -72 -52 -124t-135 -52t-139 73l-606 830v-760q0 -59 -43 -101t-102 -42t-103 43q-43 43 -43 100v1061q0 74 55 130q54 56 146 56t149 -80l582 -790v727q0 59 43 101t103 42q61 0 103 -42t42 -101zM1075 1698q0 -72 -51 -147t-164 -74q-59 1 -102 35
t-75 69t-62 35q-51 0 -68 -74q-6 -29 -30 -47q-25 -18 -51 -18t-42 19t-16 46q0 72 52 147t165 74q45 1 83 -21t57 -48q51 -68 100 -68q48 0 65 72q6 29 30 47t50 18t43 -19q16 -19 16 -46z" />
    <glyph glyph-name="Ograve" unicode="&#xd2;" horiz-adv-x="1566" 
d="M1198 682q0 195 -115 322q-115 126 -301 126t-300 -126t-114 -322q0 -195 114 -322t300 -127t301 127t115 322zM1497 682q0 -309 -202 -508t-512 -199t-512 200t-201 507q0 307 201 507q202 200 512 200t512 -199t202 -508zM840 1536q0 -27 -20 -47q-20 -21 -46 -21
q-25 0 -45 17l-190 168q-25 23 -25 55t24 56t56 24t57 -25l170 -182q19 -18 19 -45z" />
    <glyph glyph-name="Oacute" unicode="&#xd3;" horiz-adv-x="1566" 
d="M1198 682q0 195 -115 322q-115 126 -301 126t-300 -126t-114 -322q0 -195 114 -322t300 -127t301 127t115 322zM1497 682q0 -309 -202 -508t-512 -199t-512 200t-201 507q0 307 201 507q202 200 512 200t512 -199t202 -508zM1055 1708q0 -33 -25 -55l-190 -168
q-20 -17 -45 -17t-45 20t-20 47q0 28 18 46l170 182q20 25 53 25t59 -24t25 -56z" />
    <glyph glyph-name="Ocircumflex" unicode="&#xd4;" horiz-adv-x="1566" 
d="M1198 682q0 195 -115 322q-115 126 -301 126t-300 -126t-114 -322q0 -195 114 -322t300 -127t301 127t115 322zM1497 682q0 -309 -202 -508t-512 -199t-512 200t-201 507q0 307 201 507q202 200 512 200t512 -199t202 -508zM1047 1535q1 -25 -19 -47t-52 -22t-50 27
l-140 170l-137 -170q-23 -25 -51 -25t-50 20t-22 44q0 25 13 39l82 127q57 90 164 90t167 -90l84 -127q11 -12 11 -36z" />
    <glyph glyph-name="Otilde" unicode="&#xd5;" horiz-adv-x="1566" 
d="M1198 682q0 195 -115 322q-115 126 -301 126t-300 -126t-114 -322q0 -195 114 -322t300 -127t301 127t115 322zM1497 682q0 -309 -202 -508t-512 -199t-512 200t-201 507q0 307 201 507q202 200 512 200t512 -199t202 -508zM1114 1698q0 -72 -51 -147t-164 -74
q-59 1 -102 35t-75 69t-63 35q-51 0 -67 -74q-6 -29 -30 -47t-50 -18t-43 19q-16 19 -16 46q0 72 52 147t165 74q45 1 83 -21t57 -48q51 -69 100 -68q48 0 65 72q6 29 30 47q25 18 51 18t42 -19t16 -46z" />
    <glyph glyph-name="Odieresis" unicode="&#xd6;" horiz-adv-x="1566" 
d="M1198 682q0 195 -115 322q-115 126 -301 126t-300 -126t-114 -322q0 -195 114 -322t300 -127t301 127t115 322zM1497 682q0 -309 -202 -508t-512 -199t-512 200t-201 507q0 307 201 507q202 200 512 200t512 -199t202 -508zM1141 1593q0 -57 -41 -98q-40 -41 -98 -41
t-99 41t-41 98t41 97t98 41q57 0 99 -40q41 -41 41 -98zM707 1593q0 -57 -40 -98q-39 -41 -97 -41t-99 41t-41 98t41 97t98 41q57 0 98 -40q40 -41 40 -98z" />
    <glyph glyph-name="multiply" unicode="&#xd7;" horiz-adv-x="1032" 
d="M897 380q0 -32 -26 -54q-25 -22 -57 -23q-32 0 -54 23l-244 243l-242 -243q-24 -23 -56 -23t-58 25q-26 24 -25 56q0 32 23 54l243 246l-241 242q-25 24 -25 56t24 58q23 26 57 25q34 0 58 -25l242 -243l244 245q22 23 54 23t58 -24q26 -23 25 -57q0 -34 -23 -56
l-243 -244l243 -246q23 -26 23 -58z" />
    <glyph glyph-name="Oslash" unicode="&#xd8;" horiz-adv-x="1566" 
d="M1198 674q0 188 -98 309l-531 -694q94 -55 213 -56q186 0 301 127q115 126 115 314zM782 1130q-186 0 -300 -126t-114 -306q0 -178 81 -297l522 686q-90 43 -189 43zM1497 690q0 -318 -202 -516q-202 -199 -513 -199q-211 0 -376 97l-41 -54q-27 -32 -63 -32t-62 24
t-25 54q0 29 16 55l41 53q-202 199 -202 508t201 509q202 200 511 200q193 0 355 -84l30 38q25 31 62 31t63 -22t27 -52q0 -29 -16 -51l-29 -39q223 -202 223 -520z" />
    <glyph glyph-name="Ugrave" unicode="&#xd9;" horiz-adv-x="1501" 
d="M1368 1233v-686q0 -264 -157 -418t-459 -154t-460 155q-157 155 -157 415v688q0 59 43 102q42 43 104 43t105 -43t43 -102v-678q0 -147 84 -234t238 -87t236 86q82 88 83 235v678q0 59 44 102q43 43 105 43t105 -43t43 -102zM807 1536q-1 -27 -21 -47q-20 -21 -45 -21
t-45 17l-190 168q-25 23 -25 55t24 56q25 24 57 24t56 -25l170 -182q19 -18 19 -45z" />
    <glyph glyph-name="Uacute" unicode="&#xda;" horiz-adv-x="1501" 
d="M1368 1233v-686q0 -264 -157 -418t-459 -154t-460 155q-157 155 -157 415v688q0 59 43 102q42 43 104 43t105 -43t43 -102v-678q0 -147 84 -234t238 -87t236 86q82 88 83 235v678q0 59 44 102q43 43 105 43t105 -43t43 -102zM1024 1708q0 -33 -25 -55l-190 -168
q-20 -17 -45 -17t-45 20q-21 20 -21 47q0 28 19 46l170 182q23 25 55 25t56 -24q26 -24 26 -56z" />
    <glyph glyph-name="Ucircumflex" unicode="&#xdb;" horiz-adv-x="1501" 
d="M1368 1233v-686q0 -264 -157 -418t-459 -154t-460 155q-157 155 -157 415v688q0 59 43 102q42 43 104 43t105 -43t43 -102v-678q0 -147 84 -234t238 -87t236 86q82 88 83 235v678q0 59 44 102q43 43 105 43t105 -43t43 -102zM1018 1535q0 -25 -20 -47t-51 -22
q-32 0 -50 27l-139 170l-137 -170q-23 -25 -52 -25t-51 20t-20 44q0 25 12 39l82 127q56 90 164 90t168 -90l84 -127q10 -12 10 -36z" />
    <glyph glyph-name="Udieresis" unicode="&#xdc;" horiz-adv-x="1501" 
d="M1368 1233v-686q0 -264 -157 -418t-459 -154t-460 155q-157 155 -157 415v688q0 59 43 102q42 43 104 43t105 -43t43 -102v-678q0 -147 84 -234t238 -87t236 86q82 88 83 235v678q0 59 44 102q43 43 105 43t105 -43t43 -102zM1112 1593q0 -57 -41 -98t-98 -41t-99 41
q-41 41 -40 98q0 57 40 98q40 40 98 40q58 -1 99 -41t41 -97zM678 1593q0 -57 -40 -98t-97 -41t-99 41q-41 41 -41 98t41 97q40 40 98 41q58 -1 98 -41t40 -97z" />
    <glyph glyph-name="Yacute" unicode="&#xdd;" horiz-adv-x="1320" 
d="M1223 1250q0 -46 -21 -79l-395 -612v-428q0 -59 -43 -101q-42 -42 -102 -42t-103 43t-43 100v428l-399 615q-21 28 -21 74t40 87t109 41t109 -65l308 -494l301 492q41 67 111 67t110 -40t39 -86zM932 1708q0 -33 -25 -55l-190 -168q-20 -17 -45 -17t-45 20q-21 20 -21 47
q0 28 19 46l170 182q20 25 53 25q32 0 58 -24t26 -56z" />
    <glyph glyph-name="Thorn" unicode="&#xde;" horiz-adv-x="1277" 
d="M936 705q0 84 -58 134t-147 50h-305v-367h305q90 0 148 49q57 50 57 134zM774 1145q215 1 337 -127t122 -315t-123 -312t-336 -125h-348v-135q0 -59 -43 -101t-102 -42t-103 43q-43 43 -43 100v1104q0 59 43 101q42 42 102 42t103 -42t43 -101v-90h348z" />
    <glyph glyph-name="germandbls" unicode="&#xdf;" horiz-adv-x="1316" 
d="M1284 281q0 -125 -113 -215t-299 -91q-115 0 -219 36q-161 56 -161 160q0 36 28 66q53 55 127 13q107 -72 205 -72t140 31t42 75t-55 70t-134 42q-79 17 -157 45t-133 94t-55 175t89 184q38 32 75 58q88 61 88 104q0 44 -47 72t-123 27q-76 0 -134 -49t-59 -133v-856
q0 -53 -38 -91t-92 -38t-92 38t-38 91v856q0 176 127 295t342 118q170 0 296 -82t126 -214q0 -78 -42 -138t-93 -91q-51 -29 -93 -69t-42 -79t55 -59t133 -36t157 -44t134 -98t55 -195z" />
    <glyph glyph-name="agrave" unicode="&#xe0;" horiz-adv-x="1112" 
d="M723 426h-209q-186 0 -186 -129q0 -68 53 -107q53 -38 131 -38t144 60t67 169v45zM983 639v-522q0 -53 -37 -91t-90 -38h-20q-49 0 -81 35t-32 71q-100 -119 -313 -119q-133 0 -239 87q-105 87 -105 243q0 157 101 227t243 70h313v33q0 76 -59 121t-171 45t-208 -64
q-25 -14 -55 -14t-60 29q-31 30 -31 64q0 108 180 161q125 37 232 37q190 0 311 -88t121 -287zM604 1194q0 -27 -20 -47q-20 -21 -45 -21t-45 17l-191 168q-25 20 -25 53q0 34 24 58t56 24t58 -25l170 -182q18 -18 18 -45z" />
    <glyph glyph-name="aacute" unicode="&#xe1;" horiz-adv-x="1112" 
d="M723 426h-209q-186 0 -186 -129q0 -68 53 -107q53 -38 131 -38t144 60t67 169v45zM983 639v-522q0 -53 -37 -91t-90 -38h-20q-49 0 -81 34t-32 70q-98 -117 -313 -117q-133 0 -239 87q-105 87 -105 243q0 157 101 227t243 70h313v33q0 76 -59 121t-171 45t-208 -64
q-25 -14 -55 -14t-60 29q-31 30 -31 64q0 108 180 161q125 37 232 37q190 0 311 -88t121 -287zM737 1446q33 0 59 -24t25 -57q0 -34 -24 -54l-191 -168q-20 -17 -45 -17t-45 20t-20 47q0 28 18 46l170 182q20 25 53 25z" />
    <glyph glyph-name="acircumflex" unicode="&#xe2;" horiz-adv-x="1112" 
d="M723 426h-209q-186 0 -186 -129q0 -68 53 -107q53 -38 131 -38t144 60t67 169v45zM983 639v-522q0 -53 -37 -91t-90 -38h-20q-49 0 -81 34t-32 70q-98 -117 -313 -117q-133 0 -239 87q-105 87 -105 243q0 157 101 227t243 70h313v33q0 76 -59 121t-171 45t-208 -64
q-25 -14 -55 -14t-60 29q-31 30 -31 64q0 108 180 161q125 37 232 37q190 0 311 -88t121 -287zM813 1193q0 -25 -19 -47q-20 -22 -52 -22t-50 27l-139 170l-137 -170q-24 -25 -52 -25t-50 20q-42 37 -9 83l82 127q57 90 165 90t167 -90l84 -127q10 -12 10 -36z" />
    <glyph glyph-name="atilde" unicode="&#xe3;" horiz-adv-x="1112" 
d="M723 426h-209q-186 0 -186 -129q0 -68 53 -107q53 -38 131 -38t144 60t67 169v45zM983 639v-522q0 -53 -37 -91t-90 -38h-20q-49 0 -81 34t-32 70q-98 -117 -313 -117q-133 0 -239 87q-105 87 -105 243q0 157 101 227t243 70h313v33q0 76 -59 121t-171 45t-208 -64
q-25 -14 -55 -14t-60 29q-31 30 -31 64q0 108 180 161q125 37 232 37q190 0 311 -88t121 -287zM883 1356q1 -72 -51 -147t-164 -74q-58 1 -102 35t-76 69t-62 35q-51 0 -68 -74q-6 -29 -30 -47t-50 -18t-42 19t-17 46q0 72 52 147t165 74q56 0 100 -35q44 -34 76 -68t62 -34
q51 0 67 72q6 29 30 47q25 18 51 18t42 -19t17 -46z" />
    <glyph glyph-name="adieresis" unicode="&#xe4;" horiz-adv-x="1112" 
d="M723 426h-209q-186 0 -186 -129q0 -68 53 -107q53 -38 131 -38t144 60t67 169v45zM983 639v-522q0 -53 -37 -91t-90 -38h-20q-49 0 -81 34t-32 70q-98 -117 -313 -117q-133 0 -239 87q-105 87 -105 243q0 157 101 227t243 70h313v33q0 76 -59 121t-171 45t-208 -64
q-25 -14 -55 -14t-60 29q-31 30 -31 64q0 108 180 161q125 37 232 37q190 0 311 -88t121 -287zM907 1251q0 -57 -41 -98t-98 -41t-98 41t-41 98t41 97t98 41q57 -1 98 -41t41 -97zM473 1251q0 -57 -40 -98t-97 -41t-98 40t-41 98t41 98t98 41q57 -1 97 -41t40 -97z" />
    <glyph glyph-name="aring" unicode="&#xe5;" horiz-adv-x="1112" 
d="M723 426h-209q-186 0 -186 -129q0 -68 53 -107q53 -38 131 -38t144 60t67 169v45zM983 639v-522q0 -53 -37 -91t-90 -38h-20q-49 0 -81 34t-32 70q-98 -117 -313 -117q-133 0 -239 87q-105 87 -105 243q0 157 101 227t243 70h313v33q0 76 -59 121t-171 45t-208 -64
q-25 -14 -55 -14t-60 29q-31 30 -31 64q0 108 180 161q125 37 232 37q190 0 311 -88t121 -287zM649 1304q1 40 -27 68t-67 27q-39 0 -68 -29q-29 -30 -29 -68t30 -67q28 -29 67 -29t67 29q27 29 27 69zM768 1302q0 -90 -62 -152t-150 -62t-152 62q-64 64 -64 152t63 154
q63 64 151 64t152 -64q62 -64 62 -154z" />
    <glyph glyph-name="ae" unicode="&#xe6;" horiz-adv-x="1781" 
d="M762 442h-232q-90 0 -146 -32t-56 -96t56 -99t148 -35t161 62t69 166v34zM1248 807q-106 -1 -162 -67q-58 -66 -66 -152h450q-4 84 -60 152t-162 67zM1718 541q0 -57 -36 -95t-87 -36h-571q14 -96 84 -158t171 -64q101 0 178 39t135 -12q34 -29 34 -63t-14 -58
q-37 -57 -145 -88t-195 -31q-256 0 -381 181q-141 -180 -391 -181q-178 0 -306 84t-128 240t101 236t257 79h338v23q0 74 -65 119t-185 45t-225 -66q-25 -14 -55 -14t-61 29q-30 28 -30 64q0 109 183 163q127 37 233 37q260 0 346 -170q129 170 359 170q156 0 270 -88
t160 -244q26 -84 26 -141z" />
    <glyph glyph-name="ccedilla" unicode="&#xe7;" horiz-adv-x="1021" 
d="M826 270q42 0 80 -32t38 -69q0 -38 -12 -58q-29 -51 -110 -87t-179 -47l-33 -81q35 20 83 20t88 -40t40 -112q1 -72 -65 -118q-66 -47 -155 -47q-89 1 -158 25t-68 69q0 25 17 41q16 16 34 16t31 -6q66 -35 120 -35q117 0 115 68q0 53 -59 53q-16 0 -41 -12
q-57 -27 -86 3t-19 70l33 89q-203 24 -329 164q-125 140 -125 360t147 364q147 145 377 146q117 0 212 -38q140 -56 140 -145q0 -49 -38 -79t-81 -31q-43 1 -92 31t-129 30q-120 0 -194 -79t-74 -207t75 -209q75 -80 193 -80q80 0 148 43q34 20 76 20z" />
    <glyph glyph-name="egrave" unicode="&#xe8;" horiz-adv-x="1132" 
d="M581 807q-113 -1 -175 -67t-72 -152h487q-6 84 -66 152t-174 67zM1069 536q0 -53 -35 -89t-86 -35h-610q12 -98 88 -164t186 -66t203 49q70 34 128 -17q34 -30 34 -75q0 -78 -129 -121t-254 -43q-229 -1 -379 143q-149 144 -149 370t144 376t368 150q166 0 288 -89
t174 -245q29 -91 29 -144zM633 1194q-1 -27 -21 -47q-20 -21 -45 -21t-45 17l-190 168q-25 20 -25 53q0 34 24 58q25 24 57 24t56 -25l170 -182q19 -18 19 -45z" />
    <glyph glyph-name="eacute" unicode="&#xe9;" horiz-adv-x="1132" 
d="M581 807q-113 -1 -175 -67t-72 -152h487q-6 84 -66 152t-174 67zM1069 536q0 -53 -35 -89t-86 -35h-610q12 -98 88 -164t186 -66t203 49q70 34 128 -17q34 -30 34 -75q0 -78 -129 -121t-254 -43q-229 -1 -379 143q-149 144 -149 370t144 376t368 150q166 0 288 -89
t174 -245q29 -91 29 -144zM766 1446q32 0 58 -24t26 -57q0 -34 -25 -54l-190 -168q-20 -17 -45 -17t-45 20q-21 20 -21 47q0 28 19 46l170 182q20 25 53 25z" />
    <glyph glyph-name="ecircumflex" unicode="&#xea;" horiz-adv-x="1132" 
d="M581 807q-113 -1 -175 -67t-72 -152h487q-6 84 -66 152t-174 67zM1069 536q0 -53 -35 -89t-86 -35h-610q12 -98 88 -164t186 -66t203 49q70 34 128 -17q34 -30 34 -75q0 -78 -129 -121t-254 -43q-229 -1 -379 143q-149 144 -149 370t144 376t368 150q166 0 288 -89
t174 -245q29 -91 29 -144zM838 1193q0 -25 -20 -47t-51 -22q-32 0 -50 27l-139 170l-138 -170q-24 -25 -52 -25t-50 20t-21 42q0 24 13 41l82 127q56 90 164 90t167 -90l84 -127q11 -12 11 -36z" />
    <glyph glyph-name="edieresis" unicode="&#xeb;" horiz-adv-x="1132" 
d="M581 807q-113 -1 -175 -67t-72 -152h487q-6 84 -66 152t-174 67zM1069 536q0 -53 -35 -89t-86 -35h-610q12 -98 88 -164t186 -66t203 49q70 34 128 -17q34 -30 34 -75q0 -78 -129 -121t-254 -43q-229 -1 -379 143q-149 144 -149 370t144 376t368 150q166 0 288 -89
t174 -245q29 -91 29 -144zM936 1251q0 -57 -41 -98t-98 -41t-99 41q-41 41 -41 98t41 97q40 40 98 41q58 -1 99 -41t41 -97zM502 1251q0 -57 -40 -98t-97 -41t-99 40q-41 40 -41 98t41 98q40 40 98 41q58 -1 98 -41t40 -97z" />
    <glyph glyph-name="igrave" unicode="&#xec;" horiz-adv-x="518" 
d="M389 874v-757q0 -53 -38 -91t-92 -38t-92 38t-38 91v757q0 52 38 90t93 38t92 -39q37 -38 37 -89zM315 1194q0 -27 -20 -47q-20 -21 -45 -21t-45 17l-191 168q-24 20 -24 53q0 34 24 58t56 24q33 0 57 -25l170 -182q18 -18 18 -45z" />
    <glyph glyph-name="iacute" unicode="&#xed;" horiz-adv-x="518" 
d="M389 874v-757q0 -53 -38 -91t-92 -38t-92 38t-38 91v757q0 52 38 90t93 38t92 -39q37 -38 37 -89zM448 1446q32 0 57 -24t25 -57q0 -34 -24 -54l-191 -168q-20 -17 -45 -17t-45 20t-20 47q0 28 18 46l170 182q23 25 55 25z" />
    <glyph glyph-name="icircumflex" unicode="&#xee;" horiz-adv-x="518" 
d="M389 874v-757q0 -53 -38 -91t-92 -38t-92 38t-38 91v757q0 52 38 90t93 38t92 -39q37 -38 37 -89zM518 1193q0 -25 -19 -47t-51 -22t-51 27l-139 170l-137 -170q-20 -25 -50 -25t-52 20q-42 37 -9 83l82 127q56 90 164 90t168 -90l84 -127q10 -12 10 -36z" />
    <glyph glyph-name="idieresis" unicode="&#xef;" horiz-adv-x="518" 
d="M389 874v-757q0 -53 -38 -91t-92 -38t-92 38t-38 91v757q0 52 38 90t93 38t92 -39q37 -38 37 -89zM616 1251q0 -57 -41 -98t-98 -41t-98 41t-41 98t41 97t98 41q57 -1 98 -41t41 -97zM182 1251q0 -57 -40 -98t-97 -41t-98 40t-41 98t41 98t98 41q57 -1 97 -41t40 -97z
" />
    <glyph glyph-name="eth" unicode="&#xf0;" horiz-adv-x="1175" 
d="M842 459q0 106 -69 179t-185 73t-185 -73q-67 -73 -67 -179t68 -179t184 -73q118 0 186 73t68 179zM1112 516q0 -244 -141 -392t-379 -148t-382 134q-144 136 -144 348t125 348q126 136 323 136t317 -190q-74 166 -321 340l-252 -111q-12 -6 -32 -6t-40 19t-20 56t41 54
l172 76q-86 45 -85 109q1 65 39 101t92 36t222 -130l166 74q12 4 30 4t38 -18t20 -53t-37 -52l-104 -47q352 -313 352 -688z" />
    <glyph glyph-name="ntilde" unicode="&#xf1;" 
d="M1057 637v-520q0 -53 -38 -91t-92 -38t-92 38t-38 91v440q-1 101 -59 163t-142 62t-145 -63t-62 -166v-436q0 -53 -38 -91t-92 -38t-92 38t-38 91v757q0 52 38 90t93 38t92 -38t37 -90v-2q35 54 109 98t176 44q160 0 272 -115t111 -262zM926 1356q0 -72 -52 -147
t-163 -74q-59 1 -103 35t-74 69q-32 35 -63 35q-51 0 -68 -74q-5 -29 -29 -47t-50 -18t-43 19q-16 19 -17 46q0 72 52 147t165 74q57 0 101 -35q44 -34 74 -68q32 -34 63 -34q51 0 67 72q6 29 30 47t50 18t44 -19q16 -19 16 -46z" />
    <glyph glyph-name="ograve" unicode="&#xf2;" horiz-adv-x="1175" 
d="M588 207q118 0 186 83t68 205q0 123 -69 205t-185 82t-185 -83q-67 -83 -67 -205t68 -204q68 -83 184 -83zM1112 496q0 -219 -143 -370t-381 -151t-380 151t-142 370q0 218 142 368t380 150t381 -150t143 -368zM643 1194q0 -27 -20 -47q-19 -21 -45 -21t-46 17l-190 168
q-25 20 -25 53q0 34 24 58q25 24 57 24t57 -25l170 -182q18 -18 18 -45z" />
    <glyph glyph-name="oacute" unicode="&#xf3;" horiz-adv-x="1175" 
d="M588 207q118 0 186 83t68 205q0 123 -69 205t-185 82t-185 -83q-67 -83 -67 -205t68 -204q68 -83 184 -83zM1112 496q0 -219 -143 -370t-381 -151t-380 151t-142 370q0 218 142 368t380 150t381 -150t143 -368zM778 1446q32 0 56 -24q26 -24 26 -57q0 -34 -24 -54
l-191 -168q-20 -17 -45 -17t-45 20t-20 47q0 28 18 46l170 182q23 25 55 25z" />
    <glyph glyph-name="ocircumflex" unicode="&#xf4;" horiz-adv-x="1175" 
d="M588 207q118 0 186 83t68 205q0 123 -69 205t-185 82t-185 -83q-67 -83 -67 -205t68 -204q68 -83 184 -83zM1112 496q0 -219 -143 -370t-381 -151t-380 151t-142 370q0 218 142 368t380 150t381 -150t143 -368zM846 1193q0 -25 -20 -47t-51 -22q-32 0 -50 27l-139 170
l-137 -170q-23 -25 -52 -25t-51 20q-41 37 -8 83l82 127q56 90 164 90t168 -90l84 -127q10 -12 10 -36z" />
    <glyph glyph-name="otilde" unicode="&#xf5;" horiz-adv-x="1175" 
d="M588 207q118 0 186 83t68 205q0 123 -69 205t-185 82t-185 -83q-67 -83 -67 -205t68 -204q68 -83 184 -83zM1112 496q0 -219 -143 -370t-381 -151t-380 151t-142 370q0 218 142 368t380 150t381 -150t143 -368zM920 1356q0 -72 -52 -147t-163 -74q-59 1 -103 35t-75 69
q-32 35 -62 35q-51 0 -68 -74q-5 -29 -29 -47t-51 -18t-43 19t-16 46q0 72 52 147t165 74q57 0 100 -35q43 -34 75 -68t63 -34q51 0 67 72q6 29 30 47t50 18t44 -19q16 -19 16 -46z" />
    <glyph glyph-name="odieresis" unicode="&#xf6;" horiz-adv-x="1175" 
d="M588 207q118 0 186 83t68 205q0 123 -69 205t-185 82t-185 -83q-67 -83 -67 -205t68 -204q68 -83 184 -83zM1112 496q0 -219 -143 -370t-381 -151t-380 151t-142 370q0 218 142 368t380 150t381 -150t143 -368zM944 1251q0 -57 -41 -98t-98 -41t-98 41t-41 98t41 97
t98 41q57 -1 98 -41t41 -97zM510 1251q0 -57 -40 -98t-97 -41t-99 40q-41 40 -41 98t41 98q40 40 98 41q58 -1 98 -41t40 -97z" />
    <glyph glyph-name="divide" unicode="&#xf7;" horiz-adv-x="1046" 
d="M647 322q0 -50 -37 -88t-88 -38t-88 38q-37 36 -37 88t37 88t88 36t88 -36t37 -88zM922 772q33 0 55 -22t22 -58q-1 -34 -23 -58t-54 -24h-795q-35 0 -57 24t-23 58q0 34 24 58q24 23 56 22h795zM522 1180q51 0 88 -36t37 -88t-37 -89t-88 -37t-88 37t-37 89t37 88t88 36
z" />
    <glyph glyph-name="oslash" unicode="&#xf8;" horiz-adv-x="1175" 
d="M588 207q118 0 186 83t68 189t-41 178l-350 -411q53 -39 137 -39zM588 782q-117 0 -185 -83q-67 -83 -67 -186t35 -173l346 408q-57 34 -129 34zM204 -14q-26 0 -44 18t-19 43q0 25 15 39l43 51q-133 145 -133 361t142 366t380 150q166 0 289 -78l36 43q14 20 42 20
q29 0 49 -17q20 -18 20 -40t-14 -41l-37 -43q139 -145 139 -363t-143 -369t-381 -151q-174 0 -297 82l-43 -51q-18 -20 -44 -20z" />
    <glyph glyph-name="ugrave" unicode="&#xf9;" 
d="M129 352v520q0 54 38 92t92 38t92 -38t38 -92v-440q0 -100 58 -162q59 -62 143 -63q84 0 145 63t62 166v436q0 54 38 92t92 38t92 -38t38 -92v-757q0 -53 -38 -90t-92 -37t-92 37t-38 90v2q-31 -55 -105 -99t-180 -43q-160 0 -272 115t-111 262zM647 1194q0 -27 -20 -47
q-20 -21 -45 -21t-45 17l-191 168q-24 20 -24 53q0 34 24 58t56 24t57 -25l170 -182q18 -18 18 -45z" />
    <glyph glyph-name="uacute" unicode="&#xfa;" 
d="M129 352v520q0 54 38 92t92 38t92 -38t38 -92v-440q0 -100 58 -162q59 -62 143 -63q84 0 145 63t62 166v436q0 54 38 92t92 38t92 -38t38 -92v-757q0 -53 -38 -90t-92 -37t-92 37t-38 90v2q-31 -55 -105 -99t-180 -43q-160 0 -272 115t-111 262zM778 1446q32 0 58 -24
t26 -57q0 -34 -24 -54l-191 -168q-20 -17 -45 -17t-45 20t-20 47q0 28 18 46l170 182q20 25 53 25z" />
    <glyph glyph-name="ucircumflex" unicode="&#xfb;" 
d="M129 352v520q0 54 38 92t92 38t92 -38t38 -92v-440q0 -100 58 -162q59 -62 143 -63q84 0 145 63t62 166v436q0 54 38 92t92 38t92 -38t38 -92v-757q0 -53 -38 -90t-92 -37t-92 37t-38 90v2q-31 -55 -105 -99t-180 -43q-160 0 -272 115t-111 262zM852 1193q0 -25 -19 -47
t-51 -22t-51 27l-139 170l-137 -170q-23 -25 -52 -25t-51 20q-41 37 -8 83l82 127q56 90 164 90t168 -90l84 -127q10 -12 10 -36z" />
    <glyph glyph-name="udieresis" unicode="&#xfc;" 
d="M129 352v520q0 54 38 92t92 38t92 -38t38 -92v-440q0 -100 58 -162q59 -62 143 -63q84 0 145 63t62 166v436q0 54 38 92t92 38t92 -38t38 -92v-757q0 -53 -38 -90t-92 -37t-92 37t-38 90v2q-31 -55 -105 -99t-180 -43q-160 0 -272 115t-111 262zM948 1251q0 -57 -41 -98
t-98 -41t-98 41t-41 98t41 97t98 41q57 -1 98 -41t41 -97zM514 1251q0 -57 -40 -98t-97 -41t-98 40t-41 98t41 98t98 41q57 -1 97 -41t40 -97z" />
    <glyph glyph-name="yacute" unicode="&#xfd;" horiz-adv-x="1050" 
d="M1006 885q0 -40 -9 -58l-399 -989q-96 -240 -340 -239q-70 -1 -115 31t-45 82t35 84t73 34q115 0 146 72l37 84l-338 843q-8 18 -8 56q0 37 37 77t85 40t82 -24t48 -63l229 -614l230 614q14 39 49 63t83 24t84 -39q36 -38 36 -78zM712 1446q32 0 58 -24t25 -57
q0 -34 -25 -54l-190 -168q-48 -38 -91 3q-20 19 -20 47t18 46l170 182q23 25 55 25z" />
    <glyph glyph-name="thorn" unicode="&#xfe;" horiz-adv-x="1193" 
d="M864 496q0 130 -70 208t-168 78t-168 -79t-69 -197v-23q0 -119 70 -197t153 -79q113 0 183 80q69 80 69 209zM674 1014q195 0 327 -139t132 -377q-1 -238 -133 -380t-326 -143q-90 0 -167 39t-118 113v-389q0 -53 -38 -90t-92 -37t-92 37t-38 90v1513q0 53 38 90t93 37
t92 -38t37 -89v-387q43 72 119 111t166 39z" />
    <glyph glyph-name="ydieresis" unicode="&#xff;" horiz-adv-x="1050" 
d="M1006 885q0 -40 -9 -58l-399 -989q-96 -240 -340 -239q-70 -1 -115 31t-45 82t35 84t73 34q115 0 146 72l37 84l-338 843q-8 18 -8 56q0 37 37 77t85 40t82 -24t48 -63l229 -614l230 614q14 39 49 63t83 24t84 -39q36 -38 36 -78zM881 1251q0 -57 -41 -98
q-40 -41 -98 -41t-99 41t-41 98t41 97t98 41q57 0 99 -40q41 -41 41 -98zM446 1251q0 -57 -40 -98t-98 -41t-98 40t-40 98t41 98t98 41q57 0 98 -40q39 -41 39 -98z" />
    <glyph glyph-name="Amacron" unicode="&#x100;" horiz-adv-x="1400" 
d="M487 487h426l-213 588zM1343 143q0 -59 -44 -107t-101 -48t-96 26t-55 70l-54 147h-585l-56 -147q-16 -45 -56 -71q-40 -25 -96 -25t-101 47q-44 47 -44 94t11 70l399 1026q27 69 88 111t135 42q80 6 150 -37t98 -116l397 -1026q10 -31 10 -56zM999 1640q29 0 51 -21
t21 -52q1 -31 -21 -53t-51 -21h-600q-29 -1 -51 21t-20 53q0 31 22 53t49 20h600z" />
    <glyph glyph-name="amacron" unicode="&#x101;" horiz-adv-x="1112" 
d="M723 426h-209q-186 0 -186 -129q0 -68 53 -107q53 -38 131 -38t144 60t67 169v45zM983 639v-522q0 -53 -37 -91t-90 -38h-20q-49 0 -81 34t-32 70q-98 -117 -313 -117q-133 0 -239 87q-105 87 -105 243q0 157 101 227t243 70h313v33q0 76 -59 121t-171 45t-208 -64
q-25 -14 -55 -14t-60 29q-31 30 -31 64q0 108 180 161q125 37 232 37q190 0 311 -88t121 -287zM852 1298q28 0 50 -21t22 -52t-22 -53t-50 -21h-600q-28 -1 -50 21t-22 53t22 53t50 20h600z" />
    <glyph glyph-name="Abreve" unicode="&#x102;" horiz-adv-x="1400" 
d="M487 487h426l-213 588zM1343 143q0 -59 -44 -107t-101 -48t-96 26t-55 70l-54 147h-585l-56 -147q-16 -45 -56 -71q-40 -25 -96 -25t-101 47q-44 47 -44 94t11 70l399 1026q27 69 88 111t135 42q80 6 150 -37t98 -116l397 -1026q10 -31 10 -56zM1030 1601q0 -29 -18 -47
q-132 -124 -312 -124t-311 124q-18 18 -18 46t22 51q48 48 111 0q82 -72 196 -72t195 74q27 23 57 23t55 -23q23 -23 23 -52z" />
    <glyph glyph-name="abreve" unicode="&#x103;" horiz-adv-x="1112" 
d="M723 426h-209q-186 0 -186 -129q0 -68 53 -107q53 -38 131 -38t144 60t67 169v45zM983 639v-522q0 -53 -37 -91t-90 -38h-20q-49 0 -81 34t-32 70q-98 -117 -313 -117q-133 0 -239 87q-105 87 -105 243q0 157 101 227t243 70h313v33q0 76 -59 121t-171 45t-208 -64
q-25 -14 -55 -14t-60 29q-31 30 -31 64q0 108 180 161q125 37 232 37q190 0 311 -88t121 -287zM883 1259q0 -29 -19 -47q-131 -125 -311 -125t-311 125q-18 18 -18 46t22 51q48 48 110 0q82 -72 197 -72t195 74q28 23 58 23t54 -24q24 -22 23 -51z" />
    <glyph glyph-name="Aogonek" unicode="&#x104;" horiz-adv-x="1400" 
d="M487 487h426l-213 588zM1520 -272q0 -45 -60 -77t-133 -32q-74 0 -132 46q-58 47 -58 147t84 180q-25 -4 -53 -4t-68 26q-39 26 -53 70l-54 147h-585l-56 -147q-16 -45 -56 -71q-40 -25 -96 -25t-101 47q-44 47 -44 94t11 70l399 1026q27 69 88 111t135 42q80 6 150 -37
t98 -116l412 -1063q12 -33 12 -71t-47 -128t-47 -141t22 -73q46 -47 114 5q34 27 59 27q27 0 43 -15t16 -38z" />
    <glyph glyph-name="aogonek" unicode="&#x105;" horiz-adv-x="1112" 
d="M723 426h-209q-186 0 -186 -129q0 -68 53 -107q53 -38 131 -38t144 60t67 169v45zM1094 -272q0 -45 -60 -77t-133 -32q-74 0 -132 46q-58 47 -58 147t86 182q-74 23 -74 98q-98 -117 -313 -117q-133 0 -239 87q-105 87 -105 243q0 157 101 227t243 70h313v33
q0 76 -59 121t-171 45t-208 -64q-25 -14 -55 -14t-60 29q-31 30 -31 64q0 108 180 161q125 37 232 37q190 0 311 -88t121 -287v-522q0 -60 -72 -136q-72 -75 -71 -165q0 -45 22 -67q46 -47 110 4q65 50 105 13q17 -15 17 -38z" />
    <glyph glyph-name="Cacute" unicode="&#x106;" horiz-adv-x="1406" 
d="M796 1389q310 0 498 -226q29 -35 29 -85t-41 -88t-101 -38t-104 47q-125 131 -295 131t-293 -126q-121 -127 -121 -322t122 -322q120 -127 296 -127t291 129q43 48 105 48t100 -37q39 -37 39 -88t-29 -82q-186 -227 -496 -227t-518 197q-208 198 -208 509t208 509
t518 198zM1067 1708q0 -33 -25 -55l-190 -168q-20 -17 -45 -17t-45 20t-20 47q0 28 18 46l170 182q20 25 53 25t59 -24t25 -56z" />
    <glyph glyph-name="cacute" unicode="&#x107;" horiz-adv-x="1021" 
d="M826 270q42 0 80 -32t38 -82q0 -51 -41 -82q-123 -98 -333 -98t-356 144q-148 146 -148 374t147 374q147 145 377 146q117 0 212 -38q140 -56 140 -145q0 -49 -38 -79t-81 -31q-43 1 -92 31t-129 30q-120 0 -194 -79t-74 -207t75 -209q75 -80 193 -80q80 0 148 43
q34 20 76 20zM778 1446q32 0 56 -24q26 -24 26 -57q0 -34 -24 -54l-191 -168q-20 -17 -45 -17t-45 20t-20 47q0 28 18 46l170 182q23 25 55 25z" />
    <glyph glyph-name="Ccircumflex" unicode="&#x108;" horiz-adv-x="1406" 
d="M796 1389q310 0 498 -226q29 -35 29 -85t-41 -88t-101 -38t-104 47q-125 131 -295 131t-293 -126q-121 -127 -121 -322t122 -322q120 -127 296 -127t291 129q43 48 105 48t100 -37q39 -37 39 -88t-29 -82q-186 -227 -496 -227t-518 197q-208 198 -208 509t208 509
t518 198zM1061 1570q1 -24 -19 -46t-52 -23q-32 0 -50 27l-139 170l-137 -170q-20 -25 -50 -25q-30 -1 -52 19q-41 37 -9 84l82 127q57 90 165 90t167 -90l84 -127q10 -12 10 -36z" />
    <glyph glyph-name="ccircumflex" unicode="&#x109;" horiz-adv-x="1021" 
d="M826 270q42 0 80 -32t38 -82q0 -51 -41 -82q-123 -98 -333 -98t-356 144q-148 146 -148 374t147 374q147 145 377 146q117 0 212 -38q140 -56 140 -145q0 -49 -38 -79t-81 -31q-43 1 -92 31t-129 30q-120 0 -194 -79t-74 -207t75 -209q75 -80 193 -80q80 0 148 43
q34 20 76 20zM852 1193q0 -25 -19 -47t-51 -22t-51 27l-139 170l-137 -170q-23 -25 -52 -25t-51 20q-41 37 -8 83l82 127q56 90 164 90t168 -90l84 -127q10 -12 10 -36z" />
    <glyph glyph-name="Cdotaccent" unicode="&#x10a;" horiz-adv-x="1406" 
d="M796 1389q310 0 498 -226q29 -35 29 -85t-41 -88t-101 -38t-104 47q-125 131 -295 131t-293 -126q-121 -127 -121 -322t122 -322q120 -127 296 -127t291 129q43 48 105 48t100 -37q39 -37 39 -88t-29 -82q-186 -227 -496 -227t-518 197q-208 198 -208 509t208 509
t518 198zM940 1628q0 -57 -41 -98t-97 -41t-97 40t-41 98t41 99t97 41t97 -41t41 -98z" />
    <glyph glyph-name="cdotaccent" unicode="&#x10b;" horiz-adv-x="1021" 
d="M826 270q42 0 80 -32t38 -82q0 -51 -41 -82q-123 -98 -333 -98t-356 144q-148 146 -148 374t147 374q147 145 377 146q117 0 212 -38q140 -56 140 -145q0 -49 -38 -79t-81 -31q-43 1 -92 31t-129 30q-120 0 -194 -79t-74 -207t75 -209q75 -80 193 -80q80 0 148 43
q34 20 76 20zM731 1251q0 -57 -41 -98t-97 -41t-97 40t-41 98t41 100t97 41q56 1 97 -41t41 -99z" />
    <glyph glyph-name="Ccaron" unicode="&#x10c;" horiz-adv-x="1406" 
d="M796 1389q310 0 498 -226q29 -35 29 -85t-41 -88t-101 -38t-104 47q-125 131 -295 131t-293 -126q-121 -127 -121 -322t122 -322q120 -127 296 -127t291 129q43 48 105 48t100 -37q39 -37 39 -88t-29 -82q-186 -227 -496 -227t-518 197q-208 198 -208 509t208 509
t518 198zM986 1786q30 0 52 -20t21 -45q0 -26 -10 -38l-84 -127q-59 -90 -167 -90t-165 90l-82 127q-12 16 -12 38q0 21 19 43t50 22t54 -25l137 -170l139 170q18 25 48 25z" />
    <glyph glyph-name="ccaron" unicode="&#x10d;" horiz-adv-x="1021" 
d="M826 270q42 0 80 -32t38 -82q0 -51 -41 -82q-123 -98 -333 -98t-356 144q-148 146 -148 374t147 374q147 145 377 146q117 0 212 -38q140 -56 140 -145q0 -49 -38 -79t-81 -31q-43 1 -92 31t-129 30q-120 0 -194 -79t-74 -207t75 -209q75 -80 193 -80q80 0 148 43
q34 20 76 20zM790 1444q30 0 51 -20t21 -45q0 -26 -10 -38l-84 -127q-58 -90 -166 -90t-166 90l-82 127q-12 14 -12 37q0 22 19 44t51 22t53 -25l137 -170l139 170q19 25 49 25z" />
    <glyph glyph-name="Dcaron" unicode="&#x10e;" horiz-adv-x="1470" 
d="M674 256q196 0 312 123t116 307t-113 304t-315 120h-248v-854h248zM1399 682q0 -306 -201 -494t-524 -188h-375q-68 0 -116 48t-48 116v1038q0 68 48 116t116 48h375q322 0 524 -188t201 -496zM933 1786q29 0 51 -20t22 -45q0 -26 -11 -38l-84 -127q-59 -90 -167 -90
t-164 90l-82 127q-31 41 7 81q19 22 50 22t53 -25l137 -170l140 170q18 25 48 25z" />
    <glyph glyph-name="dcaron" unicode="&#x10f;" horiz-adv-x="1413" 
d="M336 494q0 -129 70 -208t168 -79t168 78t69 196v23q0 122 -70 200t-153 78q-112 0 -182 -80t-70 -208zM526 -25q-194 -1 -326 139t-132 378t132 380t326 142q90 0 167 -39t118 -113v389q0 51 37 89t92 38t93 -37t38 -90v-1134q0 -53 -38 -91t-92 -38t-92 38t-38 91v10
q-43 -72 -119 -112t-166 -40zM1425 1225q0 -162 -137 -279q-20 -16 -45 -16t-41 16q-14 18 -14 35t47 71t59 99q-8 -4 -42 -4t-66 32q-31 32 -31 84t37 90t92 38t98 -45t43 -121z" />
    <glyph glyph-name="Dcroat" unicode="&#x110;" horiz-adv-x="1519" 
d="M725 256q197 0 313 123t115 307q0 184 -113 304t-315 120h-248v-328h213q43 0 74 -32t31 -76q0 -45 -31 -76t-74 -31h-213v-311h248zM1450 682q0 -306 -201 -494t-524 -188h-375q-68 0 -116 48t-48 116v403h-75q-45 0 -76 32t-31 77t31 76t76 30h75v420q0 68 48 116
t116 48h375q321 0 523 -188t202 -496z" />
    <glyph glyph-name="dcroat" unicode="&#x111;" horiz-adv-x="1208" 
d="M573 782q-97 0 -167 -80t-70 -208t71 -207q71 -80 169 -80q98 -1 166 77t69 199l2 23q0 120 -71 198t-169 78zM1126 1237q28 1 50 -21t22 -53t-22 -53t-50 -20h-55v-973q0 -55 -38 -92t-92 -37t-92 38t-38 91v10q-88 -152 -283 -152q-196 -1 -328 139t-132 378t132 380
t326 142q90 0 167 -39t118 -113v228h-240q-29 0 -51 22t-20 52q0 30 22 52t49 21h240v12q0 53 38 91t93 38t92 -38t37 -91v-12h55z" />
    <glyph glyph-name="Emacron" unicode="&#x112;" horiz-adv-x="1193" 
d="M1114 129q0 -53 -37 -91t-88 -38h-690q-68 0 -116 48t-48 116v1038q0 68 48 116t116 48h690q51 0 88 -38t37 -90t-37 -90t-88 -38h-563v-289h549q51 0 88 -38t37 -90t-37 -90t-88 -38h-549v-309h563q51 0 88 -37t37 -90zM915 1640q29 0 51 -21t21 -52q1 -31 -21 -53
t-51 -21h-600q-29 -1 -51 21t-20 53q0 31 22 53t49 20h600z" />
    <glyph glyph-name="emacron" unicode="&#x113;" horiz-adv-x="1132" 
d="M581 807q-113 -1 -175 -67t-72 -152h487q-6 84 -66 152t-174 67zM1069 536q0 -53 -35 -89t-86 -35h-610q12 -98 88 -164t186 -66t203 49q70 34 128 -17q34 -30 34 -75q0 -78 -129 -121t-254 -43q-229 -1 -379 143q-149 144 -149 370t144 376t368 150q166 0 288 -89
t174 -245q29 -91 29 -144zM948 1225q0 -31 -22 -53t-49 -21h-601q-28 -1 -50 21t-22 53t22 53t50 20h601q29 0 50 -21t21 -52z" />
    <glyph glyph-name="Ebreve" unicode="&#x114;" horiz-adv-x="1193" 
d="M1114 129q0 -53 -37 -91t-88 -38h-690q-68 0 -116 48t-48 116v1038q0 68 48 116t116 48h690q51 0 88 -38t37 -90t-37 -90t-88 -38h-563v-289h549q51 0 88 -38t37 -90t-37 -90t-88 -38h-549v-309h563q51 0 88 -37t37 -90zM958 1636q0 -29 -18 -47q-131 -125 -311 -125
t-312 125q-18 18 -18 46t23 51q48 48 110 0q82 -72 197 -72t194 74q27 22 58 22t54 -22t23 -52z" />
    <glyph glyph-name="ebreve" unicode="&#x115;" horiz-adv-x="1132" 
d="M581 807q-113 -1 -175 -67t-72 -152h487q-6 84 -66 152t-174 67zM1069 536q0 -53 -35 -89t-86 -35h-610q12 -98 88 -164t186 -66t203 49q70 34 128 -17q34 -30 34 -75q0 -78 -129 -121t-254 -43q-229 -1 -379 143q-149 144 -149 370t144 376t368 150q166 0 288 -89
t174 -245q29 -91 29 -144zM905 1259q0 -29 -18 -47q-131 -125 -311 -125t-312 125q-18 18 -18 46t22 51q48 48 111 0q83 -72 197 -72t194 74q28 23 58 23t54 -23q23 -23 23 -52z" />
    <glyph glyph-name="Edotaccent" unicode="&#x116;" horiz-adv-x="1193" 
d="M1114 129q0 -53 -37 -91t-88 -38h-690q-68 0 -116 48t-48 116v1038q0 68 48 116t116 48h690q51 0 88 -38t37 -90t-37 -90t-88 -38h-563v-289h549q51 0 88 -38t37 -90t-37 -90t-88 -38h-549v-309h563q51 0 88 -37t37 -90zM758 1593q0 -57 -41 -98t-98 -41t-98 41
q-40 41 -40 98t41 99q42 42 98 41q56 1 97 -41t41 -99z" />
    <glyph glyph-name="edotaccent" unicode="&#x117;" horiz-adv-x="1132" 
d="M581 807q-113 -1 -175 -67t-72 -152h487q-6 84 -66 152t-174 67zM1069 536q0 -53 -35 -89t-86 -35h-610q12 -98 88 -164t186 -66t203 49q70 34 128 -17q34 -30 34 -75q0 -78 -129 -121t-254 -43q-229 -1 -379 143q-149 144 -149 370t144 376t368 150q166 0 288 -89
t174 -245q29 -91 29 -144zM721 1251q0 -57 -41 -98t-98 -41t-98 40q-40 40 -40 98t41 100t97 41q56 1 98 -41q41 -42 41 -99z" />
    <glyph glyph-name="Eogonek" unicode="&#x118;" horiz-adv-x="1193" 
d="M1212 -272q0 -45 -59 -77t-133 -32t-132 46q-58 45 -58 149t92 186h-623q-68 0 -116 48t-48 116v1038q0 68 48 116t116 48h690q51 0 88 -38t37 -90t-37 -90t-88 -38h-563v-289h549q51 0 88 -38t37 -90t-37 -90t-88 -38h-549v-309h563q51 0 88 -37t37 -91t-67 -134
q-18 -18 -32 -37q-13 -17 -17 -23t-18 -31q-13 -25 -15 -38t-4 -25q-11 -61 19 -91q46 -46 115 5q34 27 59 27q26 0 42 -15t16 -38z" />
    <glyph glyph-name="eogonek" unicode="&#x119;" horiz-adv-x="1132" 
d="M581 807q-113 -1 -175 -67t-72 -152h487q-6 84 -66 152t-174 67zM1069 530q0 -47 -35 -83t-86 -35h-610q12 -98 88 -164t186 -66t203 49q70 34 128 -17q34 -30 34 -72q1 -42 -21 -60t-34 -28t-36 -19q-24 -11 -34 -15t-37 -12t-29 -8q-49 -16 -97 -66t-48 -107
q0 -56 22 -78q48 -48 114 5q34 27 60 27t42 -15t16 -38q0 -45 -59 -77t-133 -32t-133 46q-58 46 -58 141t68 169q-226 5 -370 147t-144 368t144 374q144 150 356 150t358 -138q145 -138 145 -346z" />
    <glyph glyph-name="Ecaron" unicode="&#x11a;" horiz-adv-x="1193" 
d="M1114 129q0 -53 -37 -91t-88 -38h-690q-68 0 -116 48t-48 116v1038q0 68 48 116t116 48h690q51 0 88 -38t37 -90t-37 -90t-88 -38h-563v-289h549q51 0 88 -38t37 -90t-37 -90t-88 -38h-549v-309h563q51 0 88 -37t37 -90zM812 1786q30 0 52 -20t21 -45q0 -26 -11 -38
l-83 -127q-59 -90 -167 -90t-165 90l-82 127q-12 16 -12 38q0 21 19 43t51 22t52 -25l138 -170l139 170q18 25 48 25z" />
    <glyph glyph-name="ecaron" unicode="&#x11b;" horiz-adv-x="1132" 
d="M581 807q-113 -1 -175 -67t-72 -152h487q-6 84 -66 152t-174 67zM1069 536q0 -53 -35 -89t-86 -35h-610q12 -98 88 -164t186 -66t203 49q70 34 128 -17q34 -30 34 -75q0 -78 -129 -121t-254 -43q-229 -1 -379 143q-149 144 -149 370t144 376t368 150q166 0 288 -89
t174 -245q29 -91 29 -144zM769 1444q29 0 51 -20t22 -45q0 -26 -11 -38l-83 -127q-58 -90 -166 -90t-166 90l-82 127q-12 14 -12 37q0 22 19 44t50 22t53 -25l138 -170l139 170q18 25 48 25z" />
    <glyph glyph-name="Gcircumflex" unicode="&#x11c;" horiz-adv-x="1474" 
d="M1378 592v-88q0 -219 -166 -375t-415 -156q-307 0 -517 197t-210 513t210 511t513 195t489 -201q35 -39 35 -90t-41 -90t-97 -39t-98 41q-125 120 -297 120t-295 -126q-121 -127 -121 -322t122 -322q120 -127 307 -127q133 0 212 72t78 176v21h-247q-53 0 -89 37t-36 91
t36 90t89 36h374q68 0 116 -48t48 -116zM1059 1570q1 -24 -19 -46t-52 -23q-32 0 -50 27l-139 170l-137 -170q-23 -25 -52 -25q-28 -1 -50 19q-41 37 -9 84l82 127q57 90 165 90t167 -90l84 -127q10 -12 10 -36z" />
    <glyph glyph-name="gcircumflex" unicode="&#x11d;" horiz-adv-x="1198" 
d="M807 504v12q0 119 -69 193q-69 73 -168 73t-168 -74q-68 -74 -68 -198q0 -125 68 -199q68 -73 168 -73t168 74t69 192zM1069 872v-804q0 -136 -48 -232t-130 -145q-157 -94 -356 -92q-113 1 -228 31q-169 45 -172 149q0 47 32 78t69 31t63 -15q99 -61 223 -61t204 58
t81 191v101q-35 -74 -117 -115t-188 -41q-193 0 -315 132q-121 132 -121 371t121 372q122 133 315 133q98 0 178 -41t127 -111v10q0 54 38 92t93 38t93 -39q38 -38 38 -91zM858 1193q0 -25 -19 -47t-51 -22t-51 27l-139 170l-137 -170q-23 -25 -51 -25t-51 20q-42 37 -9 83
l82 127q56 90 164 90t168 -90l84 -127q10 -12 10 -36z" />
    <glyph glyph-name="Gbreve" unicode="&#x11e;" horiz-adv-x="1474" 
d="M1378 592v-88q0 -219 -166 -375t-415 -156q-307 0 -517 197t-210 513t210 511t513 195t489 -201q35 -39 35 -90t-41 -90t-97 -39t-98 41q-125 120 -297 120t-295 -126q-121 -127 -121 -322t122 -322q120 -127 307 -127q133 0 212 72t78 176v21h-247q-53 0 -89 37t-36 91
t36 90t89 36h374q68 0 116 -48t48 -116zM1128 1636q0 -29 -18 -47q-131 -125 -311 -125t-312 125q-18 18 -18 46t23 51q48 48 110 0q82 -72 197 -72t194 74q27 22 58 22t54 -22t23 -52z" />
    <glyph glyph-name="gbreve" unicode="&#x11f;" horiz-adv-x="1198" 
d="M807 504v12q0 119 -69 193q-69 73 -168 73t-168 -74q-68 -74 -68 -198q0 -125 68 -199q68 -73 168 -73t168 74t69 192zM1069 872v-804q0 -136 -48 -232t-130 -145q-157 -94 -356 -92q-113 1 -228 31q-169 45 -172 149q0 47 32 78t69 31t63 -15q99 -61 223 -61t204 58
t81 191v101q-35 -74 -117 -115t-188 -41q-193 0 -315 132q-121 132 -121 371t121 372q122 133 315 133q98 0 178 -41t127 -111v10q0 54 38 92t93 38t93 -39q38 -38 38 -91zM928 1259q0 -29 -19 -47q-131 -125 -311 -125t-311 125q-19 18 -19 46t23 51q48 48 110 0
q82 -72 197 -72t195 74q27 23 57 23t54 -24q24 -22 24 -51z" />
    <glyph glyph-name="Gdotaccent" unicode="&#x120;" horiz-adv-x="1474" 
d="M1378 592v-88q0 -219 -166 -375t-415 -156q-307 0 -517 197t-210 513t210 511t513 195t489 -201q35 -39 35 -90t-41 -90t-97 -39t-98 41q-125 120 -297 120t-295 -126q-121 -127 -121 -322t122 -322q120 -127 307 -127q133 0 212 72t78 176v21h-247q-53 0 -89 37t-36 91
t36 90t89 36h374q68 0 116 -48t48 -116zM936 1628q0 -57 -41 -98t-97 -41t-98 40q-41 40 -41 98t41 99q42 41 98 41t97 -41t41 -98z" />
    <glyph glyph-name="gdotaccent" unicode="&#x121;" horiz-adv-x="1198" 
d="M807 504v12q0 119 -69 193q-69 73 -168 73t-168 -74q-68 -74 -68 -198q0 -125 68 -199q68 -73 168 -73t168 74t69 192zM1069 872v-804q0 -136 -48 -232t-130 -145q-157 -94 -356 -92q-113 1 -228 31q-169 45 -172 149q0 47 32 78t69 31t63 -15q99 -61 223 -61t204 58
t81 191v101q-35 -74 -117 -115t-188 -41q-193 0 -315 132q-121 132 -121 371t121 372q122 133 315 133q98 0 178 -41t127 -111v10q0 54 38 92t93 38t93 -39q38 -38 38 -91zM737 1251q0 -57 -41 -98t-98 -41t-97 40t-40 98t41 100t97 41q56 1 97 -41t41 -99z" />
    <glyph glyph-name="Gcommaaccent" unicode="&#x122;" horiz-adv-x="1474" 
d="M944 -283q0 -162 -137 -278q-48 -38 -86 0q-14 17 -14 31q0 19 48 75q48 55 58 99q-8 -4 -43 -4q-36 0 -66 32t-30 83q0 52 37 90t92 38t98 -45t43 -121zM1378 592v-88q0 -219 -166 -375t-415 -156q-307 0 -517 197t-210 513t210 511t513 195t489 -201q35 -39 35 -90
t-41 -90t-97 -39t-98 41q-125 120 -297 120t-295 -126q-121 -127 -121 -322t122 -322q120 -127 307 -127q133 0 212 72t78 176v21h-247q-53 0 -89 37t-36 91t36 90t89 36h374q68 0 116 -48t48 -116z" />
    <glyph glyph-name="gcommaaccent" unicode="&#x123;" horiz-adv-x="1198" 
d="M807 504v12q0 119 -69 193q-69 73 -168 73t-168 -74q-68 -74 -68 -198q0 -125 68 -199q68 -73 168 -73t168 74t69 192zM1069 872v-804q0 -136 -48 -232t-130 -145q-157 -94 -356 -92q-113 1 -228 31q-169 45 -172 149q0 47 32 78t69 31t63 -15q99 -61 223 -61t204 58
t81 191v101q-35 -74 -117 -115t-188 -41q-193 0 -315 132q-121 132 -121 371t121 372q122 133 315 133q98 0 178 -41t127 -111v10q0 54 38 92t93 38t93 -39q38 -38 38 -91zM603 1096q-52 0 -93 38t-41 122t47 190t115 106q23 0 42 -15t19 -33t-45 -72q-45 -53 -47 -84
q51 0 91 -35t40 -87t-38 -91t-90 -39z" />
    <glyph glyph-name="Hcircumflex" unicode="&#x124;" horiz-adv-x="1497" 
d="M1364 1235v-1102q0 -59 -43 -102t-103 -43t-104 43q-43 43 -43 102v440h-645v-442q0 -59 -43 -101t-102 -42t-103 43q-43 43 -43 100v1104q0 59 43 101q42 42 102 42t103 -42t43 -101v-406h645v406q0 59 43 101q44 42 104 42t103 -42t43 -101zM1008 1570q0 -24 -20 -46
t-51 -23q-32 0 -50 27l-139 170l-138 -170q-20 -25 -50 -25q-30 -1 -52 19t-21 44q0 24 13 40l82 127q56 90 164 90t167 -90l84 -127q11 -12 11 -36z" />
    <glyph glyph-name="hcircumflex" unicode="&#x125;" horiz-adv-x="1187" 
d="M1059 600v-483q0 -53 -38 -91t-92 -38t-92 38t-38 91v444q-1 101 -59 161t-147 60t-147 -63t-57 -156v-446q0 -53 -38 -91t-92 -38t-92 38t-38 91v1134q0 53 38 90t93 37t92 -38t37 -89v-370q103 133 275 133t284 -125t111 -289zM854 1535q0 -25 -19 -47t-51 -22t-51 27
l-139 170l-137 -170q-23 -25 -51 -25t-51 20q-21 20 -21 44q0 25 12 39l82 127q56 90 164 90t168 -90l84 -127q10 -12 10 -36z" />
    <glyph glyph-name="Hbar" unicode="&#x126;" horiz-adv-x="1497" 
d="M1071 989h-645v-160h645v160zM1364 989v-856q0 -59 -43 -102t-103 -43t-104 43q-43 43 -43 102v440h-645v-442q0 -59 -43 -101t-102 -42t-103 43q-43 43 -43 100v858h-47q-28 0 -50 22q-22 23 -22 53t22 52t50 21h47v98q0 59 43 101q42 42 102 42t103 -42t43 -101v-98
h645v98q0 59 43 101q44 42 104 42t103 -42t43 -101v-98h45q29 0 51 -22q22 -23 21 -53q0 -30 -22 -52t-50 -21h-45z" />
    <glyph glyph-name="hbar" unicode="&#x127;" horiz-adv-x="1187" 
d="M647 1237q29 1 51 -21t21 -53q0 -31 -22 -53t-50 -20h-258v-209q103 133 275 133t284 -125t111 -289v-483q0 -53 -38 -91t-92 -38t-92 38t-38 91v444q-1 101 -59 161t-147 60t-147 -63t-57 -156v-446q0 -53 -38 -91t-92 -38t-92 38t-38 91v973h-49q-28 0 -50 22t-22 52
t22 52t50 21h49v14q0 53 38 90t93 37t92 -38t37 -89v-14h258z" />
    <glyph glyph-name="Itilde" unicode="&#x128;" horiz-adv-x="561" 
d="M426 1235v-1104q0 -59 -43 -101t-102 -42t-103 43q-43 43 -43 100v1104q0 59 43 101q42 42 102 42t103 -42t43 -101zM612 1733q0 -72 -51 -147t-164 -75q-59 0 -102 35t-75 70t-62 35q-51 0 -68 -74q-6 -29 -30 -47t-50 -18t-43 18q-16 20 -16 47q0 73 52 147t165 74
q57 0 100 -35t75 -69t63 -33q51 0 67 72q6 29 30 47q25 18 51 18t42 -19t16 -46z" />
    <glyph glyph-name="itilde" unicode="&#x129;" horiz-adv-x="518" 
d="M389 874v-757q0 -53 -38 -91t-92 -38t-92 38t-38 91v757q0 52 38 90t93 38t92 -39q37 -38 37 -89zM590 1356q0 -72 -51 -147t-164 -74q-59 1 -103 35t-74 69q-32 35 -63 35q-51 0 -67 -74q-6 -29 -30 -47t-50 -18t-43 19q-16 19 -17 46q0 72 52 147t165 74q57 0 101 -35
q44 -34 75 -68q32 -34 62 -34q51 0 68 72q6 29 29 47q24 18 50 18t44 -19q16 -19 16 -46z" />
    <glyph glyph-name="Imacron" unicode="&#x12a;" horiz-adv-x="561" 
d="M426 1235v-1104q0 -59 -43 -101t-102 -42t-103 43q-43 43 -43 100v1104q0 59 43 101q42 42 102 42t103 -42t43 -101zM655 1567q1 -31 -21 -53t-50 -21h-600q-29 -1 -51 21q-21 22 -21 53t22 53t50 20h600q29 0 50 -21t21 -52z" />
    <glyph glyph-name="imacron" unicode="&#x12b;" horiz-adv-x="518" 
d="M389 874v-757q0 -53 -38 -91t-92 -38t-92 38t-38 91v757q0 52 38 90t93 38t92 -39q37 -38 37 -89zM561 1298q29 0 51 -21t21 -52q0 -31 -22 -53t-50 -21h-600q-29 -1 -51 21t-21 53q0 31 22 53t50 20h600z" />
    <glyph glyph-name="Ibreve" unicode="&#x12c;" horiz-adv-x="561" 
d="M426 1235v-1104q0 -59 -43 -101t-102 -42t-103 43q-43 43 -43 100v1104q0 59 43 101q42 42 102 42t103 -42t43 -101zM610 1636q0 -29 -18 -47q-131 -125 -311 -125t-312 125q-18 18 -18 46t22 51q49 49 111 0q82 -72 197 -72t194 74q27 22 58 22t54 -22t23 -52z" />
    <glyph glyph-name="ibreve" unicode="&#x12d;" horiz-adv-x="518" 
d="M389 874v-757q0 -53 -38 -91t-92 -38t-92 38t-38 91v757q0 52 38 90t93 38t92 -39q37 -38 37 -89zM590 1259q0 -29 -19 -47q-131 -125 -311 -125t-311 125q-19 18 -19 46t23 51q48 48 110 0q82 -72 197 -72t195 74q27 23 57 23t54 -24q24 -22 24 -51z" />
    <glyph glyph-name="Iogonek" unicode="&#x12e;" horiz-adv-x="561" 
d="M537 -272q1 -45 -59 -77t-134 -32t-132 46q-58 47 -58 147t86 182q-45 12 -75 50t-30 87v1104q0 59 43 101q42 42 102 42t103 -42t43 -101v-1104q0 -43 -18 -75t-53 -71q-72 -85 -72 -169q-1 -45 21 -67q46 -47 111 4q65 50 105 13q17 -15 17 -38z" />
    <glyph glyph-name="iogonek" unicode="&#x12f;" horiz-adv-x="518" 
d="M500 -272q0 -45 -60 -77t-132 -32q-74 0 -133 46q-58 45 -58 147t90 186q-78 31 -78 119v757q0 52 38 90t93 38t92 -38t37 -90v-757q0 -49 -36 -92q-35 -43 -71 -93t-36 -106q0 -100 76 -98q24 0 60 26t60 27q24 0 42 -15q16 -15 16 -38zM260 1405q64 0 109 -45
q45 -44 45 -108t-45 -110t-109 -46t-112 46q-46 46 -46 109t46 109q48 45 112 45z" />
    <glyph glyph-name="Idotaccent" unicode="&#x130;" horiz-adv-x="561" 
d="M426 1235v-1104q0 -59 -43 -101t-102 -42t-103 43q-43 43 -43 100v1104q0 59 43 101q42 42 102 42t103 -42t43 -101zM418 1628q0 -57 -41 -98t-98 -41t-98 40q-40 40 -40 98t41 99q42 41 98 41t97 -41t41 -98z" />
    <glyph glyph-name="dotlessi" unicode="&#x131;" horiz-adv-x="518" 
d="M389 874v-757q0 -53 -38 -91t-92 -38t-92 38t-38 91v757q0 52 38 90t93 38t92 -39q37 -38 37 -89z" />
    <glyph glyph-name="IJ" unicode="&#x132;" horiz-adv-x="1556" 
d="M1421 1235v-786q0 -233 -131 -353t-350 -121q-96 0 -192 28q-150 44 -150 159q0 43 40 81t91 38q19 0 82 -23t107 -25q96 -1 154 59t58 161v782q0 59 44 101t102 42q59 0 102 -42t43 -101zM426 1235v-1104q0 -59 -43 -101t-102 -42t-103 43q-43 43 -43 100v1104
q0 59 43 101q42 42 102 42t103 -42t43 -101z" />
    <glyph glyph-name="ij" unicode="&#x133;" horiz-adv-x="1036" 
d="M647 -27v901q0 52 38 90t92 38t92 -39q38 -38 38 -89v-901q0 -174 -89 -274t-263 -100q-233 0 -233 120q0 43 29 74q30 31 73 31l88 -12q61 0 98 41t37 120zM389 874v-757q0 -53 -38 -91t-92 -38t-92 38t-38 91v757q0 52 38 90t93 38t92 -39q37 -38 37 -89zM621 1251
q0 63 46 109q47 46 111 45q64 0 109 -45q45 -44 45 -108t-46 -110t-110 -46t-109 46q-46 46 -46 109zM260 1405q64 0 109 -45q45 -44 45 -108t-45 -110t-109 -46t-112 46q-46 46 -46 109t46 109q48 45 112 45z" />
    <glyph glyph-name="Jcircumflex" unicode="&#x134;" horiz-adv-x="995" 
d="M860 1235v-786q0 -233 -131 -353t-350 -121q-97 0 -193 28q-150 43 -149 159q0 43 40 81t91 38q19 0 82 -23t106 -25q96 -1 154 59t59 161v782q0 59 43 101q42 42 102 42t103 -42t43 -101zM979 1570q1 -24 -19 -46t-52 -23q-32 0 -50 27l-139 170l-137 -170
q-20 -25 -50 -25q-30 -1 -52 19q-41 37 -9 84l82 127q57 90 165 90t167 -90l84 -127q10 -12 10 -36z" />
    <glyph glyph-name="jcircumflex" unicode="&#x135;" horiz-adv-x="518" 
d="M129 -27v901q0 52 38 90t93 38t92 -39q37 -38 37 -89v-901q0 -174 -89 -274t-263 -100q-233 0 -234 120q0 43 31 74t72 31l88 -12q61 0 98 41t37 120zM520 1193q0 -25 -19 -47t-51 -22t-51 27l-139 170l-137 -172q-23 -25 -51 -25t-50 20t-22 44q0 25 12 39l82 129
q56 90 164 90t168 -90l84 -127q10 -12 10 -36z" />
    <glyph glyph-name="Kcommaaccent" unicode="&#x136;" horiz-adv-x="1327" 
d="M809 -283q0 -162 -137 -278q-48 -38 -86 0q-24 31 -4 61q6 8 45 53t51 91q-8 -4 -43 -4t-66 32t-31 83q0 52 37 90t93 38t98 -45q43 -45 43 -121zM1165 123q0 -49 -41 -92q-42 -43 -106 -43t-105 55l-381 504l-106 -127v-289q0 -59 -43 -101t-102 -42t-103 43
q-43 43 -43 100v1104q0 59 43 101q42 42 102 42t103 -42t43 -101v-479l451 569q37 49 98 49t103 -39t42 -91t-30 -89l-365 -430l412 -514q28 -39 28 -88z" />
    <glyph glyph-name="kcommaaccent" unicode="&#x137;" horiz-adv-x="1095" 
d="M694 -283q0 -162 -137 -278q-48 -38 -86 0q-14 17 -14 31q0 19 48 75q48 55 58 99q-8 -4 -43 -4q-36 0 -66 32t-30 83q0 52 37 90t92 38t98 -45t43 -121zM977 115q0 -45 -37 -86q-36 -41 -100 -41t-101 55l-231 338l-119 -127v-137q0 -53 -38 -91t-92 -38t-92 38t-38 91
v1134q0 53 38 90t93 37t92 -38t37 -89v-702l350 414q35 41 86 41t88 -37t37 -83t-28 -81l-230 -262l260 -348q25 -33 25 -78z" />
    <glyph glyph-name="Lacute" unicode="&#x139;" horiz-adv-x="1071" 
d="M1016 129q0 -53 -37 -91t-88 -38h-592q-68 0 -116 48t-48 116v1071q0 59 43 101q42 42 102 42t103 -42t43 -101v-979h465q51 0 88 -37t37 -90zM840 1708q0 -33 -25 -55l-190 -168q-20 -17 -45 -17t-45 20q-21 20 -21 47q0 28 18 46l170 182q23 25 55 25q31 0 57 -24
t26 -56z" />
    <glyph glyph-name="lacute" unicode="&#x13a;" horiz-adv-x="518" 
d="M389 1251v-1134q0 -53 -38 -91t-92 -38t-92 38t-38 91v1134q0 53 38 90t93 37t92 -38t37 -89zM530 1708q0 -33 -24 -55l-191 -168q-20 -17 -45 -17t-45 20t-20 47q0 28 18 46l170 182q23 25 55 25t57 -24t25 -56z" />
    <glyph glyph-name="Lcommaaccent" unicode="&#x13b;" horiz-adv-x="1071" 
d="M678 -283q0 -162 -137 -278q-48 -38 -86 0q-24 31 -4 61q6 8 45 53t51 91q-8 -4 -43 -4t-66 32q-30 32 -30 83q0 52 36 90q37 38 92 38q54 0 98 -45t44 -121zM1016 129q0 -53 -37 -91t-88 -38h-592q-68 0 -116 48t-48 116v1071q0 59 43 101q42 42 102 42t103 -42t43 -101
v-979h465q51 0 88 -37t37 -90z" />
    <glyph glyph-name="lcommaaccent" unicode="&#x13c;" horiz-adv-x="518" 
d="M406 -283q0 -162 -138 -278q-48 -38 -86 0q-14 17 -14 31q0 19 48 75q48 55 58 99q-8 -4 -42 -4t-66 32q-31 32 -31 83q0 52 37 90t92 38q54 0 98 -45t44 -121zM389 1251v-1134q0 -53 -38 -91t-92 -38t-92 38t-38 91v1134q0 53 38 90t93 37t92 -38t37 -89z" />
    <glyph glyph-name="Lcaron" unicode="&#x13d;" horiz-adv-x="1071" 
d="M1016 129q0 -53 -37 -91t-88 -38h-592q-68 0 -116 48t-48 116v1071q0 59 43 101q42 42 102 42t103 -42t43 -101v-979h465q51 0 88 -37t37 -90zM862 1227q0 -162 -137 -279q-20 -16 -45 -16t-41 16q-14 18 -14 32q0 20 48 75t58 98q-8 -4 -43 -4q-36 0 -66 32t-30 84
t37 90t92 38t98 -45t43 -121z" />
    <glyph glyph-name="lcaron" unicode="&#x13e;" horiz-adv-x="724" 
d="M389 1251v-1134q0 -53 -38 -91t-92 -38t-92 38t-38 91v1134q0 53 38 90t93 37t92 -38t37 -89zM764 1227q0 -162 -137 -279q-20 -16 -45 -16t-41 16q-24 31 -4 62q6 8 45 53t51 90q-8 -4 -43 -4t-66 32q-30 32 -30 84t36 90q37 38 92 38q54 0 98 -45t44 -121z" />
    <glyph glyph-name="Ldot" unicode="&#x13f;" horiz-adv-x="1071" 
d="M975 701q0 -67 -49 -115t-117 -49q-68 0 -117 49q-49 50 -49 116t49 115t117 49t117 -49t49 -116zM1016 129q0 -53 -37 -91t-88 -38h-592q-68 0 -116 48t-48 116v1071q0 59 43 101q42 42 102 42t103 -42t43 -101v-979h465q51 0 88 -37t37 -90z" />
    <glyph glyph-name="ldot" unicode="&#x140;" horiz-adv-x="849" 
d="M518 501q0 67 49 115t117 50q68 0 117 -49t49 -116t-49 -116t-117 -49t-117 49t-49 116zM389 1251v-1134q0 -53 -38 -91t-92 -38t-92 38t-38 91v1134q0 53 38 90t93 37t92 -38t37 -89z" />
    <glyph glyph-name="Lslash" unicode="&#x141;" horiz-adv-x="1099" 
d="M99 459q-35 -1 -65 29t-30 83t51 82l109 62v520q0 59 43 101t102 42t103 -42t43 -101v-352l20 12q20 12 52 12q32 1 65 -29t33 -82t-54 -83l-116 -68v-389h465q52 0 88 -38t36 -90t-36 -90t-88 -38h-592q-68 0 -116 48t-48 116v313q-31 -18 -65 -18z" />
    <glyph glyph-name="lslash" unicode="&#x142;" horiz-adv-x="630" 
d="M551 899q25 -1 49 -25t25 -66q0 -42 -41 -65l-138 -79v-547q0 -53 -38 -91t-92 -38t-92 38t-38 91v397l-61 -35q-20 -10 -45 -10q-24 0 -50 24q-26 23 -26 65t41 65l141 82v546q0 53 38 90t93 37t93 -38t36 -89v-397l60 35q20 10 45 10z" />
    <glyph glyph-name="Nacute" unicode="&#x143;" horiz-adv-x="1492" 
d="M1358 1235v-1071q0 -72 -52 -124t-135 -52t-139 73l-606 830v-760q0 -59 -43 -101t-102 -42t-103 43q-43 43 -43 100v1061q0 74 55 130q54 56 146 56t149 -80l582 -790v727q0 59 43 101t103 42q61 0 103 -42t42 -101zM1018 1708q0 -33 -25 -55l-190 -168q-20 -17 -45 -17
t-45 20q-21 20 -21 47q0 28 19 46l170 182q20 25 53 25q32 0 58 -24t26 -56z" />
    <glyph glyph-name="nacute" unicode="&#x144;" 
d="M1057 637v-520q0 -53 -38 -91t-92 -38t-92 38t-38 91v440q-1 101 -59 163t-142 62t-145 -63t-62 -166v-436q0 -53 -38 -91t-92 -38t-92 38t-38 91v757q0 52 38 90t93 38t92 -38t37 -90v-2q35 54 109 98t176 44q160 0 272 -115t111 -262zM782 1446q32 0 56 -24
q26 -24 26 -57q0 -34 -24 -54l-191 -168q-20 -17 -45 -17t-45 20t-20 47q0 28 18 46l170 182q23 25 55 25z" />
    <glyph glyph-name="Ncommaaccent" unicode="&#x145;" horiz-adv-x="1492" 
d="M893 -283q0 -162 -137 -278q-48 -38 -86 0q-24 31 -4 61q6 8 45 53t51 91q-8 -4 -43 -4t-66 32t-31 83q0 52 37 90t93 38t98 -45q43 -45 43 -121zM1358 1235v-1071q0 -72 -52 -124t-135 -52t-139 73l-606 830v-760q0 -59 -43 -101t-102 -42t-103 43q-43 43 -43 100v1061
q0 74 55 130q54 56 146 56t149 -80l582 -790v727q0 59 43 101t103 42q61 0 103 -42t42 -101z" />
    <glyph glyph-name="ncommaaccent" unicode="&#x146;" 
d="M733 -283q0 -162 -137 -278q-48 -38 -86 0q-14 17 -14 31q0 19 48 75q48 55 58 99q-8 -4 -43 -4t-65 32t-31 83q0 52 37 90t92 38t98 -45t43 -121zM1057 637v-520q0 -53 -38 -91t-92 -38t-92 38t-38 91v440q-1 101 -59 163t-142 62t-145 -63t-62 -166v-436q0 -53 -38 -91
t-92 -38t-92 38t-38 91v757q0 52 38 90t93 38t92 -38t37 -90v-2q35 54 109 98t176 44q160 0 272 -115t111 -262z" />
    <glyph glyph-name="Ncaron" unicode="&#x147;" horiz-adv-x="1492" 
d="M1358 1235v-1071q0 -72 -52 -124t-135 -52t-139 73l-606 830v-760q0 -59 -43 -101t-102 -42t-103 43q-43 43 -43 100v1061q0 74 55 130q54 56 146 56t149 -80l582 -790v727q0 59 43 101t103 42q61 0 103 -42t42 -101zM935 1786q29 0 51 -20t22 -45q0 -26 -11 -38
l-84 -127q-59 -90 -167 -90t-164 90l-82 127q-31 41 7 81q19 22 51 22t52 -25l138 -170l139 170q18 25 48 25z" />
    <glyph glyph-name="ncaron" unicode="&#x148;" 
d="M1057 637v-520q0 -53 -38 -91t-92 -38t-92 38t-38 91v440q-1 101 -59 163t-142 62t-145 -63t-62 -166v-436q0 -53 -38 -91t-92 -38t-92 38t-38 91v757q0 52 38 90t93 38t92 -38t37 -90v-2q35 54 109 98t176 44q160 0 272 -115t111 -262zM785 1444q29 0 51 -20t22 -45
q0 -26 -10 -38l-84 -127q-58 -90 -166 -90t-166 90l-82 127q-12 14 -12 37q0 22 19 44t51 22t53 -25l137 -170l139 170q18 25 48 25z" />
    <glyph glyph-name="Eng" unicode="&#x14a;" horiz-adv-x="1492" 
d="M1358 1235v-1163q0 -234 -131 -354t-350 -119q-97 -1 -193 27q-150 43 -149 159q0 43 39 81q40 38 78 38t98 -23q61 -23 124 -24q64 0 120 46t69 126q-18 14 -31 32l-606 830v-760q0 -59 -43 -101t-102 -42t-103 43q-43 43 -43 100v1061q0 74 55 130q54 56 146 56
t149 -80l582 -790v727q0 59 43 101t103 42q61 0 103 -42t42 -101z" />
    <glyph glyph-name="eng" unicode="&#x14b;" 
d="M797 -27v584q-1 101 -59 163t-142 62t-145 -63t-62 -166v-436q0 -53 -38 -91t-92 -38t-92 38t-38 91v757q0 52 38 90t93 38t92 -38t37 -90v-2q35 54 109 98t176 44q160 0 272 -115t111 -262v-664q0 -174 -89 -274t-263 -100q-233 0 -234 120q0 43 31 74t71 31l89 -12
q61 0 98 41t37 120z" />
    <glyph glyph-name="Omacron" unicode="&#x14c;" horiz-adv-x="1566" 
d="M1198 682q0 195 -115 322q-115 126 -301 126t-300 -126t-114 -322q0 -195 114 -322t300 -127t301 127t115 322zM1497 682q0 -309 -202 -508t-512 -199t-512 200t-201 507q0 307 201 507q202 200 512 200t512 -199t202 -508zM1081 1640q29 0 51 -21t21 -52q1 -31 -21 -53
t-51 -21h-600q-29 -1 -51 21t-20 53q0 31 22 53t49 20h600z" />
    <glyph glyph-name="omacron" unicode="&#x14d;" horiz-adv-x="1175" 
d="M588 207q118 0 186 83t68 205q0 123 -69 205t-185 82t-185 -83q-67 -83 -67 -205t68 -204q68 -83 184 -83zM1112 496q0 -219 -143 -370t-381 -151t-380 151t-142 370q0 218 142 368t380 150t381 -150t143 -368zM889 1298q29 0 51 -21t21 -52q0 -31 -22 -53t-50 -21h-600
q-29 -1 -51 21t-21 53q0 31 22 53t50 20h600z" />
    <glyph glyph-name="Obreve" unicode="&#x14e;" horiz-adv-x="1566" 
d="M1198 682q0 195 -115 322q-115 126 -301 126t-300 -126t-114 -322q0 -195 114 -322t300 -127t301 127t115 322zM1497 682q0 -309 -202 -508t-512 -199t-512 200t-201 507q0 307 201 507q202 200 512 200t512 -199t202 -508zM1112 1636q0 -29 -18 -47q-132 -125 -312 -125
t-311 125q-18 18 -18 46t22 51q48 48 111 0q82 -72 196 -72t195 74q27 22 57 22t55 -22q23 -23 23 -52z" />
    <glyph glyph-name="obreve" unicode="&#x14f;" horiz-adv-x="1175" 
d="M588 207q118 0 186 83t68 205q0 123 -69 205t-185 82t-185 -83q-67 -83 -67 -205t68 -204q68 -83 184 -83zM1112 496q0 -219 -143 -370t-381 -151t-380 151t-142 370q0 218 142 368t380 150t381 -150t143 -368zM918 1259q0 -29 -19 -47q-131 -125 -311 -125t-312 125
q-18 18 -18 46t23 51q48 48 110 0q82 -72 197 -72t194 74q27 23 58 23q30 0 54 -24q24 -22 24 -51z" />
    <glyph glyph-name="Ohungarumlaut" unicode="&#x150;" horiz-adv-x="1566" 
d="M1198 682q0 195 -115 322q-115 126 -301 126t-300 -126t-114 -322q0 -195 114 -322t300 -127t301 127t115 322zM1497 682q0 -309 -202 -508t-512 -199t-512 200t-201 507q0 307 201 507q202 200 512 200t512 -199t202 -508zM1063 1786q41 0 63 -24t23 -55q0 -30 -14 -46
l-134 -168q-23 -25 -51 -25t-50 18q-39 32 -11 79l110 182q23 39 64 39zM758 1786q42 0 64 -24t22 -55q0 -30 -15 -46l-135 -168q-18 -25 -48 -25t-50 20q-37 36 -12 77l110 182q23 39 64 39z" />
    <glyph glyph-name="ohungarumlaut" unicode="&#x151;" horiz-adv-x="1175" 
d="M588 207q118 0 186 83t68 205q0 123 -69 205t-185 82t-185 -83q-67 -83 -67 -205t68 -204q68 -83 184 -83zM1112 496q0 -219 -143 -370t-381 -151t-380 151t-142 370q0 218 142 368t380 150t381 -150t143 -368zM866 1444q40 0 64 -24q22 -24 22 -55q0 -30 -14 -46
l-133 -168q-23 -25 -51 -25t-51 18q-39 31 -11 79l111 182q23 39 63 39zM562 1444q40 0 62 -24t23 -55q0 -30 -14 -46l-135 -168q-18 -25 -48 -25t-51 20q-20 20 -20 40q0 22 8 37l111 182q24 39 64 39z" />
    <glyph glyph-name="OE" unicode="&#x152;" horiz-adv-x="2220" 
d="M795 1128q-195 0 -311 -124t-116 -321q0 -196 116 -323t311 -127q125 1 223 63t147 175v422q-49 115 -146 175t-224 60zM2144 129q0 -53 -37 -91t-88 -38h-696q-66 0 -112 47t-46 113q-65 -88 -179 -136t-232 -49q-299 0 -492 199t-192 508q0 309 192 507
q193 198 492 197q118 0 232 -47t179 -133q0 66 47 113t113 47h694q51 0 88 -38t37 -90t-37 -90t-88 -38h-561v-289h547q51 0 88 -38t37 -90t-37 -90t-88 -38h-547v-309h561q51 0 88 -37t37 -90z" />
    <glyph glyph-name="oe" unicode="&#x153;" horiz-adv-x="1906" 
d="M590 205q114 0 182 81q70 81 70 209q0 127 -70 207t-184 80t-182 -80q-70 -80 -70 -208t70 -208q70 -81 184 -81zM1355 807q-113 -1 -175 -67t-70 -152h487q-6 84 -67 152t-175 67zM1843 537q0 -53 -36 -89t-87 -36h-606q14 -98 89 -164t185 -66t201 47q70 34 128 -16
q34 -29 34 -66t-18 -61q-41 -53 -153 -82t-210 -29q-246 0 -397 220q-151 -219 -387 -219t-378 150q-142 151 -142 370q0 218 142 368t376 150t391 -221q141 221 379 221q168 0 288 -89t173 -245q28 -90 28 -143z" />
    <glyph glyph-name="Racute" unicode="&#x154;" horiz-adv-x="1316" 
d="M426 741h305q89 1 147 51t58 134t-57 134t-148 50h-305v-369zM1233 926q0 -152 -80 -260t-199 -146l209 -319q19 -27 19 -76t-41 -93t-112 -44t-116 73l-254 424h-233v-354q0 -59 -43 -101t-102 -42t-103 43q-43 43 -43 100v1071q0 68 48 116t116 48h475q211 0 335 -122
t124 -318zM946 1708q0 -33 -24 -55l-191 -168q-20 -17 -45 -17t-45 20t-20 47q0 28 18 46l170 182q23 25 55 25t56 -24q26 -24 26 -56z" />
    <glyph glyph-name="racute" unicode="&#x155;" horiz-adv-x="737" 
d="M602 997q55 1 85 -29t30 -81t-35 -86q-36 -35 -102 -44t-128 -63t-63 -164v-413q0 -53 -37 -91t-90 -38h-4q-53 0 -91 38t-38 91v757q0 52 38 90t93 38t92 -38t37 -90v-20q106 143 213 143zM606 1446q32 0 56 -24q26 -24 26 -57q0 -34 -24 -54l-191 -168q-20 -17 -45 -17
t-45 20q-21 20 -21 47q0 28 19 46l170 182q23 25 55 25z" />
    <glyph glyph-name="Rcommaaccent" unicode="&#x156;" horiz-adv-x="1316" 
d="M811 -283q0 -162 -137 -278q-48 -38 -86 0q-24 31 -4 61q6 8 45 53t51 91q-8 -4 -43 -4t-66 32t-31 83q0 52 38 90q37 38 92 38t98 -45t43 -121zM426 741h305q89 1 147 51t58 134t-57 134t-148 50h-305v-369zM1233 926q0 -152 -80 -260t-199 -146l209 -319q19 -27 19 -76
t-41 -93t-112 -44t-116 73l-254 424h-233v-354q0 -59 -43 -101t-102 -42t-103 43q-43 43 -43 100v1071q0 68 48 116t116 48h475q211 0 335 -122t124 -318z" />
    <glyph glyph-name="rcommaaccent" unicode="&#x157;" horiz-adv-x="737" 
d="M514 -283q0 -162 -137 -278q-48 -38 -86 0q-24 31 -4 61q6 8 45 53t51 91q-8 -4 -43 -4t-66 32q-30 32 -30 83q0 52 37 90t92 38t98 -45t43 -121zM602 997q55 1 85 -29t30 -81t-35 -86q-36 -35 -102 -44t-128 -63t-63 -164v-413q0 -53 -37 -91t-90 -38h-4q-53 0 -91 38
t-38 91v757q0 52 38 90t93 38t92 -38t37 -90v-20q106 143 213 143z" />
    <glyph glyph-name="Rcaron" unicode="&#x158;" horiz-adv-x="1316" 
d="M426 741h305q89 1 147 51t58 134t-57 134t-148 50h-305v-369zM1233 926q0 -152 -80 -260t-199 -146l209 -319q19 -27 19 -76t-41 -93t-112 -44t-116 73l-254 424h-233v-354q0 -59 -43 -101t-102 -42t-103 43q-43 43 -43 100v1071q0 68 48 116t116 48h475q211 0 335 -122
t124 -318zM855 1786q29 0 51 -20t22 -45q0 -26 -10 -38l-84 -127q-58 -90 -166 -90t-166 90l-82 127q-12 16 -12 38q0 21 19 43t50 22t53 -25l138 -170l139 170q18 25 48 25z" />
    <glyph glyph-name="rcaron" unicode="&#x159;" horiz-adv-x="737" 
d="M602 997q55 1 85 -29t30 -81t-35 -86q-36 -35 -102 -44t-128 -63t-63 -164v-413q0 -53 -37 -91t-90 -38h-4q-53 0 -91 38t-38 91v757q0 52 38 90t93 38t92 -38t37 -90v-20q106 143 213 143zM605 1444q29 0 51 -20t22 -45q0 -26 -10 -38l-84 -127q-58 -90 -166 -90
t-166 90l-82 127q-12 14 -12 37q0 22 19 44t50 22t54 -25l137 -170l139 170q18 25 48 25z" />
    <glyph glyph-name="Sacute" unicode="&#x15a;" horiz-adv-x="1228" 
d="M1167 414q0 -197 -140 -318t-406 -121q-160 -1 -314 49q-231 74 -229 210q0 46 42 85t92 39t81 -22q154 -106 342 -107q113 0 175 44q62 43 62 103t-58 97t-145 53t-189 47t-190 70q-87 39 -146 123q-58 84 -58 205q0 176 141 296t377 119q132 0 274 -40t195 -111
q25 -31 25 -78t-45 -85t-93 -38t-81 21q-137 78 -301 78q-92 0 -144 -37q-52 -38 -51 -94q0 -103 197 -139t384 -121q87 -40 145 -124t58 -204zM883 1708q0 -33 -25 -55l-190 -168q-20 -17 -45 -17t-45 20t-20 47q0 28 17 46l170 182q19 25 53 25t60 -24t25 -56z" />
    <glyph glyph-name="sacute" unicode="&#x15b;" horiz-adv-x="976" 
d="M913 293q1 -139 -113 -228t-315 -90q-111 0 -233 35t-164 96q-18 25 -18 63t32 70q33 31 70 31t59 -14q137 -80 267 -80q82 0 124 29t42 72t-44 67t-109 33q-65 11 -141 31t-142 49q-64 29 -108 91t-44 154q0 131 108 222q109 90 297 90q106 0 214 -33q163 -50 163 -139
q0 -41 -31 -70t-65 -29t-55 13q-102 59 -224 59q-71 0 -113 -28q-42 -27 -42 -65q0 -67 149 -91q149 -23 285 -83q66 -30 108 -96t43 -159zM676 1446q32 0 56 -24q26 -24 26 -57q0 -34 -25 -54l-190 -168q-20 -17 -45 -17t-45 20q-21 20 -21 47q0 28 19 46l170 182
q23 25 55 25z" />
    <glyph glyph-name="Scircumflex" unicode="&#x15c;" horiz-adv-x="1228" 
d="M1167 414q0 -197 -140 -318t-406 -121q-160 -1 -314 49q-231 74 -229 210q0 46 42 85t92 39t81 -22q154 -106 342 -107q113 0 175 44q62 43 62 103t-58 97t-145 53t-189 47t-190 70q-87 39 -146 123q-58 84 -58 205q0 176 141 296t377 119q132 0 274 -40t195 -111
q25 -31 25 -78t-45 -85t-93 -38t-81 21q-137 78 -301 78q-92 0 -144 -37q-52 -38 -51 -94q0 -103 197 -139t384 -121q87 -40 145 -124t58 -204zM874 1570q0 -24 -19 -46t-51 -23q-32 0 -50 27l-140 170l-137 -170q-23 -25 -51 -25q-28 -1 -50 19t-22 44t13 40l82 127
q57 90 164 90t167 -90l84 -127q10 -12 10 -36z" />
    <glyph glyph-name="scircumflex" unicode="&#x15d;" horiz-adv-x="976" 
d="M913 293q1 -139 -113 -228t-315 -90q-111 0 -233 35t-164 96q-18 25 -18 63t32 70q33 31 70 31t59 -14q137 -80 267 -80q82 0 124 29t42 72t-44 67t-109 33q-65 11 -141 31t-142 49q-64 29 -108 91t-44 154q0 131 108 222q109 90 297 90q106 0 214 -33q163 -50 163 -139
q0 -41 -31 -70t-65 -29t-55 13q-102 59 -224 59q-71 0 -113 -28q-42 -27 -42 -65q0 -67 149 -91q149 -23 285 -83q66 -30 108 -96t43 -159zM748 1193q0 -25 -20 -47t-51 -22q-32 0 -50 27l-140 170l-137 -170q-20 -25 -50 -25t-52 20t-21 42q0 24 13 41l82 127q57 90 164 90
t167 -90l84 -127q11 -12 11 -36z" />
    <glyph glyph-name="Scedilla" unicode="&#x15e;" horiz-adv-x="1228" 
d="M1167 414q0 -193 -133 -313t-389 -126l-33 -79q35 20 83 20t88 -40t40 -112q1 -72 -65 -118q-66 -47 -155 -47q-89 1 -158 25t-68 69q0 25 17 41q16 16 34 16t31 -6q66 -35 120 -35q117 0 115 68q0 53 -59 53q-16 0 -41 -12q-57 -27 -86 3t-19 70l33 89q-131 12 -254 59
t-170 117q-20 36 -20 80t42 83t92 39t81 -22q154 -106 342 -107q113 0 175 44q62 43 62 103t-58 97t-145 53t-189 47t-190 70q-87 39 -146 123q-58 84 -58 205q0 176 141 296t377 119q132 0 274 -40t195 -111q25 -31 25 -78t-45 -85t-93 -38t-81 21q-137 78 -301 78
q-92 0 -144 -37q-52 -38 -51 -94q0 -103 197 -139t384 -121q87 -40 145 -124t58 -204z" />
    <glyph glyph-name="scedilla" unicode="&#x15f;" horiz-adv-x="976" 
d="M913 293q0 -131 -101 -218t-280 -98l-32 -81q34 20 82 20t88 -40t41 -112q0 -72 -66 -118q-66 -47 -155 -47q-90 1 -158 25t-68 69q0 25 18 41t34 16q18 0 30 -6q66 -35 120 -35q116 0 116 68q0 53 -60 53q-16 0 -41 -12q-57 -27 -89 7q-19 19 -19 35t4 31l33 89
q-98 8 -194 42q-146 52 -146 140q0 45 32 77q33 31 70 31t59 -14q137 -80 267 -80q82 0 124 29t42 72t-44 67t-109 33q-65 11 -141 31t-142 49q-64 29 -108 91t-44 154q0 131 108 222q109 90 297 90q106 0 214 -33q163 -50 163 -139q0 -41 -31 -70t-65 -29t-55 13
q-102 59 -224 59q-71 0 -113 -28q-42 -27 -42 -65q0 -67 149 -91q149 -23 285 -83q66 -30 108 -96t43 -159z" />
    <glyph glyph-name="Scaron" unicode="&#x160;" horiz-adv-x="1228" 
d="M1167 414q0 -197 -140 -318t-406 -121q-160 -1 -314 49q-231 74 -229 210q0 46 42 85t92 39t81 -22q154 -106 342 -107q113 0 175 44q62 43 62 103t-58 97t-145 53t-189 47t-190 70q-87 39 -146 123q-58 84 -58 205q0 176 141 296t377 119q132 0 274 -40t195 -111
q25 -31 25 -78t-45 -85t-93 -38t-81 21q-137 78 -301 78q-92 0 -144 -37q-52 -38 -51 -94q0 -103 197 -139t384 -121q87 -40 145 -124t58 -204zM792 1786q30 0 51 -20t21 -45q0 -26 -10 -38l-84 -127q-58 -90 -166 -90t-166 90l-82 127q-12 16 -12 38q0 21 20 43t51 22
q32 0 52 -25l137 -170l139 170q19 25 49 25z" />
    <glyph glyph-name="scaron" unicode="&#x161;" horiz-adv-x="976" 
d="M913 293q1 -139 -113 -228t-315 -90q-111 0 -233 35t-164 96q-18 25 -18 63t32 70q33 31 70 31t59 -14q137 -80 267 -80q82 0 124 29t42 72t-44 67t-109 33q-65 11 -141 31t-142 49q-64 29 -108 91t-44 154q0 131 108 222q109 90 297 90q106 0 214 -33q163 -50 163 -139
q0 -41 -31 -70t-65 -29t-55 13q-102 59 -224 59q-71 0 -113 -28q-42 -27 -42 -65q0 -67 149 -91q149 -23 285 -83q66 -30 108 -96t43 -159zM677 1444q29 0 51 -20t22 -45q0 -26 -11 -38l-84 -127q-59 -90 -167 -90t-164 90l-82 127q-12 14 -12 37q0 22 18 44q20 22 52 22
t52 -25l137 -170l140 170q18 25 48 25z" />
    <glyph glyph-name="Tcaron" unicode="&#x164;" horiz-adv-x="1191" 
d="M1153 1238q0 -52 -37 -90t-88 -38h-285v-977q0 -59 -43 -102t-103 -43t-103 43t-43 102v977h-285q-53 0 -90 38t-37 91t38 90t89 37h862q51 0 88 -38t37 -90zM787 1786q29 0 51 -20t22 -45q0 -26 -10 -38l-84 -127q-58 -90 -166 -90t-166 90l-82 127q-12 16 -12 38
q0 21 19 43t51 22t53 -25l137 -170l139 170q18 25 48 25z" />
    <glyph glyph-name="tcaron" unicode="&#x165;" horiz-adv-x="778" 
d="M670 94q0 -119 -209 -119q-137 0 -209 70t-72 201v516h-63q-47 0 -80 34t-33 81t34 79t79 33h63v154q0 53 38 91t93 38t93 -38t38 -91v-154h103q45 0 78 -34t33 -80q0 -45 -34 -79q-32 -34 -77 -34h-103v-447q0 -53 28 -81t62 -27h23q53 0 84 -32t31 -81zM823 1399
q0 -162 -137 -279q-20 -16 -45 -16t-41 16q-14 18 -14 32q0 20 48 75t58 98q-8 -4 -42 -4t-66 32q-31 32 -31 84t37 90t92 38t98 -45t43 -121z" />
    <glyph glyph-name="Tbar" unicode="&#x166;" horiz-adv-x="1191" 
d="M879 815q45 1 77 -31t31 -78q0 -46 -32 -79t-76 -33h-136v-461q0 -59 -43 -102t-103 -43t-103 43t-43 102v461h-134q-45 0 -77 33t-31 79q0 46 32 78t76 31h134v295h-285q-53 0 -90 38t-37 91t38 90t89 37h862q51 0 88 -38t37 -90t-37 -90t-88 -38h-285v-295h136z" />
    <glyph glyph-name="tbar" unicode="&#x167;" horiz-adv-x="692" 
d="M512 606q45 0 77 -32t32 -77q0 -46 -32 -79t-77 -33h-70v-70q0 -53 28 -81t62 -27h23q53 0 84 -32t31 -81q0 -119 -209 -119q-137 0 -209 70t-72 201v139h-67q-45 0 -77 33t-32 79q0 45 32 77t77 32h67v156h-63q-47 0 -80 34t-33 81t34 79t79 33h63v154q0 53 38 91t93 38
t93 -38t38 -91v-154h103q45 0 78 -34t33 -80q0 -45 -34 -79q-32 -34 -77 -34h-103v-156h70z" />
    <glyph glyph-name="Utilde" unicode="&#x168;" horiz-adv-x="1501" 
d="M1368 1233v-686q0 -264 -157 -418t-459 -154t-460 155q-157 155 -157 415v688q0 59 43 102q42 43 104 43t105 -43t43 -102v-678q0 -147 84 -234t238 -87t236 86q82 88 83 235v678q0 59 44 102q43 43 105 43t105 -43t43 -102zM1081 1733q0 -72 -51 -147t-164 -75
q-59 0 -102 35t-75 70t-62 35q-51 0 -68 -74q-6 -29 -30 -47q-25 -18 -51 -18t-42 18q-16 20 -16 47q0 73 52 147t165 74q57 0 100 -35t75 -69t62 -33q51 0 68 72q6 29 30 47t50 18t43 -19q16 -19 16 -46z" />
    <glyph glyph-name="utilde" unicode="&#x169;" 
d="M129 352v520q0 54 38 92t92 38t92 -38t38 -92v-440q0 -100 58 -162q59 -62 143 -63q84 0 145 63t62 166v436q0 54 38 92t92 38t92 -38t38 -92v-757q0 -53 -38 -90t-92 -37t-92 37t-38 90v2q-31 -55 -105 -99t-180 -43q-160 0 -272 115t-111 262zM924 1356q0 -72 -52 -147
t-163 -74q-59 1 -103 35t-75 69q-32 35 -62 35q-51 0 -68 -74q-5 -29 -29 -47t-51 -18t-43 19t-16 46q0 72 52 147t165 74q57 0 101 -35q44 -34 74 -68q32 -34 63 -34q51 0 67 72q6 29 30 47t50 18t44 -19q16 -19 16 -46z" />
    <glyph glyph-name="Umacron" unicode="&#x16a;" horiz-adv-x="1501" 
d="M1368 1233v-686q0 -264 -157 -418t-459 -154t-460 155q-157 155 -157 415v688q0 59 43 102q42 43 104 43t105 -43t43 -102v-678q0 -147 84 -234t238 -87t236 86q82 88 83 235v678q0 59 44 102q43 43 105 43t105 -43t43 -102zM1126 1567q0 -31 -22 -53t-49 -21h-600
q-29 -1 -51 21t-22 53t22 53t51 20h600q29 0 50 -21t21 -52z" />
    <glyph glyph-name="umacron" unicode="&#x16b;" 
d="M129 352v520q0 54 38 92t92 38t92 -38t38 -92v-440q0 -100 58 -162q59 -62 143 -63q84 0 145 63t62 166v436q0 54 38 92t92 38t92 -38t38 -92v-757q0 -53 -38 -90t-92 -37t-92 37t-38 90v2q-31 -55 -105 -99t-180 -43q-160 0 -272 115t-111 262zM891 1298q29 0 51 -21
t21 -52q0 -31 -22 -53t-50 -21h-600q-29 -1 -51 21t-21 53q0 31 22 53t50 20h600z" />
    <glyph glyph-name="Ubreve" unicode="&#x16c;" horiz-adv-x="1501" 
d="M1368 1233v-686q0 -264 -157 -418t-459 -154t-460 155q-157 155 -157 415v688q0 59 43 102q42 43 104 43t105 -43t43 -102v-678q0 -147 84 -234t238 -87t236 86q82 88 83 235v678q0 59 44 102q43 43 105 43t105 -43t43 -102zM1079 1636q0 -29 -18 -47
q-131 -125 -311 -125t-312 125q-18 18 -18 46t22 51q49 49 111 0q82 -72 197 -72t194 74q27 22 58 22t54 -22t23 -52z" />
    <glyph glyph-name="ubreve" unicode="&#x16d;" 
d="M129 352v520q0 54 38 92t92 38t92 -38t38 -92v-440q0 -100 58 -162q59 -62 143 -63q84 0 145 63t62 166v436q0 54 38 92t92 38t92 -38t38 -92v-757q0 -53 -38 -90t-92 -37t-92 37t-38 90v2q-31 -55 -105 -99t-180 -43q-160 0 -272 115t-111 262zM922 1259q0 -29 -19 -47
q-131 -125 -311 -125t-311 125q-19 18 -19 46t23 51q48 48 110 0q82 -72 197 -72t194 74q27 23 58 23q30 0 54 -24q24 -22 24 -51z" />
    <glyph glyph-name="Uring" unicode="&#x16e;" horiz-adv-x="1501" 
d="M1368 1233v-686q0 -264 -157 -418t-459 -154t-460 155q-157 155 -157 415v688q0 59 43 102q42 43 104 43t105 -43t43 -102v-678q0 -147 84 -234t238 -87t236 86q82 88 83 235v678q0 59 44 102q43 43 105 43t105 -43t43 -102zM756 1548q38 0 66 29t28 69t-28 68t-66 27
q-38 0 -68 -29q-29 -30 -29 -68t29 -67t68 -29zM541 1644q0 88 63 154q64 64 152 64t150 -64t63 -154q-1 -90 -63 -152t-150 -62t-152 63q-63 63 -63 151z" />
    <glyph glyph-name="uring" unicode="&#x16f;" 
d="M129 352v520q0 54 38 92t92 38t92 -38t38 -92v-440q0 -100 58 -162q59 -62 143 -63q84 0 145 63t62 166v436q0 54 38 92t92 38t92 -38t38 -92v-757q0 -53 -38 -90t-92 -37t-92 37t-38 90v2q-31 -55 -105 -99t-180 -43q-160 0 -272 115t-111 262zM594 1206q38 0 66 29
t28 69t-28 68t-66 27q-38 0 -68 -29q-28 -30 -28 -68t28 -67t68 -29zM807 1302q-1 -90 -63 -152t-150 -62t-152 62q-64 64 -63 152q0 88 63 154q64 64 152 64t150 -64t63 -154z" />
    <glyph glyph-name="Uhungarumlaut" unicode="&#x170;" horiz-adv-x="1501" 
d="M1368 1233v-686q0 -264 -157 -418t-459 -154t-460 155q-157 155 -157 415v688q0 59 43 102q42 43 104 43t105 -43t43 -102v-678q0 -147 84 -234t238 -87t236 86q82 88 83 235v678q0 59 44 102q43 43 105 43t105 -43t43 -102zM1034 1786q40 0 64 -24q22 -24 22 -55
q0 -30 -14 -46l-133 -168q-23 -25 -51 -25t-51 18q-39 31 -11 79l111 182q23 39 63 39zM730 1786q40 0 62 -24t23 -55q0 -30 -14 -46l-135 -168q-18 -25 -48 -25t-51 20q-20 20 -20 40q0 22 8 37l111 182q24 39 64 39z" />
    <glyph glyph-name="uhungarumlaut" unicode="&#x171;" 
d="M129 352v520q0 54 38 92t92 38t92 -38t38 -92v-440q0 -100 58 -162q59 -62 143 -63q84 0 145 63t62 166v436q0 54 38 92t92 38t92 -38t38 -92v-757q0 -53 -38 -90t-92 -37t-92 37t-38 90v2q-31 -55 -105 -99t-180 -43q-160 0 -272 115t-111 262zM871 1444q41 0 63 -24
t22 -55q0 -30 -14 -46l-133 -168q-23 -25 -51 -25t-50 18t-22 40t10 39l111 182q23 39 64 39zM566 1444q40 0 62 -24t23 -55q0 -30 -14 -46l-135 -168q-18 -25 -48 -25t-50 20t-21 40q0 22 8 37l111 182q24 39 64 39z" />
    <glyph glyph-name="Uogonek" unicode="&#x172;" horiz-adv-x="1501" 
d="M1368 1233v-686q0 -211 -101 -354t-300 -193q-143 -72 -144 -184q0 -45 22 -67q47 -47 112 3t104 14q16 -15 16 -38q0 -45 -59 -77t-133 -32t-132 46q-59 46 -59 135t58 175q-303 0 -460 155t-157 415v688q0 59 43 102q42 43 104 43t105 -43t43 -102v-678q0 -147 84 -234
t238 -87t236 86q82 88 83 235v678q0 59 44 102q43 43 105 43t105 -43t43 -102z" />
    <glyph glyph-name="uogonek" unicode="&#x173;" 
d="M1106 -272q0 -45 -59 -77t-133 -32t-133 46q-58 46 -58 138q0 129 117 215q-43 39 -43 88v9q-31 -53 -105 -97t-180 -43q-160 0 -272 115t-111 262v522q0 52 38 90t93 38t92 -38t37 -90v-442q0 -100 58 -162q59 -62 143 -63q84 0 145 63t62 166v438q0 52 38 90t93 38
t92 -38t37 -90v-757q0 -80 -103 -143q-38 -24 -70 -66t-32 -89q0 -48 22 -70q45 -46 114 5q36 27 61 27t41 -15t16 -38z" />
    <glyph glyph-name="Wcircumflex" unicode="&#x174;" horiz-adv-x="1880" 
d="M1837 1239q0 -23 -6 -41l-305 -1067q-18 -63 -72 -103t-117 -40h-4q-68 0 -119 40t-67 103l-207 807l-205 -807q-14 -61 -67 -102t-117 -41h-4q-66 0 -119 40t-72 103l-307 1069q-6 18 -6 39q0 61 44 107q45 46 105 45q60 0 102 -33t56 -86l217 -893l234 893q12 47 52 77
q40 29 89 29t87 -30t50 -76l234 -893l213 891q12 53 56 87t106 34q62 1 105 -45q44 -46 44 -107zM1200 1570q0 -24 -19 -46t-51 -23q-32 0 -51 27l-139 170l-137 -170q-20 -25 -50 -25q-30 -1 -52 19q-42 37 -9 84l82 127q56 90 164 90t168 -90l84 -127q10 -12 10 -36z" />
    <glyph glyph-name="wcircumflex" unicode="&#x175;" horiz-adv-x="1574" 
d="M1536 877q0 -18 -6 -37l-221 -725q-17 -55 -65 -91t-105 -36h-4q-59 0 -108 35q-48 35 -64 92l-175 559l-174 -559q-16 -55 -65 -91t-107 -36h-4q-57 0 -106 36t-66 91l-221 725q-6 18 -6 52t37 72t87 38t85 -26t45 -67l162 -585l186 573q16 47 57 76q40 29 90 29t91 -30
t55 -75l186 -573l162 585q10 41 46 67t85 26t86 -38q37 -36 37 -87zM1047 1193q1 -25 -19 -47t-52 -22t-50 27l-140 170l-137 -170q-23 -25 -51 -25t-50 20t-22 42q0 24 13 41l82 127q57 90 164 90t167 -90l84 -127q11 -12 11 -36z" />
    <glyph glyph-name="Ycircumflex" unicode="&#x176;" horiz-adv-x="1320" 
d="M1223 1250q0 -46 -21 -79l-395 -612v-428q0 -59 -43 -101q-42 -42 -102 -42t-103 43t-43 100v428l-399 615q-21 28 -21 74t40 87t109 41t109 -65l308 -494l301 492q41 67 111 67t110 -40t39 -86zM920 1570q0 -24 -20 -46t-51 -23q-32 0 -50 27l-140 170l-137 -170
q-24 -25 -52 -25q-28 -1 -50 19t-21 44q0 24 13 40l82 127q56 90 164 90t167 -90l84 -127q11 -12 11 -36z" />
    <glyph glyph-name="ycircumflex" unicode="&#x177;" horiz-adv-x="1050" 
d="M1006 885q0 -40 -9 -58l-399 -989q-96 -240 -340 -239q-70 -1 -115 31t-45 82t35 84t73 34q115 0 146 72l37 84l-338 843q-8 18 -8 56q0 37 37 77t85 40t82 -24t48 -63l229 -614l230 614q14 39 49 63t83 24t84 -39q36 -38 36 -78zM784 1193q0 -25 -19 -47t-51 -22t-50 27
l-140 170l-137 -170q-23 -25 -51 -25t-50 20t-22 42q0 24 12 41l82 127q56 90 164 90t168 -90l84 -127q10 -12 10 -36z" />
    <glyph glyph-name="Ydieresis" unicode="&#x178;" horiz-adv-x="1320" 
d="M1223 1250q0 -46 -21 -79l-395 -612v-428q0 -59 -43 -101q-42 -42 -102 -42t-103 43t-43 100v428l-399 615q-21 28 -21 74t40 87t109 41t109 -65l308 -494l301 492q41 67 111 67t110 -40t39 -86zM1018 1593q0 -57 -41 -98t-98 -41t-99 41q-41 41 -41 98t41 97
q40 40 98 41q58 -1 99 -41t41 -97zM584 1593q0 -57 -40 -98t-98 -41t-98 41q-41 41 -41 98t41 97t98 41q57 0 98 -40q40 -41 40 -98z" />
    <glyph glyph-name="Zacute" unicode="&#x179;" horiz-adv-x="1212" 
d="M1139 129q0 -53 -37 -91t-88 -38h-781q-63 0 -111 47t-48 109t30 104l627 850h-530q-53 0 -90 38t-37 91t38 90t89 37h772q59 0 104 -46t45 -110t-35 -110l-620 -844h547q51 0 88 -37t37 -90zM846 1708q0 -33 -25 -55l-190 -168q-20 -17 -45 -17t-45 20q-21 20 -21 47
q0 28 19 46l170 182q20 25 53 25q32 0 58 -24t26 -56z" />
    <glyph glyph-name="zacute" unicode="&#x17a;" horiz-adv-x="980" 
d="M795 227q45 -1 77 -33t33 -79q0 -47 -33 -81t-77 -34h-592q-51 0 -90 39t-39 88t28 88l430 547h-346q-47 0 -80 34q-32 34 -32 81t34 79t78 33h584q47 0 86 -37t39 -88t-27 -84l-436 -553h363zM676 1446q32 0 58 -24t26 -57q0 -34 -25 -54l-190 -168q-20 -17 -45 -17
t-45 20q-21 20 -21 47q0 28 19 46l170 182q20 25 53 25z" />
    <glyph glyph-name="Zdotaccent" unicode="&#x17b;" horiz-adv-x="1212" 
d="M1139 129q0 -53 -37 -91t-88 -38h-781q-63 0 -111 47t-48 109t30 104l627 850h-530q-53 0 -90 38t-37 91t38 90t89 37h772q59 0 104 -46t45 -110t-35 -110l-620 -844h547q51 0 88 -37t37 -90zM733 1593q0 -57 -41 -98t-98 -41t-97 41t-40 98t41 99t97 41q56 1 97 -41
t41 -99z" />
    <glyph glyph-name="zdotaccent" unicode="&#x17c;" horiz-adv-x="980" 
d="M795 227q45 -1 77 -33t33 -79q0 -47 -33 -81t-77 -34h-592q-51 0 -90 39t-39 88t28 88l430 547h-346q-47 0 -80 34q-32 34 -32 81t34 79t78 33h584q47 0 86 -37t39 -88t-27 -84l-436 -553h363zM625 1251q0 -57 -41 -98q-42 -41 -98 -41t-97 40t-41 98t41 100t97 41
q56 0 98 -41q41 -42 41 -99z" />
    <glyph glyph-name="Zcaron" unicode="&#x17d;" horiz-adv-x="1212" 
d="M1139 129q0 -53 -37 -91t-88 -38h-781q-63 0 -111 47t-48 109t30 104l627 850h-530q-53 0 -90 38t-37 91t38 90t89 37h772q59 0 104 -46t45 -110t-35 -110l-620 -844h547q51 0 88 -37t37 -90zM792 1786q30 0 51 -20t21 -45q0 -26 -10 -38l-84 -127q-58 -90 -166 -90
t-166 90l-82 127q-12 16 -12 38q0 21 20 43t51 22q32 0 52 -25l137 -170l139 170q19 25 49 25z" />
    <glyph glyph-name="zcaron" unicode="&#x17e;" horiz-adv-x="980" 
d="M795 227q45 -1 77 -33t33 -79q0 -47 -33 -81t-77 -34h-592q-51 0 -90 39t-39 88t28 88l430 547h-346q-47 0 -80 34q-32 34 -32 81t34 79t78 33h584q47 0 86 -37t39 -88t-27 -84l-436 -553h363zM673 1444q30 0 51 -20t21 -45q0 -26 -10 -38l-84 -127q-59 -90 -167 -90
t-165 90l-81 127q-12 14 -12 37q0 22 18 44q20 22 52 22t52 -25l137 -170l140 170q18 25 48 25z" />
    <glyph glyph-name="florin" unicode="&#x192;" horiz-adv-x="929" 
d="M676 717q47 0 80 -34q32 -34 32 -82t-34 -81t-78 -33h-182l-158 -718q-10 -49 -50 -80t-95 -31t-99 44q-43 44 -43 101q0 8 4 29l144 655h-11q-47 0 -80 34q-32 34 -32 82t32 81q33 33 80 33h60l76 340q33 147 144 238q112 91 261 91q215 0 215 -139q0 -47 -29 -87
t-86 -40l-67 8q-55 0 -97 -36t-57 -99l-61 -276h131z" />
    <glyph glyph-name="AEacute" unicode="&#x1fc;" horiz-adv-x="1982" 
d="M930 487v588l-342 -588h342zM1909 129q0 -53 -37 -91t-88 -38h-690q-68 0 -116 48t-48 116v67h-481l-105 -180q-36 -65 -106 -65t-111 43t-41 92t20 84l621 1022q39 63 108 101t142 38h807q51 0 88 -38t37 -90t-37 -90t-88 -38h-561v-289h546q51 0 89 -38t36 -90
q0 -52 -36 -90t-89 -38h-546v-309h561q51 0 88 -37t37 -90zM1184 1823q34 1 58 -23q26 -24 26 -58t-25 -54l-190 -168q-20 -16 -45 -16t-45 18q-21 20 -21 48t19 46l169 182q20 25 54 25z" />
    <glyph glyph-name="aeacute" unicode="&#x1fd;" horiz-adv-x="1781" 
d="M762 442h-232q-90 0 -146 -32t-56 -96t56 -99t148 -35t161 62t69 166v34zM1248 807q-106 -1 -162 -67q-58 -66 -66 -152h450q-4 84 -60 152t-162 67zM1718 541q0 -57 -36 -95t-87 -36h-571q14 -96 84 -158t171 -64q101 0 178 39t135 -12q34 -29 34 -63t-14 -58
q-37 -57 -145 -88t-195 -31q-256 0 -381 181q-141 -180 -391 -181q-178 0 -306 84t-128 240t101 236t257 79h338v23q0 74 -65 119t-185 45t-225 -66q-25 -14 -55 -14t-61 29q-30 28 -30 64q0 109 183 163q127 37 233 37q260 0 346 -170q129 170 359 170q156 0 270 -88
t160 -244q26 -84 26 -141zM1022 1446q32 0 56 -24q26 -24 26 -57q0 -34 -25 -54l-190 -168q-20 -17 -45 -17t-45 20q-21 20 -21 47q0 28 19 46l170 182q23 25 55 25z" />
    <glyph glyph-name="Oslashacute" unicode="&#x1fe;" horiz-adv-x="1566" 
d="M1198 674q0 188 -98 309l-531 -694q94 -55 213 -56q186 0 301 127q115 126 115 314zM782 1130q-186 0 -300 -126t-114 -306q0 -178 81 -297l522 686q-90 43 -189 43zM1497 690q0 -318 -202 -516q-202 -199 -513 -199q-211 0 -376 97l-41 -54q-27 -32 -63 -32t-62 24
t-25 54q0 29 16 55l41 53q-202 199 -202 508t201 509q202 200 511 200q193 0 355 -84l30 38q25 31 62 31t63 -22t27 -52q0 -29 -16 -51l-29 -39q223 -202 223 -520zM864 1823q32 1 56 -23q26 -24 26 -58t-24 -54l-191 -168q-20 -16 -45 -16t-45 18q-20 20 -20 48t18 46
l170 182q23 25 55 25z" />
    <glyph glyph-name="oslashacute" unicode="&#x1ff;" horiz-adv-x="1175" 
d="M588 207q118 0 186 83t68 189t-41 178l-350 -411q53 -39 137 -39zM588 782q-117 0 -185 -83q-67 -83 -67 -186t35 -173l346 408q-57 34 -129 34zM204 -14q-26 0 -44 18t-19 43q0 25 15 39l43 51q-133 145 -133 361t142 366t380 150q166 0 289 -78l36 43q14 20 42 20
q29 0 49 -17q20 -18 20 -40t-14 -41l-37 -43q139 -145 139 -363t-143 -369t-381 -151q-174 0 -297 82l-43 -51q-18 -20 -44 -20zM667 1446q31 0 57 -24t26 -57q0 -34 -25 -54l-190 -168q-48 -38 -91 3q-20 19 -20 47t18 46l170 182q23 25 55 25z" />
    <glyph glyph-name="Scommaaccent" unicode="&#x218;" horiz-adv-x="1228" 
d="M754 -283q0 -162 -138 -278q-48 -38 -86 0q-14 17 -14 31q0 19 47 74t60 100q-8 -4 -43 -4t-66 32t-31 83q0 52 37 90t92 38q54 0 98 -45t44 -121zM1167 414q0 -197 -140 -318t-406 -121q-160 -1 -314 49q-231 74 -229 210q0 46 42 85t92 39t81 -22q154 -106 342 -107
q113 0 175 44q62 43 62 103t-58 97t-145 53t-189 47t-190 70q-87 39 -146 123q-58 84 -58 205q0 176 141 296t377 119q132 0 274 -40t195 -111q25 -31 25 -78t-45 -85t-93 -38t-81 21q-137 78 -301 78q-92 0 -144 -37q-52 -38 -51 -94q0 -103 197 -139t384 -121
q87 -40 145 -124t58 -204z" />
    <glyph glyph-name="scommaaccent" unicode="&#x219;" horiz-adv-x="976" 
d="M643 -283q0 -162 -137 -278q-48 -38 -86 0q-14 18 -14 34t47 71q47 56 59 100q-8 -4 -43 -4t-66 32t-31 83q0 52 38 90q37 38 92 38t98 -45t43 -121zM913 293q1 -139 -113 -228t-315 -90q-111 0 -233 35t-164 96q-18 25 -18 63t32 70q33 31 70 31t59 -14q137 -80 267 -80
q82 0 124 29t42 72t-44 67t-109 33q-65 11 -141 31t-142 49q-64 29 -108 91t-44 154q0 131 108 222q109 90 297 90q106 0 214 -33q163 -50 163 -139q0 -41 -31 -70t-65 -29t-55 13q-102 59 -224 59q-71 0 -113 -28q-42 -27 -42 -65q0 -67 149 -91q149 -23 285 -83
q66 -30 108 -96t43 -159z" />
    <glyph glyph-name="uni021A" unicode="&#x21a;" horiz-adv-x="1191" 
d="M741 -283q0 -162 -137 -278q-48 -38 -86 0q-14 17 -14 31q0 19 48 75q48 55 58 99q-8 -4 -42 -4t-66 32q-31 32 -31 83q0 52 37 90t92 38t98 -45t43 -121zM1153 1238q0 -52 -37 -90t-88 -38h-285v-977q0 -59 -43 -102t-103 -43t-103 43t-43 102v977h-285q-53 0 -90 38
t-37 91t38 90t89 37h862q51 0 88 -38t37 -90z" />
    <glyph glyph-name="uni021B" unicode="&#x21b;" horiz-adv-x="692" 
d="M492 -283q0 -162 -138 -278q-48 -38 -86 0q-14 17 -14 31q0 19 48 75q48 55 58 99q-8 -4 -42 -4t-66 32q-31 32 -31 83q0 52 37 90t92 38q54 0 98 -45t44 -121zM670 94q0 -119 -209 -119q-137 0 -209 70t-72 201v516h-63q-47 0 -80 34t-33 81t34 79t79 33h63v154
q0 53 38 91t93 38t93 -38t38 -91v-154h103q45 0 78 -34t33 -80q0 -45 -34 -79q-32 -34 -77 -34h-103v-447q0 -53 28 -81t62 -27h23q53 0 84 -32t31 -81z" />
    <glyph glyph-name="circumflex" unicode="&#x2c6;" horiz-adv-x="614" 
d="M565 1193q0 -25 -19 -47t-51 -22t-51 27l-139 170l-137 -170q-20 -25 -50 -25t-52 20t-21 42q0 24 12 41l82 127q57 90 165 90t167 -90l84 -127q10 -12 10 -36z" />
    <glyph glyph-name="caron" unicode="&#x2c7;" horiz-adv-x="614" 
d="M499 1444q30 0 51 -20t21 -45q0 -26 -10 -38l-84 -127q-59 -90 -167 -90t-165 90l-82 127q-12 14 -12 37q-1 22 19 44t51 22t53 -25l137 -170l140 170q18 25 48 25z" />
    <glyph glyph-name="breve" unicode="&#x2d8;" horiz-adv-x="718" 
d="M690 1259q0 -29 -18 -47q-132 -125 -312 -125t-311 125q-18 18 -18 46t22 51q48 48 111 0q82 -72 196 -72t195 74q27 23 57 23t55 -23q23 -23 23 -52z" />
    <glyph glyph-name="dotaccent" unicode="&#x2d9;" horiz-adv-x="356" 
d="M317 1251q0 -57 -41 -98t-97 -41t-97 40t-41 98t41 100t97 41q56 1 97 -41t41 -99z" />
    <glyph glyph-name="ring" unicode="&#x2da;" horiz-adv-x="428" 
d="M309 1304q1 40 -27 68t-67 27q-39 0 -68 -29q-29 -30 -29 -68t30 -67q28 -29 67 -29t67 29q27 29 27 69zM428 1302q0 -90 -62 -152t-150 -62t-152 62q-64 64 -64 152t63 154q63 64 151 64t152 -64q62 -64 62 -154z" />
    <glyph glyph-name="ogonek" unicode="&#x2db;" horiz-adv-x="397" 
d="M182 49q51 0 51 -47q0 -23 -20 -37q-84 -57 -84 -149q0 -45 22 -67q48 -48 114 5q34 27 60 27t42 -15t16 -38q0 -45 -59 -77t-133 -32t-133 46q-58 46 -58 138q0 135 135 230q20 16 47 16z" />
    <glyph glyph-name="tilde" unicode="&#x2dc;" horiz-adv-x="669" 
d="M666 1356q0 -72 -52 -147t-163 -74q-59 1 -103 35t-75 69q-32 35 -62 35q-51 0 -68 -74q-5 -29 -29 -47t-51 -18t-43 19t-16 46q0 72 52 147t165 74q57 0 101 -35q44 -34 74 -68q32 -34 63 -34q51 0 67 72q6 29 30 47t50 18t44 -19q16 -19 16 -46z" />
    <glyph glyph-name="hungarumlaut" unicode="&#x2dd;" horiz-adv-x="692" 
d="M531 1444q41 0 63 -24t22 -55q0 -30 -14 -46l-133 -168q-20 -25 -50 -25q-29 0 -51 18t-22 40t10 39l111 182q23 39 64 39zM226 1444q40 0 62 -24t23 -55q0 -30 -14 -46l-135 -168q-18 -25 -48 -25t-50 20t-21 40q0 22 8 37l111 182q24 39 64 39z" />
    <glyph glyph-name="uni0312" unicode="&#x312;" horiz-adv-x="0" 
d="M133 1262q0 162 137 278q20 16 45 16t41 -16q24 -31 4 -61q-6 -8 -44 -53t-52 -91q8 4 43 4q35 1 66 -31t31 -84t-38 -90q-36 -38 -91 -38t-99 45q-43 45 -43 121z" />
    <glyph glyph-name="uni0326" unicode="&#x326;" horiz-adv-x="0" 
d="M403 -283q0 -162 -137 -278q-48 -38 -86 0q-14 17 -14 31q0 19 48 75q48 55 58 99q-8 -4 -42 -4t-66 32q-31 32 -31 83q0 52 37 90t92 38t98 -45t43 -121z" />
    <glyph glyph-name="Delta" unicode="&#x394;" horiz-adv-x="1400" 
d="M401 256h598l-299 819zM1358 113q0 -45 -33 -79t-80 -34h-1091q-47 0 -80 34t-33 68t8 52l414 1071q27 69 89 111t134 42q80 8 152 -35t100 -118l412 -1071q8 -29 8 -41z" />
    <glyph glyph-name="Omega" unicode="&#x3a9;" horiz-adv-x="1566" 
d="M1497 742q0 -297 -278 -486h131q51 0 88 -38t37 -90t-37 -90t-88 -38h-314q-55 0 -97 42t-42 97q0 93 96 153q97 60 151 164t54 228q0 180 -106 312t-310 132t-308 -132q-105 -132 -105 -312q0 -121 55 -226q55 -104 149 -162t95 -157q0 -57 -41 -98t-97 -41h-309
q-53 0 -90 37t-37 90t37 91t90 38h129q-280 190 -280 486t200 472q200 174 513 174q312 0 513 -174q201 -175 201 -472z" />
    <glyph glyph-name="mu" unicode="&#x3bc;" horiz-adv-x="1214" 
d="M1188 89q0 -48 -33 -82t-105 -34t-143 42q-72 42 -98 137q-45 -78 -118 -127t-166 -49t-136 57v-295q0 -53 -38 -90t-92 -37t-92 37t-38 90v1136q0 52 38 90t93 38t92 -38t37 -90v-485q0 -184 184 -184q133 0 224 114v555q0 52 38 90t93 38t92 -38t37 -90v-577
q0 -66 65 -95q66 -29 66 -113z" />
    <glyph glyph-name="pi" unicode="&#x3c0;" horiz-adv-x="1292" 
d="M1178 989q46 0 78 -34t32 -80q0 -45 -33 -79t-77 -34h-66v-645q0 -53 -38 -91t-93 -38t-93 38t-38 91v645h-408v-645q0 -53 -38 -91t-93 -38t-93 38t-38 91v645h-63q-47 0 -80 34t-33 81t34 79t79 33h1061z" />
    <glyph glyph-name="Wgrave" unicode="&#x1e80;" horiz-adv-x="1880" 
d="M1837 1239q0 -23 -6 -41l-305 -1067q-18 -63 -72 -103t-117 -40h-4q-68 0 -119 40t-67 103l-207 807l-205 -807q-14 -61 -67 -102t-117 -41h-4q-66 0 -119 40t-72 103l-307 1069q-6 18 -6 39q0 61 44 107q45 46 105 45q60 0 102 -33t56 -86l217 -893l234 893q12 47 52 77
q40 29 89 29t87 -30t50 -76l234 -893l213 891q12 53 56 87t106 34q62 1 105 -45q44 -46 44 -107zM1051 1571q-1 -27 -21 -47t-45 -20t-45 16l-190 168q-25 22 -25 54t24 56q25 24 57 25q32 0 56 -25l170 -182q19 -18 19 -45z" />
    <glyph glyph-name="wgrave" unicode="&#x1e81;" horiz-adv-x="1574" 
d="M1536 877q0 -18 -6 -37l-221 -725q-17 -55 -65 -91t-105 -36h-4q-59 0 -108 35q-48 35 -64 92l-175 559l-174 -559q-16 -55 -65 -91t-107 -36h-4q-57 0 -106 36t-66 91l-221 725q-6 18 -6 52t37 72t87 38t85 -26t45 -67l162 -585l186 573q16 47 57 76q40 29 90 29t91 -30
t55 -75l186 -573l162 585q10 41 46 67t85 26t86 -38q37 -36 37 -87zM899 1194q0 -27 -20 -47q-19 -21 -45 -21t-46 17l-190 168q-25 20 -25 53q0 34 24 58q25 24 57 24t57 -25l170 -182q18 -18 18 -45z" />
    <glyph glyph-name="Wacute" unicode="&#x1e82;" horiz-adv-x="1880" 
d="M1837 1239q0 -23 -6 -41l-305 -1067q-18 -63 -72 -103t-117 -40h-4q-68 0 -119 40t-67 103l-207 807l-205 -807q-14 -61 -67 -102t-117 -41h-4q-66 0 -119 40t-72 103l-307 1069q-6 18 -6 39q0 61 44 107q45 46 105 45q60 0 102 -33t56 -86l217 -893l234 893q12 47 52 77
q40 29 89 29t87 -30t50 -76l234 -893l213 891q12 53 56 87t106 34q62 1 105 -45q44 -46 44 -107zM1069 1823q33 1 59 -23t25 -58q0 -34 -25 -54l-190 -168q-20 -16 -45 -16t-45 18q-20 20 -20 48t18 46l170 182q20 25 53 25z" />
    <glyph glyph-name="wacute" unicode="&#x1e83;" horiz-adv-x="1574" 
d="M1536 877q0 -18 -6 -37l-221 -725q-17 -55 -65 -91t-105 -36h-4q-59 0 -108 35q-48 35 -64 92l-175 559l-174 -559q-16 -55 -65 -91t-107 -36h-4q-57 0 -106 36t-66 91l-221 725q-6 18 -6 52t37 72t87 38t85 -26t45 -67l162 -585l186 573q16 47 57 76q40 29 90 29t91 -30
t55 -75l186 -573l162 585q10 41 46 67t85 26t86 -38q37 -36 37 -87zM918 1446q34 0 58 -24q25 -24 25 -57q0 -34 -24 -54l-191 -168q-20 -17 -45 -17t-45 20t-20 47q0 28 18 46l170 182q20 25 54 25z" />
    <glyph glyph-name="Wdieresis" unicode="&#x1e84;" horiz-adv-x="1880" 
d="M1837 1239q0 -23 -6 -41l-305 -1067q-18 -63 -72 -103t-117 -40h-4q-68 0 -119 40t-67 103l-207 807l-205 -807q-14 -61 -67 -102t-117 -41h-4q-66 0 -119 40t-72 103l-307 1069q-6 18 -6 39q0 61 44 107q45 46 105 45q60 0 102 -33t56 -86l217 -893l234 893q12 47 52 77
q40 29 89 29t87 -30t50 -76l234 -893l213 891q12 53 56 87t106 34q62 1 105 -45q44 -46 44 -107zM1294 1628q0 -57 -41 -98t-98 -41t-98 41t-41 98t41 97t98 40t98 -40t41 -97zM860 1628q0 -57 -40 -98t-98 -41t-98 40t-40 98t41 98t98 40t97 -40t40 -97z" />
    <glyph glyph-name="wdieresis" unicode="&#x1e85;" horiz-adv-x="1574" 
d="M1536 877q0 -18 -6 -37l-221 -725q-17 -55 -65 -91t-105 -36h-4q-59 0 -108 35q-48 35 -64 92l-175 559l-174 -559q-16 -55 -65 -91t-107 -36h-4q-57 0 -106 36t-66 91l-221 725q-6 18 -6 52t37 72t87 38t85 -26t45 -67l162 -585l186 573q16 47 57 76q40 29 90 29t91 -30
t55 -75l186 -573l162 585q10 41 46 67t85 26t86 -38q37 -36 37 -87zM1143 1251q0 -57 -41 -98t-98 -41t-99 41q-41 41 -41 98t41 97t99 41q58 -1 98 -41q41 -40 41 -97zM709 1251q0 -57 -40 -98q-41 -41 -99 -41t-98 40t-40 98t41 98t98 41q57 0 98 -40q40 -41 40 -98z" />
    <glyph glyph-name="Ygrave" unicode="&#x1ef2;" horiz-adv-x="1320" 
d="M1223 1250q0 -46 -21 -79l-395 -612v-428q0 -59 -43 -101q-42 -42 -102 -42t-103 43t-43 100v428l-399 615q-21 28 -21 74t40 87t109 41t109 -65l308 -494l301 492q41 67 111 67t110 -40t39 -86zM772 1571q0 -27 -20 -47t-45 -20t-45 16l-191 168q-25 22 -25 54t24 56
t56 25q32 0 58 -25l170 -182q18 -18 18 -45z" />
    <glyph glyph-name="ygrave" unicode="&#x1ef3;" horiz-adv-x="1050" 
d="M1006 885q0 -40 -9 -58l-399 -989q-96 -240 -340 -239q-70 -1 -115 31t-45 82t35 84t73 34q115 0 146 72l37 84l-338 843q-8 18 -8 56q0 37 37 77t85 40t82 -24t48 -63l229 -614l230 614q14 39 49 63t83 24t84 -39q36 -38 36 -78zM637 1194q-1 -27 -21 -47
q-20 -21 -45 -21t-45 17l-190 168q-25 20 -25 53q0 34 24 58q25 24 57 24t57 -25l169 -182q19 -18 19 -45z" />
    <glyph glyph-name="endash" unicode="&#x2013;" horiz-adv-x="1214" 
d="M1057 606q45 0 77 -32t31 -77q1 -46 -31 -79t-77 -33h-899q-45 0 -77 33t-32 79q0 45 32 77t77 32h899z" />
    <glyph glyph-name="emdash" unicode="&#x2014;" horiz-adv-x="1705" 
d="M1548 606q45 0 77 -32t32 -77q0 -46 -32 -79t-77 -33h-1390q-45 0 -77 33t-32 79q0 45 32 77t77 32h1390z" />
    <glyph glyph-name="quoteleft" unicode="&#x2018;" horiz-adv-x="522" 
d="M285 1110q59 0 99 -40t40 -108q0 -67 -47 -115t-118 -48t-125 56t-54 153q0 197 166 346q20 20 55 20t54 -22t19 -48t-18 -40q-90 -74 -110 -160q18 6 39 6z" />
    <glyph glyph-name="quoteright" unicode="&#x2019;" horiz-adv-x="522" 
d="M440 1178q0 -197 -166 -347q-20 -20 -54 -20t-54 22q-20 23 -20 47t18 42q90 74 110 159q-18 -6 -38 -6q-59 0 -100 41q-40 41 -40 108q0 66 47 114t118 48t125 -56t54 -152z" />
    <glyph glyph-name="quotesinglbase" unicode="&#x201a;" horiz-adv-x="524" 
d="M440 100q0 -197 -166 -346q-20 -20 -54 -20t-54 22t-20 46t18 42q90 74 110 160q-18 -6 -38 -6q-59 0 -100 41q-40 41 -40 107t47 115q47 48 118 48q71 -1 125 -57t54 -152z" />
    <glyph glyph-name="quotedblleft" unicode="&#x201c;" horiz-adv-x="940" 
d="M700 1110q60 0 100 -40t40 -108q0 -67 -47 -115t-118 -48t-125 56t-54 153q0 197 166 346q20 20 54 20t54 -22t20 -48t-18 -40q-90 -74 -110 -160q18 6 38 6zM285 1110q59 0 99 -40t40 -108q0 -67 -47 -115t-118 -48t-125 56t-54 153q0 197 166 346q20 20 55 20t54 -22
t19 -48t-18 -40q-90 -74 -110 -160q18 6 39 6z" />
    <glyph glyph-name="quotedblright" unicode="&#x201d;" horiz-adv-x="940" 
d="M858 1178q0 -197 -166 -347q-22 -20 -56 -20t-53 20q-19 21 -19 47t18 44q90 74 110 159q-18 -6 -39 -6q-59 0 -99 41t-40 108q0 66 47 114t118 48t125 -56t54 -152zM442 1178q0 -197 -166 -347q-22 -20 -56 -20t-53 22q-19 23 -19 47t18 42q90 74 110 159q-18 -6 -38 -6
q-59 0 -100 41q-40 41 -40 108q0 66 47 114t118 48t125 -56t54 -152z" />
    <glyph glyph-name="quotedblbase" unicode="&#x201e;" horiz-adv-x="940" 
d="M858 100q0 -197 -166 -346q-22 -20 -56 -20t-53 22t-19 46t18 42q90 74 110 160q-18 -6 -39 -6q-59 0 -99 41t-40 107t47 115q47 48 118 48q71 -1 125 -57t54 -152zM440 100q0 -197 -166 -346q-22 -20 -56 -20t-53 22t-19 46t18 42q90 74 110 160q-18 -6 -38 -6
q-59 0 -100 41q-40 41 -40 107t47 115q47 48 118 48q71 -1 125 -57t54 -152z" />
    <glyph glyph-name="dagger" unicode="&#x2020;" horiz-adv-x="567" 
d="M539 1134q-1 -26 -19 -45t-43 -18l-133 6l6 -352q0 -29 -19 -48t-49 -19t-48 18q-18 20 -19 49l8 352l-133 -6q-25 -3 -43 17t-18 46t18 43t43 17l133 -4l-6 141q-2 29 17 48q18 19 48 19t50 -20t18 -47l-6 -141l133 4q25 0 43 -17t19 -43z" />
    <glyph glyph-name="daggerdbl" unicode="&#x2021;" horiz-adv-x="567" 
d="M539 624q-1 -26 -19 -43t-43 -18l-133 4l6 -143q2 -27 -20 -47q-22 -21 -50 -21t-48 20t-17 48l6 143l-131 -4q-25 -3 -43 17t-18 46t18 44t43 16l131 -6v397l-131 -6q-25 -3 -43 17t-18 46t18 43t43 17l131 -4l-6 141q-2 29 18 48q19 19 49 19t50 -20t18 -47l-6 -141
l133 4q25 0 43 -18t18 -44t-18 -45q-18 -18 -43 -16l-133 6v-397l133 6q25 2 43 -17t19 -45z" />
    <glyph glyph-name="bullet" unicode="&#x2022;" horiz-adv-x="733" 
d="M612 497q0 -101 -72 -172t-171 -71q-100 0 -172 71t-72 172t71 172t173 71t173 -71q70 -71 70 -172z" />
    <glyph glyph-name="ellipsis" unicode="&#x2026;" horiz-adv-x="1572" 
d="M1309 309q68 0 117 -49t49 -116q1 -68 -49 -116t-118 -48t-115 49q-48 49 -48 115t48 116q48 49 116 49zM950 144q0 -68 -49 -116t-117 -48t-116 49t-47 115q0 66 48 116q47 49 115 49t117 -49t49 -116zM426 144q0 -68 -49 -116t-117 -48t-116 49t-48 115t48 116
q48 49 116 49t117 -49t49 -116z" />
    <glyph glyph-name="perthousand" unicode="&#x2030;" horiz-adv-x="2297" 
d="M1896 119q72 0 118 53t46 143q0 89 -46 143t-118 54t-116 -53t-45 -145q1 -92 45 -143q44 -52 116 -52zM1151 119q72 0 118 53t46 143q0 89 -46 143t-118 54t-117 -53t-45 -145t45 -143q45 -52 117 -52zM1896 657q154 0 251 -98q97 -99 97 -245t-96 -242
q-98 -96 -252 -96t-250 96t-96 242t96 244t250 99zM1151 657q154 0 251 -98q97 -99 97 -245t-97 -242t-251 -96t-250 96t-96 242t96 244t250 99zM399 850q72 0 117 52t45 142t-45 144t-117 53q-73 0 -117 -53q-44 -54 -44 -144t44 -142t117 -52zM1249 1318q0 -22 -10 -38
l-807 -1264q-18 -28 -50 -28t-51 18q-38 36 -9 80l806 1264q18 28 50 28t51 -19q20 -19 20 -41zM400 707q-154 0 -250 95t-96 241q0 147 95 245q96 98 251 98t251 -98q97 -98 97 -244t-96 -242q-96 -95 -252 -95z" />
    <glyph glyph-name="guilsinglleft" unicode="&#x2039;" horiz-adv-x="690" 
d="M526 210q0 -36 -24 -65t-64 -29q-39 0 -63 29l-205 230q-45 51 -45 121t47 122l203 226q25 26 61 26t63 -26t27 -61q0 -36 -20 -58l-205 -227l205 -230q20 -22 20 -58z" />
    <glyph glyph-name="guilsinglright" unicode="&#x203a;" horiz-adv-x="690" 
d="M565 496q0 -70 -45 -121l-205 -230q-25 -29 -61 -29t-65 28q-27 28 -27 64t22 60l205 230l-205 227q-20 23 -20 57t25 61q26 27 64 27t62 -26l203 -226q47 -52 47 -122z" />
    <glyph glyph-name="fraction" unicode="&#x2044;" horiz-adv-x="325" 
d="M631 1318q0 -22 -10 -38l-807 -1264q-18 -28 -50 -28t-52 18q-19 18 -19 40t10 40l807 1264q18 28 49 28t51 -19t21 -41z" />
    <glyph glyph-name="Euro" unicode="&#x20ac;" horiz-adv-x="1452" 
d="M844 1389q309 0 497 -226q29 -35 29 -85t-41 -88t-101 -38t-104 47q-125 131 -280 131q-125 0 -223 -60t-154 -165h440q29 -1 51 -23t23 -54q0 -32 -23 -54t-51 -22h-487q-4 -23 -4 -58t4 -76h485q31 0 53 -24t23 -54q0 -32 -23 -55t-53 -22h-440q53 -105 153 -167
t226 -63q164 0 280 129q42 48 104 48t101 -38t39 -88t-29 -81q-186 -227 -495 -228q-250 1 -440 133t-257 355h-41q-32 -1 -54 23t-22 56t24 54q22 22 52 22h13q-2 20 -2 66t2 68h-13q-32 0 -54 24t-22 54t23 53t53 22h44q68 221 256 353t438 131z" />
    <glyph glyph-name="trademark" unicode="&#x2122;" horiz-adv-x="929" 
d="M358 1339q0 -10 -7 -18t-17 -8h-115v-383q0 -27 -29 -27t-28 27v383h-115q-10 0 -17 8t-7 18q0 11 7 19t17 8h287q10 0 17 -8t7 -19zM858 1333v-403q0 -27 -29 -27t-28 27v358l-142 -344q-6 -16 -20 -16t-21 16l-141 344v-358q-1 -27 -29 -27t-28 27v403q0 17 14 31
t41 14t39 -28l125 -312l123 310q14 30 40 30t42 -13q14 -14 14 -32z" />
    <glyph glyph-name="partialdiff" unicode="&#x2202;" horiz-adv-x="1175" 
d="M842 459q0 109 -68 181t-186 71q-118 0 -186 -71q-66 -72 -66 -182t66 -180t186 -71q118 -1 186 71t68 181zM1112 525q0 -249 -140 -399t-381 -151q-241 1 -383 141t-142 342t125 343q126 141 326 141t302 -162q-106 256 -334 406q-55 35 -55 89t34 87t79 33t92 -31
q211 -146 344 -368t133 -471z" />
    <glyph glyph-name="product" unicode="&#x220f;" horiz-adv-x="1613" 
d="M1575 1238q0 -52 -37 -90t-88 -38h-100v-1163q0 -59 -43 -101t-103 -43q-60 0 -104 42q-43 42 -43 102v1163h-500v-1163q0 -59 -43 -101t-103 -43q-60 0 -104 42q-43 42 -43 102v1163h-98q-53 0 -90 38t-37 91t38 90t89 37h1284q51 0 88 -38t37 -90z" />
    <glyph glyph-name="summation" unicode="&#x2211;" horiz-adv-x="1200" 
d="M1118 -57q0 -53 -37 -90t-88 -37h-745q-68 0 -117 50t-49 121t41 124l385 493l-383 467q-41 51 -41 123t47 122t117 50h745q51 0 88 -38t37 -90t-37 -90t-88 -38h-534l305 -377q45 -57 45 -128t-45 -128l-320 -405h549q51 0 88 -38t37 -91z" />
    <glyph glyph-name="minus" unicode="&#x2212;" horiz-adv-x="1046" 
d="M922 772q33 0 55 -22t22 -58q-1 -34 -23 -58t-54 -24h-795q-35 0 -57 24t-23 58q0 34 24 58q24 23 56 22h795z" />
    <glyph glyph-name="radical" unicode="&#x221a;" horiz-adv-x="1396" 
d="M1221 1378q39 0 65 -26t25 -54q0 -28 -4 -38l-455 -1199q-29 -74 -113 -73q-35 0 -65 22t-43 53l-205 555l-207 -73q-9 -4 -33 -4q-24 -1 -48 23t-23 59q0 55 53 75l215 74q23 8 63 8t85 -30q44 -30 63 -78l151 -412l390 1061q23 57 86 57z" />
    <glyph glyph-name="infinity" unicode="&#x221e;" horiz-adv-x="1413" 
d="M1180 686q0 92 -52 148t-131 55q-78 1 -132 -57t-85 -146q31 -88 85 -144t132 -56q79 0 131 54t52 146zM633 686q-31 88 -84 145t-132 57t-132 -54t-53 -146t54 -148t132 -56t131 56q53 58 84 146zM1354 686q0 -147 -86 -255t-256 -107q-98 0 -179 57t-126 147
q-43 -90 -125 -147t-183 -57q-168 0 -254 108t-86 255q0 146 86 254t254 108q99 1 181 -57t127 -148q45 90 126 147t179 58q170 0 256 -108t86 -255z" />
    <glyph glyph-name="integral" unicode="&#x222b;" horiz-adv-x="763" 
d="M649 1573q45 -1 69 -25t23 -62q1 -38 -23 -63t-69 -24h-45q-53 0 -90 -42t-37 -110v-1126q0 -145 -94 -235t-223 -91h-43q-45 0 -70 25q-25 24 -25 62t25 63t70 24h43q53 0 91 43t38 111v1122q0 147 93 237t222 91h45z" />
    <glyph glyph-name="approxequal" unicode="&#x2248;" horiz-adv-x="1032" 
d="M981 526q0 -36 -24 -58t-42 -22t-59 12t-123 11q-82 0 -204 -53t-240 -54q-238 0 -238 105q0 35 24 57t42 23q17 0 59 -11q144 -38 328 41q123 52 239 52q238 -1 238 -103zM981 901q0 -35 -24 -57t-42 -23q-17 0 -57 11q-40 12 -124 12t-205 -53q-122 -53 -240 -54
q-238 0 -238 105q0 36 24 58t42 22q17 0 59 -11t124 -11t204 51q123 52 239 53q238 -1 238 -103z" />
    <glyph glyph-name="notequal" unicode="&#x2260;" horiz-adv-x="1032" 
d="M985 490q-1 -34 -23 -56t-55 -22h-487l-127 -203q-18 -29 -50 -29q-33 0 -53 20t-20 40q0 22 10 39l84 133h-139q-33 0 -55 24t-23 57q0 35 23 57t55 21h242l143 224h-383q-33 1 -57 25t-23 58q0 34 24 58t56 22h485l127 199q19 29 51 29t51 -22t19 -42t-8 -35l-82 -129
h135q33 0 57 -24t24 -59q0 -33 -24 -57t-57 -23h-237l-146 -224h385q33 0 56 -23q22 -24 22 -58z" />
    <glyph glyph-name="lessequal" unicode="&#x2264;" horiz-adv-x="1032" 
d="M907 0h-782q-33 0 -55 24t-23 58q0 34 23 56t55 22h782q33 0 55 -22t24 -57q0 -33 -24 -57t-55 -24zM983 363q0 -47 -27 -71t-51 -24t-41 6l-739 330q-78 35 -78 122t78 122l739 332q16 6 42 6t52 -25t25 -73q0 -48 -51 -70l-686 -293l686 -291q51 -23 51 -71z" />
    <glyph glyph-name="greaterequal" unicode="&#x2265;" horiz-adv-x="1032" 
d="M907 160q33 0 55 -22t23 -57q-1 -33 -23 -57t-55 -24h-784q-33 0 -55 24t-23 58q0 34 23 56t55 22h784zM985 726q0 -87 -78 -122l-739 -330q-14 -6 -40 -6t-52 25t-27 71q0 46 51 70l686 291l-686 293q-53 23 -53 80q-2 40 26 64t53 24t42 -6l739 -332q78 -35 78 -122z
" />
    <glyph glyph-name="lozenge" unicode="&#x25ca;" horiz-adv-x="768" 
d="M113 684l272 -600l270 600l-272 598zM707 677q0 -44 -21 -87l-272 -572q-8 -18 -30 -18t-30 18l-270 570q-18 37 -23 96q0 49 23 94l270 570q8 18 30 18t30 -18l272 -570q21 -57 21 -101z" />
    <glyph glyph-name="uniF8FF" unicode="&#xf8ff;" horiz-adv-x="1366" 
d="M1186 314q0 56 -39 96t-94 41h-135v-136q0 -57 38 -97t96 -40q56 0 95 40t39 96zM449 451h-138q-55 0 -94 -40q-39 -41 -39 -97t39 -96t95 -40t97 40q40 40 40 97v136zM543 823v-280h280v280h-280zM1053 915q55 1 94 41t39 96t-39 96t-95 40t-96 -40t-38 -95v-138h135z
M449 915v138q0 55 -39 95q-40 40 -96 40t-96 -40t-40 -96t40 -96t97 -41h134zM1280 315q0 -93 -67 -161t-161 -68t-161 68q-68 68 -68 161v136h-280v-136q0 -93 -68 -161t-162 -68q-95 0 -161 68t-66 162t67 160q67 67 160 67h136v280h-134q-93 0 -161 68t-68 162
q0 95 68 161t162 66t160 -67q67 -67 67 -160v-138h280v138q0 95 68 161t162 66q95 0 161 -67t66 -161t-67 -161q-67 -68 -160 -68h-135v-280h135q95 0 161 -67t66 -161z" />
    </font>
</defs>
</svg>
