<svg xmlns="http://www.w3.org/2000/svg" xmlns:xlink="http://www.w3.org/1999/xlink" viewBox="0 0 55 41"><defs><style>.cls-1{fill:none;}.cls-11,.cls-2,.cls-4,.cls-6,.cls-8{fill:#fff;}.cls-2{stroke:#034ea2;stroke-width:0.25px;}.cls-2,.cls-4{stroke-miterlimit:10;}.cls-3{fill:#034ea2;}.cls-4{stroke:#fff;stroke-width:0.55px;}.cls-5{clip-path:url(#clip-path);}.cls-7{fill:#afd136;}.cls-8{font-size:4.68px;letter-spacing:0.1em;}.cls-11,.cls-8{font-family:GothamRounded-Book, Gotham Rounded;}.cls-9{letter-spacing:0.04em;}.cls-10{letter-spacing:0.2em;}.cls-11{font-size:5.4px;}.cls-12{letter-spacing:-0.02em;}.cls-13{letter-spacing:0em;}</style><clipPath id="clip-path"><rect class="cls-1" x="14.35" y="10.58" width="27.27" height="3.9"/></clipPath></defs><title>Blueprint</title><g id="BLUEPRINT"><g id="Original"><path class="cls-2" d="M46.83,34.32l-18.59,6a2.44,2.44,0,0,1-1.6,0l-18.59-6A2.47,2.47,0,0,1,6.38,32V3A2.46,2.46,0,0,1,8.85.52H46A2.47,2.47,0,0,1,48.5,3V32A2.47,2.47,0,0,1,46.83,34.32Z"/><path class="cls-3" d="M46,33.71l-17.8,5.76a2.39,2.39,0,0,1-1.54,0L8.87,33.71a2.37,2.37,0,0,1-1.6-2.24V3.77A2.36,2.36,0,0,1,9.63,1.41H45.25a2.36,2.36,0,0,1,2.36,2.36v27.7A2.37,2.37,0,0,1,46,33.71Z"/><line class="cls-4" x1="6.86" y1="7.78" x2="48.02" y2="7.78"/><line class="cls-4" x1="6.86" y1="23.61" x2="48.02" y2="23.61"/><g id="Nutanix_CMYK_neg"><g class="cls-5"><g class="cls-5"><path class="cls-6" d="M34.93,11h-.64a.07.07,0,0,0-.07.07V14a.07.07,0,0,0,.07.07h.64A.07.07,0,0,0,35,14V11.06a.07.07,0,0,0-.07-.07"/><path class="cls-6" d="M40,13.64h-.13a0,0,0,1,1,0-.08h.34a0,0,0,1,1,0,.08H40V14A0,0,0,1,1,40,14Z"/><path class="cls-6" d="M40.3,13.6a0,0,0,0,1,0,0h0l0,0,.15.24.15-.24,0,0h0a0,0,0,0,1,0,0V14s0,0,0,0a0,0,0,0,1,0,0v-.3l-.12.18s0,0,0,0,0,0,0,0l-.12-.18V14a0,0,0,0,1,0,0s0,0,0,0Z"/><path class="cls-6" d="M22.68,11h-.54a.12.12,0,0,0-.12.11v2c0,.21-.29.28-.65.28h-.81c-.36,0-.66-.07-.66-.28v-2a.11.11,0,0,0-.11-.11h-.55a.12.12,0,0,0-.12.11v2.05a.82.82,0,0,0,.45.75,3,3,0,0,0,1.17.16h.44a3,3,0,0,0,1.18-.16.81.81,0,0,0,.44-.75V11.1a.11.11,0,0,0-.12-.11"/><path class="cls-6" d="M38.65,11s0,0,.05,0h.89a.07.07,0,0,1,.07.07.05.05,0,0,1,0,0l-1.31,1.14a.06.06,0,0,1-.1,0l-.45-.39a.08.08,0,0,1,0,0,.06.06,0,0,1,0-.06Z"/><path class="cls-6" d="M38.65,14s0,0,.05,0h.89a.07.07,0,0,0,.07-.07.05.05,0,0,0,0-.05L38.32,12.8a.06.06,0,0,0-.1,0l-.45.39a.08.08,0,0,0,0,0,.06.06,0,0,0,0,.06Z"/><path class="cls-7" d="M36.27,14.05h-1a.07.07,0,0,1-.07-.07.08.08,0,0,1,0-.05l1.57-1.36a.08.08,0,0,0,0-.05.11.11,0,0,0,0-.06l-1.56-1.36a.05.05,0,0,1,0,0,.07.07,0,0,1,.07-.07h1L38,12.47a.08.08,0,0,1,0,.06.08.08,0,0,1,0,.05Z"/><path class="cls-6" d="M25.13,11.74a.08.08,0,0,1,.08-.07h1.1a.12.12,0,0,0,.12-.12V11.1a.11.11,0,0,0-.12-.11H23.17a.12.12,0,0,0-.12.11v.45a.12.12,0,0,0,.12.12h1.11a.07.07,0,0,1,.07.07V14a.12.12,0,0,0,.12.11H25a.11.11,0,0,0,.12-.11Z"/><path class="cls-6" d="M18,12.9h0a0,0,0,0,0,.05-.05V11.1a.11.11,0,0,1,.12-.11h.54a.11.11,0,0,1,.12.11v2.55c0,.26-.1.37-.2.42a.72.72,0,0,1-.58-.13l-1.95-1.7-.11-.1h0a0,0,0,0,0,0,0V14a.11.11,0,0,1-.12.11H15.3a.11.11,0,0,1-.12-.11V11.4c0-.26.1-.37.2-.41a.65.65,0,0,1,.58.13l1.95,1.69.09.09"/><path class="cls-6" d="M33.1,12.9h0a0,0,0,0,0,0-.05V11.1A.12.12,0,0,1,33.3,11h.55a.12.12,0,0,1,.12.11v2.55a.42.42,0,0,1-.21.42.72.72,0,0,1-.58-.13l-1.94-1.7-.12-.1h0a0,0,0,0,0-.05,0V14a.11.11,0,0,1-.11.11h-.55a.12.12,0,0,1-.12-.11V11.4c0-.26.11-.37.2-.41a.65.65,0,0,1,.58.13L33,12.81l.1.09"/><rect class="cls-6" x="34.22" y="10.99" width="0.78" height="3.08" rx="0.12" ry="0.12"/><path class="cls-6" d="M30,14l-1.92-2.78h0a.46.46,0,0,0-.38-.2h0a.45.45,0,0,0-.37.2h0L25.4,14a.05.05,0,0,0,0,0,.08.08,0,0,0,.08.07h.7a.06.06,0,0,0,.06,0l.5-.72a.08.08,0,0,1,.07,0h1.83a.1.1,0,0,1,.07,0l.49.72a.09.09,0,0,0,.07,0H30A.07.07,0,0,0,30,14a.05.05,0,0,0,0,0m-1.9-1.37h-.79a0,0,0,0,1,0,0v0l.4-.57h.07l.39.57a0,0,0,0,1,0,0,0,0,0,0,1,0,0"/></g></g></g><text class="cls-8" transform="translate(17.82 19.96)">REA<tspan class="cls-9" x="11.6" y="0">D</tspan><tspan class="cls-10" x="15.46" y="0">Y</tspan></text><text class="cls-11" transform="translate(11.65 30.78)">B<tspan class="cls-12" x="3.9" y="0">L</tspan><tspan class="cls-13" x="7.13" y="0">UEPRINT</tspan></text></g><g id="Outlined"><path class="cls-2" d="M46.83,34.32l-18.59,6a2.44,2.44,0,0,1-1.6,0l-18.59-6A2.47,2.47,0,0,1,6.38,32V3A2.46,2.46,0,0,1,8.85.52H46A2.47,2.47,0,0,1,48.5,3V32A2.47,2.47,0,0,1,46.83,34.32Z"/><path class="cls-3" d="M46,33.71l-17.8,5.76a2.39,2.39,0,0,1-1.54,0L8.87,33.71a2.37,2.37,0,0,1-1.6-2.24V3.77A2.36,2.36,0,0,1,9.63,1.41H45.25a2.36,2.36,0,0,1,2.36,2.36v27.7A2.37,2.37,0,0,1,46,33.71Z"/><line class="cls-4" x1="6.86" y1="7.78" x2="48.02" y2="7.78"/><line class="cls-4" x1="6.86" y1="23.61" x2="48.02" y2="23.61"/><g id="Nutanix_CMYK_neg-2" data-name="Nutanix_CMYK_neg"><g class="cls-5"><g class="cls-5"><path class="cls-6" d="M34.93,11h-.64a.07.07,0,0,0-.07.07V14a.07.07,0,0,0,.07.07h.64A.07.07,0,0,0,35,14V11.06a.07.07,0,0,0-.07-.07"/><path class="cls-6" d="M40,13.64h-.13a0,0,0,1,1,0-.08h.34a0,0,0,1,1,0,.08H40V14A0,0,0,1,1,40,14Z"/><path class="cls-6" d="M40.3,13.6a0,0,0,0,1,0,0h0l0,0,.15.24.15-.24,0,0h0a0,0,0,0,1,0,0V14s0,0,0,0a0,0,0,0,1,0,0v-.3l-.12.18s0,0,0,0,0,0,0,0l-.12-.18V14a0,0,0,0,1,0,0s0,0,0,0Z"/><path class="cls-6" d="M22.68,11h-.54a.12.12,0,0,0-.12.11v2c0,.21-.29.28-.65.28h-.81c-.36,0-.66-.07-.66-.28v-2a.11.11,0,0,0-.11-.11h-.55a.12.12,0,0,0-.12.11v2.05a.82.82,0,0,0,.45.75,3,3,0,0,0,1.17.16h.44a3,3,0,0,0,1.18-.16.81.81,0,0,0,.44-.75V11.1a.11.11,0,0,0-.12-.11"/><path class="cls-6" d="M38.65,11s0,0,.05,0h.89a.07.07,0,0,1,.07.07.05.05,0,0,1,0,0l-1.31,1.14a.06.06,0,0,1-.1,0l-.45-.39a.08.08,0,0,1,0,0,.06.06,0,0,1,0-.06Z"/><path class="cls-6" d="M38.65,14s0,0,.05,0h.89a.07.07,0,0,0,.07-.07.05.05,0,0,0,0-.05L38.32,12.8a.06.06,0,0,0-.1,0l-.45.39a.08.08,0,0,0,0,0,.06.06,0,0,0,0,.06Z"/><path class="cls-7" d="M36.27,14.05h-1a.07.07,0,0,1-.07-.07.08.08,0,0,1,0-.05l1.57-1.36a.08.08,0,0,0,0-.05.11.11,0,0,0,0-.06l-1.56-1.36a.05.05,0,0,1,0,0,.07.07,0,0,1,.07-.07h1L38,12.47a.08.08,0,0,1,0,.06.08.08,0,0,1,0,.05Z"/><path class="cls-6" d="M25.13,11.74a.08.08,0,0,1,.08-.07h1.1a.12.12,0,0,0,.12-.12V11.1a.11.11,0,0,0-.12-.11H23.17a.12.12,0,0,0-.12.11v.45a.12.12,0,0,0,.12.12h1.11a.07.07,0,0,1,.07.07V14a.12.12,0,0,0,.12.11H25a.11.11,0,0,0,.12-.11Z"/><path class="cls-6" d="M18,12.9h0a0,0,0,0,0,.05-.05V11.1a.11.11,0,0,1,.12-.11h.54a.11.11,0,0,1,.12.11v2.55c0,.26-.1.37-.2.42a.72.72,0,0,1-.58-.13l-1.95-1.7-.11-.1h0a0,0,0,0,0,0,0V14a.11.11,0,0,1-.12.11H15.3a.11.11,0,0,1-.12-.11V11.4c0-.26.1-.37.2-.41a.65.65,0,0,1,.58.13l1.95,1.69.09.09"/><path class="cls-6" d="M33.1,12.9h0a0,0,0,0,0,0-.05V11.1A.12.12,0,0,1,33.3,11h.55a.12.12,0,0,1,.12.11v2.55a.42.42,0,0,1-.21.42.72.72,0,0,1-.58-.13l-1.94-1.7-.12-.1h0a0,0,0,0,0-.05,0V14a.11.11,0,0,1-.11.11h-.55a.12.12,0,0,1-.12-.11V11.4c0-.26.11-.37.2-.41a.65.65,0,0,1,.58.13L33,12.81l.1.09"/><rect class="cls-6" x="34.22" y="10.99" width="0.78" height="3.08" rx="0.12" ry="0.12"/><path class="cls-6" d="M30,14l-1.92-2.78h0a.46.46,0,0,0-.38-.2h0a.45.45,0,0,0-.37.2h0L25.4,14a.05.05,0,0,0,0,0,.08.08,0,0,0,.08.07h.7a.06.06,0,0,0,.06,0l.5-.72a.08.08,0,0,1,.07,0h1.83a.1.1,0,0,1,.07,0l.49.72a.09.09,0,0,0,.07,0H30A.07.07,0,0,0,30,14a.05.05,0,0,0,0,0m-1.9-1.37h-.79a0,0,0,0,1,0,0v0l.4-.57h.07l.39.57a0,0,0,0,1,0,0,0,0,0,0,1,0,0"/></g></g></g><path class="cls-6" d="M18.28,16.87a.2.2,0,0,1,.18-.19h1.23a1.31,1.31,0,0,1,.93.33.91.91,0,0,1,.26.65h0a1,1,0,0,1-.88.95l.82,1.05a.22.22,0,0,1,.06.13.2.2,0,0,1-.19.19.22.22,0,0,1-.17-.1l-.93-1.2h-.94V19.8a.19.19,0,0,1-.19.19.2.2,0,0,1-.18-.19Zm1.38,1.49c.49,0,.84-.26.84-.68h0c0-.4-.31-.64-.84-.64h-1v1.33Z"/><path class="cls-6" d="M22.14,19.78V16.87a.19.19,0,0,1,.18-.19h2a.18.18,0,0,1,.17.17.17.17,0,0,1-.17.17H22.51v1.12h1.64a.17.17,0,0,1,0,.34H22.51v1.15h1.87a.17.17,0,0,1,.17.16.17.17,0,0,1-.17.17H22.32A.18.18,0,0,1,22.14,19.78Z"/><path class="cls-6" d="M25.54,19.72l1.33-2.91a.25.25,0,0,1,.24-.16h0a.23.23,0,0,1,.23.16l1.33,2.91a.16.16,0,0,1,0,.09.18.18,0,0,1-.18.18.19.19,0,0,1-.18-.14L28,19.1H26.21l-.35.76a.18.18,0,0,1-.17.13.17.17,0,0,1-.17-.17A.2.2,0,0,1,25.54,19.72Zm2.32-1-.75-1.68-.76,1.68Z"/><path class="cls-6" d="M29.88,16.87a.2.2,0,0,1,.19-.19H31a1.63,1.63,0,0,1,1.74,1.63h0A1.64,1.64,0,0,1,31,20h-.95a.19.19,0,0,1-.19-.18ZM31,19.62a1.27,1.27,0,0,0,1.36-1.29h0A1.27,1.27,0,0,0,31,17h-.77v2.59Z"/><path class="cls-6" d="M34.75,18.68,33.53,17a.28.28,0,0,1,0-.13.2.2,0,0,1,.19-.18.23.23,0,0,1,.18.11l1.08,1.56L36,16.77a.23.23,0,0,1,.18-.11.19.19,0,0,1,.18.18.34.34,0,0,1,0,.14l-1.22,1.69V19.8a.19.19,0,1,1-.37,0Z"/><path class="cls-6" d="M12.19,27.21A.21.21,0,0,1,12.4,27h1.4a1.36,1.36,0,0,1,1,.33.86.86,0,0,1,.25.61h0a.93.93,0,0,1-.6.88.94.94,0,0,1,.81.91h0c0,.65-.55,1-1.37,1H12.4a.21.21,0,0,1-.21-.22Zm1.54,1.47c.51,0,.87-.23.87-.67h0c0-.37-.3-.62-.84-.62H12.61v1.3Zm.15,1.72c.57,0,.93-.26.93-.68h0c0-.41-.35-.65-1-.65H12.61V30.4Z"/><path class="cls-6" d="M16.08,27.19a.22.22,0,1,1,.43,0v3.2h2a.2.2,0,1,1,0,.39H16.29a.22.22,0,0,1-.21-.22Z"/><path class="cls-6" d="M19.26,29.2v-2a.22.22,0,1,1,.43,0v2c0,.82.43,1.28,1.15,1.28A1.09,1.09,0,0,0,22,29.2v-2a.22.22,0,1,1,.43,0v2a1.58,1.58,0,1,1-3.15,0Z"/><path class="cls-6" d="M23.42,30.56V27.21a.21.21,0,0,1,.21-.21H26a.19.19,0,0,1,.19.19.19.19,0,0,1-.19.2H23.84v1.29h1.89a.2.2,0,1,1,0,.39H23.84v1.32H26a.2.2,0,1,1,0,.39H23.63A.21.21,0,0,1,23.42,30.56Z"/><path class="cls-6" d="M27,27.21a.21.21,0,0,1,.21-.21h1.2c.85,0,1.42.45,1.42,1.2h0c0,.81-.68,1.24-1.49,1.24h-.92v1.14a.21.21,0,1,1-.42,0Zm1.36,1.85c.62,0,1-.34,1-.83v0c0-.54-.4-.82-1-.82h-1v1.67Z"/><path class="cls-6" d="M30.64,27.21a.22.22,0,0,1,.21-.21h1.42a1.46,1.46,0,0,1,1.07.38,1,1,0,0,1,.3.74h0a1.11,1.11,0,0,1-1,1.1l.94,1.21a.26.26,0,0,1,.07.16.23.23,0,0,1-.22.21.24.24,0,0,1-.2-.12l-1.06-1.38H31.07v1.28a.22.22,0,1,1-.43,0Zm1.59,1.72c.57,0,1-.29,1-.78h0c0-.47-.35-.75-1-.75H31.07v1.54Z"/><path class="cls-6" d="M34.58,27.19A.22.22,0,0,1,34.8,27a.21.21,0,0,1,.21.22v3.4a.21.21,0,0,1-.21.22.22.22,0,0,1-.22-.22Z"/><path class="cls-6" d="M36.12,27.19a.22.22,0,0,1,.21-.21h.06a.23.23,0,0,1,.21.13L38.9,30V27.18a.21.21,0,0,1,.21-.21.22.22,0,0,1,.21.21V30.6a.19.19,0,0,1-.2.2h0a.3.3,0,0,1-.22-.13l-2.34-3V30.6a.22.22,0,0,1-.22.21.21.21,0,0,1-.2-.21Z"/><path class="cls-6" d="M41.38,27.39H40.29a.19.19,0,0,1-.2-.19.2.2,0,0,1,.2-.2h2.62a.2.2,0,0,1,.2.2.19.19,0,0,1-.2.19H41.82v3.2a.22.22,0,0,1-.44,0Z"/></g></g></svg>