<svg xmlns="http://www.w3.org/2000/svg" xmlns:xlink="http://www.w3.org/1999/xlink" viewBox="0 0 55 41"><defs><style>.cls-1{fill:none;}.cls-10,.cls-2,.cls-4,.cls-5,.cls-8{fill:#fff;}.cls-2{stroke:#034ea2;stroke-width:0.25px;}.cls-2,.cls-4{stroke-miterlimit:10;}.cls-3{fill:#034ea2;}.cls-4{stroke:#fff;stroke-width:0.55px;}.cls-5{font-size:5.4px;letter-spacing:-0.01em;}.cls-10,.cls-5{font-family:GothamRounded-Book, Gotham Rounded;}.cls-6{letter-spacing:-0.1em;}.cls-7{clip-path:url(#clip-path);}.cls-9{fill:#afd136;}.cls-10{font-size:4.68px;letter-spacing:0.1em;}.cls-11{letter-spacing:0.04em;}.cls-12{letter-spacing:0.2em;}</style><clipPath id="clip-path"><rect class="cls-1" x="14.35" y="10.58" width="27.27" height="3.9"/></clipPath></defs><title>Integrated</title><g id="INTEGRATED"><g id="original"><path class="cls-2" d="M46.83,34.32l-18.59,6a2.44,2.44,0,0,1-1.6,0l-18.59-6A2.47,2.47,0,0,1,6.38,32V3A2.46,2.46,0,0,1,8.85.52H46A2.47,2.47,0,0,1,48.5,3V32A2.47,2.47,0,0,1,46.83,34.32Z"/><path class="cls-3" d="M46,33.71l-17.8,5.76a2.39,2.39,0,0,1-1.54,0L8.87,33.71a2.37,2.37,0,0,1-1.6-2.24V3.77A2.36,2.36,0,0,1,9.63,1.41H45.25a2.36,2.36,0,0,1,2.36,2.36v27.7A2.37,2.37,0,0,1,46,33.71Z"/><line class="cls-4" x1="6.86" y1="7.78" x2="48.02" y2="7.78"/><line class="cls-4" x1="6.86" y1="23.61" x2="48.02" y2="23.61"/><text class="cls-5" transform="translate(9.64 30.78)">INTEGR<tspan class="cls-6" x="20.77" y="0">A</tspan><tspan x="24.48" y="0">TED</tspan></text><g id="Nutanix_CMYK_neg"><g class="cls-7"><g class="cls-7"><path class="cls-8" d="M34.93,11h-.64a.07.07,0,0,0-.07.07V14a.07.07,0,0,0,.07.07h.64A.07.07,0,0,0,35,14V11.06a.07.07,0,0,0-.07-.07"/><path class="cls-8" d="M40,13.64h-.13a0,0,0,1,1,0-.08h.34a0,0,0,1,1,0,.08H40V14A0,0,0,1,1,40,14Z"/><path class="cls-8" d="M40.3,13.6a0,0,0,0,1,0,0h0l0,0,.15.24.15-.24,0,0h0a0,0,0,0,1,0,0V14s0,0,0,0a0,0,0,0,1,0,0v-.3l-.12.18s0,0,0,0,0,0,0,0l-.12-.18V14a0,0,0,0,1,0,0s0,0,0,0Z"/><path class="cls-8" d="M22.68,11h-.54a.12.12,0,0,0-.12.11v2c0,.21-.29.28-.65.28h-.81c-.36,0-.66-.07-.66-.28v-2a.11.11,0,0,0-.11-.11h-.55a.12.12,0,0,0-.12.11v2.05a.82.82,0,0,0,.45.75,3,3,0,0,0,1.17.16h.44a3,3,0,0,0,1.18-.16.81.81,0,0,0,.44-.75V11.1a.11.11,0,0,0-.12-.11"/><path class="cls-8" d="M38.65,11s0,0,.05,0h.89a.07.07,0,0,1,.07.07.05.05,0,0,1,0,0l-1.31,1.14a.06.06,0,0,1-.1,0l-.45-.39a.08.08,0,0,1,0,0,.06.06,0,0,1,0-.06Z"/><path class="cls-8" d="M38.65,14s0,0,.05,0h.89a.07.07,0,0,0,.07-.07.05.05,0,0,0,0-.05L38.32,12.8a.06.06,0,0,0-.1,0l-.45.39a.08.08,0,0,0,0,0,.06.06,0,0,0,0,.06Z"/><path class="cls-9" d="M36.27,14.05h-1a.07.07,0,0,1-.07-.07.08.08,0,0,1,0-.05l1.57-1.36a.08.08,0,0,0,0-.05.11.11,0,0,0,0-.06l-1.56-1.36a.05.05,0,0,1,0,0,.07.07,0,0,1,.07-.07h1L38,12.47a.08.08,0,0,1,0,.06.08.08,0,0,1,0,.05Z"/><path class="cls-8" d="M25.13,11.74a.08.08,0,0,1,.08-.07h1.1a.12.12,0,0,0,.12-.12V11.1a.11.11,0,0,0-.12-.11H23.17a.12.12,0,0,0-.12.11v.45a.12.12,0,0,0,.12.12h1.11a.07.07,0,0,1,.07.07V14a.12.12,0,0,0,.12.11H25a.11.11,0,0,0,.12-.11Z"/><path class="cls-8" d="M18,12.9h0a0,0,0,0,0,.05-.05V11.1a.11.11,0,0,1,.12-.11h.54a.11.11,0,0,1,.12.11v2.55c0,.26-.1.37-.2.42a.72.72,0,0,1-.58-.13l-1.95-1.7-.11-.1h0a0,0,0,0,0,0,0V14a.11.11,0,0,1-.12.11H15.3a.11.11,0,0,1-.12-.11V11.4c0-.26.1-.37.2-.41a.65.65,0,0,1,.58.13l1.95,1.69.09.09"/><path class="cls-8" d="M33.1,12.9h0a0,0,0,0,0,0-.05V11.1A.12.12,0,0,1,33.3,11h.55a.12.12,0,0,1,.12.11v2.55a.42.42,0,0,1-.21.42.72.72,0,0,1-.58-.13l-1.94-1.7-.12-.1h0a0,0,0,0,0-.05,0V14a.11.11,0,0,1-.11.11h-.55a.12.12,0,0,1-.12-.11V11.4c0-.26.11-.37.2-.41a.65.65,0,0,1,.58.13L33,12.81l.1.09"/><rect class="cls-8" x="34.22" y="10.99" width="0.78" height="3.08" rx="0.12" ry="0.12"/><path class="cls-8" d="M30,14l-1.92-2.78h0a.46.46,0,0,0-.38-.2h0a.45.45,0,0,0-.37.2h0L25.4,14a.05.05,0,0,0,0,0,.08.08,0,0,0,.08.07h.7a.06.06,0,0,0,.06,0l.5-.72a.08.08,0,0,1,.07,0h1.83a.1.1,0,0,1,.07,0l.49.72a.09.09,0,0,0,.07,0H30A.07.07,0,0,0,30,14a.05.05,0,0,0,0,0m-1.9-1.37h-.79a0,0,0,0,1,0,0v0l.4-.57h.07l.39.57a0,0,0,0,1,0,0,0,0,0,0,1,0,0"/></g></g></g><text class="cls-10" transform="translate(17.82 19.96)">REA<tspan class="cls-11" x="11.6" y="0">D</tspan><tspan class="cls-12" x="15.46" y="0">Y</tspan></text></g><g id="Outlined"><path class="cls-2" d="M46.83,34.32l-18.59,6a2.44,2.44,0,0,1-1.6,0l-18.59-6A2.47,2.47,0,0,1,6.38,32V3A2.46,2.46,0,0,1,8.85.52H46A2.47,2.47,0,0,1,48.5,3V32A2.47,2.47,0,0,1,46.83,34.32Z"/><path class="cls-3" d="M46,33.71l-17.8,5.76a2.39,2.39,0,0,1-1.54,0L8.87,33.71a2.37,2.37,0,0,1-1.6-2.24V3.77A2.36,2.36,0,0,1,9.63,1.41H45.25a2.36,2.36,0,0,1,2.36,2.36v27.7A2.37,2.37,0,0,1,46,33.71Z"/><line class="cls-4" x1="6.86" y1="7.78" x2="48.02" y2="7.78"/><line class="cls-4" x1="6.86" y1="23.61" x2="48.02" y2="23.61"/><path class="cls-8" d="M10.21,27.19a.22.22,0,1,1,.43,0v3.4a.22.22,0,1,1-.43,0Z"/><path class="cls-8" d="M11.69,27.19A.22.22,0,0,1,11.9,27H12a.26.26,0,0,1,.22.13L14.48,30V27.18a.21.21,0,1,1,.41,0V30.6a.19.19,0,0,1-.19.2h0a.32.32,0,0,1-.23-.13l-2.34-3V30.6a.21.21,0,0,1-.21.21.22.22,0,0,1-.21-.21Z"/><path class="cls-8" d="M16.91,27.39h-1.1a.19.19,0,0,1-.2-.19.2.2,0,0,1,.2-.2h2.62a.2.2,0,0,1,.2.2.19.19,0,0,1-.2.19H17.34v3.2a.22.22,0,0,1-.22.22.21.21,0,0,1-.21-.22Z"/><path class="cls-8" d="M19.35,30.56V27.21a.22.22,0,0,1,.21-.21h2.35a.2.2,0,1,1,0,.39H19.78v1.29h1.89a.19.19,0,0,1,.19.19.19.19,0,0,1-.19.2H19.78v1.32h2.16a.19.19,0,0,1,.19.2.19.19,0,0,1-.19.19H19.56A.22.22,0,0,1,19.35,30.56Z"/><path class="cls-8" d="M22.75,28.9h0a1.9,1.9,0,0,1,1.89-2,2,2,0,0,1,1.29.41.22.22,0,0,1,.09.17.22.22,0,0,1-.21.22.18.18,0,0,1-.13-.06,1.65,1.65,0,0,0-1.05-.34,1.48,1.48,0,0,0-1.44,1.55h0a1.46,1.46,0,0,0,1.5,1.57,1.79,1.79,0,0,0,1.09-.38v-.94h-1a.19.19,0,0,1-.19-.19.2.2,0,0,1,.19-.19H26a.22.22,0,0,1,.21.22v1.15a.31.31,0,0,1-.15.26,2.31,2.31,0,0,1-1.37.45A1.85,1.85,0,0,1,22.75,28.9Z"/><path class="cls-8" d="M27.1,27.21a.21.21,0,0,1,.21-.21h1.41a1.51,1.51,0,0,1,1.08.38,1.05,1.05,0,0,1,.29.74h0a1.1,1.1,0,0,1-1,1.1L30,30.44a.26.26,0,0,1,.07.16.23.23,0,0,1-.22.21.24.24,0,0,1-.2-.12l-1.06-1.38H27.52v1.28a.22.22,0,0,1-.21.22.21.21,0,0,1-.21-.22Zm1.58,1.72c.57,0,1-.29,1-.78h0c0-.47-.35-.75-1-.75H27.52v1.54Z"/><path class="cls-8" d="M30.71,30.5l1.54-3.36a.27.27,0,0,1,.27-.18h0a.26.26,0,0,1,.26.18l1.54,3.35a.52.52,0,0,1,0,.11.2.2,0,0,1-.2.21.24.24,0,0,1-.21-.16l-.4-.87H31.48l-.39.88a.23.23,0,0,1-.21.15.19.19,0,0,1-.19-.2A.23.23,0,0,1,30.71,30.5Zm2.68-1.11-.87-1.93-.87,1.93Z"/><path class="cls-8" d="M35.66,27.39h-1.1a.19.19,0,0,1-.2-.19.2.2,0,0,1,.2-.2h2.63a.2.2,0,0,1,.2.2.19.19,0,0,1-.2.19h-1.1v3.2a.22.22,0,1,1-.43,0Z"/><path class="cls-8" d="M38.11,30.56V27.21a.21.21,0,0,1,.21-.21h2.35a.2.2,0,0,1,.19.19.2.2,0,0,1-.19.2H38.53v1.29h1.89a.2.2,0,1,1,0,.39H38.53v1.32h2.16a.2.2,0,1,1,0,.39H38.32A.21.21,0,0,1,38.11,30.56Z"/><path class="cls-8" d="M41.67,27.21a.22.22,0,0,1,.21-.21H43a1.88,1.88,0,0,1,2,1.88h0a1.89,1.89,0,0,1-2,1.89h-1.1a.22.22,0,0,1-.21-.22ZM43,30.39a1.47,1.47,0,0,0,1.57-1.49h0A1.47,1.47,0,0,0,43,27.39H42.1v3Z"/><g id="Nutanix_CMYK_neg-2" data-name="Nutanix_CMYK_neg"><g class="cls-7"><g class="cls-7"><path class="cls-8" d="M34.93,11h-.64a.07.07,0,0,0-.07.07V14a.07.07,0,0,0,.07.07h.64A.07.07,0,0,0,35,14V11.06a.07.07,0,0,0-.07-.07"/><path class="cls-8" d="M40,13.64h-.13a0,0,0,1,1,0-.08h.34a0,0,0,1,1,0,.08H40V14A0,0,0,1,1,40,14Z"/><path class="cls-8" d="M40.3,13.6a0,0,0,0,1,0,0h0l0,0,.15.24.15-.24,0,0h0a0,0,0,0,1,0,0V14s0,0,0,0a0,0,0,0,1,0,0v-.3l-.12.18s0,0,0,0,0,0,0,0l-.12-.18V14a0,0,0,0,1,0,0s0,0,0,0Z"/><path class="cls-8" d="M22.68,11h-.54a.12.12,0,0,0-.12.11v2c0,.21-.29.28-.65.28h-.81c-.36,0-.66-.07-.66-.28v-2a.11.11,0,0,0-.11-.11h-.55a.12.12,0,0,0-.12.11v2.05a.82.82,0,0,0,.45.75,3,3,0,0,0,1.17.16h.44a3,3,0,0,0,1.18-.16.81.81,0,0,0,.44-.75V11.1a.11.11,0,0,0-.12-.11"/><path class="cls-8" d="M38.65,11s0,0,.05,0h.89a.07.07,0,0,1,.07.07.05.05,0,0,1,0,0l-1.31,1.14a.06.06,0,0,1-.1,0l-.45-.39a.08.08,0,0,1,0,0,.06.06,0,0,1,0-.06Z"/><path class="cls-8" d="M38.65,14s0,0,.05,0h.89a.07.07,0,0,0,.07-.07.05.05,0,0,0,0-.05L38.32,12.8a.06.06,0,0,0-.1,0l-.45.39a.08.08,0,0,0,0,0,.06.06,0,0,0,0,.06Z"/><path class="cls-9" d="M36.27,14.05h-1a.07.07,0,0,1-.07-.07.08.08,0,0,1,0-.05l1.57-1.36a.08.08,0,0,0,0-.05.11.11,0,0,0,0-.06l-1.56-1.36a.05.05,0,0,1,0,0,.07.07,0,0,1,.07-.07h1L38,12.47a.08.08,0,0,1,0,.06.08.08,0,0,1,0,.05Z"/><path class="cls-8" d="M25.13,11.74a.08.08,0,0,1,.08-.07h1.1a.12.12,0,0,0,.12-.12V11.1a.11.11,0,0,0-.12-.11H23.17a.12.12,0,0,0-.12.11v.45a.12.12,0,0,0,.12.12h1.11a.07.07,0,0,1,.07.07V14a.12.12,0,0,0,.12.11H25a.11.11,0,0,0,.12-.11Z"/><path class="cls-8" d="M18,12.9h0a0,0,0,0,0,.05-.05V11.1a.11.11,0,0,1,.12-.11h.54a.11.11,0,0,1,.12.11v2.55c0,.26-.1.37-.2.42a.72.72,0,0,1-.58-.13l-1.95-1.7-.11-.1h0a0,0,0,0,0,0,0V14a.11.11,0,0,1-.12.11H15.3a.11.11,0,0,1-.12-.11V11.4c0-.26.1-.37.2-.41a.65.65,0,0,1,.58.13l1.95,1.69.09.09"/><path class="cls-8" d="M33.1,12.9h0a0,0,0,0,0,0-.05V11.1A.12.12,0,0,1,33.3,11h.55a.12.12,0,0,1,.12.11v2.55a.42.42,0,0,1-.21.42.72.72,0,0,1-.58-.13l-1.94-1.7-.12-.1h0a0,0,0,0,0-.05,0V14a.11.11,0,0,1-.11.11h-.55a.12.12,0,0,1-.12-.11V11.4c0-.26.11-.37.2-.41a.65.65,0,0,1,.58.13L33,12.81l.1.09"/><rect class="cls-8" x="34.22" y="10.99" width="0.78" height="3.08" rx="0.12" ry="0.12"/><path class="cls-8" d="M30,14l-1.92-2.78h0a.46.46,0,0,0-.38-.2h0a.45.45,0,0,0-.37.2h0L25.4,14a.05.05,0,0,0,0,0,.08.08,0,0,0,.08.07h.7a.06.06,0,0,0,.06,0l.5-.72a.08.08,0,0,1,.07,0h1.83a.1.1,0,0,1,.07,0l.49.72a.09.09,0,0,0,.07,0H30A.07.07,0,0,0,30,14a.05.05,0,0,0,0,0m-1.9-1.37h-.79a0,0,0,0,1,0,0v0l.4-.57h.07l.39.57a0,0,0,0,1,0,0,0,0,0,0,1,0,0"/></g></g></g><path class="cls-8" d="M18.28,16.87a.2.2,0,0,1,.18-.19h1.23a1.31,1.31,0,0,1,.93.33.91.91,0,0,1,.26.65h0a1,1,0,0,1-.88.95l.82,1.05a.22.22,0,0,1,.06.13.2.2,0,0,1-.19.19.22.22,0,0,1-.17-.1l-.93-1.2h-.94V19.8a.19.19,0,0,1-.19.19.2.2,0,0,1-.18-.19Zm1.38,1.49c.49,0,.84-.26.84-.68h0c0-.4-.31-.64-.84-.64h-1v1.33Z"/><path class="cls-8" d="M22.14,19.78V16.87a.19.19,0,0,1,.18-.19h2a.18.18,0,0,1,.17.17.17.17,0,0,1-.17.17H22.51v1.12h1.64a.17.17,0,0,1,0,.34H22.51v1.15h1.87a.17.17,0,0,1,.17.16.17.17,0,0,1-.17.17H22.32A.18.18,0,0,1,22.14,19.78Z"/><path class="cls-8" d="M25.54,19.72l1.33-2.91a.25.25,0,0,1,.24-.16h0a.23.23,0,0,1,.23.16l1.33,2.91a.16.16,0,0,1,0,.09.18.18,0,0,1-.18.18.19.19,0,0,1-.18-.14L28,19.1h-1.8l-.35.76a.18.18,0,0,1-.17.13.17.17,0,0,1-.17-.17A.2.2,0,0,1,25.54,19.72Zm2.32-1-.75-1.68-.76,1.68Z"/><path class="cls-8" d="M29.88,16.87a.2.2,0,0,1,.19-.19H31a1.63,1.63,0,0,1,1.74,1.63h0A1.64,1.64,0,0,1,31,20h-.95a.19.19,0,0,1-.19-.18ZM31,19.62a1.27,1.27,0,0,0,1.36-1.29h0A1.27,1.27,0,0,0,31,17h-.77v2.59Z"/><path class="cls-8" d="M34.75,18.68,33.53,17a.28.28,0,0,1,0-.13.2.2,0,0,1,.19-.18.23.23,0,0,1,.18.11l1.08,1.56L36,16.77a.23.23,0,0,1,.18-.11.19.19,0,0,1,.18.18.34.34,0,0,1,0,.14l-1.22,1.69V19.8a.19.19,0,1,1-.37,0Z"/></g></g></svg>