<?xml version="1.0" encoding="UTF-8"?>
<svg width="500px" height="501px" viewBox="0 0 500 501" version="1.1" xmlns="http://www.w3.org/2000/svg" xmlns:xlink="http://www.w3.org/1999/xlink">
    <!-- Generator: Sketch 51.2 (57519) - http://www.bohemiancoding.com/sketch -->
    <title>icon_supportCase</title>
    <desc>Created with Sketch.</desc>
    <defs></defs>
    <g id="Page-1" stroke="none" stroke-width="1" fill="none" fill-rule="evenodd">
        <g id="supportCase" fill-rule="nonzero">
            <rect id="Rectangle-path" fill="#FF731C" x="0" y="0" width="500" height="500.008"></rect>
            <g id="_x33_3" transform="translate(62.000000, 62.000000)" fill="#FFFFFF">
                <path d="M350.341,188.006 C350.341,184.315 350.201,180.659 349.967,177.033 L375.5,161.169 C374.533,154.343 373.199,147.619 371.529,141.035 L341.881,136.164 C339.537,129.17 336.711,122.394 333.459,115.861 L350.963,91.457 C347.463,85.561 343.654,79.863 339.553,74.385 L310.285,81.233 C305.465,75.718 300.279,70.54 294.771,65.72 L301.613,36.452 C296.141,32.344 290.435,28.542 284.547,25.034 L260.143,42.546 C253.61,39.302 246.842,36.475 239.84,34.116 L234.963,4.474 C228.385,2.797 221.662,1.479 214.836,0.504 L198.971,26.036 C195.354,25.795 191.692,25.663 188,25.663 C184.309,25.663 180.66,25.795 177.043,26.036 L161.164,0.504 C154.345,1.479 147.613,2.797 141.037,4.474 L136.174,34.116 C129.156,36.474 122.389,39.302 115.856,42.546 L91.452,25.034 C85.563,28.542 79.858,32.344 74.388,36.452 L81.243,65.72 C75.72,70.539 70.534,75.718 65.722,81.233 L36.448,74.385 C32.346,79.864 28.538,85.562 25.036,91.457 L42.542,115.861 C39.29,122.394 36.478,129.17 34.118,136.164 L4.485,141.035 C2.799,147.619 1.481,154.343 0.501,161.169 L26.032,177.033 C25.798,180.659 25.659,184.314 25.659,188.006 C25.659,191.694 25.798,195.341 26.032,198.974 L0.5,214.823 C1.48,221.665 2.799,228.387 4.484,234.966 L34.117,239.843 C36.476,246.845 39.289,253.613 42.541,260.146 L25.035,284.55 C28.537,290.454 32.346,296.152 36.447,301.616 L65.721,294.774 C70.533,300.297 75.718,305.467 81.242,310.288 L74.387,339.555 C79.858,343.657 85.563,347.465 91.451,350.965 L115.855,333.461 C122.388,336.713 129.156,339.539 136.173,341.899 L141.036,371.532 C147.612,373.218 154.344,374.536 161.163,375.503 L177.042,349.97 C180.659,350.22 184.308,350.351 187.999,350.351 C191.69,350.351 195.352,350.22 198.97,349.97 L214.835,375.503 C221.661,374.536 228.384,373.218 234.962,371.532 L239.839,341.899 C246.841,339.54 253.609,336.713 260.142,333.461 L284.546,350.965 C290.435,347.465 296.141,343.656 301.612,339.555 L294.77,310.288 C300.278,305.468 305.463,300.298 310.284,294.774 L339.552,301.616 C343.654,296.151 347.462,290.454 350.962,284.55 L333.458,260.146 C336.71,253.613 339.536,246.845 341.88,239.843 L371.528,234.966 C373.198,228.388 374.532,221.665 375.499,214.823 L349.966,198.973 C350.201,195.341 350.341,191.694 350.341,188.006 Z M324.12,188.006 C324.12,208.437 319.477,227.743 311.376,245.161 L329.467,259.37 L320.531,274.839 L299.188,266.269 C276.724,298.085 241.056,319.869 200.171,323.515 L196.935,346.191 L179.064,346.191 L175.819,323.515 C134.943,319.869 99.266,298.085 76.81,266.269 L55.467,274.839 L46.525,259.37 L64.623,245.161 C56.522,227.743 51.871,208.436 51.871,188.006 C51.871,167.585 56.522,148.264 64.623,130.855 L46.525,116.646 L55.467,101.169 L76.81,109.738 C99.266,77.922 134.943,56.139 175.819,52.492 L179.064,29.816 L196.935,29.816 L200.171,52.492 C241.056,56.139 276.724,77.922 299.188,109.738 L320.531,101.169 L329.467,116.638 L311.369,130.847 C319.477,148.264 324.12,167.585 324.12,188.006 Z" id="Shape"></path>
                <g id="Group" transform="translate(85.000000, 85.000000)">
                    <polygon id="Shape" points="140.074 80.124 151.977 80.124 151.977 61.777 151.603 61.652"></polygon>
                    <path d="M103,0.73 C46.508,0.73 0.725,46.514 0.725,103.006 C0.725,159.501 46.508,205.279 103,205.279 C159.491,205.279 205.275,159.502 205.275,103.006 C205.275,46.514 159.491,0.73 103,0.73 Z M99.154,7.482 C99.154,5.366 100.868,3.652 103,3.652 C105.116,3.652 106.838,5.366 106.838,7.482 L106.838,20.944 C106.838,23.076 105.116,24.797 103,24.797 C100.868,24.797 99.154,23.076 99.154,20.944 L99.154,7.482 Z M118.688,56.818 C117.451,55.288 115.715,54.518 113.496,54.518 C111.087,54.518 109.263,55.382 107.995,57.125 C106.743,58.861 106.128,60.912 106.172,63.263 L97.793,63.263 C97.595,59.337 98.862,55.631 101.572,52.138 C104.303,48.644 108.303,46.901 113.548,46.901 C118.499,46.901 122.351,48.447 125.083,51.552 C127.808,54.643 129.17,58.033 129.17,61.71 C129.17,65.351 128.181,68.17 126.226,70.177 C124.255,72.177 122.3,73.898 120.367,75.356 L111.563,81.86 C110.406,82.731 109.512,83.471 108.875,84.087 C108.224,84.709 107.674,85.523 107.221,86.504 L128.981,86.504 L128.981,94.45 L97.303,94.45 C97.303,91.015 97.794,87.712 98.768,84.518 C99.743,81.347 102.401,78.183 106.782,75.041 L114.67,69.46 C115.93,68.516 117.212,67.476 118.449,66.369 C119.686,65.249 120.339,63.732 120.419,61.836 C120.512,60.02 119.94,58.342 118.688,56.818 Z M39.732,52.014 C44.647,48.674 49.906,40.948 54.418,42.683 C59.999,48.645 67.338,57.486 73.813,65.037 C75.82,67.41 78.764,70.45 78.831,72.478 C78.977,77.253 71.279,80.132 67.368,84.666 C58.242,73.98 49.108,63.294 39.983,52.615 C39.784,52.402 39.572,52.204 39.732,52.014 Z M20.939,106.855 L7.476,106.855 C5.36,106.855 3.646,105.123 3.646,103.006 C3.646,100.888 5.36,99.159 7.476,99.159 L20.939,99.159 C23.07,99.159 24.806,100.888 24.806,103.006 C24.807,105.122 23.07,106.855 20.939,106.855 Z M106.838,198.524 C106.838,200.649 105.116,202.362 103,202.362 C100.868,202.362 99.154,200.649 99.154,198.524 L99.154,185.063 C99.154,182.938 100.868,181.209 103,181.209 C105.116,181.209 106.838,182.938 106.838,185.063 L106.838,198.524 Z M102.281,171.382 C94.049,167.72 81.825,162.417 57.472,133.911 C33.126,105.429 30.197,84.805 30.314,76.88 C30.409,69.571 32.525,61.96 35.873,55.303 C45.058,65.329 54.169,76.587 63.303,87.076 C62.914,88.225 61.119,89.676 61.119,91.075 C61.135,92.232 63.713,97.916 64.364,99.242 C69.784,110.107 83.062,125.781 93.529,134.322 C98.297,138.189 103.827,143.99 108.617,140.093 C117.889,150.933 127.14,161.773 136.398,172.613 C125.529,176.054 113.107,176.186 102.281,171.382 Z M139.818,169.433 C130.685,158.74 121.566,148.046 112.425,137.368 C112.212,137.163 112.03,136.958 112.191,136.782 C117.062,133.589 122.079,125.971 126.437,127.261 C128.165,127.759 131.007,131.978 132.816,134.087 C138.631,140.897 146.828,150.259 151.353,156.103 C151.83,160.966 144.615,165.36 139.818,169.433 Z M164.934,87.939 L160.1,87.939 L160.1,95.058 L152.043,95.058 L151.977,87.939 L131.645,87.939 L131.645,78.754 L151.538,47.45 L160.1,47.45 L160.1,80.123 L164.934,80.123 L164.934,87.939 Z M198.508,106.855 L185.06,106.855 C182.928,106.855 181.207,105.123 181.207,103.006 C181.207,100.888 182.929,99.159 185.06,99.159 L198.507,99.159 C200.638,99.159 202.352,100.888 202.352,103.006 C202.352,105.122 200.639,106.855 198.508,106.855 Z" id="Shape"></path>
                </g>
            </g>
        </g>
    </g>
</svg>